<svg width="90" height="119" viewBox="0 0 90 119" fill="none" xmlns="http://www.w3.org/2000/svg">
<path d="M44.7212 118.976C45.2168 118.976 5.84051 100.437 0.488689 74.2278L0.0395508 0.149811H89.9019V74.2278C85.6462 100.094 44.7212 118.976 45.2168 118.976" fill="#135685"/>
<path d="M34.4548 37.9145C34.4548 38.4041 34.2741 38.8205 33.9127 39.162C33.5513 39.5035 33.1091 39.6742 32.5877 39.6742C32.1729 39.6742 31.8081 39.5557 31.4898 39.3188C31.1714 39.0818 30.946 38.7665 30.8135 38.3727L31.1559 38.2124C31.2471 38.5156 31.4123 38.77 31.6532 38.9703C31.9217 39.1986 32.2349 39.3118 32.5894 39.3118C32.9989 39.3118 33.3483 39.1724 33.6391 38.8954C33.9299 38.6184 34.0762 38.2856 34.0762 37.8971C34.0762 37.6305 33.9729 37.4005 33.7664 37.2088C33.5754 37.0329 33.1985 36.8081 32.6358 36.5311C32.0748 36.2541 31.7031 36.0328 31.5259 35.8655C31.285 35.6373 31.1645 35.3428 31.1645 34.9804C31.1645 34.5274 31.3091 34.1581 31.5982 33.8723C31.8873 33.5866 32.2607 33.4437 32.7184 33.4437C33.3465 33.4437 33.8284 33.7277 34.1622 34.2974L33.8938 34.5257C33.6219 34.0465 33.2209 33.8061 32.6909 33.8061C32.3726 33.8061 32.1024 33.9176 31.8787 34.1424C31.6567 34.3671 31.5448 34.6389 31.5448 34.9578C31.5448 35.2122 31.6309 35.423 31.8012 35.5902C31.9716 35.7575 32.3158 35.9631 32.8337 36.207C33.4859 36.5137 33.9196 36.7785 34.1347 37.0033C34.3498 37.228 34.4548 37.5312 34.4548 37.9145Z" fill="white"/>
<path d="M32.5874 39.9878C32.1073 39.9878 31.677 39.8484 31.3053 39.5714C30.9371 39.2961 30.6721 38.9285 30.5206 38.4755L30.4312 38.2089L31.3484 37.7768L31.4516 38.1218C31.5256 38.3675 31.6547 38.5678 31.8491 38.7299C32.0642 38.9111 32.3051 38.9999 32.5874 38.9999C32.9178 38.9999 33.1914 38.8919 33.4254 38.6689C33.6543 38.4511 33.7644 38.1985 33.7644 37.8988C33.7644 37.7193 33.6973 37.5747 33.5545 37.4423C33.4392 37.3378 33.1621 37.1409 32.4979 36.8151C31.9025 36.5224 31.5153 36.2872 31.3122 36.0972C31.0059 35.808 30.8528 35.4334 30.8528 34.9839C30.8528 34.4455 31.03 33.9978 31.3793 33.651C31.7269 33.3078 32.1761 33.1336 32.7147 33.1336C33.4564 33.1336 34.0329 33.4716 34.4252 34.1406L34.5595 34.3689L33.8074 35.0083L33.6233 34.6842C33.4065 34.3009 33.1088 34.1215 32.6889 34.1215C32.4531 34.1215 32.2587 34.2016 32.0952 34.3671C31.9317 34.5309 31.8526 34.726 31.8526 34.9613C31.8526 35.1303 31.9042 35.2609 32.0143 35.369C32.1141 35.4665 32.3602 35.6442 32.9625 35.9282C33.656 36.2541 34.1103 36.5363 34.3547 36.7907C34.6266 37.0747 34.7642 37.4545 34.7642 37.918C34.7642 38.4964 34.5491 38.993 34.1241 39.3954C33.7059 39.7875 33.1879 39.9878 32.5874 39.9878Z" fill="white"/>
<path d="M39.8377 33.8897H38.2373V39.5976H37.8587V33.8897H36.2583V33.5273H39.8377V33.8897Z" fill="white"/>
<path d="M38.5467 39.9094H37.5486V34.2016H35.9482V33.2137H40.1471V34.2016H38.5467V39.9094Z" fill="white"/>
<path d="M46.1291 37.6392C46.1291 38.2664 45.9467 38.7613 45.5818 39.1271C45.217 39.493 44.7231 39.676 44.1019 39.676C43.4772 39.676 42.9834 39.493 42.6168 39.1271C42.2503 38.7613 42.0679 38.2664 42.0679 37.6392V33.5273H42.4482V37.5521C42.4482 38.1149 42.5945 38.5504 42.8853 38.8553C43.1761 39.1602 43.5874 39.3136 44.1174 39.3136C44.6405 39.3136 45.0432 39.1602 45.3254 38.8553C45.6077 38.5504 45.7488 38.1166 45.7488 37.5521V33.5273H46.1291V37.6392Z" fill="white"/>
<path d="M44.1035 39.9878C43.398 39.9878 42.825 39.7735 42.4016 39.3502C41.9766 38.925 41.7598 38.3501 41.7598 37.6392V33.2155H42.7596V37.5538C42.7596 38.0382 42.8731 38.3919 43.1089 38.6393C43.3412 38.8832 43.6716 39.0017 44.119 39.0017C44.5561 39.0017 44.8779 38.885 45.0999 38.6428C45.3253 38.3988 45.4406 38.0312 45.4406 37.5538V33.2155H46.4387V37.6392C46.4387 38.3501 46.2236 38.925 45.8003 39.3502C45.377 39.7735 44.8056 39.9878 44.1035 39.9878Z" fill="white"/>
<path d="M53.2205 36.5624C53.2205 37.4719 52.9263 38.2054 52.3395 38.7612C51.7526 39.3188 50.9852 39.5958 50.037 39.5958H48.958V33.5273H50.1573C51.0521 33.5273 51.7871 33.8113 52.3601 34.3776C52.9349 34.9456 53.2205 35.6739 53.2205 36.5624ZM52.8366 36.5624C52.8366 35.7836 52.5819 35.1442 52.0726 34.6424C51.5632 34.1406 50.9094 33.8897 50.1127 33.8897H49.3399V39.2352H50.0817C50.8767 39.2352 51.5341 38.9825 52.0555 38.4772C52.5769 37.9702 52.8366 37.3326 52.8366 36.5624Z" fill="white"/>
<path d="M50.0372 39.9094H48.6484V33.2137H50.1576C51.1333 33.2137 51.9473 33.5308 52.5771 34.1546C53.2104 34.7801 53.5305 35.5902 53.5305 36.5624C53.5305 37.5573 53.2001 38.3744 52.5513 38.9895C51.9077 39.601 51.0611 39.9094 50.0372 39.9094ZM49.6482 38.9215H50.0802C50.7978 38.9215 51.3743 38.702 51.8406 38.249C52.3035 37.8012 52.5272 37.2489 52.5272 36.5607C52.5272 35.8638 52.3087 35.3097 51.8561 34.8654C51.4018 34.4194 50.8322 34.2016 50.1112 34.2016H49.6482V38.9215Z" fill="white"/>
<path d="M58.9733 33.5273L56.9771 37.005V39.5958H56.5933V37.0067L54.5972 33.5273H55.0188L56.7844 36.606L58.5499 33.5273H58.9733Z" fill="white"/>
<path d="M57.2866 39.9094H56.2834V37.0904L54.0601 33.2137H55.1975L56.7859 35.9823L58.3725 33.2137H59.51L57.2866 37.0904V39.9094Z" fill="white"/>
<path d="M36.6954 20.899C36.6954 23.4341 35.6955 25.5615 33.6959 27.2829C31.834 28.8823 29.7019 29.6838 27.3013 29.6838C24.4567 29.6838 22.0217 28.6785 19.9963 26.6678C17.9709 24.6572 16.959 22.2371 16.959 19.4076C16.959 16.5782 17.9657 14.1564 19.9774 12.1422C21.989 10.1264 24.4137 9.11932 27.2497 9.11932C29.0187 9.11932 30.6879 9.56884 32.2607 10.4696C33.7131 11.3094 34.9091 12.421 35.8487 13.8044L34.8231 14.6215C32.8751 11.7502 30.33 10.3145 27.1843 10.3145C24.7837 10.3145 22.6877 11.2223 20.898 13.0395C19.1084 14.8568 18.2135 16.9789 18.2135 19.4111C18.2135 21.8678 19.0929 23.9951 20.8533 25.7949C22.6137 27.5948 24.6976 28.4938 27.1068 28.4938C29.2166 28.4938 31.1009 27.8108 32.7581 26.4431C34.5426 24.9639 35.4357 23.1431 35.4357 20.9809H28.3493V19.7875H36.6919V20.899H36.6954Z" fill="white"/>
<path d="M27.3011 30.5567C24.2345 30.5567 21.5741 29.4573 19.3921 27.2899C17.2049 25.1172 16.0967 22.4654 16.0967 19.4076C16.0967 16.3499 17.198 13.6964 19.3697 11.5202C21.5397 9.34757 24.1898 8.24469 27.2494 8.24469C29.1596 8.24469 30.9888 8.73602 32.6839 9.70649C34.2464 10.609 35.5491 11.8199 36.5592 13.3061L37.0169 13.9804L34.6336 15.8812L34.1122 15.1129C32.319 12.4698 30.0527 11.184 27.1858 11.184C25.0038 11.184 23.147 11.9907 21.5104 13.6528C19.8739 15.315 19.0772 17.1967 19.0772 19.4076C19.0772 21.6465 19.8584 23.5317 21.4674 25.1764C23.073 26.8177 24.9194 27.6157 27.1083 27.6157C29.0322 27.6157 30.7015 27.0093 32.2158 25.7619C33.5546 24.6537 34.3135 23.3662 34.5183 21.8504H27.4886V18.9093H37.5573V20.8991C37.5573 23.6902 36.4456 26.0615 34.255 27.9485C32.2399 29.6803 29.9013 30.5567 27.3011 30.5567Z" fill="white"/>
<path d="M52.274 23.8697C52.274 25.4866 51.6786 26.8595 50.486 27.9885C49.2935 29.1175 47.8359 29.6821 46.1099 29.6821C44.7436 29.6821 43.5338 29.29 42.4841 28.5077C41.4327 27.7254 40.6893 26.6853 40.2539 25.3873L41.3811 24.8558C41.6805 25.8594 42.2277 26.694 43.021 27.3595C43.909 28.1122 44.938 28.4886 46.1099 28.4886C47.4591 28.4886 48.6155 28.0303 49.5774 27.1139C50.5377 26.1974 51.0195 25.098 51.0195 23.8192C51.0195 22.9376 50.6771 22.1797 49.9939 21.5489C49.3606 20.9687 48.1182 20.223 46.2648 19.3101C44.4115 18.3971 43.1897 17.6653 42.5994 17.1113C41.8044 16.3586 41.4069 15.3864 41.4069 14.1912C41.4069 12.6945 41.8835 11.4749 42.8352 10.5323C43.7885 9.58971 45.0206 9.11755 46.5315 9.11755C48.6069 9.11755 50.1969 10.0567 51.2983 11.9331L50.4138 12.6858C49.5172 11.102 48.1922 10.311 46.4403 10.311C45.3889 10.311 44.4975 10.6804 43.7627 11.4209C43.0279 12.1596 42.6596 13.0587 42.6596 14.1128C42.6596 14.9526 42.9419 15.6477 43.5046 16.2018C44.069 16.7558 45.2048 17.4336 46.9136 18.2385C49.0663 19.2508 50.4981 20.1272 51.2071 20.8659C51.9195 21.6064 52.274 22.6083 52.274 23.8697Z" fill="white"/>
<path d="M46.11 30.5567C44.5612 30.5567 43.169 30.1037 41.9713 29.2134C40.7805 28.3265 39.927 27.1348 39.4365 25.6712L39.187 24.929L41.9197 23.6397L42.2071 24.6049C42.4583 25.4482 42.904 26.1295 43.5717 26.6888C44.31 27.3142 45.1394 27.6174 46.11 27.6174C47.2423 27.6174 48.1818 27.2446 48.9855 26.4797C49.7736 25.7287 50.1556 24.8593 50.1556 23.8192C50.1556 23.1797 49.9199 22.6623 49.4122 22.1936C49.0233 21.8382 48.0941 21.183 45.888 20.0958C43.94 19.1376 42.6717 18.3692 42.0126 17.7507C41.0386 16.8273 40.5448 15.6303 40.5448 14.1912C40.5448 12.4576 41.1126 11.0166 42.2329 9.9068C43.348 8.80391 44.7952 8.2429 46.5333 8.2429C48.9253 8.2429 50.7786 9.33359 52.0417 11.4853L52.4168 12.123L50.1815 14.0256L49.6687 13.1196C48.9201 11.7989 47.8962 11.1839 46.4438 11.1839C45.623 11.1839 44.9449 11.4644 44.3736 12.0394C43.8023 12.6126 43.5252 13.2904 43.5252 14.1128C43.5252 14.7191 43.7111 15.1843 44.1086 15.5746C44.4476 15.9073 45.2719 16.5015 47.2801 17.4458C49.5499 18.5138 51.0384 19.432 51.8283 20.2561C52.6956 21.1621 53.1361 22.3765 53.1361 23.868C53.1361 25.7287 52.4426 27.3299 51.0746 28.6245C49.7254 29.9085 48.0545 30.5567 46.11 30.5567Z" fill="white"/>
<path d="M72.9807 13.4768C71.1945 11.3669 68.9523 10.311 66.2523 10.311C63.8775 10.311 61.797 11.2188 60.0108 13.036C58.2245 14.8532 57.3331 16.9754 57.3331 19.4076C57.3331 21.812 58.2349 23.9272 60.0366 25.7514C61.8383 27.5773 63.9274 28.4886 66.3022 28.4886C68.849 28.4886 71.0655 27.4815 72.9532 25.4657V27.1905C70.988 28.851 68.9213 29.6821 66.7513 29.6821C63.8121 29.6821 61.298 28.6767 59.2089 26.6661C57.1197 24.6555 56.0752 22.2354 56.0752 19.4059C56.0752 16.6287 57.0974 14.2208 59.1435 12.1788C61.1895 10.1368 63.6056 9.11755 66.3899 9.11755C68.9609 9.11755 71.1567 9.97825 72.9773 11.6997V13.4768H72.9807Z" fill="white"/>
<path d="M66.7531 30.5567C63.5988 30.5567 60.8609 29.4608 58.617 27.3003C56.3592 25.1277 55.2148 22.4724 55.2148 19.4076C55.2148 16.4022 56.3334 13.7609 58.5412 11.5586C60.7456 9.35977 63.3871 8.24469 66.3935 8.24469C69.1778 8.24469 71.5921 9.19251 73.5694 11.062L73.843 11.3216V15.8412L72.3252 14.0466C70.6973 12.1213 68.7097 11.1857 66.2523 11.1857C64.0961 11.1857 62.2548 11.9924 60.6235 13.6528C58.9904 15.315 58.1971 17.1967 58.1971 19.4076C58.1971 21.5908 58.999 23.4655 60.6476 25.1346C62.2961 26.8055 64.1477 27.6174 66.304 27.6174C68.6237 27.6174 70.5958 26.7184 72.3286 24.8663L73.8172 23.2773V27.6017L73.5074 27.8631C71.3925 29.6507 69.121 30.5567 66.7531 30.5567Z" fill="white"/>
<path d="M17.7642 74.0588C18.6852 74.0588 19.4317 73.3028 19.4317 72.3705C19.4317 71.438 18.6852 70.6822 17.7642 70.6822C16.8432 70.6822 16.0967 71.438 16.0967 72.3705C16.0967 73.3028 16.8432 74.0588 17.7642 74.0588Z" fill="white"/>
<path d="M72.1773 74.0588C73.0983 74.0588 73.8448 73.3028 73.8448 72.3705C73.8448 71.438 73.0983 70.6822 72.1773 70.6822C71.2564 70.6822 70.5098 71.438 70.5098 72.3705C70.5098 73.3028 71.2564 74.0588 72.1773 74.0588Z" fill="white"/>
<path d="M61.3392 85.1956C61.2136 85.0197 61.0759 84.8489 60.9193 84.6886C60.7455 84.5144 60.5614 84.3628 60.3686 84.2252L50.0023 73.8741C50.1675 73.8044 50.3241 73.7016 50.46 73.564C51.0107 73.0064 51.0107 72.1022 50.46 71.5446L49.7545 70.8303L50.312 70.2675C50.7629 69.811 50.8438 69.1211 50.5547 68.5792C52.5027 68.0635 55.0564 67.2376 56.0287 66.2515C56.8942 65.3768 57.3348 64.2321 57.3537 63.0805C58.4602 63.7495 59.6545 64.2635 60.909 64.6032C61.0501 64.6381 61.1912 64.6747 61.3306 64.7095C65.7101 65.7601 69.7025 61.7006 68.682 57.2855C68.6476 57.1252 68.6115 56.9824 68.577 56.8395C68.1899 55.416 67.5927 54.0797 66.8011 52.8513C67.0644 52.7085 67.2744 52.5482 67.4344 52.3879C68.7182 51.1073 68.7182 48.9869 67.4344 47.7063C66.1507 46.4065 64.0753 46.4065 62.8088 47.7063C62.6333 47.884 62.4749 48.1332 62.3166 48.4189C61.1912 47.7063 59.9591 47.1714 58.6753 46.816C58.517 46.7794 58.3776 46.7445 58.2365 46.7079C53.857 45.6573 49.8663 49.7187 50.8851 54.1511C50.9212 54.294 50.9556 54.4368 51.009 54.578C51.3669 55.9317 51.9262 57.228 52.6593 58.4198C51.5528 58.4581 50.4583 58.9041 49.6151 59.7579C48.6463 60.7371 47.834 63.2982 47.3247 65.2653C46.7774 64.9012 46.034 64.9622 45.5522 65.45L44.9964 66.0128L44.3132 65.3211C43.8313 64.8332 43.0879 64.7722 42.5407 65.1364C42.0296 63.1693 41.2174 60.6081 40.2503 59.6289C39.29 58.6567 38.0029 58.2142 36.7432 58.2978C37.6088 56.9998 38.2627 55.5641 38.6654 54.0483C38.7032 53.9037 38.7394 53.7591 38.7738 53.6145C39.8046 49.1873 35.8019 45.1329 31.4275 46.1765C31.2847 46.2096 31.1419 46.2462 30.999 46.2846C29.5673 46.6748 28.2078 47.2968 26.9723 48.1175C26.9688 48.1122 26.9671 48.107 26.9637 48.1018C26.8226 47.8352 26.6642 47.6209 26.5059 47.4606C25.2394 46.1609 23.1468 46.1609 21.8803 47.4606C20.5965 48.7604 20.5965 50.8616 21.8803 52.144C22.0575 52.3217 22.3036 52.482 22.5841 52.6423C22.6013 52.651 22.6185 52.6597 22.6357 52.6684C21.9595 53.8026 21.438 55.0275 21.0973 56.3098C21.0577 56.4544 21.0233 56.5991 20.9889 56.7454C19.9598 61.1726 23.9625 65.2252 28.3369 64.1816C28.4797 64.1485 28.6226 64.1119 28.7637 64.0736C30.0956 63.7094 31.3673 63.1467 32.534 62.4097C32.4015 63.7356 32.8352 65.1103 33.8367 66.1243C34.809 67.1087 37.3627 67.9345 39.3107 68.4503C39.0216 68.9921 39.1025 69.6821 39.5533 70.1386L40.2365 70.8303L39.4053 71.6736C38.8547 72.2311 38.8547 73.1354 39.4053 73.6929C39.5396 73.8305 39.6962 73.9333 39.8631 74.003L29.7084 84.1398C29.5157 84.2792 29.3281 84.4308 29.156 84.6067C28.9977 84.767 28.86 84.9378 28.7327 85.1155L23.0384 90.7989C22.4878 91.3565 22.4878 92.2607 23.0384 92.8183C23.5891 93.3758 24.4822 93.3758 25.0329 92.8183L28.3541 89.5044C28.5537 89.9173 28.817 90.3041 29.156 90.6473C29.5019 90.9976 29.896 91.2711 30.3159 91.4732L28.9099 92.8984C28.3593 93.456 28.3593 94.3602 28.9099 94.9178L32.8902 98.9477C33.4409 99.5053 34.334 99.5053 34.8847 98.9477C35.4354 98.3902 35.4354 97.4859 34.8847 96.9284L31.9008 93.9072L34.1241 91.6561L37.108 94.6773C37.6587 95.2349 38.5518 95.2349 39.1025 94.6773C39.6531 94.1198 39.6531 93.2155 39.1025 92.658L36.1185 89.6368L38.3419 87.3857L41.3258 90.4069C41.8765 90.9644 42.7696 90.9644 43.3203 90.4069C43.8709 89.8494 43.8709 88.9451 43.3203 88.3876L39.34 84.3576C38.7893 83.8001 37.8962 83.8001 37.3455 84.3576L35.9378 85.7811C35.7382 85.3559 35.4681 84.957 35.1222 84.6067C34.7987 84.2792 34.4338 84.0178 34.0466 83.8192L41.8593 76.0206C41.9281 76.1914 42.0313 76.3534 42.169 76.4928C42.7197 77.0503 43.6128 77.0503 44.1635 76.4928L44.9964 75.6495L45.7019 76.3639C46.2526 76.9214 47.1457 76.9214 47.6964 76.3639C47.834 76.2245 47.9355 76.0642 48.0044 75.8917L56.0269 83.9028C55.6398 84.1015 55.2767 84.3611 54.9531 84.6886C54.6055 85.0406 54.3371 85.4396 54.1357 85.8647L52.7298 84.4395C52.1791 83.8819 51.286 83.8819 50.7354 84.4395L46.7533 88.4712C46.2027 89.0287 46.2027 89.933 46.7533 90.4905C47.304 91.0481 48.1971 91.0481 48.7478 90.4905L51.7317 87.4694L53.9551 89.7204L50.9711 92.7416C50.4204 93.2991 50.4204 94.2034 50.9711 94.7609C51.5218 95.3185 52.4149 95.3185 52.9656 94.7609L55.9495 91.7398L58.1728 93.9908L55.1889 97.012C54.6382 97.5696 54.6382 98.4738 55.1889 99.0314C55.7396 99.5889 56.6327 99.5889 57.1833 99.0314L61.1654 94.9996C61.716 94.4421 61.716 93.5378 61.1654 92.9803L59.7577 91.5568C60.1776 91.353 60.5717 91.0812 60.9193 90.7292C61.2566 90.3877 61.5216 89.9992 61.7212 89.5863L65.0407 92.9019C65.5914 93.4594 66.4845 93.4594 67.0352 92.9019C67.5858 92.3444 67.5858 91.4401 67.0352 90.8826L61.3392 85.1956ZM56.7824 58.4842C56.3006 57.9947 56.3006 57.2002 56.7824 56.7106C57.0422 56.4475 58.2141 56.0084 59.608 55.6251C59.2277 57.0346 58.7941 58.2212 58.5359 58.4842C58.0524 58.9738 57.266 58.9738 56.7824 58.4842ZM64.2336 49.1663C64.7258 48.6663 65.5174 48.6663 65.9906 49.1663C66.4845 49.6472 66.4845 50.4469 65.9906 50.9278C65.9218 50.9993 65.7807 51.0881 65.569 51.1961C65.3763 50.9644 65.1646 50.7327 64.9357 50.501C64.6208 50.1804 64.3025 49.8964 63.9686 49.6281C64.0753 49.3981 64.1631 49.2378 64.2336 49.1663ZM58.061 49.4329C59.2208 49.7187 60.3463 50.217 61.3667 50.8756C62 51.285 62.5799 51.7659 63.1254 52.3164C63.5832 52.7799 64.0048 53.2782 64.3558 53.8131C65.1302 54.916 65.6757 56.1461 65.9906 57.4458C66.6428 60.1865 64.2164 62.6623 61.5078 61.9845C60.4839 61.7337 59.4979 61.3277 58.5824 60.7789C59.0918 60.629 59.5736 60.3503 59.9763 59.9426C60.9933 58.9146 61.7711 55.47 61.9862 54.4386C62.0568 54.0971 61.9535 53.7434 61.7109 53.496C61.4665 53.2503 61.1172 53.144 60.7799 53.2155C59.7612 53.4333 56.3591 54.2225 55.3421 55.2522C54.9704 55.6268 54.7105 56.0729 54.5556 56.5468C54.1203 55.7314 53.7916 54.8672 53.5765 53.9734C52.926 51.231 55.3524 48.7743 58.061 49.4329ZM51.6095 61.7772C52.2772 61.1012 53.3665 61.1012 54.0342 61.7772C54.7036 62.455 54.7036 63.5561 54.0342 64.2321C53.6763 64.5963 52.0518 65.2043 50.1245 65.7357C50.6493 63.7844 51.2499 62.1414 51.6095 61.7772ZM23.3224 48.9207C23.7973 48.4224 24.5889 48.4224 25.0639 48.9207C25.1344 48.9921 25.2222 49.135 25.3271 49.3475C25.3323 49.3563 25.3375 49.3685 25.3409 49.3789C25.1327 49.5671 24.9262 49.7605 24.7283 49.9626C24.4065 50.2884 24.1002 50.6281 23.8128 50.9836C23.8025 50.9784 23.7904 50.9731 23.7801 50.9679C23.5512 50.8616 23.3929 50.7728 23.3224 50.7013C22.8302 50.203 22.8302 49.4016 23.3224 48.9207ZM32.6201 58.2177C32.1365 58.7073 31.3518 58.7073 30.8683 58.2177C30.6084 57.9563 30.1748 56.7681 29.7962 55.3585C31.1883 55.7436 32.3602 56.1826 32.6201 56.444C33.1036 56.9336 33.1036 57.7298 32.6201 58.2177ZM34.0604 54.9857C33.0451 53.956 29.643 53.1667 28.6243 52.9507C28.287 52.8775 27.9359 52.9838 27.6933 53.2294C27.4489 53.4768 27.3457 53.8305 27.4162 54.172C27.6313 55.2035 28.4109 58.648 29.4279 59.6777C29.7979 60.0523 30.235 60.3154 30.7013 60.4722C29.896 60.9113 29.0442 61.2423 28.1631 61.4584C25.4562 62.1222 23.0247 59.662 23.6786 56.9196C24.1346 55.0135 25.1034 53.2399 26.5352 51.792C27.9669 50.3424 29.717 49.3597 31.6013 48.8998C34.3082 48.2377 36.738 50.6978 36.0824 53.4402C35.8346 54.4769 35.4336 55.4753 34.8881 56.4039C34.7401 55.8847 34.4648 55.3951 34.0604 54.9857ZM35.8312 64.1032C35.1617 63.4272 35.1617 62.326 35.8312 61.6483C36.4988 60.9723 37.5864 60.9723 38.2558 61.6483C38.6155 62.0124 39.2143 63.6554 39.7409 65.6068C37.8118 65.0754 36.1891 64.4673 35.8312 64.1032ZM33.1277 88.628C32.5822 89.1786 31.696 89.1786 31.1505 88.628C30.7031 88.1733 30.6239 87.4868 30.9113 86.9502L31.4895 86.3734C32.0178 86.0929 32.6855 86.1783 33.1277 86.6261C33.6715 87.1784 33.6715 88.0757 33.1277 88.628ZM47.3849 72.3635C47.7204 72.7033 47.7204 73.2538 47.3849 73.5936C47.0493 73.9333 46.5055 73.9333 46.17 73.5936L44.9052 72.313L43.6386 73.5936C43.303 73.9333 42.7593 73.9333 42.4237 73.5936C42.0881 73.2538 42.0881 72.7033 42.4237 72.3635L43.6902 71.0829L42.4237 69.8006C42.0881 69.4608 42.0881 68.9102 42.4237 68.5705C42.7593 68.2307 43.303 68.2307 43.6386 68.5705L44.9052 69.8528L46.17 68.5705C46.5055 68.2307 47.0493 68.2307 47.3849 68.5705C47.7204 68.9102 47.7204 69.4608 47.3849 69.8006L46.1201 71.0829L47.3849 72.3635ZM58.9231 88.7099C58.3793 89.2622 57.4914 89.2622 56.9476 88.7099C56.4021 88.1576 56.4021 87.2603 56.9476 86.7097C57.3899 86.2602 58.0575 86.1766 58.5858 86.4571L59.1623 87.032C59.4514 87.5687 59.3723 88.2569 58.9231 88.7099Z" fill="white"/>
</svg>
