<svg width="25" height="25" viewBox="0 0 25 25" fill="none" xmlns="http://www.w3.org/2000/svg">
<path d="M20.7981 4.34673C18.8896 1.58452 15.8648 0 12.5 0C9.13521 0 6.11046 1.58452 4.20191 4.34673C2.30274 7.09497 1.86422 10.5743 3.02652 13.6483C3.33741 14.4877 3.8316 15.3033 4.49185 16.0676L11.8345 24.6923C12.0006 24.8875 12.2439 25 12.5 25C12.7561 25 12.9994 24.8875 13.1655 24.6923L20.5061 16.0699C21.1693 15.3013 21.6628 14.4866 21.9711 13.6539C23.1358 10.5743 22.6973 7.09497 20.7981 4.34673ZM20.3342 13.0416C20.0965 13.6841 19.7084 14.3193 19.1813 14.9303C19.1798 14.9318 19.1783 14.9333 19.1772 14.935L12.5 22.7777L5.81876 14.9301C5.29195 14.3196 4.90382 13.6845 4.66373 13.0358C3.7025 10.4936 4.06729 7.61685 5.63985 5.34092C7.21734 3.05772 9.71793 1.74824 12.5 1.74824C15.282 1.74824 17.7823 3.05767 19.3599 5.34092C20.9327 7.61685 21.2978 10.4936 20.3342 13.0416Z" fill="white"/>
<path d="M12.5006 5.18647C9.80156 5.18647 7.60547 7.38228 7.60547 10.0816C7.60547 12.7809 9.80127 14.9767 12.5006 14.9767C15.1999 14.9767 17.3957 12.7809 17.3957 10.0816C17.3957 7.38257 15.1996 5.18647 12.5006 5.18647ZM12.5006 13.2284C10.7654 13.2284 9.35371 11.8167 9.35371 10.0815C9.35371 8.34639 10.7654 6.93467 12.5006 6.93467C14.2357 6.93467 15.6475 8.34639 15.6475 10.0815C15.6475 11.8167 14.2357 13.2284 12.5006 13.2284Z" fill="white"/>
</svg>
