<svg width="66" height="86" viewBox="0 0 66 86" fill="none" xmlns="http://www.w3.org/2000/svg">
<path d="M32.7953 85.9825C33.1588 85.9825 4.28285 72.5851 0.358176 53.6437L0.0288086 0.108337H65.9278V53.6437C62.807 72.3371 32.7953 85.9825 33.1588 85.9825" fill="#135685"/>
<path d="M25.267 27.4004C25.267 27.7542 25.1344 28.0551 24.8694 28.3019C24.6044 28.5487 24.2801 28.6721 23.8977 28.6721C23.5936 28.6721 23.3261 28.5865 23.0926 28.4152C22.8592 28.244 22.6938 28.0161 22.5967 27.7315L22.8478 27.6157C22.9147 27.8348 23.0358 28.0186 23.2125 28.1634C23.4094 28.3283 23.639 28.4102 23.899 28.4102C24.1993 28.4102 24.4555 28.3095 24.6688 28.1093C24.8821 27.9091 24.9893 27.6686 24.9893 27.3878C24.9893 27.1951 24.9136 27.0289 24.7622 26.8904C24.6221 26.7632 24.3457 26.6008 23.9331 26.4006C23.5217 26.2004 23.2491 26.0405 23.1191 25.9196C22.9425 25.7546 22.8541 25.5418 22.8541 25.2799C22.8541 24.9526 22.9601 24.6856 23.1721 24.4791C23.3841 24.2726 23.658 24.1694 23.9937 24.1694C24.4543 24.1694 24.8076 24.3746 25.0524 24.7864L24.8556 24.9513C24.6562 24.605 24.3621 24.4313 23.9735 24.4313C23.74 24.4313 23.5419 24.5119 23.3778 24.6743C23.215 24.8367 23.133 25.0332 23.133 25.2636C23.133 25.4474 23.1961 25.5998 23.321 25.7206C23.446 25.8415 23.6984 25.9901 24.0782 26.1664C24.5565 26.388 24.8745 26.5794 25.0322 26.7418C25.19 26.9042 25.267 27.1233 25.267 27.4004Z" fill="white"/>
<path d="M23.8976 28.8989C23.5455 28.8989 23.2301 28.7981 22.9575 28.5979C22.6874 28.399 22.4931 28.1333 22.382 27.8059L22.3164 27.6133L22.989 27.301L23.0647 27.5503C23.119 27.7279 23.2137 27.8727 23.3563 27.9898C23.514 28.1207 23.6907 28.1849 23.8976 28.1849C24.1399 28.1849 24.3406 28.1069 24.5122 27.9457C24.68 27.7883 24.7608 27.6057 24.7608 27.3892C24.7608 27.2595 24.7116 27.155 24.6068 27.0593C24.5223 26.9837 24.3191 26.8414 23.832 26.606C23.3954 26.3944 23.1114 26.2244 22.9625 26.0872C22.7379 25.8782 22.6256 25.6075 22.6256 25.2826C22.6256 24.8935 22.7556 24.5699 23.0117 24.3193C23.2667 24.0713 23.596 23.9454 23.991 23.9454C24.5349 23.9454 24.9577 24.1896 25.2454 24.6732L25.3438 24.8381L24.7924 25.3002L24.6573 25.066C24.4983 24.789 24.28 24.6593 23.9721 24.6593C23.7992 24.6593 23.6566 24.7172 23.5367 24.8369C23.4168 24.9552 23.3588 25.0962 23.3588 25.2662C23.3588 25.3884 23.3966 25.4828 23.4774 25.5609C23.5506 25.6314 23.7311 25.7598 24.1727 25.9651C24.6813 26.2005 25.0145 26.4045 25.1937 26.5883C25.393 26.7936 25.494 27.0681 25.494 27.403C25.494 27.821 25.3363 28.1799 25.0246 28.4708C24.7179 28.7541 24.338 28.8989 23.8976 28.8989Z" fill="white"/>
<path d="M29.2142 24.4918H28.0406V28.6168H27.763V24.4918H26.5894V24.2299H29.2142V24.4918Z" fill="white"/>
<path d="M28.2683 28.8422H27.5364V24.7172H26.3628V24.0032H29.442V24.7172H28.2683V28.8422Z" fill="white"/>
<path d="M33.8278 27.2015C33.8278 27.6548 33.6941 28.0124 33.4265 28.2768C33.159 28.5412 32.7968 28.6734 32.3412 28.6734C31.8831 28.6734 31.521 28.5412 31.2522 28.2768C30.9834 28.0124 30.8496 27.6548 30.8496 27.2015V24.2299H31.1285V27.1385C31.1285 27.5452 31.2358 27.86 31.449 28.0804C31.6623 28.3007 31.9639 28.4115 32.3526 28.4115C32.7362 28.4115 33.0315 28.3007 33.2385 28.0804C33.4455 27.86 33.5489 27.5465 33.5489 27.1385V24.2299H33.8278V27.2015Z" fill="white"/>
<path d="M32.3428 28.8988C31.8254 28.8988 31.4052 28.7439 31.0947 28.4379C30.783 28.1307 30.624 27.7152 30.624 27.2014V24.0045H31.3572V27.1397C31.3572 27.4898 31.4405 27.7454 31.6134 27.9242C31.7837 28.1005 32.026 28.1861 32.3541 28.1861C32.6747 28.1861 32.9107 28.1017 33.0735 27.9267C33.2388 27.7504 33.3233 27.4847 33.3233 27.1397V24.0045H34.0552V27.2014C34.0552 27.7152 33.8975 28.1307 33.5871 28.4379C33.2766 28.7439 32.8577 28.8988 32.3428 28.8988Z" fill="white"/>
<path d="M39.0287 26.4233C39.0287 27.0806 38.8129 27.6107 38.3826 28.0124C37.9522 28.4153 37.3894 28.6155 36.6941 28.6155H35.9028V24.2299H36.7823C37.4385 24.2299 37.9775 24.4351 38.3977 24.8443C38.8192 25.2548 39.0287 25.7811 39.0287 26.4233ZM38.7471 26.4233C38.7471 25.8605 38.5604 25.3984 38.1868 25.0357C37.8133 24.6731 37.3339 24.4918 36.7496 24.4918H36.1829V28.3548H36.7269C37.3099 28.3548 37.792 28.1723 38.1743 27.8071C38.5567 27.4407 38.7471 26.9798 38.7471 26.4233Z" fill="white"/>
<path d="M36.6937 28.8422H35.6753V24.0032H36.782C37.4976 24.0032 38.0945 24.2324 38.5563 24.6832C39.0207 25.1352 39.2555 25.7207 39.2555 26.4233C39.2555 27.1423 39.0132 27.7328 38.5374 28.1773C38.0654 28.6193 37.4445 28.8422 36.6937 28.8422ZM36.4085 28.1282H36.7252C37.2515 28.1282 37.6742 27.9696 38.0162 27.6422C38.3557 27.3186 38.5197 26.9194 38.5197 26.4221C38.5197 25.9184 38.3595 25.518 38.0276 25.1969C37.6944 24.8746 37.2767 24.7172 36.748 24.7172H36.4085V28.1282Z" fill="white"/>
<path d="M43.2467 24.2299L41.7829 26.7431V28.6155H41.5015V26.7444L40.0376 24.2299H40.3468L41.6415 26.4548L42.9363 24.2299H43.2467Z" fill="white"/>
<path d="M42.0102 28.8422H41.2745V26.8048L39.644 24.0032H40.4782L41.643 26.004L42.8065 24.0032H43.6406L42.0102 26.8048V28.8422Z" fill="white"/>
<path d="M26.9099 15.1035C26.9099 16.9355 26.1767 18.473 24.7103 19.717C23.3448 20.8729 21.7813 21.4521 20.0209 21.4521C17.9349 21.4521 16.1492 20.7256 14.6639 19.2725C13.1786 17.8195 12.4365 16.0705 12.4365 14.0256C12.4365 11.9808 13.1748 10.2306 14.65 8.77502C16.1252 7.31818 17.9033 6.59039 19.983 6.59039C21.2803 6.59039 22.5044 6.91525 23.6578 7.56623C24.7229 8.17315 25.6 8.97648 26.289 9.97625L25.5369 10.5668C24.1083 8.49171 22.2419 7.45417 19.9351 7.45417C18.1746 7.45417 16.6376 8.11019 15.3252 9.42348C14.0127 10.7368 13.3565 12.2704 13.3565 14.0282C13.3565 15.8036 14.0014 17.341 15.2923 18.6417C16.5833 19.9424 18.1115 20.5921 19.8783 20.5921C21.4254 20.5921 22.8073 20.0985 24.0225 19.1101C25.3312 18.0411 25.9861 16.7253 25.9861 15.1627H20.7894V14.3001H26.9073V15.1035H26.9099Z" fill="white"/>
<path d="M20.0203 22.083C17.7715 22.083 15.8205 21.2885 14.2203 19.7221C12.6164 18.1519 11.8037 16.2355 11.8037 14.0257C11.8037 11.8159 12.6114 9.89825 14.2039 8.32558C15.7953 6.75542 17.7387 5.95837 19.9824 5.95837C21.3832 5.95837 22.7246 6.31345 23.9676 7.0148C25.1135 7.66704 26.0688 8.54215 26.8096 9.61621L27.1452 10.1035L25.3974 11.4772L25.0151 10.9219C23.7001 9.01181 22.0381 8.08256 19.9357 8.08256C18.3356 8.08256 16.9739 8.66555 15.7738 9.86678C14.5737 11.068 13.9894 12.4279 13.9894 14.0257C13.9894 15.6437 14.5623 17.0061 15.7423 18.1948C16.9197 19.3809 18.2737 19.9576 19.8789 19.9576C21.2898 19.9576 22.5139 19.5194 23.6244 18.6178C24.6062 17.817 25.1627 16.8865 25.3129 15.791H20.1578V13.6656H27.5415V15.1035C27.5415 17.1207 26.7263 18.8344 25.1198 20.1981C23.6421 21.4497 21.9271 22.083 20.0203 22.083Z" fill="white"/>
<path d="M38.3343 17.2503C38.3343 18.4188 37.8976 19.411 37.0231 20.2269C36.1486 21.0428 35.0797 21.4508 33.814 21.4508C32.812 21.4508 31.9248 21.1675 31.155 20.6021C30.384 20.0368 29.8388 19.2851 29.5195 18.347L30.3461 17.9629C30.5657 18.6882 30.967 19.2914 31.5487 19.7723C32.1999 20.3163 32.9546 20.5883 33.814 20.5883C34.8033 20.5883 35.6514 20.2571 36.3568 19.5948C37.061 18.9325 37.4143 18.138 37.4143 17.2138C37.4143 16.5766 37.1632 16.0289 36.6622 15.5731C36.1978 15.1538 35.2866 14.6149 33.9275 13.9551C32.5684 13.2953 31.6724 12.7664 31.2396 12.366C30.6565 11.8221 30.365 11.1195 30.365 10.2557C30.365 9.17409 30.7146 8.29268 31.4125 7.61148C32.1116 6.93028 33.0151 6.58905 34.1231 6.58905C35.645 6.58905 36.8111 7.26773 37.6187 8.62384L36.9701 9.16779C36.3126 8.02322 35.3409 7.45157 34.0562 7.45157C33.2852 7.45157 32.6315 7.71851 32.0926 8.25365C31.5538 8.78753 31.2837 9.43725 31.2837 10.199C31.2837 10.8059 31.4907 11.3083 31.9034 11.7088C32.3173 12.1092 33.1502 12.599 34.4033 13.1807C35.982 13.9123 37.0319 14.5456 37.5519 15.0795C38.0743 15.6146 38.3343 16.3386 38.3343 17.2503Z" fill="white"/>
<path d="M33.8141 22.0829C32.6784 22.0829 31.6575 21.7555 30.7791 21.1121C29.9059 20.4712 29.2799 19.6099 28.9203 18.5522L28.7373 18.0158L30.7413 17.0841L30.952 17.7816C31.1363 18.3911 31.4631 18.8834 31.9528 19.2876C32.4941 19.7396 33.1024 19.9587 33.8141 19.9587C34.6445 19.9587 35.3335 19.6892 35.9228 19.1365C36.5008 18.5938 36.781 17.9655 36.781 17.2138C36.781 16.7517 36.6081 16.3777 36.2358 16.039C35.9506 15.7821 35.2692 15.3087 33.6513 14.523C32.2228 13.8304 31.2928 13.2751 30.8094 12.8281C30.0952 12.1608 29.733 11.2958 29.733 10.2557C29.733 9.00286 30.1494 7.96152 30.971 7.15945C31.7887 6.3624 32.85 5.95697 34.1246 5.95697C35.8787 5.95697 37.2378 6.7452 38.1641 8.30025L38.4392 8.76109L36.7999 10.1361L36.4238 9.48132C35.8749 8.52688 35.124 8.08242 34.0589 8.08242C33.457 8.08242 32.9598 8.28514 32.5408 8.70066C32.1219 9.11492 31.9187 9.60473 31.9187 10.199C31.9187 10.6372 32.055 10.9734 32.3465 11.2555C32.5951 11.496 33.1996 11.9253 34.6723 12.6078C36.3368 13.3796 37.4284 14.0432 38.0076 14.6388C38.6436 15.2936 38.9667 16.1712 38.9667 17.249C38.9667 18.5938 38.4581 19.7509 37.4549 20.6865C36.4655 21.6145 35.2401 22.0829 33.8141 22.0829Z" fill="white"/>
<path d="M53.52 9.73945C52.2101 8.21461 50.5658 7.45157 48.5857 7.45157C46.8443 7.45157 45.3186 8.10759 44.0086 9.42088C42.6987 10.7342 42.045 12.2678 42.045 14.0256C42.045 15.7632 42.7063 17.2918 44.0276 18.6102C45.3488 19.9297 46.8809 20.5883 48.6223 20.5883C50.49 20.5883 52.1154 19.8605 53.4998 18.4037V19.6502C52.0586 20.8502 50.543 21.4508 48.9517 21.4508C46.7963 21.4508 44.9526 20.7243 43.4206 19.2712C41.8886 17.8181 41.1226 16.0692 41.1226 14.0243C41.1226 12.0172 41.8722 10.2771 43.3726 8.80138C44.8731 7.32565 46.6449 6.58905 48.6867 6.58905C50.5721 6.58905 52.1823 7.21107 53.5175 8.45511V9.73945H53.52Z" fill="white"/>
<path d="M48.9526 22.083C46.6394 22.083 44.6317 21.291 42.9861 19.7297C41.3304 18.1595 40.4912 16.2406 40.4912 14.0257C40.4912 11.8537 41.3115 9.94484 42.9306 8.35328C44.5471 6.76423 46.4842 5.95837 48.6889 5.95837C50.7307 5.95837 52.5012 6.64335 53.9512 7.99442L54.1518 8.18203V11.4483L53.0388 10.1513C51.845 8.75998 50.3874 8.08382 48.5854 8.08382C47.0042 8.08382 45.6539 8.66681 44.4575 9.86678C43.2599 11.068 42.6782 12.4279 42.6782 14.0257C42.6782 15.6034 43.2662 16.9583 44.4752 18.1645C45.6841 19.3721 47.042 19.9588 48.6232 19.9588C50.3243 19.9588 51.7705 19.3091 53.0413 17.9706L54.1329 16.8223V19.9475L53.9058 20.1364C52.3548 21.4283 50.6891 22.083 48.9526 22.083Z" fill="white"/>
<path d="M13.0265 53.5215C13.7019 53.5215 14.2494 52.9752 14.2494 52.3014C14.2494 51.6275 13.7019 51.0813 13.0265 51.0813C12.3512 51.0813 11.8037 51.6275 11.8037 52.3014C11.8037 52.9752 12.3512 53.5215 13.0265 53.5215Z" fill="white"/>
<path d="M52.9299 53.5215C53.6053 53.5215 54.1527 52.9752 54.1527 52.3014C54.1527 51.6275 53.6053 51.0813 52.9299 51.0813C52.2546 51.0813 51.707 51.6275 51.707 52.3014C51.707 52.9752 52.2546 53.5215 52.9299 53.5215Z" fill="white"/>
<path d="M44.9824 61.5699C44.8903 61.4427 44.7893 61.3193 44.6745 61.2035C44.547 61.0776 44.412 60.968 44.2706 60.8686L36.6686 53.3879C36.7898 53.3376 36.9046 53.2633 37.0043 53.1638C37.4081 52.7609 37.4081 52.1074 37.0043 51.7045L36.4869 51.1882L36.8958 50.7815C37.2264 50.4516 37.2857 49.953 37.0737 49.5614C38.5023 49.1887 40.375 48.5918 41.088 47.8792C41.7228 47.2471 42.0458 46.4198 42.0597 45.5875C42.8711 46.071 43.7469 46.4425 44.6669 46.688C44.7704 46.7132 44.8738 46.7396 44.9761 46.7648C48.1877 47.5241 51.1155 44.5903 50.3671 41.3996C50.3419 41.2837 50.3154 41.1805 50.2901 41.0772C50.0062 40.0485 49.5683 39.0827 48.9878 38.195C49.1809 38.0918 49.3348 37.9759 49.4522 37.8601C50.3936 36.9346 50.3936 35.4022 49.4522 34.4768C48.5108 33.5374 46.9889 33.5374 46.0601 34.4768C45.9314 34.6052 45.8153 34.7852 45.6992 34.9917C44.8738 34.4768 43.9703 34.0902 43.0289 33.8333C42.9128 33.8069 42.8106 33.7817 42.7071 33.7553C39.4954 32.996 36.569 35.9311 37.316 39.1343C37.3425 39.2376 37.3678 39.3409 37.4069 39.4428C37.6694 40.4212 38.0795 41.358 38.6171 42.2193C37.8057 42.247 37.0031 42.5693 36.3847 43.1863C35.6742 43.8939 35.0786 45.7449 34.7051 47.1665C34.3038 46.9033 33.7586 46.9474 33.4052 47.2999L32.9976 47.7066L32.4966 47.2068C32.1433 46.8542 31.5981 46.8101 31.1968 47.0733C30.822 45.6517 30.2264 43.8008 29.5172 43.0931C28.813 42.3905 27.8691 42.0707 26.9453 42.1311C27.5801 41.1931 28.0596 40.1555 28.3549 39.0601C28.3827 38.9556 28.4092 38.851 28.4344 38.7465C29.1903 35.547 26.255 32.617 23.0471 33.3712C22.9424 33.3951 22.8377 33.4216 22.7329 33.4493C21.683 33.7313 20.686 34.1809 19.78 34.7739C19.7774 34.7701 19.7762 34.7664 19.7736 34.7626C19.6702 34.5699 19.5541 34.4151 19.438 34.2992C18.5092 33.3599 16.9746 33.3599 16.0458 34.2992C15.1044 35.2385 15.1044 36.7571 16.0458 37.6838C16.1758 37.8122 16.3563 37.9281 16.562 38.0439C16.5746 38.0502 16.5872 38.0565 16.5998 38.0628C16.1039 38.8825 15.7215 39.7677 15.4717 40.6944C15.4426 40.7989 15.4174 40.9035 15.3922 41.0092C14.6375 44.2087 17.5728 47.1375 20.7807 46.3833C20.8854 46.3594 20.9902 46.3329 21.0936 46.3052C22.0704 46.0421 23.003 45.6353 23.8586 45.1027C23.7614 46.0609 24.0794 47.0544 24.8139 47.7872C25.5269 48.4987 27.3996 49.0955 28.8281 49.4682C28.6161 49.8598 28.6755 50.3584 29.0061 50.6883L29.5071 51.1882L28.8976 51.7976C28.4937 52.2006 28.4937 52.8541 28.8976 53.257C28.996 53.3565 29.1108 53.4307 29.2332 53.4811L21.7865 60.8069C21.6451 60.9076 21.5076 61.0171 21.3814 61.1443C21.2653 61.2601 21.1643 61.3835 21.0709 61.512L16.8951 65.6193C16.4913 66.0223 16.4913 66.6758 16.8951 67.0787C17.299 67.4816 17.9539 67.4816 18.3577 67.0787L20.7933 64.6838C20.9397 64.9822 21.1328 65.2617 21.3814 65.5098C21.635 65.7629 21.924 65.9606 22.2319 66.1066L21.2009 67.1366C20.7971 67.5395 20.7971 68.193 21.2009 68.596L24.1198 71.5084C24.5236 71.9113 25.1786 71.9113 25.5824 71.5084C25.9862 71.1054 25.9862 70.4519 25.5824 70.049L23.3942 67.8656L25.0246 66.2388L27.2128 68.4222C27.6167 68.8251 28.2716 68.8251 28.6754 68.4222C29.0793 68.0193 29.0793 67.3658 28.6754 66.9628L26.4872 64.7795L28.1177 63.1526L30.3059 65.336C30.7097 65.7389 31.3647 65.7389 31.7685 65.336C32.1723 64.9331 32.1723 64.2796 31.7685 63.8767L28.8496 60.9642C28.4458 60.5613 27.7908 60.5613 27.387 60.9642L26.3547 61.993C26.2083 61.6857 26.0102 61.3974 25.7566 61.1443C25.5193 60.9076 25.2518 60.7187 24.9678 60.5752L30.6971 54.9392C30.7476 55.0626 30.8233 55.1797 30.9242 55.2804C31.3281 55.6834 31.983 55.6834 32.3868 55.2804L32.9976 54.671L33.515 55.1873C33.9189 55.5902 34.5738 55.5902 34.9776 55.1873C35.0786 55.0865 35.153 54.9707 35.2035 54.846L41.0867 60.6356C40.8028 60.7792 40.5365 60.9668 40.2993 61.2035C40.0444 61.4578 39.8475 61.7462 39.6999 62.0534L38.6688 61.0234C38.265 60.6205 37.6101 60.6205 37.2062 61.0234L34.2861 63.9371C33.8823 64.34 33.8823 64.9935 34.2861 65.3965C34.6899 65.7994 35.3449 65.7994 35.7487 65.3965L37.9369 63.2131L39.5673 64.8399L37.3791 67.0233C36.9753 67.4262 36.9753 68.0797 37.3791 68.4826C37.7829 68.8856 38.4379 68.8856 38.8417 68.4826L41.0299 66.2993L42.6604 67.9261L40.4722 70.1095C40.0683 70.5124 40.0683 71.1659 40.4722 71.5688C40.876 71.9717 41.5309 71.9717 41.9348 71.5688L44.8549 68.6551C45.2587 68.2522 45.2587 67.5987 44.8549 67.1958L43.8226 66.1671C44.1306 66.0197 44.4195 65.8233 44.6745 65.569C44.9218 65.3222 45.1161 65.0414 45.2625 64.743L47.6968 67.1391C48.1007 67.542 48.7556 67.542 49.1594 67.1391C49.5633 66.7362 49.5633 66.0827 49.1594 65.6798L44.9824 61.5699ZM41.6407 42.2659C41.2874 41.912 41.2874 41.3379 41.6407 40.984C41.8313 40.7939 42.6907 40.4766 43.7129 40.1996C43.434 41.2182 43.116 42.0757 42.9267 42.2659C42.5721 42.6197 41.9953 42.6197 41.6407 42.2659ZM47.105 35.5319C47.4659 35.1705 48.0464 35.1705 48.3934 35.5319C48.7556 35.8794 48.7556 36.4574 48.3934 36.8049C48.343 36.8565 48.2395 36.9208 48.0843 36.9988C47.9429 36.8314 47.7877 36.6639 47.6199 36.4964C47.3889 36.2647 47.1555 36.0595 46.9106 35.8656C46.9889 35.6994 47.0532 35.5835 47.105 35.5319ZM42.5784 35.7246C43.4289 35.9311 44.2542 36.2912 45.0026 36.7671C45.467 37.063 45.8922 37.4106 46.2923 37.8085C46.628 38.1434 46.9371 38.5035 47.1946 38.8901C47.7625 39.6871 48.1625 40.5761 48.3934 41.5154C48.8717 43.496 47.0924 45.2853 45.106 44.7955C44.3552 44.6142 43.6321 44.3208 42.9607 43.9242C43.3343 43.8159 43.6876 43.6144 43.9829 43.3198C44.7287 42.5769 45.2991 40.0875 45.4569 39.3421C45.5086 39.0953 45.4329 38.8397 45.255 38.6609C45.0758 38.4834 44.8196 38.4066 44.5722 38.4582C43.8252 38.6156 41.3303 39.186 40.5845 39.9301C40.3119 40.2009 40.1213 40.5232 40.0078 40.8657C39.6885 40.2764 39.4475 39.6519 39.2897 39.0059C38.8127 37.024 40.592 35.2486 42.5784 35.7246ZM37.8473 44.6457C38.3369 44.1571 39.1358 44.1571 39.6254 44.6457C40.1163 45.1355 40.1163 45.9312 39.6254 46.4198C39.3629 46.683 38.1716 47.1224 36.7582 47.5064C37.1431 46.0962 37.5836 44.9088 37.8473 44.6457ZM17.1034 35.3544C17.4517 34.9943 18.0322 34.9943 18.3805 35.3544C18.4322 35.406 18.4966 35.5093 18.5735 35.6629C18.5773 35.6692 18.5811 35.678 18.5836 35.6855C18.4309 35.8215 18.2795 35.9613 18.1344 36.1074C17.8984 36.3428 17.6738 36.5883 17.463 36.8452C17.4554 36.8414 17.4466 36.8377 17.439 36.8339C17.2712 36.7571 17.1551 36.6929 17.1034 36.6412C16.7424 36.2811 16.7424 35.7019 17.1034 35.3544ZM23.9217 42.0732C23.5671 42.427 22.9916 42.427 22.637 42.0732C22.4465 41.8843 22.1284 41.0256 21.8508 40.0069C22.8717 40.2852 23.7311 40.6025 23.9217 40.7914C24.2763 41.1452 24.2763 41.7206 23.9217 42.0732ZM24.9779 39.7375C24.2334 38.9933 21.7385 38.4229 20.9914 38.2668C20.7441 38.2139 20.4866 38.2907 20.3087 38.4683C20.1295 38.6471 20.0538 38.9027 20.1055 39.1495C20.2633 39.8949 20.8349 42.3842 21.5808 43.1284C21.8521 43.3991 22.1726 43.5892 22.5146 43.7025C21.924 44.0199 21.2993 44.2591 20.6532 44.4152C18.6682 44.895 16.885 43.117 17.3646 41.1351C17.699 39.7576 18.4095 38.4758 19.4594 37.4295C20.5094 36.3818 21.7928 35.6717 23.1746 35.3393C25.1597 34.8608 26.9415 36.6387 26.4607 38.6206C26.279 39.3698 25.985 40.0913 25.5849 40.7624C25.4764 40.3872 25.2745 40.0334 24.9779 39.7375ZM26.2765 46.3266C25.7856 45.8381 25.7856 45.0423 26.2765 44.5525C26.7661 44.0639 27.5637 44.0639 28.0546 44.5525C28.3183 44.8156 28.7575 46.003 29.1436 47.4133C27.729 47.0292 26.539 46.5898 26.2765 46.3266ZM24.294 64.0504C23.8939 64.4483 23.244 64.4483 22.844 64.0504C22.5159 63.7218 22.4578 63.2257 22.6686 62.8379L23.0926 62.4211C23.48 62.2184 23.9696 62.2801 24.294 62.6037C24.6927 63.0028 24.6927 63.6513 24.294 64.0504ZM34.7492 52.2963C34.9953 52.5418 34.9953 52.9397 34.7492 53.1852C34.5031 53.4307 34.1044 53.4307 33.8583 53.1852L32.9307 52.2597L32.0019 53.1852C31.7559 53.4307 31.3571 53.4307 31.111 53.1852C30.8649 52.9397 30.8649 52.5418 31.111 52.2963L32.0398 51.3708L31.111 50.444C30.8649 50.1985 30.8649 49.8006 31.111 49.5551C31.3571 49.3095 31.7559 49.3095 32.0019 49.5551L32.9307 50.4818L33.8583 49.5551C34.1044 49.3095 34.5031 49.3095 34.7492 49.5551C34.9953 49.8006 34.9953 50.1985 34.7492 50.444L33.8217 51.3708L34.7492 52.2963ZM43.2106 64.1096C42.8118 64.5088 42.1607 64.5088 41.7619 64.1096C41.3618 63.7105 41.3618 63.062 41.7619 62.6641C42.0862 62.3392 42.5758 62.2788 42.9633 62.4815L43.386 62.897C43.598 63.2849 43.54 63.7822 43.2106 64.1096Z" fill="white"/>
</svg>
