<svg width="871" height="323" viewBox="0 0 871 323" fill="none" xmlns="http://www.w3.org/2000/svg">
	<mask id="mask0_950_2536" style="mask-type:alpha" maskUnits="userSpaceOnUse" x="0" y="-766" width="1042" height="1089">
		<path d="M2.84276 -200.464C43.3422 193.536 688.178 319.703 899.844 322.036C1182.35 178.036 962.343 -577.464 911.343 -653.464C860.343 -729.464 433.344 -827.964 279.844 -714.464C126.344 -600.964 -22.5433 -447.433 2.84276 -200.464Z" fill="#D9D9D9"/>
	</mask>
	<g mask="url(#mask0_950_2536)">
		<mask id="mask1_950_2536" style="mask-type:alpha" maskUnits="userSpaceOnUse" x="-26" y="-682" width="1035" height="1287">
			<path d="M-25.6562 -504.223V-672.928C289.908 -693.259 997.602 -672.928 997.602 -672.928C997.602 -672.928 1023.12 158.05 997.602 604.036L-25.6562 604.036V-504.223Z" fill="#135685"/>
		</mask>
		<g mask="url(#mask1_950_2536)">
			<g filter="url(#filter0_f_950_2536)">
				<path d="M-112.017 -351.182C-954.55 -115.8 -2.35382 453.932 29.7427 491.379C171.502 411.136 725.172 780.257 1056.84 683.965C1388.5 587.672 1444.67 293.444 1444.67 -86.377C1444.67 -466.198 730.516 -586.564 -112.017 -351.182Z" fill="#BA447D"/>
			</g>
			<g filter="url(#filter1_f_950_2536)">
				<path d="M422.518 -714.685C-92.0765 -570.797 489.497 -222.522 509.1 -199.631C595.683 -248.683 933.848 -23.041 1136.42 -81.9043C1338.99 -140.768 1373.3 -320.628 1373.3 -552.811C1373.3 -784.994 937.112 -858.573 422.518 -714.685Z" fill="#E2C269"/>
			</g>
			<g filter="url(#filter2_f_950_2536)">
				<path d="M732.473 -134.67C1250.68 -4.39588 220.601 -560.122 191.063 -554.139C191.77 -454.629 -120.594 -24.6425 -167.771 180.964C-214.949 386.57 123.202 602.027 326.026 715.038C528.85 828.05 560.915 -177.798 732.473 -134.67Z" fill="#E2C269"/>
			</g>
		</g>
	</g>
	<defs>
		<filter id="filter0_f_950_2536" x="-609.098" y="-621.732" width="2203.77" height="1471.85" filterUnits="userSpaceOnUse" color-interpolation-filters="sRGB">
			<feFlood flood-opacity="0" result="BackgroundImageFix"/>
			<feBlend mode="normal" in="SourceGraphic" in2="BackgroundImageFix" result="shape"/>
			<feGaussianBlur stdDeviation="75" result="effect1_foregroundBlur_950_2536"/>
		</filter>
		<filter id="filter1_f_950_2536" x="60.5312" y="-938.377" width="1462.76" height="1016.35" filterUnits="userSpaceOnUse" color-interpolation-filters="sRGB">
			<feFlood flood-opacity="0" result="BackgroundImageFix"/>
			<feBlend mode="normal" in="SourceGraphic" in2="BackgroundImageFix" result="shape"/>
			<feGaussianBlur stdDeviation="75" result="effect1_foregroundBlur_950_2536"/>
		</filter>
		<filter id="filter2_f_950_2536" x="-322.231" y="-704.188" width="1350.23" height="1578.09" filterUnits="userSpaceOnUse" color-interpolation-filters="sRGB">
			<feFlood flood-opacity="0" result="BackgroundImageFix"/>
			<feBlend mode="normal" in="SourceGraphic" in2="BackgroundImageFix" result="shape"/>
			<feGaussianBlur stdDeviation="75" result="effect1_foregroundBlur_950_2536"/>
		</filter>
	</defs>
</svg>
