<svg width="203" height="86" viewBox="0 0 203 86" fill="none" xmlns="http://www.w3.org/2000/svg">
<path d="M123.471 35.6773H124.171C124.171 33.1834 124.102 30.9597 123.963 29.0079C123.821 25.1398 123.081 21.5407 121.738 18.2165C120.391 14.8151 118.439 11.8672 115.883 9.38024C113.389 6.81652 110.297 4.83177 106.624 3.41911C102.933 1.99946 98.5957 1.3 93.6275 1.3C88.7265 1.3 84.3913 1.99999 80.6348 3.41752L80.6306 3.41911C76.9557 4.83256 73.8306 6.81785 71.2681 9.38035C68.7797 11.8687 66.8628 14.8174 65.5166 18.2184L65.5166 18.2183L65.5138 18.2256C64.242 21.5465 63.5033 25.142 63.2925 29.0074L63.2923 29.0074L63.2919 29.0205C63.2227 30.9571 63.1536 33.1696 63.0844 35.6579L63.0842 35.6676V35.6773V35.6915V35.7057V35.7199V35.734V35.7482V35.7624V35.7765V35.7907V35.8049V35.819V35.8332V35.8474V35.8615V35.8757V35.8899V35.904V35.9182V35.9324V35.9465V35.9607V35.9749V35.989V36.0032V36.0174V36.0315V36.0457V36.0599V36.074V36.0882V36.1024V36.1165V36.1307V36.1449V36.159V36.1732V36.1874V36.2015V36.2157V36.2299V36.244V36.2582V36.2724V36.2865V36.3007V36.3149V36.329V36.3432V36.3574V36.3715V36.3857V36.3999V36.414V36.4282V36.4424V36.4565V36.4707V36.4849V36.499V36.5132V36.5274V36.5415V36.5557V36.5699V36.584V36.5982V36.6124V36.6265V36.6407V36.6549V36.6691V36.6832V36.6974V36.7116V36.7257V36.7399V36.7541V36.7682V36.7824V36.7966V36.8107V36.8249V36.8391V36.8532V36.8674V36.8816V36.8957V36.9099V36.9241V36.9382V36.9524V36.9666V36.9807V36.9949V37.0091V37.0232V37.0374V37.0516V37.0657V37.0799V37.0941V37.1082V37.1224V37.1366V37.1507V37.1649V37.1791V37.1932V37.2074V37.2216V37.2357V37.2499V37.2641V37.2782V37.2924V37.3066V37.3207V37.3349V37.3491V37.3632V37.3774V37.3916V37.4057V37.4199V37.4341V37.4482V37.4624V37.4766V37.4907V37.5049V37.5191V37.5332V37.5474V37.5616V37.5757V37.5899V37.6041V37.6183V37.6324V37.6466V37.6608V37.6749V37.6891V37.7033V37.7174V37.7316V37.7458V37.7599V37.7741V37.7883V37.8024V37.8166V37.8308V37.8449V37.8591V37.8733V37.8874V37.9016V37.9158V37.9299V37.9441V37.9583V37.9724V37.9866V38.0008V38.0149V38.0291V38.0433V38.0574V38.0716V38.0858V38.0999V38.1141V38.1283V38.1424V38.1566V38.1708V38.1849V38.1991V38.2133V38.2274V38.2416V38.2558V38.2699V38.2841V38.2983V38.3124V38.3266V38.3408V38.3549V38.3691V38.3833V38.3974V38.4116V38.4258V38.4399V38.4541V38.4683V38.4824V38.4966V38.5108V38.5249V38.5391V38.5533V38.5674V38.5816V38.5958V38.61V38.6241V38.6383V38.6525V38.6666V38.6808V38.695V38.7091V38.7233V38.7375V38.7516V38.7658V38.78V38.7941V38.8083V38.8225V38.8366V38.8508V38.865V38.8791V38.8933V38.9075V38.9216V38.9358V38.95V38.9641V38.9783V38.9925V39.0066V39.0208V39.035V39.0491V39.0633V39.0775V39.0916V39.1058V39.12V39.1341V39.1483V39.1625V39.1766V39.1908V39.205V39.2191V39.2333V39.2475V39.2616V39.2758V39.29V39.3041V39.3183V39.3325V39.3466V39.3608V39.375V39.3891V39.4033V39.4175V39.4316V39.4458V39.46V39.4741V39.4883V39.5025V39.5166V39.5308V39.545V39.5592V39.5733V39.5875V39.6017V39.6158V39.63V39.6442V39.6583V39.6725V39.6867V39.7008V39.715V39.7292V39.7433V39.7575V39.7717V39.7858V39.8V39.8142V39.8283V39.8425V39.8567V39.8708V39.885V39.8992V39.9133V39.9275V39.9417V39.9558V39.97V39.9842V39.9983V40.0125V40.0267V40.0408V40.055V40.0692V40.0833V40.0975V40.1117V40.1258V40.14V40.1542V40.1683V40.1825V40.1967V40.2108V40.225V40.2392V40.2533V40.2675V40.2817V40.2958V40.31V40.3242V40.3383V40.3525V40.3667V40.3808V40.395V40.4092V40.4233V40.4375V40.4517V40.4658V40.48V40.4942V40.5084V40.5225V40.5367V40.5508V40.565V40.5792V40.5934V40.6075V40.6217V40.6359V40.65V40.6642V40.6784V40.6925V40.7067V40.7209V40.735V40.7492V40.7634V40.7775V40.7917V40.8059V40.82V40.8342V40.8484V40.8625V40.8767V40.8909V40.905V40.9192V40.9334V40.9475V40.9617V40.9759V40.99V41.0042V41.0184V41.0325V41.0467V41.0609V41.075V41.0892V41.1034V41.1175V41.1317V41.1459V41.16V41.1742V41.1884V41.2025V41.2167V41.2309V41.245V41.2592V41.2734V41.2875V41.3017V41.3159V41.33V41.3442V41.3584V41.3725V41.3867V41.4009V41.415V41.4292V41.4434V41.4576V41.4717V41.4859V41.5V41.5142V41.5284V41.5426V41.5567V41.5709V41.5851V41.5992V41.6134V41.6276V41.6417V41.6559V41.6701V41.6842V41.6984V41.7126V41.7267V41.7409V41.7551V41.7692V41.7834V41.7976V41.8117V41.8259V41.8401V41.8542V41.8684V41.8826V41.8967V41.9109V41.9251V41.9392V41.9534V41.9676V41.9817V41.9959V42.0101V42.0242V42.0384V42.0526V42.0667V42.0809V42.0951V42.1092V42.1234V42.1376V42.1517V42.1659V42.1801V42.1942V42.2084V42.2226V42.2367V42.2509V42.2651V42.2792V42.2934V42.3076V42.3217V42.3359V42.3501V42.3642V42.3784V42.3926V42.4067V42.4209V42.4351V42.4492V42.4634V42.4776V42.4918V42.5059V42.5201V42.5343V42.5484V42.5626V42.5768V42.5909V42.6051V42.6193V42.6334V42.6476V42.6618V42.6759V42.6901V42.7043V42.7184V42.7326V42.7468V42.7609V42.7751V42.7893V42.8034V42.8176V42.8318V42.8459V42.8601V42.8743V42.8884V42.9026V42.9168V42.9309V42.9412L63.0845 42.9515C63.1536 45.3016 63.2227 47.4105 63.2919 49.2778L63.2918 49.2778L63.2925 49.29C63.5033 53.1553 64.2418 56.7835 65.5121 60.1708C66.7871 63.5709 68.6319 66.5529 71.047 69.11L71.0469 69.11L71.054 69.1173C73.5495 71.6842 76.676 73.7044 80.4168 75.1866L80.4168 75.1867L80.4275 75.1908C84.186 76.609 88.591 77.3083 93.6275 77.3083C98.7311 77.3083 103.139 76.6096 106.832 75.1892L106.838 75.1866C110.578 73.7047 113.672 71.6838 116.101 69.1139C118.584 66.5585 120.465 63.5773 121.741 60.1769C123.081 56.7876 123.821 53.1572 123.963 49.2905C124.101 47.4104 124.171 45.2934 124.171 42.941C124.24 40.5132 124.24 38.0853 124.171 35.6574L123.471 35.6773ZM123.471 35.6773C123.54 38.0952 123.54 40.5131 123.471 42.9309C123.471 45.2797 123.402 47.3867 123.264 49.2519L121.087 18.476C122.4 21.7228 123.125 25.246 123.264 29.0455C123.402 30.9798 123.471 33.1904 123.471 35.6773ZM100.825 57.7632L100.827 57.7598C102.379 55.561 103.222 52.5693 103.29 48.7215L103.29 48.7036L103.291 48.6856C103.428 46.6998 103.497 44.609 103.497 42.4128V42.4019L103.497 42.391C103.566 40.1949 103.566 37.9989 103.497 35.8028L103.497 35.7919V35.781C103.497 33.5846 103.428 31.5642 103.292 29.719L103.29 29.6995L103.29 29.68C103.223 25.9762 102.382 23.0511 100.827 20.8485L100.819 20.8371L100.819 20.837C99.3937 18.7295 97.0527 17.5869 93.6275 17.5182C90.2023 17.5869 87.8613 18.7295 86.4356 20.837C84.9412 23.0461 84.0997 25.9808 83.9648 29.6927L83.9647 29.6931C83.8958 31.5537 83.8269 33.5866 83.758 35.7919V35.7939V35.8069V35.8198V35.8328V35.8457V35.8587V35.8716V35.8846V35.8975V35.9105V35.9235V35.9364V35.9494V35.9623V35.9753V35.9882V36.0012V36.0141V36.0271V36.04V36.053V36.0659V36.0789V36.0918V36.1048V36.1177V36.1307V36.1437V36.1566V36.1696V36.1825V36.1955V36.2084V36.2214V36.2343V36.2473V36.2602V36.2732V36.2861V36.2991V36.312V36.325V36.3379V36.3509V36.3639V36.3768V36.3898V36.4027V36.4157V36.4286V36.4416V36.4545V36.4675V36.4804V36.4934V36.5063V36.5193V36.5322V36.5452V36.5581V36.5711V36.584V36.597V36.61V36.6229V36.6359V36.6488V36.6618V36.6747V36.6877V36.7006V36.7136V36.7265V36.7395V36.7524V36.7654V36.7783V36.7913V36.8042V36.8172V36.8302V36.8431V36.8561V36.869V36.882V36.8949V36.9079V36.9208V36.9338V36.9467V36.9597V36.9726V36.9856V36.9985V37.0115V37.0244V37.0374V37.0504V37.0633V37.0763V37.0892V37.1022V37.1151V37.1281V37.141V37.154V37.1669V37.1799V37.1928V37.2058V37.2187V37.2317V37.2446V37.2576V37.2705V37.2835V37.2965V37.3094V37.3224V37.3353V37.3483V37.3612V37.3742V37.3871V37.4001V37.413V37.426V37.4389V37.4519V37.4648V37.4778V37.4907V37.5037V37.5167V37.5296V37.5426V37.5555V37.5685V37.5814V37.5944V37.6073V37.6203V37.6332V37.6462V37.6591V37.6721V37.685V37.698V37.7109V37.7239V37.7369V37.7498V37.7628V37.7757V37.7887V37.8016V37.8146V37.8275V37.8405V37.8534V37.8664V37.8793V37.8923V37.9052V37.9182V37.9311V37.9441V37.9571V37.97V37.983V37.9959V38.0089V38.0218V38.0348V38.0477V38.0607V38.0736V38.0866V38.0995V38.1125V38.1254V38.1384V38.1513V38.1643V38.1772V38.1902V38.2032V38.2161V38.2291V38.242V38.255V38.2679V38.2809V38.2938V38.3068V38.3197V38.3327V38.3456V38.3586V38.3715V38.3845V38.3974V38.4104V38.4234V38.4363V38.4493V38.4622V38.4752V38.4881V38.5011V38.514V38.527V38.5399V38.5529V38.5658V38.5788V38.5917V38.6047V38.6176V38.6306V38.6435V38.6565V38.6695V38.6824V38.6954V38.7083V38.7213V38.7342V38.7472V38.7601V38.7731V38.786V38.799V38.8119V38.8249V38.8378V38.8508V38.8637V38.8767V38.8897V38.9026V38.9156V38.9285V38.9415V38.9544V38.9674V38.9803V38.9933V39.0062V39.0192V39.0321V39.0451V39.058V39.071V39.0839V39.0969V39.1099V39.1228V39.1358V39.1487V39.1617V39.1746V39.1876V39.2005V39.2135V39.2264V39.2394V39.2523V39.2653V39.2782V39.2912V39.3041V39.3171V39.33V39.343V39.356V39.3689V39.3819V39.3948V39.4078V39.4207V39.4337V39.4466V39.4596V39.4725V39.4855V39.4984V39.5114V39.5243V39.5373V39.5502V39.5632V39.5762V39.5891V39.6021V39.615V39.628V39.6409V39.6539V39.6668V39.6798V39.6927V39.7057V39.7186V39.7316V39.7445V39.7575V39.7704V39.7834V39.7963V39.8093V39.8223V39.8352V39.8482V39.8611V39.8741V39.887V39.9V39.9129V39.9259V39.9388V39.9518V39.9647V39.9777V39.9906V40.0036V40.0165V40.0295V40.0425V40.0554V40.0684V40.0813V40.0943V40.1072V40.1202V40.1331V40.1461V40.159V40.172V40.1849V40.1979V40.2108V40.2238V40.2367V40.2497V40.2627V40.2756V40.2886V40.3015V40.3145V40.3274V40.3404V40.3533V40.3663V40.3792V40.3922V40.4051V40.4181V40.431V40.444V40.4569V40.4699V40.4828V40.4958V40.5088V40.5217V40.5347V40.5476V40.5606V40.5735V40.5865V40.5994V40.6124V40.6253V40.6383V40.6512V40.6642V40.6771V40.6901V40.703V40.716V40.729V40.7419V40.7549V40.7678V40.7808V40.7937V40.8067V40.8196V40.8326V40.8455V40.8585V40.8714V40.8844V40.8973V40.9103V40.9232V40.9362V40.9492V40.9621V40.9751V40.988V41.001V41.0139V41.0269V41.0398V41.0528V41.0657V41.0787V41.0916V41.1046V41.1175V41.1305V41.1434V41.1564V41.1693V41.1823V41.1953V41.2082V41.2212V41.2341V41.2471V41.26V41.273V41.2859V41.2989V41.3118V41.3248V41.3377V41.3507V41.3636V41.3766V41.3895V41.4025V41.4155V41.4284V41.4414V41.4543V41.4673V41.4802V41.4932V41.5061V41.5191V41.532V41.545V41.5579V41.5709V41.5838V41.5968V41.6097V41.6227V41.6357V41.6486V41.6616V41.6745V41.6875V41.7004V41.7134V41.7263V41.7393V41.7522V41.7652V41.7781V41.7911V41.804V41.817V41.8299V41.8429V41.8559V41.8688V41.8818V41.8947V41.9077V41.9206V41.9336V41.9465V41.9595V41.9724V41.9854V41.9983V42.0113V42.0242V42.0372V42.0501V42.0631V42.076V42.089V42.102V42.1149V42.1279V42.1408V42.1538V42.1667V42.1797V42.1926V42.2056V42.2185V42.2315V42.2444V42.2574V42.2703V42.2833V42.2962V42.3092V42.3222V42.3351V42.3481V42.361V42.374V42.3869V42.3999V42.4019C83.8269 44.6079 83.8959 46.7105 83.9648 48.7097M100.825 57.7632L86.5255 57.7517C86.5264 57.753 86.5274 57.7543 86.5283 57.7555M100.825 57.7632C99.4044 59.8013 97.0653 60.883 93.6275 60.883C90.3427 60.883 88.0245 59.8102 86.5283 57.7555M100.825 57.7632L86.5283 57.7555M83.9648 48.7097L83.2684 48.7337L83.9648 48.7093C83.9648 48.7094 83.9648 48.7095 83.9648 48.7097ZM83.9648 48.7097C84.0999 52.5574 84.9749 55.5526 86.5283 57.7555M104.197 35.781C104.197 33.5704 104.128 31.5324 103.99 29.6672C103.921 25.8677 103.057 22.7936 101.399 20.4448L104.197 35.781ZM104.197 35.781C104.266 37.9916 104.266 40.2022 104.197 42.4128M104.197 35.781V42.4128M150.859 75.1908L150.848 75.1867C147.107 73.7044 143.98 71.6842 141.485 69.1173L141.478 69.11C139.063 66.5529 137.218 63.5709 135.943 60.1708C134.673 56.7835 133.934 53.1553 133.723 49.29L133.723 49.2778C133.654 47.4104 133.585 45.3016 133.515 42.9515L133.515 42.9412V42.9309V42.9168V42.9026V42.8884V42.8743V42.8601V42.8459V42.8318V42.8176V42.8034V42.7893V42.7751V42.7609V42.7468V42.7326V42.7184V42.7043V42.6901V42.6759V42.6618V42.6476V42.6334V42.6193V42.6051V42.5909V42.5768V42.5626V42.5484V42.5343V42.5201V42.5059V42.4918V42.4776V42.4634V42.4492V42.4351V42.4209V42.4067V42.3926V42.3784V42.3642V42.3501V42.3359V42.3217V42.3076V42.2934V42.2792V42.2651V42.2509V42.2367V42.2226V42.2084V42.1942V42.1801V42.1659V42.1517V42.1376V42.1234V42.1092V42.0951V42.0809V42.0667V42.0526V42.0384V42.0242V42.0101V41.9959V41.9817V41.9676V41.9534V41.9392V41.9251V41.9109V41.8967V41.8826V41.8684V41.8542V41.8401V41.8259V41.8117V41.7976V41.7834V41.7692V41.7551V41.7409V41.7267V41.7126V41.6984V41.6842V41.6701V41.6559V41.6417V41.6276V41.6134V41.5992V41.5851V41.5709V41.5567V41.5426V41.5284V41.5142V41.5V41.4859V41.4717V41.4576V41.4434V41.4292V41.415V41.4009V41.3867V41.3725V41.3584V41.3442V41.33V41.3159V41.3017V41.2875V41.2734V41.2592V41.245V41.2309V41.2167V41.2025V41.1884V41.1742V41.16V41.1459V41.1317V41.1175V41.1034V41.0892V41.075V41.0609V41.0467V41.0325V41.0184V41.0042V40.99V40.9759V40.9617V40.9475V40.9334V40.9192V40.905V40.8909V40.8767V40.8625V40.8484V40.8342V40.82V40.8059V40.7917V40.7775V40.7634V40.7492V40.735V40.7209V40.7067V40.6925V40.6784V40.6642V40.65V40.6359V40.6217V40.6075V40.5934V40.5792V40.565V40.5508V40.5367V40.5225V40.5084V40.4942V40.48V40.4658V40.4517V40.4375V40.4233V40.4092V40.395V40.3808V40.3667V40.3525V40.3383V40.3242V40.31V40.2958V40.2817V40.2675V40.2533V40.2392V40.225V40.2108V40.1967V40.1825V40.1683V40.1542V40.14V40.1258V40.1117V40.0975V40.0833V40.0692V40.055V40.0408V40.0267V40.0125V39.9983V39.9842V39.97V39.9558V39.9417V39.9275V39.9133V39.8992V39.885V39.8708V39.8567V39.8425V39.8283V39.8142V39.8V39.7858V39.7717V39.7575V39.7433V39.7292V39.715V39.7008V39.6867V39.6725V39.6583V39.6442V39.63V39.6158V39.6017V39.5875V39.5733V39.5592V39.545V39.5308V39.5166V39.5025V39.4883V39.4741V39.46V39.4458V39.4316V39.4175V39.4033V39.3891V39.375V39.3608V39.3466V39.3325V39.3183V39.3041V39.29V39.2758V39.2616V39.2475V39.2333V39.2191V39.205V39.1908V39.1766V39.1625V39.1483V39.1341V39.12V39.1058V39.0916V39.0775V39.0633V39.0491V39.035V39.0208V39.0066V38.9925V38.9783V38.9641V38.95V38.9358V38.9216V38.9075V38.8933V38.8791V38.865V38.8508V38.8366V38.8225V38.8083V38.7941V38.78V38.7658V38.7516V38.7375V38.7233V38.7091V38.695V38.6808V38.6666V38.6525V38.6383V38.6241V38.61V38.5958V38.5816V38.5674V38.5533V38.5391V38.5249V38.5108V38.4966V38.4824V38.4683V38.4541V38.4399V38.4258V38.4116V38.3974V38.3833V38.3691V38.3549V38.3408V38.3266V38.3124V38.2983V38.2841V38.2699V38.2558V38.2416V38.2274V38.2133V38.1991V38.1849V38.1708V38.1566V38.1424V38.1283V38.1141V38.0999V38.0858V38.0716V38.0574V38.0433V38.0291V38.0149V38.0008V37.9866V37.9724V37.9583V37.9441V37.9299V37.9158V37.9016V37.8874V37.8733V37.8591V37.8449V37.8308V37.8166V37.8024V37.7883V37.7741V37.7599V37.7458V37.7316V37.7174V37.7033V37.6891V37.6749V37.6608V37.6466V37.6324V37.6183V37.6041V37.5899V37.5757V37.5616V37.5474V37.5332V37.5191V37.5049V37.4907V37.4766V37.4624V37.4482V37.4341V37.4199V37.4057V37.3916V37.3774V37.3632V37.3491V37.3349V37.3207V37.3066V37.2924V37.2782V37.2641V37.2499V37.2357V37.2216V37.2074V37.1932V37.1791V37.1649V37.1507V37.1366V37.1224V37.1082V37.0941V37.0799V37.0657V37.0516V37.0374V37.0232V37.0091V36.9949V36.9807V36.9666V36.9524V36.9382V36.9241V36.9099V36.8957V36.8816V36.8674V36.8532V36.8391V36.8249V36.8107V36.7966V36.7824V36.7682V36.7541V36.7399V36.7257V36.7116V36.6974V36.6832V36.6691V36.6549V36.6407V36.6265V36.6124V36.5982V36.584V36.5699V36.5557V36.5415V36.5274V36.5132V36.499V36.4849V36.4707V36.4565V36.4424V36.4282V36.414V36.3999V36.3857V36.3715V36.3574V36.3432V36.329V36.3149V36.3007V36.2865V36.2724V36.2582V36.244V36.2299V36.2157V36.2015V36.1874V36.1732V36.159V36.1449V36.1307V36.1165V36.1024V36.0882V36.074V36.0599V36.0457V36.0315V36.0174V36.0032V35.989V35.9749V35.9607V35.9465V35.9324V35.9182V35.904V35.8899V35.8757V35.8615V35.8474V35.8332V35.819V35.8049V35.7907V35.7765V35.7624V35.7482V35.734V35.7199V35.7057V35.6915V35.6773V35.6676L133.515 35.6579C133.585 33.1696 133.654 30.9571 133.723 29.0205L133.723 29.0074L133.723 29.0074C133.934 25.142 134.673 21.5465 135.945 18.2256L135.948 18.2183C137.294 14.8174 139.211 11.8687 141.699 9.38035C144.262 6.81784 147.387 4.83256 151.062 3.41911L151.066 3.41752C154.822 1.99999 159.158 1.3 164.058 1.3C169.027 1.3 173.364 1.99946 177.055 3.41911C180.728 4.8318 183.82 6.8166 186.314 9.38038C188.87 11.8673 190.822 14.8152 192.169 18.2165C192.169 18.2171 192.169 18.2178 192.169 18.2184L191.518 18.476C192.831 21.7228 193.556 25.246 193.695 29.0455L150.859 75.1908ZM150.859 75.1908C154.617 76.609 159.022 77.3083 164.058 77.3083C169.162 77.3083 173.57 76.6096 177.263 75.1892L177.269 75.1866C181.009 73.7047 184.103 71.684 186.531 69.1142C189.015 66.5587 190.896 63.5774 192.172 60.1769C193.512 56.7876 194.252 53.1573 194.394 49.2906C194.533 47.4077 194.602 45.2874 194.602 42.9309H193.902M150.859 75.1908L194.394 29.0077C194.533 30.957 194.602 33.1774 194.602 35.6675C194.671 38.0953 194.671 40.5231 194.602 42.9509L193.902 42.9309M193.902 42.9309C193.902 45.2797 193.833 47.3867 193.695 49.2519L193.902 35.6773C193.971 38.0952 193.971 40.5131 193.902 42.9309ZM171.256 57.7632L171.258 57.7598C172.81 55.561 173.653 52.5693 173.721 48.7215L173.721 48.7036L173.722 48.6856C173.859 46.6998 173.928 44.609 173.928 42.4128V42.4019L173.928 42.391C173.997 40.1949 173.997 37.9989 173.928 35.8028L173.928 35.7919V35.781C173.928 33.5846 173.859 31.5642 173.723 29.719L173.721 29.6995L173.721 29.68C173.654 25.9762 172.813 23.0511 171.258 20.8485L171.25 20.8371L171.25 20.837C169.825 18.7295 167.484 17.5869 164.058 17.5182C160.633 17.5869 158.292 18.7295 156.867 20.837C155.372 23.0461 154.531 25.9808 154.396 29.6927L154.396 29.6931C154.327 31.5538 154.258 33.5867 154.189 35.7921L171.256 57.7632ZM171.256 57.7632C169.835 59.8013 167.496 60.883 164.058 60.883M171.256 57.7632L164.058 60.883M174.628 42.4128C174.628 44.6234 174.559 46.7304 174.421 48.7338C174.352 52.6715 173.488 55.8147 171.83 58.1635C170.241 60.4432 167.651 61.583 164.058 61.583C160.604 61.583 158.048 60.4432 156.39 58.1635L174.628 42.4128ZM174.628 42.4128C174.697 40.2022 174.697 37.9916 174.628 35.781M174.628 42.4128V35.781M174.628 35.781C174.628 33.5704 174.559 31.5324 174.421 29.6672L174.628 35.781ZM164.058 60.883C160.772 60.883 158.453 59.8089 156.957 57.7517L164.058 60.883ZM104.197 42.4128C104.197 44.6234 104.128 46.7304 103.99 48.7338L104.197 42.4128ZM11.6235 75.4059L11.641 75.4263L11.66 75.4453C12.2144 75.9996 12.9145 76.2721 13.7094 76.2721H27.0767C28.3126 76.2721 29.3613 75.9207 30.0868 75.1045C30.6534 74.4671 31.0813 73.8948 31.3296 73.3982L31.3364 73.3846L31.3426 73.3707L55.2733 19.8115C55.6322 19.0918 55.9216 18.3682 56.1397 17.6409C56.3731 16.8632 56.4801 15.9265 56.4801 14.8492V5.62679C56.4801 4.70385 56.1798 3.89662 55.5498 3.26661C54.9079 2.62476 54.0586 2.33623 53.086 2.33623H4.59057C3.71892 2.33623 2.93592 2.64721 2.2644 3.23478L2.24686 3.25013L2.23038 3.26661C1.60037 3.89662 1.3 4.70385 1.3 5.62679V15.9891C1.3 16.912 1.59915 17.7338 2.19856 18.4188L2.22928 18.454L2.2644 18.4847C2.93592 19.0723 3.71892 19.3832 4.59057 19.3832H34.5987L11.1012 72.0747L11.0957 72.0871L11.0906 72.0998C10.9301 72.501 10.8333 72.902 10.8333 73.2924C10.8333 74.0856 11.1032 74.7988 11.6235 75.4059Z" stroke="#CCCCCC" stroke-width="1.4"/>
<path d="M128.471 39.6773H129.171C129.171 37.1834 129.102 34.9597 128.963 33.0079C128.821 29.1398 128.081 25.5407 126.738 22.2165C125.391 18.8151 123.439 15.8672 120.883 13.3802C118.389 10.8165 115.297 8.83177 111.624 7.41911C107.933 5.99946 103.596 5.3 98.6275 5.3C93.7265 5.3 89.3913 5.99999 85.6348 7.41752L85.6306 7.41911C81.9557 8.83256 78.8306 10.8178 76.2681 13.3803C73.7797 15.8687 71.8628 18.8174 70.5166 22.2184L70.5166 22.2183L70.5138 22.2256C69.242 25.5465 68.5033 29.142 68.2925 33.0074L68.2923 33.0074L68.2919 33.0205C68.2227 34.9571 68.1536 37.1696 68.0844 39.6579L68.0842 39.6676V39.6773V39.6915V39.7057V39.7199V39.734V39.7482V39.7624V39.7765V39.7907V39.8049V39.819V39.8332V39.8474V39.8615V39.8757V39.8899V39.904V39.9182V39.9324V39.9465V39.9607V39.9749V39.989V40.0032V40.0174V40.0315V40.0457V40.0599V40.074V40.0882V40.1024V40.1165V40.1307V40.1449V40.159V40.1732V40.1874V40.2015V40.2157V40.2299V40.244V40.2582V40.2724V40.2865V40.3007V40.3149V40.329V40.3432V40.3574V40.3715V40.3857V40.3999V40.414V40.4282V40.4424V40.4565V40.4707V40.4849V40.499V40.5132V40.5274V40.5415V40.5557V40.5699V40.584V40.5982V40.6124V40.6265V40.6407V40.6549V40.6691V40.6832V40.6974V40.7116V40.7257V40.7399V40.7541V40.7682V40.7824V40.7966V40.8107V40.8249V40.8391V40.8532V40.8674V40.8816V40.8957V40.9099V40.9241V40.9382V40.9524V40.9666V40.9807V40.9949V41.0091V41.0232V41.0374V41.0516V41.0657V41.0799V41.0941V41.1082V41.1224V41.1366V41.1507V41.1649V41.1791V41.1932V41.2074V41.2216V41.2357V41.2499V41.2641V41.2782V41.2924V41.3066V41.3207V41.3349V41.3491V41.3632V41.3774V41.3916V41.4057V41.4199V41.4341V41.4482V41.4624V41.4766V41.4907V41.5049V41.5191V41.5332V41.5474V41.5616V41.5757V41.5899V41.6041V41.6183V41.6324V41.6466V41.6608V41.6749V41.6891V41.7033V41.7174V41.7316V41.7458V41.7599V41.7741V41.7883V41.8024V41.8166V41.8308V41.8449V41.8591V41.8733V41.8874V41.9016V41.9158V41.9299V41.9441V41.9583V41.9724V41.9866V42.0008V42.0149V42.0291V42.0433V42.0574V42.0716V42.0858V42.0999V42.1141V42.1283V42.1424V42.1566V42.1708V42.1849V42.1991V42.2133V42.2274V42.2416V42.2558V42.2699V42.2841V42.2983V42.3124V42.3266V42.3408V42.3549V42.3691V42.3833V42.3974V42.4116V42.4258V42.4399V42.4541V42.4683V42.4824V42.4966V42.5108V42.5249V42.5391V42.5533V42.5674V42.5816V42.5958V42.61V42.6241V42.6383V42.6525V42.6666V42.6808V42.695V42.7091V42.7233V42.7375V42.7516V42.7658V42.78V42.7941V42.8083V42.8225V42.8366V42.8508V42.865V42.8791V42.8933V42.9075V42.9216V42.9358V42.95V42.9641V42.9783V42.9925V43.0066V43.0208V43.035V43.0491V43.0633V43.0775V43.0916V43.1058V43.12V43.1341V43.1483V43.1625V43.1766V43.1908V43.205V43.2191V43.2333V43.2475V43.2616V43.2758V43.29V43.3041V43.3183V43.3325V43.3466V43.3608V43.375V43.3891V43.4033V43.4175V43.4316V43.4458V43.46V43.4741V43.4883V43.5025V43.5166V43.5308V43.545V43.5592V43.5733V43.5875V43.6017V43.6158V43.63V43.6442V43.6583V43.6725V43.6867V43.7008V43.715V43.7292V43.7433V43.7575V43.7717V43.7858V43.8V43.8142V43.8283V43.8425V43.8567V43.8708V43.885V43.8992V43.9133V43.9275V43.9417V43.9558V43.97V43.9842V43.9983V44.0125V44.0267V44.0408V44.055V44.0692V44.0833V44.0975V44.1117V44.1258V44.14V44.1542V44.1683V44.1825V44.1967V44.2108V44.225V44.2392V44.2533V44.2675V44.2817V44.2958V44.31V44.3242V44.3383V44.3525V44.3667V44.3808V44.395V44.4092V44.4233V44.4375V44.4517V44.4658V44.48V44.4942V44.5084V44.5225V44.5367V44.5508V44.565V44.5792V44.5934V44.6075V44.6217V44.6359V44.65V44.6642V44.6784V44.6925V44.7067V44.7209V44.735V44.7492V44.7634V44.7775V44.7917V44.8059V44.82V44.8342V44.8484V44.8625V44.8767V44.8909V44.905V44.9192V44.9334V44.9475V44.9617V44.9759V44.99V45.0042V45.0184V45.0325V45.0467V45.0609V45.075V45.0892V45.1034V45.1175V45.1317V45.1459V45.16V45.1742V45.1884V45.2025V45.2167V45.2309V45.245V45.2592V45.2734V45.2875V45.3017V45.3159V45.33V45.3442V45.3584V45.3725V45.3867V45.4009V45.415V45.4292V45.4434V45.4576V45.4717V45.4859V45.5V45.5142V45.5284V45.5426V45.5567V45.5709V45.5851V45.5992V45.6134V45.6276V45.6417V45.6559V45.6701V45.6842V45.6984V45.7126V45.7267V45.7409V45.7551V45.7692V45.7834V45.7976V45.8117V45.8259V45.8401V45.8542V45.8684V45.8826V45.8967V45.9109V45.9251V45.9392V45.9534V45.9676V45.9817V45.9959V46.0101V46.0242V46.0384V46.0526V46.0667V46.0809V46.0951V46.1092V46.1234V46.1376V46.1517V46.1659V46.1801V46.1942V46.2084V46.2226V46.2367V46.2509V46.2651V46.2792V46.2934V46.3076V46.3217V46.3359V46.3501V46.3642V46.3784V46.3926V46.4067V46.4209V46.4351V46.4492V46.4634V46.4776V46.4918V46.5059V46.5201V46.5343V46.5484V46.5626V46.5768V46.5909V46.6051V46.6193V46.6334V46.6476V46.6618V46.6759V46.6901V46.7043V46.7184V46.7326V46.7468V46.7609V46.7751V46.7893V46.8034V46.8176V46.8318V46.8459V46.8601V46.8743V46.8884V46.9026V46.9168V46.9309V46.9412L68.0845 46.9515C68.1536 49.3016 68.2227 51.4105 68.2919 53.2778L68.2918 53.2778L68.2925 53.29C68.5033 57.1553 69.2418 60.7835 70.5121 64.1708C71.7871 67.5709 73.6319 70.5529 76.047 73.11L76.0469 73.11L76.054 73.1173C78.5495 75.6842 81.676 77.7044 85.4168 79.1866L85.4168 79.1867L85.4275 79.1908C89.186 80.609 93.591 81.3083 98.6275 81.3083C103.731 81.3083 108.139 80.6096 111.832 79.1892L111.838 79.1866C115.578 77.7047 118.672 75.6838 121.101 73.1139C123.584 70.5585 125.465 67.5773 126.741 64.1769C128.081 60.7876 128.821 57.1572 128.963 53.2905C129.101 51.4104 129.171 49.2934 129.171 46.941C129.24 44.5132 129.24 42.0853 129.171 39.6574L128.471 39.6773ZM128.471 39.6773C128.54 42.0952 128.54 44.5131 128.471 46.9309C128.471 49.2797 128.402 51.3867 128.264 53.2519L126.087 22.476C127.4 25.7228 128.125 29.246 128.264 33.0455C128.402 34.9798 128.471 37.1904 128.471 39.6773ZM105.825 61.7632L105.827 61.7598C107.379 59.561 108.222 56.5693 108.29 52.7215L108.29 52.7036L108.291 52.6856C108.428 50.6998 108.497 48.609 108.497 46.4128V46.4019L108.497 46.391C108.566 44.1949 108.566 41.9989 108.497 39.8028L108.497 39.7919V39.781C108.497 37.5846 108.428 35.5642 108.292 33.719L108.29 33.6995L108.29 33.68C108.223 29.9762 107.382 27.0511 105.827 24.8485L105.819 24.8371L105.819 24.837C104.394 22.7295 102.053 21.5869 98.6275 21.5182C95.2023 21.5869 92.8613 22.7295 91.4356 24.837C89.9412 27.0461 89.0997 29.9808 88.9648 33.6927L88.9647 33.6931C88.8958 35.5537 88.8269 37.5866 88.758 39.7919V39.7939V39.8069V39.8198V39.8328V39.8457V39.8587V39.8716V39.8846V39.8975V39.9105V39.9235V39.9364V39.9494V39.9623V39.9753V39.9882V40.0012V40.0141V40.0271V40.04V40.053V40.0659V40.0789V40.0918V40.1048V40.1177V40.1307V40.1437V40.1566V40.1696V40.1825V40.1955V40.2084V40.2214V40.2343V40.2473V40.2602V40.2732V40.2861V40.2991V40.312V40.325V40.3379V40.3509V40.3639V40.3768V40.3898V40.4027V40.4157V40.4286V40.4416V40.4545V40.4675V40.4804V40.4934V40.5063V40.5193V40.5322V40.5452V40.5581V40.5711V40.584V40.597V40.61V40.6229V40.6359V40.6488V40.6618V40.6747V40.6877V40.7006V40.7136V40.7265V40.7395V40.7524V40.7654V40.7783V40.7913V40.8042V40.8172V40.8302V40.8431V40.8561V40.869V40.882V40.8949V40.9079V40.9208V40.9338V40.9467V40.9597V40.9726V40.9856V40.9985V41.0115V41.0244V41.0374V41.0504V41.0633V41.0763V41.0892V41.1022V41.1151V41.1281V41.141V41.154V41.1669V41.1799V41.1928V41.2058V41.2187V41.2317V41.2446V41.2576V41.2705V41.2835V41.2965V41.3094V41.3224V41.3353V41.3483V41.3612V41.3742V41.3871V41.4001V41.413V41.426V41.4389V41.4519V41.4648V41.4778V41.4907V41.5037V41.5167V41.5296V41.5426V41.5555V41.5685V41.5814V41.5944V41.6073V41.6203V41.6332V41.6462V41.6591V41.6721V41.685V41.698V41.7109V41.7239V41.7369V41.7498V41.7628V41.7757V41.7887V41.8016V41.8146V41.8275V41.8405V41.8534V41.8664V41.8793V41.8923V41.9052V41.9182V41.9311V41.9441V41.9571V41.97V41.983V41.9959V42.0089V42.0218V42.0348V42.0477V42.0607V42.0736V42.0866V42.0995V42.1125V42.1254V42.1384V42.1513V42.1643V42.1772V42.1902V42.2032V42.2161V42.2291V42.242V42.255V42.2679V42.2809V42.2938V42.3068V42.3197V42.3327V42.3456V42.3586V42.3715V42.3845V42.3974V42.4104V42.4234V42.4363V42.4493V42.4622V42.4752V42.4881V42.5011V42.514V42.527V42.5399V42.5529V42.5658V42.5788V42.5917V42.6047V42.6176V42.6306V42.6435V42.6565V42.6695V42.6824V42.6954V42.7083V42.7213V42.7342V42.7472V42.7601V42.7731V42.786V42.799V42.8119V42.8249V42.8378V42.8508V42.8637V42.8767V42.8897V42.9026V42.9156V42.9285V42.9415V42.9544V42.9674V42.9803V42.9933V43.0062V43.0192V43.0321V43.0451V43.058V43.071V43.0839V43.0969V43.1099V43.1228V43.1358V43.1487V43.1617V43.1746V43.1876V43.2005V43.2135V43.2264V43.2394V43.2523V43.2653V43.2782V43.2912V43.3041V43.3171V43.33V43.343V43.356V43.3689V43.3819V43.3948V43.4078V43.4207V43.4337V43.4466V43.4596V43.4725V43.4855V43.4984V43.5114V43.5243V43.5373V43.5502V43.5632V43.5762V43.5891V43.6021V43.615V43.628V43.6409V43.6539V43.6668V43.6798V43.6927V43.7057V43.7186V43.7316V43.7445V43.7575V43.7704V43.7834V43.7963V43.8093V43.8223V43.8352V43.8482V43.8611V43.8741V43.887V43.9V43.9129V43.9259V43.9388V43.9518V43.9647V43.9777V43.9906V44.0036V44.0165V44.0295V44.0425V44.0554V44.0684V44.0813V44.0943V44.1072V44.1202V44.1331V44.1461V44.159V44.172V44.1849V44.1979V44.2108V44.2238V44.2367V44.2497V44.2627V44.2756V44.2886V44.3015V44.3145V44.3274V44.3404V44.3533V44.3663V44.3792V44.3922V44.4051V44.4181V44.431V44.444V44.4569V44.4699V44.4828V44.4958V44.5088V44.5217V44.5347V44.5476V44.5606V44.5735V44.5865V44.5994V44.6124V44.6253V44.6383V44.6512V44.6642V44.6771V44.6901V44.703V44.716V44.729V44.7419V44.7549V44.7678V44.7808V44.7937V44.8067V44.8196V44.8326V44.8455V44.8585V44.8714V44.8844V44.8973V44.9103V44.9232V44.9362V44.9492V44.9621V44.9751V44.988V45.001V45.0139V45.0269V45.0398V45.0528V45.0657V45.0787V45.0916V45.1046V45.1175V45.1305V45.1434V45.1564V45.1693V45.1823V45.1953V45.2082V45.2212V45.2341V45.2471V45.26V45.273V45.2859V45.2989V45.3118V45.3248V45.3377V45.3507V45.3636V45.3766V45.3895V45.4025V45.4155V45.4284V45.4414V45.4543V45.4673V45.4802V45.4932V45.5061V45.5191V45.532V45.545V45.5579V45.5709V45.5838V45.5968V45.6097V45.6227V45.6357V45.6486V45.6616V45.6745V45.6875V45.7004V45.7134V45.7263V45.7393V45.7522V45.7652V45.7781V45.7911V45.804V45.817V45.8299V45.8429V45.8559V45.8688V45.8818V45.8947V45.9077V45.9206V45.9336V45.9465V45.9595V45.9724V45.9854V45.9983V46.0113V46.0242V46.0372V46.0501V46.0631V46.076V46.089V46.102V46.1149V46.1279V46.1408V46.1538V46.1667V46.1797V46.1926V46.2056V46.2185V46.2315V46.2444V46.2574V46.2703V46.2833V46.2962V46.3092V46.3222V46.3351V46.3481V46.361V46.374V46.3869V46.3999V46.4019C88.8269 48.6079 88.8959 50.7105 88.9648 52.7097M105.825 61.7632L91.5255 61.7517C91.5264 61.753 91.5274 61.7543 91.5283 61.7555M105.825 61.7632C104.404 63.8013 102.065 64.883 98.6275 64.883C95.3427 64.883 93.0245 63.8102 91.5283 61.7555M105.825 61.7632L91.5283 61.7555M88.9648 52.7097L88.2684 52.7337L88.9648 52.7093C88.9648 52.7094 88.9648 52.7095 88.9648 52.7097ZM88.9648 52.7097C89.0999 56.5574 89.9749 59.5526 91.5283 61.7555M109.197 39.781C109.197 37.5704 109.128 35.5324 108.99 33.6672C108.921 29.8677 108.057 26.7936 106.399 24.4448L109.197 39.781ZM109.197 39.781C109.266 41.9916 109.266 44.2022 109.197 46.4128M109.197 39.781V46.4128M155.859 79.1908L155.848 79.1867C152.107 77.7044 148.98 75.6842 146.485 73.1173L146.478 73.11C144.063 70.5529 142.218 67.5709 140.943 64.1708C139.673 60.7835 138.934 57.1553 138.723 53.29L138.723 53.2778C138.654 51.4104 138.585 49.3016 138.515 46.9515L138.515 46.9412V46.9309V46.9168V46.9026V46.8884V46.8743V46.8601V46.8459V46.8318V46.8176V46.8034V46.7893V46.7751V46.7609V46.7468V46.7326V46.7184V46.7043V46.6901V46.6759V46.6618V46.6476V46.6334V46.6193V46.6051V46.5909V46.5768V46.5626V46.5484V46.5343V46.5201V46.5059V46.4918V46.4776V46.4634V46.4492V46.4351V46.4209V46.4067V46.3926V46.3784V46.3642V46.3501V46.3359V46.3217V46.3076V46.2934V46.2792V46.2651V46.2509V46.2367V46.2226V46.2084V46.1942V46.1801V46.1659V46.1517V46.1376V46.1234V46.1092V46.0951V46.0809V46.0667V46.0526V46.0384V46.0242V46.0101V45.9959V45.9817V45.9676V45.9534V45.9392V45.9251V45.9109V45.8967V45.8826V45.8684V45.8542V45.8401V45.8259V45.8117V45.7976V45.7834V45.7692V45.7551V45.7409V45.7267V45.7126V45.6984V45.6842V45.6701V45.6559V45.6417V45.6276V45.6134V45.5992V45.5851V45.5709V45.5567V45.5426V45.5284V45.5142V45.5V45.4859V45.4717V45.4576V45.4434V45.4292V45.415V45.4009V45.3867V45.3725V45.3584V45.3442V45.33V45.3159V45.3017V45.2875V45.2734V45.2592V45.245V45.2309V45.2167V45.2025V45.1884V45.1742V45.16V45.1459V45.1317V45.1175V45.1034V45.0892V45.075V45.0609V45.0467V45.0325V45.0184V45.0042V44.99V44.9759V44.9617V44.9475V44.9334V44.9192V44.905V44.8909V44.8767V44.8625V44.8484V44.8342V44.82V44.8059V44.7917V44.7775V44.7634V44.7492V44.735V44.7209V44.7067V44.6925V44.6784V44.6642V44.65V44.6359V44.6217V44.6075V44.5934V44.5792V44.565V44.5508V44.5367V44.5225V44.5084V44.4942V44.48V44.4658V44.4517V44.4375V44.4233V44.4092V44.395V44.3808V44.3667V44.3525V44.3383V44.3242V44.31V44.2958V44.2817V44.2675V44.2533V44.2392V44.225V44.2108V44.1967V44.1825V44.1683V44.1542V44.14V44.1258V44.1117V44.0975V44.0833V44.0692V44.055V44.0408V44.0267V44.0125V43.9983V43.9842V43.97V43.9558V43.9417V43.9275V43.9133V43.8992V43.885V43.8708V43.8567V43.8425V43.8283V43.8142V43.8V43.7858V43.7717V43.7575V43.7433V43.7292V43.715V43.7008V43.6867V43.6725V43.6583V43.6442V43.63V43.6158V43.6017V43.5875V43.5733V43.5592V43.545V43.5308V43.5166V43.5025V43.4883V43.4741V43.46V43.4458V43.4316V43.4175V43.4033V43.3891V43.375V43.3608V43.3466V43.3325V43.3183V43.3041V43.29V43.2758V43.2616V43.2475V43.2333V43.2191V43.205V43.1908V43.1766V43.1625V43.1483V43.1341V43.12V43.1058V43.0916V43.0775V43.0633V43.0491V43.035V43.0208V43.0066V42.9925V42.9783V42.9641V42.95V42.9358V42.9216V42.9075V42.8933V42.8791V42.865V42.8508V42.8366V42.8225V42.8083V42.7941V42.78V42.7658V42.7516V42.7375V42.7233V42.7091V42.695V42.6808V42.6666V42.6525V42.6383V42.6241V42.61V42.5958V42.5816V42.5674V42.5533V42.5391V42.5249V42.5108V42.4966V42.4824V42.4683V42.4541V42.4399V42.4258V42.4116V42.3974V42.3833V42.3691V42.3549V42.3408V42.3266V42.3124V42.2983V42.2841V42.2699V42.2558V42.2416V42.2274V42.2133V42.1991V42.1849V42.1708V42.1566V42.1424V42.1283V42.1141V42.0999V42.0858V42.0716V42.0574V42.0433V42.0291V42.0149V42.0008V41.9866V41.9724V41.9583V41.9441V41.9299V41.9158V41.9016V41.8874V41.8733V41.8591V41.8449V41.8308V41.8166V41.8024V41.7883V41.7741V41.7599V41.7458V41.7316V41.7174V41.7033V41.6891V41.6749V41.6608V41.6466V41.6324V41.6183V41.6041V41.5899V41.5757V41.5616V41.5474V41.5332V41.5191V41.5049V41.4907V41.4766V41.4624V41.4482V41.4341V41.4199V41.4057V41.3916V41.3774V41.3632V41.3491V41.3349V41.3207V41.3066V41.2924V41.2782V41.2641V41.2499V41.2357V41.2216V41.2074V41.1932V41.1791V41.1649V41.1507V41.1366V41.1224V41.1082V41.0941V41.0799V41.0657V41.0516V41.0374V41.0232V41.0091V40.9949V40.9807V40.9666V40.9524V40.9382V40.9241V40.9099V40.8957V40.8816V40.8674V40.8532V40.8391V40.8249V40.8107V40.7966V40.7824V40.7682V40.7541V40.7399V40.7257V40.7116V40.6974V40.6832V40.6691V40.6549V40.6407V40.6265V40.6124V40.5982V40.584V40.5699V40.5557V40.5415V40.5274V40.5132V40.499V40.4849V40.4707V40.4565V40.4424V40.4282V40.414V40.3999V40.3857V40.3715V40.3574V40.3432V40.329V40.3149V40.3007V40.2865V40.2724V40.2582V40.244V40.2299V40.2157V40.2015V40.1874V40.1732V40.159V40.1449V40.1307V40.1165V40.1024V40.0882V40.074V40.0599V40.0457V40.0315V40.0174V40.0032V39.989V39.9749V39.9607V39.9465V39.9324V39.9182V39.904V39.8899V39.8757V39.8615V39.8474V39.8332V39.819V39.8049V39.7907V39.7765V39.7624V39.7482V39.734V39.7199V39.7057V39.6915V39.6773V39.6676L138.515 39.6579C138.585 37.1696 138.654 34.9571 138.723 33.0205L138.723 33.0074L138.723 33.0074C138.934 29.142 139.673 25.5465 140.945 22.2256L140.948 22.2183C142.294 18.8174 144.211 15.8687 146.699 13.3803C149.262 10.8178 152.387 8.83256 156.062 7.41911L156.066 7.41752C159.822 5.99999 164.158 5.3 169.058 5.3C174.027 5.3 178.364 5.99946 182.055 7.41911C185.728 8.8318 188.82 10.8166 191.314 13.3804C193.87 15.8673 195.822 18.8152 197.169 22.2165C197.169 22.2171 197.169 22.2178 197.169 22.2184L196.518 22.476C197.831 25.7228 198.556 29.246 198.695 33.0455L155.859 79.1908ZM155.859 79.1908C159.617 80.609 164.022 81.3083 169.058 81.3083C174.162 81.3083 178.57 80.6096 182.263 79.1892L182.269 79.1866C186.009 77.7047 189.103 75.684 191.531 73.1142C194.015 70.5587 195.896 67.5774 197.172 64.1769C198.512 60.7876 199.252 57.1573 199.394 53.2906C199.533 51.4077 199.602 49.2874 199.602 46.9309H198.902M155.859 79.1908L199.394 33.0077C199.533 34.957 199.602 37.1774 199.602 39.6675C199.671 42.0953 199.671 44.5231 199.602 46.9509L198.902 46.9309M198.902 46.9309C198.902 49.2797 198.833 51.3867 198.695 53.2519L198.902 39.6773C198.971 42.0952 198.971 44.5131 198.902 46.9309ZM176.256 61.7632L176.258 61.7598C177.81 59.561 178.653 56.5693 178.721 52.7215L178.721 52.7036L178.722 52.6856C178.859 50.6998 178.928 48.609 178.928 46.4128V46.4019L178.928 46.391C178.997 44.1949 178.997 41.9989 178.928 39.8028L178.928 39.7919V39.781C178.928 37.5846 178.859 35.5642 178.723 33.719L178.721 33.6995L178.721 33.68C178.654 29.9762 177.813 27.0511 176.258 24.8485L176.25 24.8371L176.25 24.837C174.825 22.7295 172.484 21.5869 169.058 21.5182C165.633 21.5869 163.292 22.7295 161.867 24.837C160.372 27.0461 159.531 29.9808 159.396 33.6927L159.396 33.6931C159.327 35.5538 159.258 37.5867 159.189 39.7921L176.256 61.7632ZM176.256 61.7632C174.835 63.8013 172.496 64.883 169.058 64.883M176.256 61.7632L169.058 64.883M179.628 46.4128C179.628 48.6234 179.559 50.7304 179.421 52.7338C179.352 56.6715 178.488 59.8147 176.83 62.1635C175.241 64.4432 172.651 65.583 169.058 65.583C165.604 65.583 163.048 64.4432 161.39 62.1635L179.628 46.4128ZM179.628 46.4128C179.697 44.2022 179.697 41.9916 179.628 39.781M179.628 46.4128V39.781M179.628 39.781C179.628 37.5704 179.559 35.5324 179.421 33.6672L179.628 39.781ZM169.058 64.883C165.772 64.883 163.453 63.8089 161.957 61.7517L169.058 64.883ZM109.197 46.4128C109.197 48.6234 109.128 50.7304 108.99 52.7338L109.197 46.4128ZM16.6235 79.4059L16.641 79.4263L16.66 79.4453C17.2144 79.9996 17.9145 80.2721 18.7094 80.2721H32.0767C33.3126 80.2721 34.3613 79.9207 35.0868 79.1045C35.6534 78.4671 36.0813 77.8948 36.3296 77.3982L36.3364 77.3846L36.3426 77.3707L60.2733 23.8115C60.6322 23.0918 60.9216 22.3682 61.1397 21.6409C61.3731 20.8632 61.4801 19.9265 61.4801 18.8492V9.62679C61.4801 8.70385 61.1798 7.89662 60.5498 7.26661C59.9079 6.62476 59.0586 6.33623 58.086 6.33623H9.59057C8.71892 6.33623 7.93592 6.64721 7.2644 7.23478L7.24686 7.25013L7.23038 7.26661C6.60037 7.89662 6.3 8.70385 6.3 9.62679V19.9891C6.3 20.912 6.59915 21.7338 7.19856 22.4188L7.22928 22.454L7.2644 22.4847C7.93592 23.0723 8.71892 23.3832 9.59057 23.3832H39.5987L16.1012 76.0747L16.0957 76.0871L16.0906 76.0998C15.9301 76.501 15.8333 76.902 15.8333 77.2924C15.8333 78.0856 16.1032 78.7988 16.6235 79.4059Z" stroke="#A6A6A6" stroke-width="1.4"/>
<path d="M22.7113 84.5721C22.0896 84.5721 21.5715 84.3648 21.157 83.9503C20.7425 83.4667 20.5352 82.9141 20.5352 82.2924C20.5352 82.016 20.6043 81.7052 20.7425 81.3598L44.6793 27.6832H13.5925C12.9017 27.6832 12.28 27.4415 11.7273 26.9579C11.2437 26.4052 11.002 25.749 11.002 24.9891V14.6268C11.002 13.8669 11.2437 13.2452 11.7273 12.7616C12.28 12.278 12.9017 12.0362 13.5925 12.0362H62.0879C62.9169 12.0362 63.5732 12.278 64.0567 12.7616C64.5403 13.2452 64.7821 13.8669 64.7821 14.6268V23.8492C64.7821 24.8854 64.6785 25.749 64.4712 26.4398C64.264 27.1306 63.9877 27.8214 63.6422 28.5122L39.7054 82.0851C39.4982 82.4996 39.1182 83.0177 38.5656 83.6395C38.0129 84.2612 37.1839 84.5721 36.0786 84.5721H22.7113Z" fill="#135685"/>
<path d="M102.629 85.6083C97.6555 85.6083 93.3379 84.9175 89.6766 83.5358C86.0153 82.0851 82.9757 80.1163 80.5578 77.6293C78.209 75.1424 76.4129 72.241 75.1694 68.925C73.926 65.6091 73.2006 62.0514 72.9934 58.2519C72.9243 56.3867 72.8552 54.2797 72.7861 51.9309C72.7861 49.5131 72.7861 47.0952 72.7861 44.6773C72.8552 42.1904 72.9243 39.9798 72.9934 38.0455C73.2006 34.246 73.926 30.7228 75.1694 27.476C76.482 24.1601 78.3472 21.2932 80.7651 18.8753C83.252 16.3884 86.2916 14.4541 89.8839 13.0725C93.5452 11.6908 97.7937 11 102.629 11C107.534 11 111.783 11.6908 115.375 13.0725C118.967 14.4541 121.972 16.3884 124.39 18.8753C126.877 21.2932 128.777 24.1601 130.089 27.476C131.402 30.7228 132.127 34.246 132.266 38.0455C132.404 39.9798 132.473 42.1904 132.473 44.6773C132.542 47.0952 132.542 49.5131 132.473 51.9309C132.473 54.2797 132.404 56.3867 132.266 58.2519C132.127 62.0514 131.402 65.6091 130.089 68.925C128.846 72.241 127.015 75.1424 124.597 77.6293C122.249 80.1163 119.244 82.0851 115.582 83.5358C111.99 84.9175 107.672 85.6083 102.629 85.6083ZM102.629 70.583C106.222 70.583 108.812 69.4432 110.401 67.1635C112.059 64.8147 112.923 61.6715 112.992 57.7338C113.13 55.7304 113.199 53.6234 113.199 51.4128C113.268 49.2022 113.268 46.9916 113.199 44.781C113.199 42.5704 113.13 40.5324 112.992 38.6672C112.923 34.8677 112.059 31.7936 110.401 29.4448C108.812 27.096 106.222 25.8871 102.629 25.818C99.0372 25.8871 96.4466 27.096 94.8577 29.4448C93.2689 31.7936 92.4053 34.8677 92.2672 38.6672C92.1981 40.5324 92.129 42.5704 92.0599 44.781C92.0599 46.9916 92.0599 49.2022 92.0599 51.4128C92.129 53.6234 92.1981 55.7304 92.2672 57.7338C92.4053 61.6715 93.3034 64.8147 94.9614 67.1635C96.6193 69.4432 99.1753 70.583 102.629 70.583Z" fill="#135685"/>
<path d="M173.06 85.6083C168.087 85.6083 163.769 84.9175 160.108 83.5358C156.446 82.0851 153.407 80.1163 150.989 77.6293C148.64 75.1424 146.844 72.241 145.6 68.925C144.357 65.6091 143.632 62.0514 143.424 58.2519C143.355 56.3867 143.286 54.2797 143.217 51.9309C143.217 49.5131 143.217 47.0952 143.217 44.6773C143.286 42.1904 143.355 39.9798 143.424 38.0455C143.632 34.246 144.357 30.7228 145.6 27.476C146.913 24.1601 148.778 21.2932 151.196 18.8753C153.683 16.3884 156.723 14.4541 160.315 13.0725C163.976 11.6908 168.225 11 173.06 11C177.965 11 182.214 11.6908 185.806 13.0725C189.398 14.4541 192.403 16.3884 194.821 18.8753C197.308 21.2932 199.208 24.1601 200.52 27.476C201.833 30.7228 202.558 34.246 202.696 38.0455C202.835 39.9798 202.904 42.1904 202.904 44.6773C202.973 47.0952 202.973 49.5131 202.904 51.9309C202.904 54.2797 202.835 56.3867 202.696 58.2519C202.558 62.0514 201.833 65.6091 200.52 68.925C199.277 72.241 197.446 75.1424 195.028 77.6293C192.68 80.1163 189.675 82.0851 186.013 83.5358C182.421 84.9175 178.103 85.6083 173.06 85.6083ZM173.06 70.583C176.653 70.583 179.243 69.4432 180.832 67.1635C182.49 64.8147 183.354 61.6715 183.423 57.7338C183.561 55.7304 183.63 53.6234 183.63 51.4128C183.699 49.2022 183.699 46.9916 183.63 44.781C183.63 42.5704 183.561 40.5324 183.423 38.6672C183.354 34.8677 182.49 31.7936 180.832 29.4448C179.243 27.096 176.653 25.8871 173.06 25.818C169.468 25.8871 166.878 27.096 165.289 29.4448C163.7 31.7936 162.836 34.8677 162.698 38.6672C162.629 40.5324 162.56 42.5704 162.491 44.781C162.491 46.9916 162.491 49.2022 162.491 51.4128C162.56 53.6234 162.629 55.7304 162.698 57.7338C162.836 61.6715 163.734 64.8147 165.392 67.1635C167.05 69.4432 169.606 70.583 173.06 70.583Z" fill="#135685"/>
</svg>
