<svg width="134" height="85" viewBox="0 0 134 85" fill="none" xmlns="http://www.w3.org/2000/svg">
<path opacity="0.5" fill-rule="evenodd" clip-rule="evenodd" d="M1.20851 74.0666L1.17129 74.0294C0.368388 73.2265 0 72.2005 0 71.0903V63.9067C0 63.2045 0.187466 62.3228 0.461987 61.3601C0.845182 59.9391 1.79397 58.7491 3.07018 57.7548L13.5961 47.4312L13.6743 47.3716C19.0616 43.2638 23.4625 39.8033 26.8816 36.9876C30.345 34.1235 32.837 31.65 34.4178 29.5632C35.9823 27.4981 36.6265 25.7364 36.6265 24.2448C36.6265 22.2419 36.1026 20.7287 35.1627 19.5799L35.138 19.5498L35.1149 19.5185C34.3937 18.5428 32.9766 17.8327 30.3155 17.8327C28.5987 17.8327 27.2614 18.2153 26.2194 18.8926L26.202 18.9038C25.163 19.5601 24.3825 20.422 23.8376 21.5118C23.2251 22.7368 22.8015 23.9816 22.5601 25.2489L22.5438 25.3346L22.5181 25.418C22.1542 26.6007 21.4532 27.5984 20.3293 28.1723C19.4792 28.638 18.5476 28.8611 17.5671 28.8611H4.91979C3.92167 28.8611 3.00482 28.5115 2.28425 27.791L3.40212 26.6731C3.80683 27.0778 4.31272 27.2802 4.91979 27.2802H17.5671C18.309 27.2802 18.9836 27.1115 19.5906 26.7743C20.2651 26.437 20.7373 25.8299 21.0071 24.9531C21.2769 23.5366 21.7491 22.1538 22.4236 20.8048C23.0981 19.4557 24.0762 18.3765 25.3578 17.5671C26.7068 16.6902 28.3594 16.2517 30.3155 16.2517C33.216 16.2517 35.2395 17.0274 36.3862 18.5788C37.6003 20.0628 38.2074 21.9515 38.2074 24.2448C38.2074 26.2009 37.3643 28.292 35.678 30.5179C33.9917 32.7438 31.3948 35.307 27.8872 38.2074C24.4472 41.0404 20.0291 44.5142 14.6329 48.6288L4.11036 58.949C2.96368 59.8258 2.25543 60.7702 1.98562 61.7819C1.71581 62.7263 1.58091 63.4345 1.58091 63.9067V71.0903C1.58091 71.8323 1.81699 72.4394 2.28916 72.9115C2.82877 73.3837 3.46957 73.6198 4.21154 73.6198H56.116C56.8579 73.6198 57.465 73.3837 57.9372 72.9115C58.4768 72.4394 58.7466 71.8323 58.7466 71.0903V60.8713C58.7466 60.1294 58.4768 59.5223 57.9372 59.0501C57.465 58.578 56.8579 58.3419 56.116 58.3419H30.1132L39.4216 48.9323C43.064 46.1668 46.2005 43.5024 48.8311 40.9392C51.5292 38.3086 53.5865 35.5768 55.003 32.7438C56.4869 29.8434 57.2289 26.7406 57.2289 23.4354C57.2289 19.051 56.1834 15.24 54.0924 12.0023C52.0014 8.69711 48.9323 6.13392 44.8852 4.31272C40.9055 2.49151 36.0489 1.58091 30.3155 1.58091C26.1335 1.58091 22.3562 2.18798 18.9836 3.40212C15.6784 4.61625 12.8117 6.33628 10.3834 8.56221C8.02259 10.7207 6.16765 13.2164 4.81861 16.0494C3.53702 18.8824 2.8625 21.9177 2.79505 25.1554C2.79505 25.7625 2.9974 26.2684 3.40212 26.6731L2.28425 27.791C1.56368 27.0704 1.21414 26.1536 1.21414 25.1554V25.139L1.21448 25.1225C1.28619 21.6803 2.00494 18.4335 3.37823 15.3978L3.38461 15.3837L3.39127 15.3697C4.82956 12.3493 6.80795 9.6893 9.31591 7.39614C11.9062 5.02188 14.9536 3.1983 18.4384 1.91817L18.4481 1.91463C22.0184 0.6293 25.9808 0 30.3155 0C36.2067 0 41.2999 0.934377 45.5387 2.87319C49.8243 4.80265 53.147 7.55393 55.4243 11.1507C57.6997 14.6765 58.8098 18.7924 58.8098 23.4354C58.8098 26.9846 58.0112 30.3324 56.4139 33.4571C54.9051 36.4725 52.734 39.3419 49.9348 42.0712C47.2698 44.6678 44.1113 47.3519 40.4669 50.1235L33.9008 56.761H56.116C57.2088 56.761 58.2201 57.118 59.0173 57.895C59.8875 58.6752 60.3275 59.7089 60.3275 60.8713V71.0903C60.3275 72.2528 59.8875 73.2865 59.0173 74.0666C58.2201 74.8437 57.2089 75.2007 56.116 75.2007H4.21154C3.10123 75.2007 2.08672 74.8351 1.24812 74.1013L1.20851 74.0666ZM84.3198 74.0825L84.3077 74.0778C80.5532 72.5901 77.3892 70.5516 74.8529 67.9429L74.8449 67.9347L74.8371 67.9263C72.3941 65.3396 70.5303 62.3246 69.2449 58.897C67.9703 55.4981 67.2323 51.865 67.0218 48.0066L67.0211 47.9928L67.0206 47.979C66.9529 46.153 66.8854 44.0915 66.8178 41.7951L66.8171 41.7719V34.6442L66.8177 34.6223C66.8853 32.1909 66.9529 30.0282 67.0205 28.1343L67.021 28.1195L67.0218 28.1047C67.2323 24.2461 67.9706 20.6427 69.2488 17.3052L69.2551 17.2887C70.6127 13.859 72.5508 10.8751 75.0709 8.35494C77.6698 5.75602 80.8306 3.75218 84.5249 2.33129L84.5343 2.32769C88.3242 0.897588 92.6684 0.202354 97.5374 0.202354C102.47 0.202354 106.819 0.896399 110.55 2.33129C114.24 3.75049 117.369 5.7532 119.903 8.35494C122.487 10.8713 124.459 13.8528 125.817 17.2828C127.169 20.628 127.91 24.24 128.053 28.1054C128.19 30.0277 128.257 32.2084 128.258 34.6438C128.325 37.0196 128.325 39.3953 128.258 41.771C128.257 44.073 128.19 46.153 128.053 48.008C127.91 51.8695 127.17 55.5073 125.825 58.9104C124.537 62.3387 122.638 65.3518 120.129 67.9346C117.656 70.5505 114.52 72.5905 110.767 74.0778L110.752 74.0836C107.017 75.5201 102.598 76.2125 97.5374 76.2125C92.5396 76.2125 88.1263 75.519 84.3319 74.0871L84.3198 74.0825ZM118.987 66.8408C121.348 64.4126 123.135 61.5796 124.35 58.3419C125.631 55.1042 126.339 51.6304 126.474 47.9205C126.609 46.0993 126.677 44.042 126.677 41.7486C126.744 39.3878 126.744 37.027 126.677 34.6662C126.677 32.2379 126.609 30.0794 126.474 28.1908C126.339 24.4809 125.631 21.0408 124.35 17.8706C123.068 14.6329 121.213 11.8336 118.785 9.47281C116.424 7.04453 113.49 5.15587 109.982 3.80683C106.475 2.45778 102.326 1.78326 97.5374 1.78326C92.8157 1.78326 88.6674 2.45778 85.0924 3.80683C81.5849 5.15587 78.617 7.04453 76.1888 9.47281C73.8279 11.8336 72.0067 14.6329 70.7251 17.8706C69.511 21.0408 68.8027 24.4809 68.6004 28.1908C68.5329 30.0794 68.4655 32.2379 68.398 34.6662V41.7486C68.4655 44.042 68.5329 46.0993 68.6004 47.9205C68.8027 51.6304 69.511 55.1042 70.7251 58.3419C71.9393 61.5796 73.693 64.4126 75.9864 66.8408C78.3472 69.2691 81.3151 71.1915 84.8901 72.608C88.465 73.957 92.6808 74.6316 97.5374 74.6316C102.461 74.6316 106.677 73.957 110.185 72.608C113.76 71.1915 116.694 69.2691 118.987 66.8408ZM103.829 55.7179L103.834 55.7102C105.214 53.7555 106.011 51.0287 106.075 47.3869L106.075 47.3463L106.078 47.3059C106.21 45.3893 106.277 43.3685 106.277 41.2428V41.2181L106.277 41.1934C106.344 39.0678 106.344 36.9423 106.277 34.8167L106.277 34.7921V34.7674C106.277 32.6411 106.21 30.6908 106.079 28.9146L106.075 28.8707L106.075 28.8266C106.011 25.333 105.22 22.6679 103.834 20.7047L103.825 20.6918L103.816 20.6788C102.633 18.9297 100.667 17.8995 97.5374 17.833C94.4082 17.8995 92.4416 18.9297 91.2584 20.6788C89.9205 22.6566 89.1271 25.3434 88.9994 28.8553C88.9323 30.6661 88.8652 32.6457 88.7981 34.7922V41.2175C88.8652 43.3651 88.9324 45.4126 88.9995 47.3592C89.1273 51.0013 89.9521 53.7367 91.3353 55.701C92.5889 57.4187 94.5478 58.3798 97.5374 58.3798C100.696 58.3798 102.658 57.3982 103.829 55.7179ZM87.2172 34.7674C87.2846 32.6089 87.3521 30.6191 87.4195 28.7978C87.5544 25.088 88.3976 22.0864 89.949 19.793C91.5004 17.4996 94.0298 16.3192 97.5374 16.2517C101.045 16.3192 103.574 17.4996 105.126 19.793C106.745 22.0864 107.588 25.088 107.655 28.7978C107.79 30.6191 107.858 32.6089 107.858 34.7674C107.925 36.9258 107.925 39.0843 107.858 41.2428C107.858 43.4012 107.79 45.4585 107.655 47.4146C107.588 51.2594 106.745 54.3285 105.126 56.6219C103.574 58.8478 101.045 59.9607 97.5374 59.9607C94.1647 59.9607 91.669 58.8478 90.0502 56.6219C88.4313 54.3285 87.5544 51.2594 87.4195 47.4146C87.3521 45.4585 87.2846 43.4012 87.2172 41.2428V34.7674Z" fill="black" fill-opacity="0.4"/>
<path opacity="0.5" fill-rule="evenodd" clip-rule="evenodd" d="M4.20851 79.0666L4.17129 79.0294C3.36839 78.2265 3 77.2005 3 76.0903V68.9067C3 68.2045 3.18747 67.3228 3.46199 66.3601C3.84518 64.9391 4.79397 63.7491 6.07018 62.7548L16.5961 52.4312L16.6743 52.3716C22.0616 48.2638 26.4625 44.8033 29.8816 41.9876C33.345 39.1235 35.837 36.65 37.4178 34.5632C38.9823 32.4981 39.6265 30.7364 39.6265 29.2448C39.6265 27.2419 39.1026 25.7287 38.1627 24.5799L38.138 24.5498L38.1149 24.5185C37.3937 23.5428 35.9766 22.8327 33.3155 22.8327C31.5987 22.8327 30.2614 23.2153 29.2194 23.8926L29.202 23.9038C28.163 24.5601 27.3825 25.422 26.8376 26.5118C26.2251 27.7368 25.8015 28.9816 25.5601 30.2489L25.5438 30.3346L25.5181 30.418C25.1542 31.6007 24.4532 32.5984 23.3293 33.1723C22.4792 33.638 21.5476 33.8611 20.5671 33.8611H7.91979C6.92167 33.8611 6.00482 33.5115 5.28425 32.791L6.40212 31.6731C6.80683 32.0778 7.31272 32.2802 7.91979 32.2802H20.5671C21.309 32.2802 21.9836 32.1115 22.5906 31.7743C23.2651 31.437 23.7373 30.8299 24.0071 29.9531C24.2769 28.5366 24.7491 27.1538 25.4236 25.8048C26.0981 24.4557 27.0762 23.3765 28.3578 22.5671C29.7068 21.6902 31.3594 21.2517 33.3155 21.2517C36.216 21.2517 38.2395 22.0274 39.3862 23.5788C40.6003 25.0628 41.2074 26.9515 41.2074 29.2448C41.2074 31.2009 40.3643 33.292 38.678 35.5179C36.9917 37.7438 34.3948 40.307 30.8872 43.2074C27.4472 46.0404 23.0291 49.5142 17.6329 53.6288L7.11036 63.949C5.96368 64.8258 5.25543 65.7702 4.98562 66.7819C4.71581 67.7263 4.58091 68.4345 4.58091 68.9067V76.0903C4.58091 76.8323 4.81699 77.4394 5.28916 77.9115C5.82877 78.3837 6.46957 78.6198 7.21154 78.6198H59.116C59.8579 78.6198 60.465 78.3837 60.9372 77.9115C61.4768 77.4394 61.7466 76.8323 61.7466 76.0903V65.8713C61.7466 65.1294 61.4768 64.5223 60.9372 64.0501C60.465 63.578 59.8579 63.3419 59.116 63.3419H33.1132L42.4216 53.9323C46.064 51.1668 49.2005 48.5024 51.8311 45.9392C54.5292 43.3086 56.5865 40.5768 58.003 37.7438C59.4869 34.8434 60.2289 31.7406 60.2289 28.4354C60.2289 24.051 59.1834 20.24 57.0924 17.0023C55.0014 13.6971 51.9323 11.1339 47.8852 9.31272C43.9055 7.49151 39.0489 6.58091 33.3155 6.58091C29.1335 6.58091 25.3562 7.18798 21.9836 8.40212C18.6784 9.61625 15.8117 11.3363 13.3834 13.5622C11.0226 15.7207 9.16765 18.2164 7.81861 21.0494C6.53702 23.8824 5.8625 26.9177 5.79505 30.1554C5.79505 30.7625 5.9974 31.2684 6.40212 31.6731L5.28425 32.791C4.56368 32.0704 4.21414 31.1536 4.21414 30.1554V30.139L4.21448 30.1225C4.28619 26.6803 5.00494 23.4335 6.37823 20.3978L6.38461 20.3837L6.39127 20.3697C7.82956 17.3493 9.80795 14.6893 12.3159 12.3961C14.9062 10.0219 17.9536 8.1983 21.4384 6.91817L21.4481 6.91463C25.0184 5.6293 28.9808 5 33.3155 5C39.2067 5 44.2999 5.93438 48.5387 7.87319C52.8243 9.80265 56.147 12.5539 58.4243 16.1507C60.6997 19.6765 61.8098 23.7924 61.8098 28.4354C61.8098 31.9846 61.0112 35.3324 59.4139 38.4571C57.9051 41.4725 55.734 44.3419 52.9348 47.0712C50.2698 49.6678 47.1113 52.3519 43.4669 55.1235L36.9008 61.761H59.116C60.2088 61.761 61.2201 62.118 62.0173 62.895C62.8875 63.6752 63.3275 64.7089 63.3275 65.8713V76.0903C63.3275 77.2528 62.8875 78.2865 62.0173 79.0666C61.2201 79.8437 60.2089 80.2007 59.116 80.2007H7.21154C6.10123 80.2007 5.08672 79.8351 4.24812 79.1013L4.20851 79.0666ZM87.3198 79.0825L87.3077 79.0778C83.5532 77.5901 80.3892 75.5516 77.8529 72.9429L77.8449 72.9347L77.8371 72.9263C75.3941 70.3396 73.5303 67.3246 72.2449 63.897C70.9703 60.4981 70.2323 56.865 70.0218 53.0066L70.0211 52.9928L70.0206 52.979C69.9529 51.153 69.8854 49.0915 69.8178 46.7951L69.8171 46.7719V39.6442L69.8177 39.6223C69.8853 37.1909 69.9529 35.0282 70.0205 33.1343L70.021 33.1195L70.0218 33.1047C70.2323 29.2461 70.9706 25.6427 72.2488 22.3052L72.2551 22.2887C73.6127 18.859 75.5508 15.8751 78.0709 13.3549C80.6698 10.756 83.8306 8.75218 87.5249 7.33129L87.5343 7.32769C91.3242 5.89759 95.6684 5.20235 100.537 5.20235C105.47 5.20235 109.819 5.8964 113.55 7.33129C117.24 8.75049 120.369 10.7532 122.903 13.3549C125.487 15.8713 127.459 18.8528 128.817 22.2828C130.169 25.628 130.91 29.24 131.053 33.1054C131.19 35.0277 131.257 37.2084 131.258 39.6438C131.325 42.0196 131.325 44.3953 131.258 46.771C131.257 49.073 131.19 51.153 131.053 53.008C130.91 56.8695 130.17 60.5073 128.825 63.9104C127.537 67.3387 125.638 70.3518 123.129 72.9346C120.656 75.5505 117.52 77.5905 113.767 79.0778L113.752 79.0836C110.017 80.5201 105.598 81.2125 100.537 81.2125C95.5396 81.2125 91.1263 80.519 87.3319 79.0871L87.3198 79.0825ZM121.987 71.8408C124.348 69.4126 126.135 66.5796 127.35 63.3419C128.631 60.1042 129.339 56.6304 129.474 52.9205C129.609 51.0993 129.677 49.042 129.677 46.7486C129.744 44.3878 129.744 42.027 129.677 39.6662C129.677 37.2379 129.609 35.0794 129.474 33.1908C129.339 29.4809 128.631 26.0408 127.35 22.8706C126.068 19.6329 124.213 16.8336 121.785 14.4728C119.424 12.0445 116.49 10.1559 112.982 8.80683C109.475 7.45778 105.326 6.78326 100.537 6.78326C95.8157 6.78326 91.6674 7.45778 88.0924 8.80683C84.5849 10.1559 81.617 12.0445 79.1888 14.4728C76.8279 16.8336 75.0067 19.6329 73.7251 22.8706C72.511 26.0408 71.8027 29.4809 71.6004 33.1908C71.5329 35.0794 71.4655 37.2379 71.398 39.6662V46.7486C71.4655 49.042 71.5329 51.0993 71.6004 52.9205C71.8027 56.6304 72.511 60.1042 73.7251 63.3419C74.9393 66.5796 76.693 69.4126 78.9864 71.8408C81.3472 74.2691 84.3151 76.1915 87.8901 77.608C91.465 78.957 95.6808 79.6316 100.537 79.6316C105.461 79.6316 109.677 78.957 113.185 77.608C116.76 76.1915 119.694 74.2691 121.987 71.8408ZM106.829 60.7179L106.834 60.7102C108.214 58.7555 109.011 56.0287 109.075 52.3869L109.075 52.3463L109.078 52.3059C109.21 50.3893 109.277 48.3685 109.277 46.2428V46.2181L109.277 46.1934C109.344 44.0678 109.344 41.9423 109.277 39.8167L109.277 39.7921V39.7674C109.277 37.6411 109.21 35.6908 109.079 33.9146L109.075 33.8707L109.075 33.8266C109.011 30.333 108.22 27.6679 106.834 25.7047L106.825 25.6918L106.816 25.6788C105.633 23.9297 103.667 22.8995 100.537 22.833C97.4082 22.8995 95.4416 23.9297 94.2584 25.6788C92.9205 27.6566 92.1271 30.3434 91.9994 33.8553C91.9323 35.6661 91.8652 37.6457 91.7981 39.7922V46.2175C91.8652 48.3651 91.9324 50.4126 91.9995 52.3592C92.1273 56.0013 92.9521 58.7367 94.3353 60.701C95.5889 62.4187 97.5478 63.3798 100.537 63.3798C103.696 63.3798 105.658 62.3982 106.829 60.7179ZM90.2172 39.7674C90.2846 37.6089 90.3521 35.6191 90.4195 33.7978C90.5544 30.088 91.3976 27.0864 92.949 24.793C94.5004 22.4996 97.0298 21.3192 100.537 21.2517C104.045 21.3192 106.574 22.4996 108.126 24.793C109.745 27.0864 110.588 30.088 110.655 33.7978C110.79 35.6191 110.858 37.6089 110.858 39.7674C110.925 41.9258 110.925 44.0843 110.858 46.2428C110.858 48.4012 110.79 50.4585 110.655 52.4146C110.588 56.2594 109.745 59.3285 108.126 61.6219C106.574 63.8478 104.045 64.9607 100.537 64.9607C97.1647 64.9607 94.669 63.8478 93.0502 61.6219C91.4313 59.3285 90.5544 56.2594 90.4195 52.4146C90.3521 50.4585 90.2846 48.4012 90.2172 46.2428V39.7674Z" fill="#4D4D4D"/>
<path d="M11.4236 83.1053C10.6816 83.1053 10.0408 82.8692 9.50122 82.397C9.02905 81.9249 8.79297 81.3178 8.79297 80.5758V73.3922C8.79297 72.92 8.92787 72.2118 9.19768 71.2674C9.46749 70.2557 10.1757 69.3113 11.3224 68.4344L21.845 58.1143C27.2411 53.9997 31.6592 50.5259 35.0993 47.6929C38.6068 44.7925 41.2037 42.2293 42.89 40.0034C44.5763 37.7775 45.4195 35.6864 45.4195 33.7303C45.4195 31.4369 44.8124 29.5483 43.5983 28.0643C42.4516 26.5129 40.428 25.7372 37.5276 25.7372C35.5715 25.7372 33.9189 26.1757 32.5698 27.0526C31.2883 27.862 30.3102 28.9412 29.6357 30.2903C28.9612 31.6393 28.489 33.0221 28.2192 34.4386C27.9494 35.3154 27.4772 35.9225 26.8027 36.2598C26.1956 36.597 25.5211 36.7657 24.7791 36.7657H12.1318C11.5248 36.7657 11.0189 36.5633 10.6142 36.1586C10.2095 35.7539 10.0071 35.248 10.0071 34.6409C10.0746 31.4032 10.7491 28.3679 12.0307 25.5349C13.3797 22.7019 15.2346 20.2062 17.5955 18.0477C20.0237 15.8218 22.8905 14.1017 26.1956 12.8876C29.5682 11.6735 33.3455 11.0664 37.5276 11.0664C43.261 11.0664 48.1176 11.977 52.0972 13.7982C56.1444 15.6194 59.2134 18.1826 61.3045 21.4878C63.3955 24.7255 64.441 28.5365 64.441 32.9209C64.441 36.2261 63.699 39.3288 62.2151 42.2293C60.7986 45.0623 58.7413 47.7941 56.0432 50.4247C53.4126 52.9879 50.276 55.6523 46.6336 58.4178L37.3252 67.8274H63.328C64.07 67.8274 64.6771 68.0635 65.1492 68.5356C65.6888 69.0078 65.9587 69.6149 65.9587 70.3568V80.5758C65.9587 81.3178 65.6888 81.9249 65.1492 82.397C64.6771 82.8692 64.07 83.1053 63.328 83.1053H11.4236Z" fill="#60845A"/>
<path d="M104.749 84.1171C99.8929 84.1171 95.6771 83.4426 92.1021 82.0935C88.5272 80.677 85.5593 78.7546 83.1985 76.3263C80.9051 73.8981 79.1513 71.0651 77.9372 67.8274C76.7231 64.5897 76.0148 61.1159 75.8125 57.406C75.745 55.5848 75.6776 53.5275 75.6101 51.2341C75.6101 48.8733 75.6101 46.5125 75.6101 44.1517C75.6776 41.7234 75.745 39.5649 75.8125 37.6763C76.0148 33.9664 76.7231 30.5263 77.9372 27.3561C79.2188 24.1184 81.04 21.3191 83.4008 18.9583C85.8291 16.53 88.797 14.6414 92.3045 13.2923C95.8795 11.9433 100.028 11.2688 104.749 11.2688C109.539 11.2688 113.687 11.9433 117.194 13.2923C120.702 14.6414 123.636 16.53 125.997 18.9583C128.425 21.3191 130.28 24.1184 131.562 27.3561C132.843 30.5263 133.551 33.9664 133.686 37.6763C133.821 39.5649 133.889 41.7234 133.889 44.1517C133.956 46.5125 133.956 48.8733 133.889 51.2341C133.889 53.5275 133.821 55.5848 133.686 57.406C133.551 61.1159 132.843 64.5897 131.562 67.8274C130.348 71.0651 128.56 73.8981 126.199 76.3263C123.906 78.7546 120.972 80.677 117.397 82.0935C113.889 83.4426 109.673 84.1171 104.749 84.1171ZM104.749 69.4462C108.257 69.4462 110.786 68.3333 112.338 66.1073C113.957 63.814 114.8 60.7449 114.867 56.9001C115.002 54.944 115.07 52.8867 115.07 50.7283C115.137 48.5698 115.137 46.4113 115.07 44.2529C115.07 42.0944 115.002 40.1045 114.867 38.2833C114.8 34.5735 113.957 31.5719 112.338 29.2785C110.786 26.9851 108.257 25.8047 104.749 25.7372C101.242 25.8047 98.7125 26.9851 97.1611 29.2785C95.6097 31.5719 94.7665 34.5735 94.6316 38.2833C94.5642 40.1045 94.4967 42.0944 94.4292 44.2529C94.4292 46.4113 94.4292 48.5698 94.4292 50.7283C94.4967 52.8867 94.5642 54.944 94.6316 56.9001C94.7665 60.7449 95.6434 63.814 97.2622 66.1073C98.8811 68.3333 101.377 69.4462 104.749 69.4462Z" fill="#60845A"/>
</svg>
