<svg width="206" height="85" viewBox="0 0 206 85" fill="none" xmlns="http://www.w3.org/2000/svg">
<path opacity="0.5" fill-rule="evenodd" clip-rule="evenodd" d="M1.20851 74.551L1.17128 74.5138C0.368388 73.7109 0 72.6849 0 71.5747V64.391C0 63.6889 0.187462 62.8072 0.461974 61.8445C0.845161 60.4235 1.79395 59.2335 3.07018 58.2392L13.5961 47.9156L13.6743 47.856C19.0616 43.7482 23.4625 40.2877 26.8816 37.472C30.345 34.6079 32.837 32.1344 34.4178 30.0476C35.9823 27.9825 36.6265 26.2208 36.6265 24.7292C36.6265 22.7263 36.1026 21.2131 35.1627 20.0643L35.138 20.0342L35.1149 20.0029C34.3937 19.0272 32.9766 18.317 30.3155 18.317C28.5987 18.317 27.2614 18.6996 26.2194 19.3769L26.202 19.3882C25.163 20.0444 24.3825 20.9064 23.8376 21.9961C23.2251 23.2212 22.8015 24.466 22.5601 25.7333L22.5438 25.819L22.5181 25.9024C22.1542 27.0851 21.4532 28.0828 20.3293 28.6566C19.4792 29.1224 18.5476 29.3455 17.5671 29.3455H4.91979C3.92167 29.3455 3.00482 28.9959 2.28424 28.2753C1.56367 27.5548 1.21414 26.6379 1.21414 25.6398V25.6233L1.21448 25.6069C1.28619 22.1646 2.00494 18.9179 3.37823 15.8822L3.38461 15.8681L3.39127 15.8541C4.82956 12.8337 6.80795 10.1737 9.31591 7.88051C11.9062 5.50626 14.9536 3.68267 18.4384 2.40254L18.4481 2.399C22.0184 1.11367 25.9808 0.484375 30.3155 0.484375C36.2067 0.484375 41.2999 1.41875 45.5387 3.35757C49.8243 5.28702 53.147 8.0383 55.4243 11.635C57.6997 15.1609 58.8098 19.2768 58.8098 23.9198C58.8098 27.469 58.0112 30.8167 56.4139 33.9415C54.9051 36.9569 52.734 39.8263 49.9348 42.5555C47.2698 45.1521 44.1113 47.8363 40.4669 50.6079L33.9008 57.2453H56.116C57.2088 57.2453 58.2201 57.6023 59.0173 58.3794C59.8875 59.1595 60.3275 60.1932 60.3275 61.3557V71.5747C60.3275 72.7371 59.8875 73.7708 59.0173 74.551C58.2201 75.3281 57.2089 75.6851 56.116 75.6851H4.21154C3.10123 75.6851 2.08672 75.3194 1.24812 74.5857L1.20851 74.551ZM57.9372 73.3959C58.4768 72.9237 58.7466 72.3167 58.7466 71.5747V61.3557C58.7466 60.6137 58.4768 60.0067 57.9372 59.5345C57.465 59.0623 56.8579 58.8262 56.116 58.8262H30.1132L39.4216 49.4167C43.064 46.6511 46.2005 43.9868 48.8311 41.4236C51.5292 38.793 53.5865 36.0612 55.003 33.2282C56.4869 30.3277 57.2289 27.2249 57.2289 23.9198C57.2289 19.5354 56.1834 15.7243 54.0924 12.4866C52.0014 9.18148 48.9323 6.6183 44.8852 4.79709C40.9055 2.97589 36.0489 2.06528 30.3155 2.06528C26.1335 2.06528 22.3562 2.67235 18.9836 3.88649C15.6784 5.10063 12.8117 6.82066 10.3834 9.04658C8.02259 11.205 6.16765 13.7008 4.81861 16.5338C3.53702 19.3668 2.8625 22.4021 2.79505 25.6398C2.79505 26.2469 2.9974 26.7528 3.40212 27.1575C3.80683 27.5622 4.31272 27.7645 4.91979 27.7645H17.5671C18.309 27.7645 18.9836 27.5959 19.5906 27.2587C20.2651 26.9214 20.7373 26.3143 21.0071 25.4374C21.2769 24.021 21.7491 22.6382 22.4236 21.2891C23.0981 19.9401 24.0762 18.8609 25.3578 18.0514C26.7068 17.1746 28.3594 16.7361 30.3155 16.7361C33.216 16.7361 35.2395 17.5118 36.3862 19.0632C37.6003 20.5472 38.2074 22.4358 38.2074 24.7292C38.2074 26.6853 37.3643 28.7763 35.678 31.0022C33.9917 33.2282 31.3948 35.7913 27.8872 38.6918C24.4472 41.5248 20.0291 44.9986 14.6329 49.1131L4.11036 59.4333C2.96368 60.3102 2.25543 61.2545 1.98562 62.2663C1.71581 63.2106 1.58091 63.9189 1.58091 64.391V71.5747C1.58091 72.3167 1.81699 72.9237 2.28916 73.3959C2.82877 73.8681 3.46957 74.1042 4.21154 74.1042H56.116C56.8579 74.1042 57.465 73.8681 57.9372 73.3959ZM99.2992 74.551L99.262 74.5138C98.4591 73.7109 98.0907 72.6849 98.0907 71.5747V61.7225H68.2052C67.1223 61.7225 66.151 61.3301 65.3429 60.6231L65.3033 60.5884L65.2661 60.5512C64.4632 59.7483 64.0948 58.7223 64.0948 57.6121V48.0002C64.0948 47.2173 64.2256 46.4599 64.5262 45.7586L64.5445 45.7159L64.5652 45.6743C64.8467 45.1113 65.1303 44.5794 65.4161 44.0793L65.462 43.9989L94.9677 4.04961L94.9757 4.03913C96.1909 2.44999 97.9323 1.69851 99.9751 1.69851H114.646C115.739 1.69851 116.75 2.05548 117.547 2.83249C118.417 3.61266 118.858 4.6464 118.858 5.80888V43.4851H126.18C127.363 43.4851 128.448 43.8933 129.257 44.7946C130.005 45.5607 130.392 46.5238 130.392 47.5955V57.6121C130.392 58.7744 129.952 59.808 129.082 60.5881C128.316 61.3359 127.353 61.7225 126.281 61.7225H118.858V71.5747C118.858 72.7371 118.417 73.7708 117.547 74.551C116.75 75.3281 115.739 75.6851 114.646 75.6851H102.201C101.118 75.6851 100.147 75.2927 99.3388 74.5857L99.2992 74.551ZM116.467 73.3959C117.007 72.9237 117.277 72.3167 117.277 71.5747V60.1416H126.281C126.956 60.1416 127.529 59.9055 128.001 59.4333C128.541 58.9612 128.811 58.3541 128.811 57.6121V47.5955C128.811 46.9209 128.575 46.3476 128.103 45.8754C127.631 45.3358 126.99 45.066 126.18 45.066H117.277V5.80888C117.277 5.0669 117.007 4.45983 116.467 3.98767C115.995 3.5155 115.388 3.27942 114.646 3.27942H99.9751C98.3563 3.27942 97.1084 3.85276 96.2315 4.99945L66.7887 44.8637C66.5189 45.3358 66.2491 45.8417 65.9792 46.3813C65.7769 46.8535 65.6757 47.3931 65.6757 48.0002V57.6121C65.6757 58.3541 65.9118 58.9612 66.384 59.4333C66.9236 59.9055 67.5306 60.1416 68.2052 60.1416H99.6716V71.5747C99.6716 72.3167 99.9077 72.9237 100.38 73.3959C100.919 73.8681 101.527 74.1042 102.201 74.1042H114.646C115.388 74.1042 115.995 73.8681 116.467 73.3959ZM100.076 45.7743H83.0784L100.076 21.8962V45.7743ZM98.4954 26.843L86.1443 44.1934H98.4954V26.843ZM147.622 73.7103C143.179 71.5947 139.708 68.8372 137.295 65.4007L137.284 65.385L137.273 65.3692C134.961 61.9003 133.715 58.145 133.569 54.1283L133.568 54.0996V54.0709C133.568 53.0727 133.917 52.1559 134.638 51.4353C135.359 50.7148 136.275 50.3652 137.274 50.3652H150.831C151.892 50.3652 152.946 50.6 153.787 51.2731C154.515 51.7492 155.093 52.3807 155.483 53.1615L155.515 53.2257L155.541 53.2924C156.086 54.6838 156.758 55.778 157.533 56.6148C158.383 57.4593 159.327 58.0648 160.371 58.4513C161.528 58.8547 162.829 59.0665 164.288 59.0665C165.942 59.0665 167.453 58.7142 168.842 58.0193C170.194 57.3433 171.253 56.3685 172.044 55.0701L172.053 55.0541C172.884 53.7258 173.331 52.1046 173.331 50.1249C173.331 48.3557 172.921 46.9063 172.162 45.7124L172.148 45.6904L172.134 45.6679C171.413 44.4477 170.383 43.4625 168.999 42.7125C167.633 41.973 166.075 41.588 164.288 41.588C162.782 41.588 161.687 41.779 160.929 42.082L160.886 42.0993L160.842 42.114C159.967 42.4056 159.299 42.7646 158.8 43.164C158.116 43.7112 157.496 44.1938 156.94 44.6107L156.886 44.651L156.829 44.6866C156.023 45.1905 155.122 45.4328 154.17 45.4328H140.916C139.922 45.4328 139.019 45.0889 138.268 44.4451L138.176 44.366L138.097 44.2737C137.453 43.5226 137.109 42.6204 137.109 41.626V41.5446L140.762 6.12915L140.765 6.10583C140.934 4.83927 141.43 3.67467 142.433 2.87395C143.346 2.07843 144.458 1.69851 145.671 1.69851H186.244C187.354 1.69851 188.38 2.0669 189.183 2.8698C189.986 3.67269 190.354 4.69868 190.354 5.80888V15.3196C190.354 16.4298 189.986 17.4558 189.183 18.2587L188.065 17.1408C188.537 16.6687 188.773 16.0616 188.773 15.3196V5.80888C188.773 5.0669 188.537 4.45983 188.065 3.98767C187.593 3.5155 186.986 3.27942 186.244 3.27942H145.671C144.794 3.27942 144.052 3.54923 143.445 4.08885C142.838 4.56101 142.467 5.30298 142.332 6.31477L138.69 41.626C138.69 42.233 138.892 42.7726 139.297 43.2448C139.769 43.6495 140.309 43.8519 140.916 43.8519H154.17C154.845 43.8519 155.452 43.6832 155.991 43.346C156.531 42.9413 157.138 42.4691 157.813 41.9295C158.487 41.3899 159.33 40.9514 160.342 40.6142C161.354 40.2095 162.669 40.0071 164.288 40.0071C166.312 40.0071 168.133 40.4455 169.752 41.3224C171.371 42.1993 172.618 43.3797 173.495 44.8637C174.44 46.3476 174.912 48.1014 174.912 50.1249C174.912 52.3508 174.406 54.2732 173.394 55.8921C172.45 57.4435 171.168 58.6239 169.549 59.4333C167.93 60.2427 166.177 60.6475 164.288 60.6475C162.669 60.6475 161.185 60.4114 159.836 59.9392C158.555 59.467 157.408 58.7251 156.396 57.7133C155.452 56.7015 154.676 55.4199 154.069 53.8685C153.799 53.3289 153.395 52.8905 152.855 52.5532C152.383 52.1485 151.708 51.9461 150.831 51.9461H137.274C136.666 51.9461 136.161 52.1485 135.756 52.5532C135.351 52.9579 135.149 53.4638 135.149 54.0709C135.284 57.7807 136.43 61.2545 138.589 64.4922C140.815 67.6625 144.052 70.2594 148.302 72.283C152.551 74.2391 157.846 75.2171 164.187 75.2171C170.325 75.2171 175.586 74.1716 179.971 72.0806C184.355 69.9221 187.694 66.988 189.987 63.2781C192.348 59.5682 193.529 55.3187 193.529 50.5296C193.529 47.0221 192.854 43.8856 191.505 41.1201C190.223 38.2871 188.402 35.8588 186.041 33.8352C183.748 31.8117 181.117 30.2603 178.15 29.181C175.249 28.1018 172.18 27.5622 168.942 27.5622C165.502 27.5622 162.77 27.8995 160.747 28.574C159.493 28.963 158.336 29.4352 157.277 29.9905C156.683 30.3017 156.12 30.6389 155.587 31.0022L156.902 17.8491H186.244C186.986 17.8491 187.593 17.613 188.065 17.1408L189.183 18.2587C188.38 19.0616 187.354 19.43 186.244 19.43H158.333L157.462 28.1382C158.346 27.7306 159.28 27.3746 160.263 27.0689C162.513 26.3217 165.431 25.9813 168.942 25.9813C172.357 25.9813 175.612 26.5508 178.695 27.6973C181.837 28.8405 184.636 30.4886 187.079 32.6425C189.606 34.8102 191.561 37.4164 192.936 40.4479C194.397 43.4525 195.11 46.8242 195.11 50.5296C195.11 55.5874 193.86 60.1334 191.327 64.1171C188.86 68.1054 185.284 71.2271 180.669 73.4989L180.651 73.5076C176.006 75.7231 170.5 76.798 164.187 76.798C157.695 76.798 152.158 75.7981 147.641 73.719L147.622 73.7103Z" fill="black" fill-opacity="0.4"/>
<path opacity="0.5" fill-rule="evenodd" clip-rule="evenodd" d="M6.73976 80.8752L6.70253 80.838C5.89964 80.0351 5.53125 79.0091 5.53125 77.8989V70.7153C5.53125 70.0131 5.71871 69.1314 5.99322 68.1687C6.37641 66.7477 7.3252 65.5577 8.60143 64.5634L19.1274 54.2398L19.2056 54.1802C24.5929 50.0724 28.9937 46.6119 32.4128 43.7962C35.8762 40.9321 38.3682 38.4586 39.9491 36.3718C41.5136 34.3067 42.1578 32.545 42.1578 31.0534C42.1578 29.0505 41.6338 27.5373 40.6939 26.3885L40.6693 26.3584L40.6461 26.3271C39.9249 25.3514 38.5079 24.6412 35.8468 24.6412C34.13 24.6412 32.7926 25.0239 31.7506 25.7012L31.7333 25.7124C30.6942 26.3687 29.9138 27.2306 29.3689 28.3204C28.7564 29.5454 28.3327 30.7902 28.0914 32.0575L28.075 32.1432L28.0494 32.2266C27.6855 33.4093 26.9845 34.407 25.8606 34.9809C25.0104 35.4466 24.0788 35.6697 23.0983 35.6697H10.451C9.45291 35.6697 8.53607 35.3201 7.81549 34.5996C7.09492 33.879 6.74539 32.9621 6.74539 31.964V31.9476L6.74573 31.9311C6.81744 28.4889 7.53619 25.2421 8.90948 22.2064L8.91586 22.1923L8.92252 22.1783C10.3608 19.1579 12.3392 16.4979 14.8472 14.2047C17.4375 11.8305 20.4849 10.0069 23.9697 8.72676L23.9793 8.72322C27.5497 7.43789 31.512 6.80859 35.8468 6.80859C41.7379 6.80859 46.8312 7.74297 51.0699 9.68179C55.3555 11.6112 58.6782 14.3625 60.9556 17.9592C63.2309 21.4851 64.3411 25.601 64.3411 30.244C64.3411 33.7932 63.5425 37.141 61.9451 40.2657C60.4364 43.2811 58.2653 46.1505 55.466 48.8797C52.8011 51.4763 49.6425 54.1605 45.9982 56.9321L39.4321 63.5696H61.6472C62.7401 63.5696 63.7513 63.9265 64.5485 64.7036C65.4187 65.4837 65.8587 66.5175 65.8587 67.6799V77.8989C65.8587 79.0614 65.4187 80.0951 64.5486 80.8752C63.7514 81.6523 62.7401 82.0093 61.6472 82.0093H9.74279C8.63248 82.0093 7.61797 81.6437 6.77937 80.9099L6.73976 80.8752ZM63.4684 79.7201C64.008 79.248 64.2778 78.6409 64.2778 77.8989V67.6799C64.2778 66.938 64.008 66.3309 63.4684 65.8587C62.9963 65.3866 62.3892 65.1505 61.6472 65.1505H35.6444L44.9528 55.7409C48.5952 52.9754 51.7317 50.311 54.3624 47.7478C57.0605 45.1172 59.1177 42.3854 60.5342 39.5524C62.0182 36.6519 62.7602 33.5491 62.7602 30.244C62.7602 25.8596 61.7147 22.0486 59.6236 18.8109C57.5326 15.5057 54.4636 12.9425 50.4164 11.1213C46.4368 9.30011 41.5802 8.3895 35.8468 8.3895C31.6647 8.3895 27.8874 8.99657 24.5148 10.2107C21.2097 11.4248 18.3429 13.1449 15.9147 15.3708C13.5538 17.5293 11.6989 20.025 10.3499 22.858C9.06827 25.691 8.39375 28.7263 8.3263 31.964C8.3263 32.5711 8.52865 33.077 8.93337 33.4817C9.33808 33.8864 9.84397 34.0888 10.451 34.0888H23.0983C23.8403 34.0888 24.5148 33.9201 25.1219 33.5829C25.7964 33.2456 26.2686 32.6385 26.5384 31.7617C26.8082 30.3452 27.2803 28.9624 27.9549 27.6134C28.6294 26.2643 29.6074 25.1851 30.889 24.3757C32.2381 23.4988 33.8907 23.0603 35.8468 23.0603C38.7472 23.0603 40.7708 23.836 41.9175 25.3874C43.1316 26.8714 43.7387 28.76 43.7387 31.0534C43.7387 33.0095 42.8955 35.1005 41.2092 37.3265C39.5229 39.5524 36.926 42.1156 33.4185 45.016C29.9784 47.849 25.5603 51.3228 20.1641 55.4374L9.64161 65.7575C8.49493 66.6344 7.78668 67.5788 7.51687 68.5905C7.24706 69.5349 7.11216 70.2431 7.11216 70.7153V77.8989C7.11216 78.6409 7.34824 79.248 7.82041 79.7201C8.36002 80.1923 9.00082 80.4284 9.74279 80.4284H61.6472C62.3892 80.4284 62.9963 80.1923 63.4684 79.7201ZM104.83 80.8752L104.793 80.838C103.99 80.0351 103.622 79.0091 103.622 77.8989V68.0467H73.7364C72.6535 68.0467 71.6822 67.6543 70.8742 66.9473L70.8346 66.9126L70.7973 66.8754C69.9944 66.0725 69.6261 65.0465 69.6261 63.9363V54.3244C69.6261 53.5416 69.7568 52.7842 70.0574 52.0828L70.0757 52.0401L70.0965 51.9985C70.378 51.4356 70.6615 50.9037 70.9473 50.4035L70.9932 50.3231L100.499 10.3738L100.507 10.3633C101.722 8.77421 103.464 8.02273 105.506 8.02273H120.177C121.27 8.02273 122.281 8.3797 123.078 9.15671C123.949 9.93688 124.389 10.9706 124.389 12.1331V49.8093H131.712C132.894 49.8093 133.979 50.2175 134.788 51.1189C135.536 51.885 135.923 52.848 135.923 53.9197V63.9363C135.923 65.0986 135.483 66.1322 134.613 66.9124C133.847 67.6602 132.884 68.0467 131.813 68.0467H124.389V77.8989C124.389 79.0614 123.949 80.0951 123.079 80.8752C122.281 81.6523 121.27 82.0093 120.177 82.0093H107.732C106.649 82.0093 105.678 81.6169 104.87 80.9099L104.83 80.8752ZM121.998 79.7201C122.538 79.248 122.808 78.6409 122.808 77.8989V66.4658H131.813C132.487 66.4658 133.061 66.2297 133.533 65.7575C134.072 65.2854 134.342 64.6783 134.342 63.9363V53.9197C134.342 53.2452 134.106 52.6718 133.634 52.1997C133.162 51.66 132.521 51.3902 131.712 51.3902H122.808V12.1331C122.808 11.3911 122.538 10.7841 121.998 10.3119C121.526 9.83972 120.919 9.60364 120.177 9.60364H105.506C103.888 9.60364 102.64 10.177 101.763 11.3237L72.3199 51.1879C72.0501 51.66 71.7803 52.1659 71.5105 52.7055C71.3081 53.1777 71.207 53.7173 71.207 54.3244V63.9363C71.207 64.6783 71.443 65.2854 71.9152 65.7575C72.4548 66.2297 73.0619 66.4658 73.7364 66.4658H105.203V77.8989C105.203 78.6409 105.439 79.248 105.911 79.7201C106.451 80.1923 107.058 80.4284 107.732 80.4284H120.177C120.919 80.4284 121.526 80.1923 121.998 79.7201ZM105.608 52.0985H88.6096L105.608 28.2204V52.0985ZM104.027 33.1673L91.6756 50.5176H104.027V33.1673ZM153.154 80.0345C148.711 77.9189 145.239 75.1615 142.826 71.7249L142.815 71.7093L142.805 71.6934C140.492 68.2245 139.246 64.4692 139.1 60.4525L139.099 60.4238V60.3951C139.099 59.397 139.449 58.4801 140.169 57.7595C140.89 57.039 141.807 56.6894 142.805 56.6894H156.363C157.423 56.6894 158.477 56.9243 159.319 57.5973C160.046 58.0734 160.624 58.705 161.014 59.4857L161.046 59.5499L161.073 59.6167C161.617 61.008 162.289 62.1022 163.065 62.939C163.914 63.7835 164.858 64.389 165.902 64.7756C167.059 65.1789 168.36 65.3908 169.819 65.3908C171.474 65.3908 172.984 65.0384 174.374 64.3435C175.726 63.6675 176.785 62.6927 177.575 61.3943L177.585 61.3784C178.415 60.0501 178.862 58.4288 178.862 56.4491C178.862 54.68 178.453 53.2305 177.693 52.0366L177.679 52.0146L177.666 51.9921C176.944 50.7719 175.915 49.7867 174.53 49.0367C173.165 48.2972 171.607 47.9122 169.819 47.9122C168.313 47.9122 167.218 48.1033 166.461 48.4062L166.417 48.4235L166.373 48.4382C165.498 48.7298 164.831 49.0888 164.332 49.4882C163.648 50.0354 163.027 50.5181 162.471 50.9349L162.418 50.9752L162.361 51.0108C161.554 51.5147 160.654 51.757 159.702 51.757H146.447C145.453 51.757 144.551 51.4131 143.799 50.7693L143.707 50.6902L143.628 50.5979C142.984 49.8468 142.64 48.9446 142.64 47.9502V47.8689L146.294 12.4534L146.297 12.43C146.465 11.1635 146.962 9.99889 147.964 9.19817C148.878 8.40265 149.989 8.02273 151.203 8.02273H191.775C192.885 8.02273 193.911 8.39112 194.714 9.19402C195.517 9.99691 195.885 11.0229 195.885 12.1331V21.6438C195.885 22.754 195.517 23.78 194.714 24.5829C193.911 25.3858 192.885 25.7542 191.775 25.7542H163.864L162.993 34.4624C163.877 34.0548 164.811 33.6989 165.794 33.3931C168.045 32.6459 170.963 32.3055 174.474 32.3055C177.889 32.3055 181.143 32.875 184.226 34.0215C187.368 35.1647 190.167 36.8129 192.61 38.9667C195.137 41.1345 197.092 43.7406 198.467 46.7721C199.929 49.7767 200.641 53.1485 200.641 56.8539C200.641 61.9117 199.391 66.4576 196.859 70.4413C194.391 74.4296 190.815 77.5513 186.2 79.8232L186.183 79.8319C181.537 82.0473 176.032 83.1222 169.718 83.1222C163.226 83.1222 157.689 82.1223 153.172 80.0432L153.154 80.0345ZM197.036 47.4443C195.755 44.6113 193.933 42.183 191.573 40.1595C189.279 38.1359 186.649 36.5845 183.681 35.5053C180.78 34.426 177.711 33.8864 174.474 33.8864C171.033 33.8864 168.302 34.2237 166.278 34.8982C165.024 35.2873 163.868 35.7595 162.808 36.3148C162.214 36.6259 161.651 36.9631 161.118 37.3265L162.433 24.1733H191.775C192.517 24.1733 193.124 23.9372 193.596 23.4651C194.068 22.9929 194.304 22.3858 194.304 21.6438V12.1331C194.304 11.3911 194.068 10.7841 193.596 10.3119C193.124 9.83972 192.517 9.60364 191.775 9.60364H151.203C150.326 9.60364 149.584 9.87345 148.977 10.4131C148.37 10.8852 147.999 11.6272 147.864 12.639L144.221 47.9502C144.221 48.5572 144.424 49.0969 144.828 49.569C145.3 49.9737 145.84 50.1761 146.447 50.1761H159.702C160.376 50.1761 160.983 50.0075 161.523 49.6702C162.062 49.2655 162.669 48.7933 163.344 48.2537C164.018 47.7141 164.862 47.2757 165.873 46.9384C166.885 46.5337 168.201 46.3313 169.819 46.3313C171.843 46.3313 173.664 46.7698 175.283 47.6466C176.902 48.5235 178.15 49.7039 179.027 51.1879C179.971 52.6718 180.443 54.4256 180.443 56.4491C180.443 58.6751 179.937 60.5975 178.925 62.2163C177.981 63.7677 176.699 64.9481 175.081 65.7575C173.462 66.567 171.708 66.9717 169.819 66.9717C168.201 66.9717 166.717 66.7356 165.367 66.2634C164.086 65.7913 162.939 65.0493 161.927 64.0375C160.983 63.0257 160.207 61.7441 159.6 60.1927C159.331 59.6531 158.926 59.2147 158.386 58.8774C157.914 58.4727 157.24 58.2704 156.363 58.2704H142.805C142.198 58.2704 141.692 58.4727 141.287 58.8774C140.882 59.2821 140.68 59.788 140.68 60.3951C140.815 64.105 141.962 67.5787 144.12 70.8164C146.346 73.9867 149.584 76.5836 153.833 78.6072C158.083 80.5633 163.378 81.5413 169.718 81.5413C175.856 81.5413 181.118 80.4958 185.502 78.4048C189.886 76.2463 193.225 73.3122 195.519 69.6023C197.879 65.8924 199.06 61.643 199.06 56.8539C199.06 53.3463 198.385 50.2098 197.036 47.4443Z" fill="black" fill-opacity="0.7"/>
<path d="M16.365 83.5897C15.623 83.5897 14.9822 83.3536 14.4426 82.8814C13.9705 82.4092 13.7344 81.8022 13.7344 81.0602V73.8765C13.7344 73.4044 13.8693 72.6961 14.1391 71.7518C14.4089 70.74 15.1171 69.7957 16.2638 68.9188L26.7864 58.5986C32.1825 54.4841 36.6006 51.0103 40.0407 48.1773C43.5482 45.2768 46.1451 42.7137 47.8314 40.4877C49.5177 38.2618 50.3609 36.1708 50.3609 34.2147C50.3609 31.9213 49.7538 30.0327 48.5397 28.5487C47.393 26.9973 45.3694 26.2216 42.469 26.2216C40.5129 26.2216 38.8603 26.6601 37.5113 27.5369C36.2297 28.3464 35.2516 29.4256 34.5771 30.7746C33.9026 32.1237 33.4304 33.5064 33.1606 34.9229C32.8908 35.7998 32.4186 36.4069 31.7441 36.7442C31.137 37.0814 30.4625 37.25 29.7205 37.25H17.0733C16.4662 37.25 15.9603 37.0477 15.5556 36.643C15.1509 36.2383 14.9485 35.7324 14.9485 35.1253C15.016 31.8876 15.6905 28.8523 16.9721 26.0193C18.3211 23.1863 20.1761 20.6905 22.5369 18.5321C24.9652 16.3062 27.8319 14.5861 31.137 13.372C34.5096 12.1579 38.287 11.5508 42.469 11.5508C48.2024 11.5508 53.059 12.4614 57.0386 14.2826C61.0858 16.1038 64.1548 18.667 66.2459 21.9721C68.3369 25.2098 69.3824 29.0209 69.3824 33.4053C69.3824 36.7104 68.6404 39.8132 67.1565 42.7137C65.74 45.5466 63.6827 48.2785 60.9846 50.9091C58.354 53.4723 55.2174 56.1366 51.575 58.9022L42.2666 68.3117H68.2694C69.0114 68.3117 69.6185 68.5478 70.0906 69.02C70.6302 69.4922 70.9001 70.0992 70.9001 70.8412V81.0602C70.9001 81.8022 70.6302 82.4092 70.0906 82.8814C69.6185 83.3536 69.0114 83.5897 68.2694 83.5897H16.365Z" fill="#E2C269"/>
<path d="M114.355 83.5897C113.68 83.5897 113.073 83.3536 112.533 82.8814C112.061 82.4092 111.825 81.8022 111.825 81.0602V69.6271H80.3586C79.6841 69.6271 79.077 69.391 78.5374 68.9188C78.0653 68.4467 77.8292 67.8396 77.8292 67.0976V57.4857C77.8292 56.8786 77.9304 56.339 78.1327 55.8668C78.4025 55.3272 78.6723 54.8213 78.9421 54.3492L108.385 14.4849C109.262 13.3383 110.51 12.7649 112.129 12.7649H126.799C127.541 12.7649 128.148 13.001 128.621 13.4732C129.16 13.9453 129.43 14.5524 129.43 15.2944V54.5515H138.334C139.143 54.5515 139.784 54.8213 140.256 55.3609C140.728 55.8331 140.964 56.4064 140.964 57.081V67.0976C140.964 67.8396 140.695 68.4467 140.155 68.9188C139.683 69.391 139.109 69.6271 138.435 69.6271H129.43V81.0602C129.43 81.8022 129.16 82.4092 128.621 82.8814C128.148 83.3536 127.541 83.5897 126.799 83.5897H114.355ZM95.2318 55.2598H112.23V31.3817L95.2318 55.2598Z" fill="#E2C269"/>
<path d="M176.34 84.7026C170 84.7026 164.705 83.7246 160.455 81.7684C156.206 79.7449 152.968 77.148 150.742 73.9777C148.584 70.74 147.437 67.2662 147.302 63.5564C147.302 62.9493 147.505 62.4434 147.909 62.0387C148.314 61.634 148.82 61.4316 149.427 61.4316H162.985C163.862 61.4316 164.536 61.634 165.008 62.0387C165.548 62.376 165.953 62.8144 166.223 63.354C166.83 64.9054 167.605 66.187 168.55 67.1988C169.561 68.2106 170.708 68.9525 171.99 69.4247C173.339 69.8969 174.823 70.133 176.442 70.133C178.33 70.133 180.084 69.7282 181.703 68.9188C183.322 68.1094 184.603 66.929 185.548 65.3776C186.559 63.7587 187.065 61.8363 187.065 59.6104C187.065 57.5869 186.593 55.8331 185.649 54.3492C184.772 52.8652 183.524 51.6848 181.905 50.8079C180.286 49.931 178.465 49.4926 176.442 49.4926C174.823 49.4926 173.507 49.695 172.496 50.0997C171.484 50.4369 170.641 50.8754 169.966 51.415C169.292 51.9546 168.685 52.4268 168.145 52.8315C167.605 53.1687 166.998 53.3374 166.324 53.3374H153.069C152.462 53.3374 151.923 53.135 151.451 52.7303C151.046 52.2581 150.843 51.7185 150.843 51.1115L154.486 15.8003C154.621 14.7885 154.992 14.0465 155.599 13.5743C156.206 13.0347 156.948 12.7649 157.825 12.7649H198.397C199.139 12.7649 199.746 13.001 200.218 13.4732C200.691 13.9453 200.927 14.5524 200.927 15.2944V24.8051C200.927 25.5471 200.691 26.1542 200.218 26.6263C199.746 27.0985 199.139 27.3346 198.397 27.3346H169.056L167.74 40.4877C169.224 39.476 170.944 38.6665 172.9 38.0595C174.924 37.3849 177.656 37.0477 181.096 37.0477C184.333 37.0477 187.403 37.5873 190.303 38.6665C193.271 39.7458 195.902 41.2972 198.195 43.3207C200.556 45.3443 202.377 47.7726 203.658 50.6056C205.008 53.3711 205.682 56.5076 205.682 60.0151C205.682 64.8042 204.502 69.0537 202.141 72.7636C199.847 76.4735 196.509 79.4076 192.124 81.5661C187.74 83.6571 182.479 84.7026 176.34 84.7026Z" fill="#E2C269"/>
</svg>
