<svg width="58" height="60" viewBox="0 0 58 60" fill="none" xmlns="http://www.w3.org/2000/svg">
<path d="M35.0026 20.986C35.0026 21.5381 35.4497 21.9863 36.0029 21.9863H46.0069C46.5601 21.9863 47.0073 21.5381 47.0073 20.986C47.0073 20.4338 46.5601 19.9856 46.0069 19.9856H36.0029C35.4497 19.9855 35.0026 20.4337 35.0026 20.986Z" fill="#3556FF"/>
<path d="M41.0051 26.9882C41.0051 27.5403 41.4523 27.9885 42.0055 27.9885H48.0079C48.5611 27.9885 49.0082 27.5403 49.0082 26.9882C49.0082 26.436 48.5611 25.9878 48.0079 25.9878H42.0055C41.4523 25.9877 41.0051 26.4359 41.0051 26.9882Z" fill="#3556FF"/>
<path d="M40.0044 15.9834C40.5576 15.9834 41.0047 15.5352 41.0047 14.983C41.0047 14.4309 40.5576 13.9827 40.0044 13.9827H38.0035C37.4503 13.9827 37.0032 14.4309 37.0032 14.983C37.0032 15.5352 37.4503 15.9834 38.0035 15.9834H40.0044Z" fill="#3556FF"/>
<path d="M27.9998 25.9878C27.4465 25.9878 26.9994 26.436 26.9994 26.9882C26.9994 27.5403 27.4465 27.9885 27.9998 27.9885H38.0037C38.557 27.9885 39.0041 27.5403 39.0041 26.9882C39.0041 26.436 38.557 25.9878 38.0037 25.9878H27.9998Z" fill="#3556FF"/>
<path d="M33.0016 53.9986H13.9941C12.3394 53.9986 10.9929 52.652 10.9929 50.9974V4.97888C10.9929 4.4267 10.5457 3.97852 9.99252 3.97852C7.23446 3.97852 4.99048 6.22238 4.99048 8.98056C4.99048 9.53273 5.43761 9.98092 5.99084 9.98092C6.54407 9.98092 6.9912 9.53273 6.9912 8.98056C6.9912 7.67597 7.82755 6.56353 8.99204 6.1504V50.9974C8.99204 53.7554 11.2359 55.9994 13.9941 55.9994H33.0016C33.5549 55.9994 34.002 55.5512 34.002 54.999C34.002 54.4469 33.5549 53.9986 33.0016 53.9986Z" fill="#3556FF"/>
<path d="M17.9956 21.9863H32.0012C32.5545 21.9863 33.0016 21.5381 33.0016 20.986C33.0016 20.4338 32.5545 19.9856 32.0012 19.9856H17.9956C17.4424 19.9856 16.9952 20.4338 16.9952 20.986C16.9952 21.5381 17.4424 21.9863 17.9956 21.9863Z" fill="#3556FF"/>
<path d="M17.9956 15.9834H21.9972C22.5504 15.9834 22.9975 15.5352 22.9975 14.983C22.9975 14.4309 22.5504 13.9827 21.9972 13.9827H17.9956C17.4424 13.9827 16.9952 14.4309 16.9952 14.983C16.9952 15.5352 17.4424 15.9834 17.9956 15.9834Z" fill="#3556FF"/>
<path d="M34.002 13.9827H25.9988C25.4455 13.9827 24.9984 14.4309 24.9984 14.983C24.9984 15.5352 25.4455 15.9834 25.9988 15.9834H34.002C34.5552 15.9834 35.0024 15.5352 35.0024 14.983C35.0025 14.4309 34.5552 13.9827 34.002 13.9827Z" fill="#3556FF"/>
<path d="M48.0078 0H9.9925C5.03946 0 1.00788 4.02055 0.988892 8.96855V8.98051V8.99153V9.0036V9.01556C1.0019 12.2059 2.72361 15.178 5.48964 16.7787C5.96784 17.0548 6.5791 16.8917 6.85612 16.4146C7.1342 15.9364 6.96914 15.3242 6.49199 15.048C4.33523 13.7985 2.99372 11.4796 2.98973 8.99165C2.99677 5.13604 6.13502 2.00084 9.9925 2.00084H48.0078C51.8683 2.00084 55.0105 5.14214 55.0105 9.0036V51.0204C55.0105 51.5276 54.8684 52.0368 54.6014 52.491C54.3222 52.9672 54.4803 53.5805 54.9565 53.8605C55.1165 53.9546 55.2906 53.9986 55.4627 53.9986C55.8058 53.9986 56.14 53.8226 56.326 53.5054C56.7742 52.7441 57.0112 51.8848 57.0112 51.0204V9.0036C57.0114 4.03861 52.9728 0 48.0078 0Z" fill="#3556FF"/>
<path d="M51.009 45.9956C51.009 42.6852 48.3169 39.9932 45.0066 39.9932C41.6962 39.9932 39.0042 42.6852 39.0042 45.9956C39.0042 49.3059 41.6962 51.998 45.0066 51.998C48.3169 51.998 51.009 49.3059 51.009 45.9956ZM45.0066 49.9971C42.7996 49.9971 41.005 48.2024 41.005 45.9956C41.005 43.7887 42.7997 41.994 45.0066 41.994C47.2135 41.994 49.0081 43.7887 49.0081 45.9956C49.0081 48.2024 47.2135 49.9971 45.0066 49.9971Z" fill="#3556FF"/>
<path d="M43.2008 52.999C42.7237 52.7229 42.1114 52.8869 41.8342 53.3651L39.6804 57.0976L39.3383 56.5815C39.1653 56.3184 38.8782 56.1523 38.564 56.1343L37.9457 56.0973L40.1356 52.3058C40.4117 51.8276 40.2477 51.2154 39.7695 50.9392C39.2913 50.662 38.6791 50.8262 38.4019 51.3053L35.4038 56.4985C35.2308 56.7986 35.2257 57.1677 35.3897 57.4728C35.5537 57.7778 35.8639 57.977 36.2111 57.9969L37.9447 58.1009L38.9021 59.5505C39.0872 59.8317 39.4012 59.9997 39.7364 59.9997H39.7675C40.1126 59.9886 40.4297 59.7995 40.6038 59.4994L43.568 54.3654C43.8441 53.8874 43.6801 53.2751 43.2008 52.999Z" fill="#3556FF"/>
<path d="M51.6373 51.3529C51.3602 50.8738 50.7469 50.7097 50.2707 50.9868C49.7916 51.2629 49.6274 51.8752 49.9035 52.3533L52.0674 56.0978L51.4492 56.1348C51.1351 56.1538 50.848 56.3199 50.6739 56.5819L50.3338 57.0981L48.191 53.3846C47.9129 52.9064 47.3006 52.7424 46.8234 53.0185C46.3452 53.2946 46.1812 53.9069 46.4573 54.3851L49.4104 59.5001C49.5845 59.8003 49.9017 59.9894 50.2468 60.0004H50.2779C50.612 60.0004 50.9271 59.8323 51.1132 59.5512L52.0696 58.1027L53.8023 57.9977C54.1494 57.9776 54.4595 57.7785 54.6236 57.4735C54.7878 57.1685 54.7817 56.7993 54.6097 56.4992L51.6373 51.3529Z" fill="#3556FF"/>
<path d="M17.9956 27.9885H23.998C24.5512 27.9885 24.9984 27.5403 24.9984 26.9882C24.9984 26.436 24.5512 25.9878 23.998 25.9878H17.9956C17.4424 25.9878 16.9952 26.436 16.9952 26.9882C16.9952 27.5403 17.4424 27.9885 17.9956 27.9885Z" fill="#3556FF"/>
<path d="M17.9956 33.9907H30.0004C30.5536 33.9907 31.0008 33.5425 31.0008 32.9903C31.0008 32.4382 30.5536 31.99 30.0004 31.99H17.9956C17.4424 31.99 16.9952 32.4382 16.9952 32.9903C16.9952 33.5425 17.4424 33.9907 17.9956 33.9907Z" fill="#3556FF"/>
<path d="M18.1017 46.4424C18.3478 46.9366 18.9491 47.1367 19.4432 46.8906C19.9373 46.6435 20.1385 46.0423 19.8903 45.5481C18.8999 43.5673 18.6779 41.7906 19.2941 40.7932C19.6222 40.262 20.1944 39.9928 20.9968 39.9928C21.4739 39.9928 21.652 40.1568 21.7641 40.3169C22.5093 41.3914 21.8011 44.6636 21.0599 46.6444C20.8948 47.0856 21.0599 47.5818 21.456 47.8369C21.8501 48.0901 22.3714 48.0351 22.7045 47.7029C23.1317 47.2768 23.5949 46.8516 23.9981 46.5064V46.9957C23.9981 47.3998 24.2413 47.765 24.6153 47.919C24.9894 48.075 25.4186 47.989 25.7057 47.7029C26.163 47.2468 26.6931 46.7995 27.1393 46.4775C27.1273 46.5025 27.1153 46.5265 27.1033 46.5495C26.9502 46.8596 26.9672 47.2278 27.1494 47.5218C27.3325 47.816 27.6536 47.996 27.9997 47.996H32.0012C32.5545 47.996 33.0016 47.5478 33.0016 46.9957C33.0016 46.4435 32.5545 45.9953 32.0012 45.9953H29.3972C29.4782 45.5191 29.4583 45.0349 29.2171 44.6448C28.962 44.2316 28.5178 43.9945 27.9997 43.9945C27.3814 43.9945 26.6542 44.3706 25.9899 44.8368C25.9389 44.4006 25.6808 44.0415 25.2886 43.8795C25.0216 43.7694 24.6774 43.6254 23.8421 44.1266C24.1711 42.4029 24.2673 40.4161 23.4089 39.1777C23.0337 38.6364 22.3115 37.9922 20.9969 37.9922C19.4983 37.9922 18.2888 38.6134 17.5916 39.7419C16.5942 41.3565 16.7792 43.7985 18.1017 46.4424Z" fill="#3556FF"/>
<path d="M45.0066 32.9903C45.0066 32.4382 44.5595 31.99 44.0063 31.99H34.0023C33.4491 31.99 33.002 32.4382 33.002 32.9903C33.002 33.5425 33.4491 33.9907 34.0023 33.9907H44.0063C44.5595 33.9907 45.0066 33.5425 45.0066 32.9903Z" fill="#3556FF"/>
</svg>
