<svg width="50" height="50" viewBox="0 0 50 50" fill="none" xmlns="http://www.w3.org/2000/svg">
<path d="M21.091 20.6497H33.8127C34.2201 20.6497 34.5504 20.3194 34.5504 19.912C34.5504 19.5042 34.2201 19.1738 33.8127 19.1738H21.091C20.6833 19.1738 20.3529 19.5042 20.3529 19.912C20.3529 20.3194 20.6833 20.6497 21.091 20.6497Z" fill="#31439E"/>
<path d="M37.4466 15.6258H21.091C20.6833 15.6258 20.3529 15.9561 20.3529 16.3639C20.3529 16.7713 20.6833 17.1017 21.091 17.1017H37.4466C37.8544 17.1017 38.1847 16.7713 38.1847 16.3639C38.1847 15.9561 37.8544 15.6258 37.4466 15.6258Z" fill="#31439E"/>
<path d="M17.8944 14.9483C17.5911 14.6763 17.1246 14.7011 16.8522 15.0047L13.3892 18.8618L11.89 17.4766C11.5906 17.2001 11.1237 17.2188 10.8471 17.5182C10.5705 17.8177 10.5889 18.2846 10.8883 18.5612L12.9376 20.454C13.0745 20.5803 13.2534 20.6497 13.4384 20.6497C13.4499 20.6497 13.4613 20.6497 13.4731 20.6489C13.6704 20.6398 13.8558 20.5521 13.9877 20.4048L17.9508 15.9908C18.2228 15.6872 18.198 15.2206 17.8944 14.9483Z" fill="#31439E"/>
<path d="M17.8943 22.047C17.5911 21.7751 17.1245 21.7999 16.8522 22.1035L13.4487 25.8946L12.3592 24.6349C12.0926 24.3267 11.6268 24.2928 11.3182 24.5594C11.01 24.8261 10.9764 25.2922 11.243 25.6004L12.8803 27.4937C13.0188 27.6539 13.2194 27.747 13.4315 27.7489H13.4384C13.6478 27.7489 13.8473 27.6596 13.9877 27.5036L17.9508 23.0896C18.2228 22.786 18.198 22.3194 17.8943 22.047Z" fill="#31439E"/>
<path d="M21.091 27.7485H33.8127C34.2201 27.7485 34.5504 27.4181 34.5504 27.0107C34.5504 26.6029 34.2201 26.2726 33.8127 26.2726H21.091C20.6833 26.2726 20.3529 26.6029 20.3529 27.0107C20.3529 27.4181 20.6833 27.7485 21.091 27.7485Z" fill="#31439E"/>
<path d="M38.1848 23.4627C38.1848 23.0549 37.8541 22.7245 37.4466 22.7245H31.0776C30.6698 22.7245 30.3395 23.0549 30.3395 23.4627C30.3395 23.8701 30.6698 24.2005 31.0776 24.2005H37.4466C37.8544 24.2005 38.1848 23.8701 38.1848 23.4627Z" fill="#31439E"/>
<path d="M21.091 24.2005H27.6981C28.1055 24.2005 28.4359 23.8701 28.4359 23.4627C28.4359 23.0549 28.1055 22.7245 27.6981 22.7245H21.091C20.6833 22.7245 20.3529 23.0549 20.3529 23.4627C20.3529 23.8701 20.6833 24.2005 21.091 24.2005Z" fill="#31439E"/>
<path d="M45.6028 11.092C45.6036 11.0798 45.6047 11.068 45.6047 11.0554C45.6047 11.0313 45.6032 11.0077 45.6009 10.984C45.562 8.81996 45.2877 7.98683 43.4547 5.99518L40.2542 2.51274C40.0715 2.31438 39.9078 2.13203 39.7572 1.96457C38.4159 0.47226 37.8796 0 35.5274 0H7.69424C5.9288 0 4.49219 1.43738 4.49219 3.20396V20.8141C4.49219 21.2215 4.82254 21.5519 5.23033 21.5519C5.63774 21.5519 5.96809 21.2215 5.96809 20.8141V3.20396C5.96809 2.25105 6.74248 1.47591 7.69424 1.47591H34.7889L34.7866 8.58803C34.7847 9.44061 35.1173 10.2444 35.7227 10.8513C36.3293 11.459 37.1338 11.7935 37.9887 11.7935H44.1315V11.9106V46.796C44.1315 47.7489 43.3571 48.5241 42.4053 48.5241H7.69424C6.74248 48.5241 5.96809 47.7489 5.96809 46.796V24.1959C5.96809 23.7885 5.63774 23.4581 5.23033 23.4581C4.82254 23.4581 4.49219 23.7885 4.49219 24.1959V46.796C4.49219 48.5626 5.9288 50 7.69424 50H42.4053C44.1711 50 45.6074 48.5626 45.6074 46.796V11.9106C45.6074 11.6169 45.6066 11.3461 45.6028 11.092ZM37.9887 10.3176C37.5286 10.3176 37.0949 10.1368 36.7676 9.80873C36.441 9.48143 36.2617 9.04884 36.2625 8.58994L36.2652 1.49384C37.4126 1.56403 37.69 1.87263 38.6597 2.95143C38.8138 3.12271 38.9816 3.30963 39.1685 3.51219L42.3683 6.99425C43.6916 8.43201 44.0216 9.01604 44.104 10.3172H37.9887V10.3176Z" fill="#31439E"/>
<path d="M27.539 40.9583C27.0554 40.9583 26.6194 40.8545 26.231 40.647C25.85 40.4327 25.5496 40.1449 25.3297 39.7833C25.1099 39.4151 25 39.0034 25 38.5481C25 38.1196 25.1063 37.7347 25.3188 37.3932C25.5313 37.0451 25.817 36.7706 26.1761 36.5697C25.927 36.3957 25.7291 36.1814 25.5825 35.927C25.436 35.6659 25.3627 35.378 25.3627 35.0633C25.3627 34.6817 25.458 34.3436 25.6485 34.0491C25.839 33.7478 26.0955 33.5101 26.4179 33.336C26.7477 33.1553 27.1214 33.0649 27.539 33.0649C27.9567 33.0582 28.3268 33.1419 28.6492 33.3159C28.9789 33.49 29.2391 33.7277 29.4296 34.029C29.6201 34.3302 29.7117 34.675 29.7044 35.0633C29.7044 35.378 29.6311 35.6659 29.4845 35.927C29.338 36.1814 29.1401 36.3923 28.891 36.5597C29.2501 36.7605 29.5358 37.035 29.7483 37.3832C29.9608 37.7313 30.0671 38.1196 30.0671 38.5481C30.0671 39.0034 29.9535 39.4151 29.7263 39.7833C29.5065 40.1449 29.2061 40.4327 28.825 40.647C28.444 40.8545 28.0153 40.9583 27.539 40.9583ZM27.539 36.1279C27.8468 36.1279 28.0996 36.0207 28.2975 35.8065C28.5026 35.5923 28.6089 35.3345 28.6162 35.0332C28.6235 34.7319 28.5246 34.4842 28.3194 34.2901C28.1143 34.0959 27.8541 33.9988 27.539 33.9988C27.2313 33.9988 26.9748 34.0959 26.7696 34.2901C26.5645 34.4842 26.4582 34.7319 26.4509 35.0332C26.4436 35.3345 26.5425 35.5923 26.7477 35.8065C26.9602 36.0207 27.2239 36.1279 27.539 36.1279ZM27.539 40.0344C27.8102 40.0344 28.052 39.9674 28.2645 39.8335C28.4843 39.6996 28.6565 39.5222 28.7811 39.3013C28.9056 39.0737 28.9679 38.8226 28.9679 38.5481C28.9753 38.2803 28.9166 38.0426 28.7921 37.8351C28.6675 37.6208 28.4953 37.4535 28.2755 37.333C28.063 37.2058 27.8175 37.1421 27.539 37.1421C27.2679 37.1421 27.0224 37.2058 26.8026 37.333C26.5828 37.4535 26.4106 37.6208 26.286 37.8351C26.1614 38.0426 26.0992 38.2803 26.0992 38.5481C26.0992 38.8226 26.1578 39.0737 26.275 39.3013C26.3996 39.5222 26.5718 39.6996 26.7916 39.8335C27.0114 39.9674 27.2606 40.0344 27.539 40.0344Z" fill="#31439E"/>
<path d="M32.0352 41.129C31.83 41.129 31.6505 41.0621 31.4966 40.9282C31.35 40.7876 31.2768 40.6236 31.2768 40.4361C31.2768 40.2419 31.35 40.0779 31.4966 39.944C31.6505 39.8034 31.83 39.7331 32.0352 39.7331C32.2477 39.7331 32.4272 39.8034 32.5738 39.944C32.7203 40.0779 32.7936 40.2419 32.7936 40.4361C32.7936 40.6236 32.7203 40.7876 32.5738 40.9282C32.4272 41.0621 32.2477 41.129 32.0352 41.129Z" fill="#31439E"/>
<path d="M36.0827 40.9683C35.2473 40.9683 34.5989 40.6236 34.1372 39.934C33.6829 39.2377 33.4557 38.2736 33.4557 37.0417C33.4557 35.8031 33.6829 34.8391 34.1372 34.1495C34.5989 33.4599 35.2473 33.1151 36.0827 33.1151C36.6396 33.1151 37.1122 33.2758 37.5006 33.5971C37.8963 33.9118 38.1967 34.3637 38.4019 34.9529C38.6071 35.5353 38.7097 36.2316 38.7097 37.0417C38.7097 37.8518 38.6071 38.5514 38.4019 39.1406C38.1967 39.7231 37.8963 40.175 37.5006 40.4963C37.1122 40.811 36.6396 40.9683 36.0827 40.9683ZM36.0827 39.9239C36.4198 39.9239 36.6982 39.8001 36.9181 39.5524C37.1379 39.2979 37.3028 38.9531 37.4127 38.518C37.5226 38.0828 37.5775 37.5907 37.5775 37.0417C37.5775 36.4927 37.5226 36.0006 37.4127 35.5655C37.3028 35.1303 37.1379 34.7855 36.9181 34.5311C36.6982 34.2767 36.4198 34.1495 36.0827 34.1495C35.7456 34.1495 35.4672 34.2767 35.2473 34.5311C35.0275 34.7788 34.8626 35.1203 34.7527 35.5554C34.6428 35.9906 34.5879 36.486 34.5879 37.0417C34.5879 37.5974 34.6428 38.0928 34.7527 38.528C34.8626 38.9632 35.0275 39.3046 35.2473 39.5524C35.4745 39.8001 35.753 39.9239 36.0827 39.9239Z" fill="#31439E"/>
</svg>
