<svg width="50" height="50" viewBox="0 0 50 50" fill="none" xmlns="http://www.w3.org/2000/svg">
<g clip-path="url(#clip0)">
<path d="M45.0779 44.1322C45.4865 44.1322 45.8176 43.8011 45.8176 43.3926V42.9298C45.8176 39.0675 43.2186 35.6483 39.4978 34.6157L31.3988 32.3654L29.2496 30.2162V27.0405C31.982 25.7389 34.0355 23.2349 34.7214 20.2168H35.709C37.2044 20.2168 38.4212 19.0002 38.4212 17.5049V16.124C38.4212 15.3305 38.0787 14.6156 37.5336 14.1193V1.47934H40.8867V8.69102C39.8598 9.00764 39.1113 9.96552 39.1113 11.0947C39.1113 12.2238 39.8598 13.1817 40.8867 13.4983V15.3351C40.8867 15.7436 41.2178 16.0748 41.6264 16.0748C42.0345 16.0748 42.3656 15.7436 42.3656 15.3351V13.4983C43.3926 13.1817 44.141 12.2238 44.141 11.0947C44.141 9.96552 43.3926 9.00764 42.3656 8.69102V1.47934H43.1053C43.5139 1.47934 43.845 1.14822 43.845 0.73967C43.845 0.331116 43.5143 0 43.1057 0H6.81343C6.40526 0 6.07376 0.331116 6.07376 0.73967C6.07376 1.14822 6.40526 1.47934 6.81343 1.47934H12.3856V2.96288C12.3856 3.37105 12.7167 3.70216 13.1252 3.70216C13.5338 3.70216 13.8649 3.37105 13.8649 2.96288V1.47934H36.0542V10.1578H13.8649V6.41632C13.8649 6.00777 13.5338 5.67665 13.1252 5.67665C12.7167 5.67665 12.3856 6.00777 12.3856 6.41632V14.1193C11.8404 14.6156 11.4979 15.3309 11.4979 16.1243V17.5049C11.4979 19.0002 12.7148 20.2171 14.2101 20.2171H15.1981C15.8836 23.2353 17.9371 25.7393 20.6696 27.0409V30.2162L18.5204 32.3658L10.4214 34.6157C6.70052 35.6483 4.10156 39.0675 4.10156 42.9302V43.3926C4.10156 43.8011 4.43268 44.1322 4.84123 44.1322C5.24979 44.1322 5.5809 43.8011 5.5809 43.3926V42.9302C5.5809 39.7297 7.73392 36.8969 10.8173 36.0413L15.6948 34.6863L18.4357 43.3689C18.4696 43.4761 18.5276 43.5745 18.605 43.6562L23.2346 48.521H13.076V46.2032C13.076 45.7947 12.7449 45.4636 12.3363 45.4636C11.9278 45.4636 11.5967 45.7947 11.5967 46.2032V48.5207H5.5809V46.838C5.5809 46.4294 5.24979 46.0983 4.84123 46.0983C4.43268 46.0983 4.10156 46.4294 4.10156 46.838V49.2603C4.10156 49.6689 4.43268 50 4.84123 50H45.0779C45.4865 50 45.8176 49.6689 45.8176 49.2603V46.838C45.8176 46.4294 45.4865 46.0983 45.0779 46.0983C44.6693 46.0983 44.3382 46.4294 44.3382 46.838V48.5207H38.3224V46.2032C38.3224 45.7947 37.9913 45.4636 37.5828 45.4636C37.1742 45.4636 36.8431 45.7947 36.8431 46.2032V48.5207H26.6846L31.3141 43.6558C31.3915 43.5741 31.4495 43.4761 31.4835 43.3685L34.2243 34.6859L39.1022 36.0413C42.1852 36.8965 44.3382 39.7293 44.3382 42.9298V43.3926C44.3382 43.8011 44.6693 44.1322 45.0779 44.1322ZM41.6264 12.1304C41.0553 12.1304 40.5907 11.6657 40.5907 11.0947C40.5907 10.5236 41.0553 10.059 41.6264 10.059C42.1974 10.059 42.6617 10.5236 42.6617 11.0947C42.6617 11.6657 42.197 12.1304 41.6264 12.1304ZM23.6923 40.8283H26.2268L27.2232 45.8088L24.9596 48.1873L22.6959 45.8088L23.6923 40.8283ZM26.4957 39.349H23.4234L22.1725 37.9059L24.9596 35.1189L27.7462 37.9059L26.4957 39.349ZM28.5149 36.5822L26.0056 34.0729L28.5099 31.5689L30.0453 33.1039L28.5149 36.5822ZM36.9419 17.5049C36.9419 18.1847 36.3888 18.7374 35.709 18.7374H34.9693V14.8914H35.709C36.3888 14.8914 36.9419 15.4446 36.9419 16.1243V17.5049ZM36.0542 13.435C35.9409 13.4205 35.8261 13.4121 35.709 13.4121H34.9693V11.6371H36.0542V13.435ZM13.8649 11.6371H14.9498V13.4125H14.2101C14.093 13.4125 13.9782 13.4205 13.8649 13.435V11.6371ZM14.9498 18.7378H14.2101C13.5303 18.7378 12.9772 18.1847 12.9772 17.5049V16.1243C12.9772 15.4446 13.5303 14.8914 14.2101 14.8914H14.9498V18.7378ZM16.4291 17.9981V11.6371H33.49V17.9981C33.49 22.702 29.6635 26.5285 24.9596 26.5285C20.2557 26.5285 16.4291 22.7016 16.4291 17.9981ZM24.9596 28.0079C25.935 28.0079 26.878 27.8671 27.7702 27.6058V30.2162L24.9596 33.0269L22.1489 30.2162V27.6054C23.0412 27.8671 23.9841 28.0079 24.9596 28.0079ZM21.4092 31.5685L23.9136 34.0729L21.4043 36.5822L19.8738 33.1039L21.4092 31.5685ZM17.1211 34.2896L18.5986 33.8791L20.4834 38.1626C20.4952 38.1897 20.509 38.2164 20.5242 38.2423C20.528 38.2492 20.5326 38.2557 20.5368 38.2626C20.5471 38.279 20.5582 38.295 20.57 38.311C20.5761 38.3194 20.5826 38.3274 20.5891 38.3354C20.594 38.3415 20.5986 38.348 20.6039 38.3541L22.2893 40.2992L21.4497 44.4988L19.7948 42.7601L17.1211 34.2896ZM30.1243 42.7601L28.4695 44.4988L27.6299 40.2992L29.3152 38.3541C29.3205 38.348 29.3251 38.3415 29.3301 38.3354C29.3365 38.3274 29.343 38.319 29.3495 38.3106C29.361 38.295 29.372 38.279 29.3823 38.2626C29.3865 38.2557 29.3911 38.2492 29.3953 38.242C29.4102 38.216 29.4239 38.1897 29.4357 38.1626L31.3206 33.8791L32.798 34.2896L30.1243 42.7601Z" fill="#31439E"/>
</g>
<defs>
<clipPath id="clip0">
<rect width="50" height="50" fill="white"/>
</clipPath>
</defs>
</svg>
