<svg width="64" height="86" viewBox="0 0 64 86" fill="none" xmlns="http://www.w3.org/2000/svg">
	<g clip-path="url(#clip0_950_332)">
		<path d="M31.801 85.9835C32.1534 85.9835 4.15247 72.5862 0.346731 53.6447L0.0273438 0.109375H63.9294V53.6447C60.9032 72.3381 31.801 85.9835 32.1534 85.9835" fill="white"/>
		<path d="M24.5034 27.4008C24.5034 27.7546 24.375 28.0556 24.118 28.3024C23.861 28.5492 23.5465 28.6726 23.1757 28.6726C22.8808 28.6726 22.6214 28.587 22.395 28.4157C22.1686 28.2445 22.0084 28.0166 21.9141 27.7321L22.1576 27.6162C22.2225 27.8353 22.34 28.0191 22.5112 28.1639C22.7021 28.3288 22.9248 28.4107 23.177 28.4107C23.4682 28.4107 23.7166 28.31 23.9234 28.1098C24.1303 27.9095 24.2342 27.6691 24.2342 27.3882C24.2342 27.1956 24.1608 27.0294 24.0139 26.8909C23.8781 26.7637 23.6101 26.6013 23.21 26.4011C22.8111 26.2009 22.5467 26.041 22.4207 25.9201C22.2494 25.7552 22.1637 25.5424 22.1637 25.2805C22.1637 24.953 22.2665 24.6861 22.4721 24.4796C22.6777 24.2731 22.9433 24.1699 23.2687 24.1699C23.7154 24.1699 24.0581 24.3751 24.2955 24.7869L24.1045 24.9518C23.9112 24.6056 23.626 24.4317 23.2492 24.4317C23.0228 24.4317 22.8306 24.5124 22.6716 24.6748C22.5137 24.8372 22.4342 25.0337 22.4342 25.2641C22.4342 25.4479 22.4954 25.6003 22.6165 25.7211C22.7376 25.8421 22.9824 25.9906 23.3507 26.1669C23.8145 26.3885 24.1229 26.5799 24.2758 26.7424C24.4288 26.9047 24.5034 27.1239 24.5034 27.4008Z" fill="#1E5580"/>
		<path d="M23.1739 28.8988C22.8325 28.8988 22.5266 28.7981 22.2623 28.5979C22.0004 28.399 21.8119 28.1333 21.7042 27.8059L21.6406 27.6133L22.2928 27.301L22.3663 27.5503C22.4189 27.7278 22.5107 27.8726 22.6489 27.9897C22.8019 28.1207 22.9732 28.1849 23.1739 28.1849C23.4089 28.1849 23.6035 28.1068 23.7699 27.9457C23.9326 27.7883 24.0109 27.6057 24.0109 27.3891C24.0109 27.2594 23.9632 27.1549 23.8616 27.0592C23.7797 26.9837 23.5826 26.8414 23.1103 26.6059C22.6869 26.3944 22.4115 26.2244 22.2671 26.0871C22.0493 25.8781 21.9404 25.6075 21.9404 25.2826C21.9404 24.8935 22.0664 24.5699 22.3148 24.3193C22.5621 24.0713 22.8815 23.9453 23.2644 23.9453C23.7919 23.9453 24.2018 24.1896 24.4809 24.6731L24.5763 24.8381L24.0416 25.3002L23.9106 25.066C23.7564 24.789 23.5447 24.6593 23.2461 24.6593C23.0785 24.6593 22.9402 24.7172 22.8239 24.8368C22.7077 24.9552 22.6514 25.0962 22.6514 25.2662C22.6514 25.3884 22.6881 25.4828 22.7664 25.5608C22.8374 25.6313 23.0124 25.7598 23.4406 25.965C23.9339 26.2005 24.2569 26.4045 24.4307 26.5883C24.624 26.7936 24.7219 27.0681 24.7219 27.4029C24.7219 27.821 24.5689 28.1799 24.2667 28.4707C23.9693 28.754 23.601 28.8988 23.1739 28.8988Z" fill="#1E5580"/>
		<path d="M28.3266 24.4924H27.1885V28.6173H26.9193V24.4924H25.7812V24.2305H28.3266V24.4924Z" fill="#1E5580"/>
		<path d="M27.4103 28.8428H26.7006V24.7179H25.5625V24.0039H28.5484V24.7179H27.4103V28.8428Z" fill="#1E5580"/>
		<path d="M32.802 27.2021C32.802 27.6554 32.6723 28.0129 32.4129 28.2773C32.1535 28.5418 31.8022 28.674 31.3605 28.674C30.9163 28.674 30.5651 28.5418 30.3045 28.2773C30.0438 28.0129 29.9141 27.6554 29.9141 27.2021V24.2305H30.1845V27.1391C30.1845 27.5458 30.2885 27.8606 30.4954 28.0809C30.7021 28.3013 30.9946 28.4121 31.3715 28.4121C31.7435 28.4121 32.0299 28.3013 32.2305 28.0809C32.4312 27.8606 32.5316 27.547 32.5316 27.1391V24.2305H32.802V27.2021Z" fill="#1E5580"/>
		<path d="M31.362 28.8983C30.8603 28.8983 30.4528 28.7434 30.1518 28.4374C29.8495 28.1302 29.6953 27.7146 29.6953 27.2009V24.0039H30.4063V27.1392C30.4063 27.4893 30.487 27.7448 30.6547 27.9237C30.8199 28.0999 31.0548 28.1856 31.373 28.1856C31.6838 28.1856 31.9127 28.1012 32.0705 27.9262C32.2308 27.7499 32.3128 27.4842 32.3128 27.1392V24.0039H33.0225V27.2009C33.0225 27.7146 32.8696 28.1302 32.5686 28.4374C32.2675 28.7434 31.8612 28.8983 31.362 28.8983Z" fill="#1E5580"/>
		<path d="M37.8436 26.4239C37.8436 27.0812 37.6344 27.6113 37.2171 28.0129C36.7998 28.4159 36.254 28.616 35.5798 28.616H34.8125V24.2305H35.6653C36.3016 24.2305 36.8243 24.4357 37.2318 24.8449C37.6405 25.2554 37.8436 25.7817 37.8436 26.4239ZM37.5706 26.4239C37.5706 25.8611 37.3896 25.3989 37.0273 25.0363C36.6651 24.6737 36.2002 24.4924 35.6337 24.4924H35.0841V28.3554H35.6116C36.177 28.3554 36.6444 28.1728 37.0152 27.8077C37.386 27.4413 37.5706 26.9805 37.5706 26.4239Z" fill="#1E5580"/>
		<path d="M35.5813 28.8428H34.5938V24.0039H35.667C36.3608 24.0039 36.9396 24.2331 37.3875 24.6839C37.8379 25.1359 38.0654 25.7214 38.0654 26.4241C38.0654 27.143 37.8305 27.7335 37.3691 28.178C36.9115 28.62 36.3095 28.8428 35.5813 28.8428ZM35.3047 28.129H35.6119C36.1222 28.129 36.5322 27.9702 36.8638 27.6429C37.1929 27.3193 37.3521 26.9201 37.3521 26.4228C37.3521 25.9191 37.1966 25.5187 36.8748 25.1977C36.5517 24.8753 36.1466 24.7179 35.634 24.7179H35.3047V28.129Z" fill="#1E5580"/>
		<path d="M41.94 24.2305L40.5205 26.7438V28.616H40.2476V26.745L38.8281 24.2305H39.1279L40.3834 26.4554L41.6389 24.2305H41.94Z" fill="#1E5580"/>
		<path d="M40.7398 28.8428H40.0264V26.8055L38.4453 24.0039H39.2542L40.3837 26.0048L41.5119 24.0039H42.3208L40.7398 26.8055V28.8428Z" fill="#1E5580"/>
		<path d="M26.0934 15.103C26.0934 16.935 25.3824 18.4724 23.9605 19.7165C22.6363 20.8723 21.1202 21.4516 19.4131 21.4516C17.3903 21.4516 15.6588 20.725 14.2185 19.272C12.7782 17.8189 12.0586 16.07 12.0586 14.0251C12.0586 11.9803 12.7745 10.2301 14.205 8.7745C15.6355 7.31764 17.3598 6.58984 19.3764 6.58984C20.6344 6.58984 21.8214 6.91471 22.9399 7.56569C23.9727 8.1726 24.8232 8.97594 25.4913 9.97572L24.762 10.5662C23.3767 8.49116 21.5669 7.45362 19.3299 7.45362C17.6228 7.45362 16.1324 8.10965 14.8597 9.42297C13.5871 10.7363 12.9508 12.2699 12.9508 14.0276C12.9508 15.803 13.5761 17.3404 14.8279 18.6411C16.0798 19.9418 17.5617 20.5916 19.2749 20.5916C20.7751 20.5916 22.115 20.098 23.2935 19.1095C24.5625 18.0405 25.1976 16.7247 25.1976 15.1621H20.1583V14.2996H26.0909V15.103H26.0934Z" fill="#1E5580"/>
		<path d="M19.4129 22.0817C17.2322 22.0817 15.3404 21.2872 13.7887 19.7208C12.2334 18.1506 11.4453 16.2342 11.4453 14.0244C11.4453 11.8146 12.2284 9.89688 13.7728 8.32423C15.3159 6.75407 17.2004 5.95703 19.3761 5.95703C20.7344 5.95703 22.0353 6.31211 23.2406 7.01346C24.3517 7.66569 25.2781 8.5408 25.9964 9.61482L26.3219 10.1022L24.6271 11.4759L24.2563 10.9206C22.9812 9.01047 21.3696 8.08121 19.3309 8.08121C17.7792 8.08121 16.4588 8.6642 15.295 9.86544C14.1314 11.0667 13.5647 12.4266 13.5647 14.0244C13.5647 15.6424 14.1203 17.0047 15.2645 18.1934C16.4062 19.3796 17.7193 19.9562 19.2758 19.9562C20.6439 19.9562 21.8309 19.518 22.9078 18.6165C23.8598 17.8157 24.3994 16.8851 24.5451 15.7897H19.5463V13.6643H26.7062V15.1022C26.7062 17.1193 25.9156 18.8331 24.3579 20.1967C22.9249 21.4483 21.2619 22.0817 19.4129 22.0817Z" fill="#1E5580"/>
		<path d="M37.1727 17.251C37.1727 18.4196 36.7492 19.4118 35.9012 20.2277C35.0532 21.0436 34.0167 21.4516 32.7893 21.4516C31.8177 21.4516 30.9574 21.1683 30.2109 20.6029C29.4632 20.0376 28.9346 19.2858 28.625 18.3478L29.4265 17.9638C29.6394 18.689 30.0286 19.2922 30.5928 19.7732C31.2242 20.3171 31.956 20.589 32.7893 20.589C33.7487 20.589 34.571 20.2579 35.2551 19.5956C35.9379 18.9333 36.2805 18.1387 36.2805 17.2145C36.2805 16.5774 36.0371 16.0296 35.5513 15.5738C35.1009 15.1545 34.2174 14.6157 32.8994 13.9558C31.5815 13.2961 30.7127 12.7672 30.2929 12.3668C29.7276 11.8229 29.4449 11.1203 29.4449 10.2565C29.4449 9.17484 29.7839 8.29348 30.4606 7.61227C31.1385 6.93107 32.0147 6.58984 33.0891 6.58984C34.5649 6.58984 35.6956 7.26852 36.4788 8.62463L35.8498 9.16858C35.2122 8.02402 34.27 7.45236 33.0243 7.45236C32.2766 7.45236 31.6427 7.7193 31.1201 8.25444C30.5977 8.78836 30.3358 9.43805 30.3358 10.1998C30.3358 10.8068 30.5365 11.3091 30.9366 11.7096C31.338 12.11 32.1456 12.5997 33.3607 13.1815C34.8916 13.9131 35.9097 14.5464 36.414 15.0803C36.9205 15.6155 37.1727 16.3394 37.1727 17.251Z" fill="#1E5580"/>
		<path d="M32.7902 22.083C31.6888 22.083 30.6988 21.7556 29.8471 21.1121C29.0003 20.4712 28.3934 19.61 28.0446 18.5523L27.8672 18.0159L29.8104 17.0841L30.0148 17.7817C30.1935 18.3911 30.5104 18.8834 30.9852 19.2876C31.5102 19.7397 32.1 19.9588 32.7902 19.9588C33.5954 19.9588 34.2635 19.6893 34.835 19.1366C35.3954 18.5939 35.6671 17.9656 35.6671 17.2138C35.6671 16.7518 35.4994 16.3778 35.1384 16.039C34.8619 15.7822 34.2011 15.3087 32.6323 14.523C31.2471 13.8304 30.3452 13.2752 29.8764 12.8282C29.1839 12.1608 28.8326 11.2958 28.8326 10.2558C28.8326 9.00289 29.2364 7.96159 30.0331 7.15951C30.8261 6.36246 31.8552 5.95703 33.0912 5.95703C34.7922 5.95703 36.11 6.74526 37.0083 8.30031L37.275 8.76113L35.6854 10.1362L35.3208 9.48136C34.7885 8.52695 34.0603 8.08248 33.0275 8.08248C32.4439 8.08248 31.9617 8.2852 31.5554 8.70076C31.1491 9.11495 30.9522 9.6048 30.9522 10.1991C30.9522 10.6373 31.0843 10.9735 31.367 11.2556C31.608 11.496 32.1942 11.9254 33.6222 12.6079C35.2363 13.3797 36.2949 14.0433 36.8565 14.6388C37.4732 15.2937 37.7865 16.1712 37.7865 17.2491C37.7865 18.5939 37.2934 19.751 36.3206 20.6866C35.3612 21.6146 34.1729 22.083 32.7902 22.083Z" fill="#1E5580"/>
		<path d="M51.8968 9.74027C50.6265 8.21541 49.032 7.45236 47.112 7.45236C45.4233 7.45236 43.9439 8.10838 42.6736 9.42163C41.4034 10.735 40.7696 12.2686 40.7696 14.0264C40.7696 15.764 41.4107 17.2926 42.6919 18.6109C43.9732 19.9306 45.4588 20.589 47.1475 20.589C48.9586 20.589 50.5348 19.8613 51.8771 18.4045V19.651C50.4796 20.8509 49.01 21.4516 47.4669 21.4516C45.3768 21.4516 43.589 20.7251 42.1034 19.272C40.6178 17.819 39.875 16.07 39.875 14.0252C39.875 12.018 40.6019 10.2779 42.0569 8.80217C43.5118 7.32645 45.2299 6.58984 47.2099 6.58984C49.0381 6.58984 50.5996 7.21187 51.8943 8.4559V9.74027H51.8968Z" fill="#1E5580"/>
		<path d="M47.4706 22.0817C45.2275 22.0817 43.2806 21.2897 41.6848 19.7283C40.0794 18.1582 39.2656 16.2393 39.2656 14.0244C39.2656 11.8524 40.061 9.94353 41.631 8.35193C43.1986 6.76289 45.077 5.95703 47.2149 5.95703C49.1948 5.95703 50.9117 6.64201 52.3177 7.99308L52.5123 8.18069V11.447L51.433 10.15C50.2753 8.75864 48.862 8.08247 47.1145 8.08247C45.5811 8.08247 44.2718 8.66546 43.1117 9.86544C41.9504 11.0667 41.3862 12.4266 41.3862 14.0244C41.3862 15.6021 41.9565 16.957 43.1288 18.1632C44.3011 19.3707 45.6178 19.9575 47.1512 19.9575C48.8008 19.9575 50.2031 19.3078 51.4354 17.9693L52.4939 16.8209V19.9461L52.2737 20.135C50.7697 21.4269 49.1544 22.0817 47.4706 22.0817Z" fill="#1E5580"/>
		<path d="M12.631 53.5223C13.286 53.5223 13.8168 52.9759 13.8168 52.3022C13.8168 51.6283 13.286 51.082 12.631 51.082C11.9762 51.082 11.4453 51.6283 11.4453 52.3022C11.4453 52.9759 11.9762 53.5223 12.631 53.5223Z" fill="#1E5580"/>
		<path d="M51.3263 53.5203C51.9813 53.5203 52.5121 52.974 52.5121 52.3002C52.5121 51.6263 51.9813 51.0801 51.3263 51.0801C50.6716 51.0801 50.1406 51.6263 50.1406 52.3002C50.1406 52.974 50.6716 53.5203 51.3263 53.5203Z" fill="#1E5580"/>
		<path d="M43.6221 61.5704C43.5328 61.4432 43.4349 61.3198 43.3235 61.204C43.1999 61.0781 43.069 60.9685 42.9319 60.869L35.5603 53.3884C35.6778 53.3381 35.7892 53.2638 35.8858 53.1643C36.2774 52.7613 36.2774 52.1079 35.8858 51.7049L35.3841 51.1887L35.7805 50.7819C36.1012 50.4521 36.1587 49.9535 35.9531 49.5619C37.3384 49.1891 39.1544 48.5923 39.8457 47.8797C40.4613 47.2475 40.7745 46.4203 40.788 45.588C41.5749 46.0715 42.4241 46.4429 43.3162 46.6885C43.4165 46.7137 43.5169 46.7401 43.616 46.7653C46.7304 47.5245 49.5693 44.5907 48.8437 41.4C48.8192 41.2842 48.7935 41.181 48.769 41.0778C48.4937 40.049 48.0691 39.0832 47.5062 38.1955C47.6934 38.0923 47.8427 37.9765 47.9565 37.8606C48.8694 36.9351 48.8694 35.4027 47.9565 34.4772C47.0436 33.5379 45.5679 33.5379 44.6672 34.4772C44.5423 34.6057 44.4298 34.7858 44.3172 34.9923C43.5169 34.4772 42.6407 34.0906 41.7279 33.8339C41.6152 33.8074 41.5161 33.7822 41.4158 33.7558C38.3015 32.9964 35.4636 35.9316 36.1881 39.1348C36.2138 39.238 36.2383 39.3413 36.2762 39.4433C36.5307 40.4217 36.9285 41.3585 37.4498 42.2197C36.6629 42.2474 35.8846 42.5698 35.285 43.1868C34.596 43.8945 34.0184 45.7454 33.6563 47.167C33.2671 46.9038 32.7384 46.9479 32.3958 47.3004L32.0005 47.7071L31.5147 47.2073C31.1721 46.8547 30.6435 46.8107 30.2543 47.0738C29.8908 45.6522 29.3133 43.8013 28.6255 43.0936C27.9428 42.391 27.0274 42.0712 26.1317 42.1316C26.7472 41.1936 27.2121 40.156 27.4985 39.0606C27.5254 38.9561 27.5512 38.8516 27.5756 38.747C28.3086 35.5475 25.4623 32.6174 22.3516 33.3717C22.25 33.3956 22.1485 33.4221 22.0469 33.4498C21.0288 33.7318 20.0621 34.1813 19.1834 34.7744C19.181 34.7707 19.1797 34.7668 19.1773 34.7631C19.077 34.5704 18.9643 34.4155 18.8518 34.2997C17.9512 33.3603 16.4631 33.3603 15.5624 34.2997C14.6495 35.2391 14.6495 36.7576 15.5624 37.6843C15.6885 37.8127 15.8635 37.9286 16.0629 38.0444C16.0752 38.0507 16.0874 38.057 16.0997 38.0633C15.6188 38.883 15.248 39.7682 15.0056 40.6949C14.9776 40.7994 14.9531 40.9039 14.9286 41.0097C14.1968 44.2092 17.0431 47.138 20.1538 46.3838C20.2553 46.3598 20.357 46.3334 20.4573 46.3057C21.4044 46.0426 22.3088 45.6358 23.1384 45.1033C23.0442 46.0614 23.3526 47.0549 24.0648 47.7878C24.7562 48.4991 26.5721 49.096 27.9574 49.4687C27.7518 49.8603 27.8093 50.3589 28.13 50.6888L28.6158 51.1887L28.0247 51.7981C27.6331 52.201 27.6331 52.8545 28.0247 53.2574C28.1202 53.3569 28.2315 53.4313 28.3502 53.4816L21.1291 60.8074C20.992 60.908 20.8586 61.0176 20.7363 61.1448C20.6237 61.2607 20.5258 61.384 20.4353 61.5125L16.386 65.6198C15.9944 66.0227 15.9944 66.6762 16.386 67.0792C16.7776 67.4821 17.4127 67.4821 17.8043 67.0792L20.1661 64.6842C20.308 64.9827 20.4952 65.2623 20.7363 65.5103C20.9823 65.7634 21.2625 65.961 21.5611 66.1071L20.5613 67.1371C20.1698 67.54 20.1698 68.1936 20.5613 68.5965L23.3918 71.5089C23.7834 71.9118 24.4184 71.9118 24.81 71.5089C25.2016 71.1059 25.2016 70.4524 24.81 70.0495L22.6881 67.8661L24.2692 66.2394L26.3911 68.4227C26.7827 68.8256 27.4178 68.8256 27.8093 68.4227C28.2009 68.0197 28.2009 67.3662 27.8093 66.9633L25.6874 64.78L27.2685 63.1532L29.3904 65.3365C29.782 65.7394 30.4171 65.7394 30.8087 65.3365C31.2003 64.9335 31.2003 64.2801 30.8087 63.8771L27.9782 60.9648C27.5866 60.5618 26.9515 60.5618 26.5599 60.9648L25.559 61.9935C25.417 61.6862 25.2249 61.3979 24.9789 61.1448C24.7488 60.9081 24.4894 60.7192 24.2141 60.5757L29.7698 54.9397C29.8186 55.0631 29.8921 55.1802 29.99 55.281C30.3816 55.6839 31.0166 55.6839 31.4082 55.281L32.0005 54.6715L32.5023 55.1877C32.8939 55.5906 33.5289 55.5906 33.9205 55.1877C34.0184 55.087 34.0906 54.9712 34.1396 54.8465L39.8445 60.6361C39.5692 60.7797 39.311 60.9673 39.0809 61.204C38.8338 61.4584 38.6428 61.7467 38.4997 62.0539L37.4999 61.0239C37.1083 60.621 36.4732 60.621 36.0816 61.0239L33.25 63.9376C32.8584 64.3405 32.8584 64.994 33.25 65.3969C33.6416 65.7999 34.2766 65.7999 34.6682 65.3969L36.7901 63.2135L38.3712 64.8404L36.2493 67.0238C35.8577 67.4267 35.8577 68.0802 36.2493 68.4831C36.6409 68.8861 37.2759 68.8861 37.6675 68.4831L39.7894 66.2997L41.3705 67.9266L39.2486 70.11C38.857 70.5129 38.857 71.1664 39.2486 71.5693C39.6402 71.9723 40.2753 71.9723 40.6668 71.5693L43.4985 68.6556C43.8901 68.2527 43.8901 67.5992 43.4985 67.1963L42.4976 66.1675C42.7961 66.0202 43.0764 65.8238 43.3235 65.5694C43.5634 65.3226 43.7518 65.0419 43.8938 64.7435L46.2543 67.1396C46.6459 67.5426 47.281 67.5426 47.6726 67.1396C48.0642 66.7367 48.0642 66.0832 47.6726 65.6803L43.6221 61.5704ZM40.3817 42.2664C40.0391 41.9126 40.0391 41.3384 40.3817 40.9845C40.5666 40.7944 41.3998 40.4771 42.3911 40.2001C42.1206 41.2187 41.8123 42.0762 41.6287 42.2664C41.2848 42.6202 40.7256 42.6202 40.3817 42.2664ZM45.6804 35.5324C46.0304 35.171 46.5933 35.171 46.9298 35.5324C47.281 35.88 47.281 36.4579 46.9298 36.8054C46.8809 36.8571 46.7805 36.9213 46.63 36.9994C46.493 36.8319 46.3424 36.6644 46.1797 36.4969C45.9557 36.2652 45.7293 36.06 45.4919 35.8661C45.5679 35.6999 45.6302 35.584 45.6804 35.5324ZM41.2909 35.7251C42.1157 35.9316 42.916 36.2916 43.6417 36.7677C44.092 37.0636 44.5044 37.411 44.8924 37.809C45.2178 38.1439 45.5177 38.504 45.7673 38.8906C46.3179 39.6876 46.7059 40.5766 46.9298 41.5159C47.3936 43.4965 45.6681 45.2858 43.7421 44.796C43.0139 44.6147 42.3127 44.3213 41.6617 43.9246C42.024 43.8164 42.3666 43.6149 42.653 43.3203C43.3762 42.5774 43.9293 40.0881 44.0822 39.3426C44.1324 39.0958 44.059 38.8402 43.8864 38.6614C43.7127 38.4839 43.4642 38.4071 43.2244 38.4587C42.4999 38.6161 40.0807 39.1864 39.3575 39.9307C39.0932 40.2013 38.9084 40.5237 38.7983 40.8661C38.4887 40.2769 38.255 39.6523 38.102 39.0064C37.6394 37.0245 39.3648 35.2491 41.2909 35.7251ZM36.7033 44.6461C37.1781 44.1576 37.9527 44.1576 38.4275 44.6461C38.9035 45.1359 38.9035 45.9317 38.4275 46.4203C38.173 46.6835 37.0178 47.1229 35.6472 47.5069C36.0204 46.0967 36.4475 44.9093 36.7033 44.6461ZM16.5879 35.3548C16.9256 34.9948 17.4886 34.9948 17.8263 35.3548C17.8765 35.4065 17.9389 35.5097 18.0135 35.6634C18.0172 35.6697 18.0209 35.6784 18.0234 35.686C17.8752 35.822 17.7285 35.9618 17.5877 36.1078C17.3589 36.3433 17.141 36.5888 16.9366 36.8457C16.9293 36.8419 16.9208 36.8381 16.9134 36.8344C16.7507 36.7576 16.6381 36.6933 16.5879 36.6417C16.2379 36.2816 16.2379 35.7024 16.5879 35.3548ZM23.1996 42.0737C22.8558 42.4275 22.2978 42.4275 21.9539 42.0737C21.7691 41.8849 21.4608 41.0261 21.1915 40.0074C22.1815 40.2857 23.0148 40.603 23.1996 40.7919C23.5435 41.1457 23.5435 41.7211 23.1996 42.0737ZM24.2239 39.738C23.5018 38.9938 21.0826 38.4234 20.3582 38.2673C20.1183 38.2144 19.8687 38.2912 19.6962 38.4687C19.5224 38.6475 19.4489 38.9032 19.4991 39.15C19.6521 39.8954 20.2064 42.3847 20.9296 43.1289C21.1927 43.3996 21.5036 43.5897 21.8352 43.703C21.2625 44.0203 20.6567 44.2596 20.0302 44.4157C18.1053 44.8955 16.3763 43.1175 16.8412 41.1356C17.1655 39.7581 17.8545 38.4763 18.8726 37.43C19.8907 36.3823 21.1352 35.6722 22.4752 35.3397C24.4001 34.8613 26.128 36.6392 25.6617 38.6211C25.4855 39.3703 25.2004 40.0918 24.8125 40.7629C24.7073 40.3877 24.5114 40.0339 24.2239 39.738ZM25.483 46.3271C25.007 45.8386 25.007 45.0428 25.483 44.5529C25.9578 44.0644 26.7313 44.0644 27.2073 44.5529C27.463 44.8162 27.8889 46.0035 28.2634 47.4138C26.8915 47.0297 25.7376 46.5903 25.483 46.3271ZM23.5606 64.0509C23.1727 64.4488 22.5425 64.4488 22.1546 64.0509C21.8364 63.7222 21.7802 63.2261 21.9844 62.8384L22.3957 62.4216C22.7713 62.2188 23.2461 62.2806 23.5606 62.6042C23.9473 63.0033 23.9473 63.6518 23.5606 64.0509ZM33.699 52.2968C33.9377 52.5422 33.9377 52.9402 33.699 53.1857C33.4604 53.4313 33.0738 53.4313 32.8351 53.1857L31.9357 52.2602L31.0351 53.1857C30.7964 53.4313 30.4098 53.4313 30.1711 53.1857C29.9325 52.9402 29.9325 52.5422 30.1711 52.2968L31.0718 51.3713L30.1711 50.4445C29.9325 50.199 29.9325 49.8011 30.1711 49.5555C30.4098 49.31 30.7964 49.31 31.0351 49.5555L31.9357 50.4823L32.8351 49.5555C33.0738 49.31 33.4604 49.31 33.699 49.5555C33.9377 49.8011 33.9377 50.199 33.699 50.4445L32.7996 51.3713L33.699 52.2968ZM41.9041 64.1101C41.5173 64.5093 40.8859 64.5093 40.4992 64.1101C40.1113 63.711 40.1113 63.0625 40.4992 62.6646C40.8137 62.3397 41.2885 62.2793 41.6642 62.482L42.0741 62.8975C42.2797 63.2854 42.2234 63.7827 41.9041 64.1101Z" fill="#1E5580"/>
	</g>
	<defs>
		<clipPath id="clip0_950_332">
			<rect width="64" height="86" fill="white"/>
		</clipPath>
	</defs>
</svg>
