<svg width="60" height="76" viewBox="0 0 60 76" fill="none" xmlns="http://www.w3.org/2000/svg">
<path d="M53.9592 57.0028L44.0915 53.7137C44.0885 53.7127 44.0854 53.7117 44.0824 53.7108L42.669 53.2396C46.5462 52.4813 50.1185 51.3707 53.1056 49.9851C54.4487 49.362 55.3097 48.0164 55.2988 46.5565C55.1498 26.5705 52.3652 0 29.9976 0C7.63004 0 4.8455 26.5705 4.69662 46.5565C4.68578 48.0163 5.54672 49.362 6.88978 49.985C9.87694 51.3705 13.4491 52.481 17.3263 53.2393L15.9118 53.7109C15.9093 53.7117 15.9069 53.7126 15.9045 53.7133L6.03626 57.0027C2.95381 58.0302 0.882812 60.9036 0.882812 64.1526V72.2714C0.882812 74.3274 2.55541 76 4.61141 76H55.3839C57.4399 76 59.1125 74.3274 59.1125 72.2714V64.1526C59.1125 60.9036 57.0416 58.0302 53.9592 57.0028ZM7.89099 47.8261C7.39224 47.5946 7.07266 47.1032 7.07652 46.5742C7.18012 32.656 8.72239 22.4133 11.7912 15.2609C15.5103 6.59345 21.4657 2.3799 29.9976 2.3799C38.5295 2.3799 44.485 6.59345 48.2039 15.2609C51.2729 22.4133 52.8152 32.656 52.9186 46.5739C52.9226 47.1031 52.6027 47.5944 52.1038 47.826C48.7799 49.3676 44.6642 50.5532 40.1904 51.2613C40.1143 51.015 40.0725 50.7549 40.0725 50.4872V46.8852C40.0725 46.8803 40.0719 46.8755 40.0718 46.8706L42.9617 44.8477C44.2715 43.931 45.2836 42.6967 45.9265 41.282C46.7264 40.5524 47.2765 39.8066 47.6543 39.1375C47.6543 39.1375 47.7445 39.1391 47.7699 39.1391C48.7512 39.1391 49.6748 38.7622 50.3778 38.073C51.0991 37.366 51.4963 36.4203 51.4963 35.4104V30.3923C51.4963 29.3942 51.1069 28.4562 50.4001 27.7516C49.6931 27.0468 48.7533 26.6579 47.7558 26.6637L47.548 26.6643C47.5896 25.8551 47.6224 24.9973 47.6475 24.0696C47.6562 23.7487 47.5346 23.4377 47.3106 23.2075C47.1394 23.0316 46.9192 22.9141 46.6816 22.8687C46.0831 22.6153 43.3723 21.2747 41.7339 17.2014C41.6037 16.8776 41.3381 16.6275 41.0074 16.5169C40.6764 16.4064 40.3139 16.4464 40.0152 16.6266C38.0903 17.7879 27.324 22.5399 13.5122 22.8199C13.1953 22.8264 12.8941 22.9588 12.6754 23.1882C12.4566 23.4175 12.3383 23.7246 12.3468 24.0415C12.3719 24.9803 12.405 25.8464 12.4468 26.6644L12.239 26.6638C12.2349 26.6638 12.2309 26.6638 12.2269 26.6638C11.2332 26.6638 10.2989 27.0501 9.59476 27.7517C8.88775 28.4564 8.49855 29.3942 8.49855 30.3924V35.4105C8.49855 36.4206 8.89562 37.3662 9.61702 38.0732C10.32 38.7624 11.2435 39.1393 12.2249 39.1393C12.2505 39.1393 13.4056 39.1164 13.4056 39.1164C13.7985 41.4292 15.0895 43.4873 17.0333 44.848L19.9232 46.8709C19.9232 46.8758 19.9224 46.8806 19.9224 46.8855V50.4875C19.9224 50.7552 19.8807 51.0153 19.8046 51.2616C15.3308 50.5534 11.215 49.3678 7.89099 47.8261ZM31.9016 40.618H30.6324C28.9264 40.618 27.5385 42.006 27.5385 43.7119C27.5385 45.4179 28.9265 46.8058 30.6324 46.8058H31.9016C33.1597 46.8058 34.2428 46.0499 34.7258 44.9694C36.5538 44.886 38.1384 44.6686 39.5134 44.3565L33.9323 48.2634C32.7737 49.0743 31.4137 49.503 29.996 49.503C28.5818 49.503 27.2222 49.0743 26.0633 48.2634L18.3983 42.8978C16.8165 41.7905 15.8244 40.0516 15.6765 38.1283L14.8965 27.7783C14.8417 26.9647 14.7978 26.1018 14.7634 25.164C26.9048 24.6997 36.4538 21.0475 40.0665 19.2892C41.7407 22.6266 44.0526 24.1909 45.2442 24.8147C45.2082 25.8848 45.1605 26.8592 45.0989 27.7735L44.3189 38.1263C44.2727 38.7263 44.1445 39.308 43.9422 39.8583C42.3319 41.1509 39.5557 42.3436 34.779 42.5827C34.327 41.4342 33.2089 40.618 31.9016 40.618ZM32.6156 43.7119C32.6156 44.1055 32.2953 44.4259 31.9016 44.4259H30.6324C30.2387 44.4259 29.9184 44.1055 29.9184 43.7119C29.9184 43.3182 30.2387 42.9979 30.6324 42.9979H31.9016C32.2953 42.9979 32.6156 43.3182 32.6156 43.7119ZM22.3025 50.4872V48.5362L24.6984 50.2134C26.2591 51.3058 28.0908 51.8832 29.9996 51.8832C31.9045 51.8832 33.7363 51.3058 35.2969 50.2134L37.6928 48.5361V50.4872C37.6928 52.6419 39.0661 54.5472 41.1103 55.2285L41.7285 55.4346C38.8386 58.9879 34.4199 63.0885 29.9973 64.6675C25.5751 63.0885 21.1561 58.9879 18.2662 55.4346L18.8846 55.2285C20.929 54.5472 22.3025 52.6417 22.3025 50.4872ZM46.8103 36.7401L47.3901 29.0448L47.7637 29.0434C48.1211 29.0422 48.4643 29.1821 48.7201 29.4369C48.9757 29.6918 49.1165 30.031 49.1165 30.3921V35.4102C49.1165 35.7757 48.9729 36.1175 48.7119 36.3733C48.4511 36.629 48.1085 36.7669 47.741 36.7586L46.8103 36.7401ZM13.185 36.7402L12.2542 36.7588C11.8896 36.7659 11.544 36.6292 11.2831 36.3736C11.0223 36.1178 10.8784 35.7757 10.8784 35.4105V30.3924C10.8784 30.0314 11.0193 29.6922 11.2749 29.4372C11.5305 29.1822 11.8661 29.044 12.2313 29.0437L12.6051 29.0449L13.185 36.7402ZM11.0373 73.6201H4.61141C3.86774 73.6201 3.26271 73.0151 3.26271 72.2714V64.1526C3.26271 63.3004 3.47245 62.487 3.848 61.7671L9.89861 67.8177C10.6328 68.552 11.0371 69.5281 11.0371 70.5664L11.0373 73.6201ZM46.578 70.5666V73.6201H13.4173V70.5666C13.4173 68.8925 12.7654 67.3188 11.5817 66.135L5.41209 59.9655C5.82593 59.6686 6.28698 59.4281 6.78884 59.2607L15.8619 56.2363C20.6476 62.457 26.0703 65.8997 29.63 67.0565C29.7495 67.0954 29.8737 67.1147 29.9978 67.1147C30.1219 67.1147 30.2461 67.0954 30.3656 67.0565C33.9254 65.8996 39.348 62.4569 44.1336 56.2363L53.2067 59.2607C53.7086 59.4281 54.1697 59.6686 54.5835 59.9655L48.4138 66.135C47.2299 67.3186 46.578 68.8925 46.578 70.5666ZM56.7326 72.2714C56.7326 73.0151 56.1275 73.6201 55.3839 73.6201H48.958V70.5666C48.958 69.5283 49.3624 68.5521 50.0965 67.8178L56.1471 61.7672C56.5227 62.4871 56.7324 63.3006 56.7324 64.1528V72.2714H56.7326Z" fill="white"/>
</svg>
