<svg width="20" height="19" viewBox="0 0 20 19" fill="none" xmlns="http://www.w3.org/2000/svg">
<path d="M19.375 19H8.82812V16.5781H19.375V19Z" fill="white"/>
<path d="M14.1016 6.03125C11.1891 6.03125 8.82812 8.39223 8.82812 11.3047C8.82812 14.2171 11.1891 16.5781 14.1016 16.5781C17.014 16.5781 19.375 14.2171 19.375 11.3047C19.375 8.39223 17.014 6.03125 14.1016 6.03125ZM14.1016 10.7188C15.0709 10.7188 15.8594 11.5073 15.8594 12.4766C15.8594 13.2395 15.368 13.8837 14.6875 14.1264V14.8203H13.5156V14.1264C12.8351 13.8837 12.3438 13.2395 12.3438 12.4766H13.5156C13.5156 12.7998 13.7783 13.0625 14.1016 13.0625C14.4248 13.0625 14.6875 12.7998 14.6875 12.4766C14.6875 12.1533 14.4248 11.8906 14.1016 11.8906C13.1323 11.8906 12.3438 11.1021 12.3438 10.1328C12.3438 9.36992 12.8351 8.72563 13.5156 8.48293V7.78906H14.6875V8.48293C15.368 8.72563 15.8594 9.36992 15.8594 10.1328H14.6875C14.6875 9.80953 14.4248 9.54688 14.1016 9.54688C13.7783 9.54688 13.5156 9.80953 13.5156 10.1328C13.5156 10.4561 13.7783 10.7188 14.1016 10.7188Z" fill="white"/>
<path d="M4.99777 3.6875C5.19805 3.34246 5.3125 2.94191 5.3125 2.51562C5.3125 1.22301 4.26137 0.171875 2.96875 0.171875C1.67613 0.171875 0.625 1.22301 0.625 2.51562V19H7.65625V15.4062H9.13359C8.21129 14.2911 7.65625 12.8615 7.65625 11.3047C7.65625 7.94848 10.2356 5.18645 13.5156 4.88906V3.6875H4.99777ZM7.65625 13.0625H2.96875V11.8906H7.65625V13.0625ZM7.65625 10.7188H2.96875V9.54688H7.65625V10.7188ZM7.65625 8.375H2.96875V7.20312H7.65625V8.375Z" fill="white"/>
</svg>
