<svg width="58" height="80" viewBox="0 0 58 80" fill="none" xmlns="http://www.w3.org/2000/svg">
<path d="M11.5 31.2649V34.3137C11.5 35.1059 12.1422 35.748 12.9344 35.748H45.0659C45.8581 35.748 46.5003 35.1059 46.5003 34.3137V31.2649C46.5003 30.4727 45.8581 29.8305 45.0659 29.8305H12.9344C12.1422 29.8305 11.5 30.4727 11.5 31.2649Z" stroke="white" stroke-width="2" stroke-miterlimit="10" stroke-linecap="round" stroke-linejoin="round"/>
<path d="M11.5 44.5288V47.5775C11.5 48.3697 12.1422 49.0117 12.9344 49.0117H45.0659C45.8581 49.0117 46.5003 48.3697 46.5003 47.5775V44.5288C46.5003 43.7366 45.8581 43.0944 45.0659 43.0944H12.9344C12.1422 43.0944 11.5 43.7366 11.5 44.5288Z" stroke="white" stroke-width="2" stroke-miterlimit="10" stroke-linecap="round" stroke-linejoin="round"/>
<path d="M31.7283 57.2011H26.2767C24.7044 57.2011 23.4297 58.4758 23.4297 60.0483V60.2075C23.4297 61.78 24.7044 63.0547 26.2767 63.0547H31.7283C33.3006 63.0547 34.5755 61.78 34.5755 60.2075V60.0483C34.5755 58.4758 33.3006 57.2011 31.7283 57.2011Z" stroke="white" stroke-width="2" stroke-miterlimit="10" stroke-linecap="round" stroke-linejoin="round"/>
<path d="M53.5778 1.17195H4.42297C2.57141 1.17195 1.07031 2.67305 1.07031 4.52477V13.0176H56.9306V4.52477C56.9306 2.67305 55.4295 1.17195 53.5778 1.17195Z" stroke="white" stroke-width="2" stroke-miterlimit="10" stroke-linecap="round" stroke-linejoin="round"/>
<path d="M1.07031 22.234V69.6062C1.07031 71.4579 2.57141 72.959 4.42312 72.959H34.5734" stroke="white" stroke-width="2" stroke-miterlimit="10" stroke-linecap="round" stroke-linejoin="round"/>
<path d="M54.883 72.6953C56.0864 72.1863 56.9308 70.9947 56.9308 69.6059V4.5247C56.9308 2.67298 55.4297 1.17188 53.578 1.17188H4.42313C2.57156 1.17188 1.07031 2.67298 1.07031 4.5247V17.5464" stroke="white" stroke-width="2" stroke-miterlimit="10" stroke-linecap="round" stroke-linejoin="round"/>
<path d="M8.50703 4.68125C7.17422 4.68125 6.09375 5.76172 6.09375 7.09453C6.09375 8.42734 7.17422 9.50781 8.50703 9.50781C9.83984 9.50781 10.9203 8.42734 10.9203 7.09453C10.9203 5.76172 9.83984 4.68125 8.50703 4.68125Z" stroke="white" stroke-width="2" stroke-miterlimit="10" stroke-linecap="round" stroke-linejoin="round"/>
<path d="M17.8859 4.68125C16.5531 4.68125 15.4727 5.76172 15.4727 7.09453C15.4727 8.42734 16.5531 9.50781 17.8859 9.50781C19.2187 9.50781 20.2992 8.42734 20.2992 7.09453C20.2992 5.76172 19.2187 4.68125 17.8859 4.68125Z" stroke="white" stroke-width="2" stroke-miterlimit="10" stroke-linecap="round" stroke-linejoin="round"/>
<path d="M27.2648 4.68125C25.932 4.68125 24.8516 5.76172 24.8516 7.09453C24.8516 8.42734 25.932 9.50781 27.2648 9.50781C28.5977 9.50781 29.6781 8.42734 29.6781 7.09453C29.6781 5.76172 28.5977 4.68125 27.2648 4.68125Z" stroke="white" stroke-width="2" stroke-miterlimit="10" stroke-linecap="round" stroke-linejoin="round"/>
<path d="M52.7258 67.2596L40.5675 60.2401C40.0167 59.9221 39.3281 60.3195 39.3281 60.9556V74.9948C39.3281 75.6307 40.0167 76.0284 40.5675 75.7103L43.6995 73.9021C44.1605 73.636 44.7497 73.7939 45.0158 74.2548L47.3891 78.3654C47.6445 78.8079 48.2105 78.9595 48.6531 78.704L51.2756 77.1898C51.7183 76.9343 51.8698 76.3684 51.6144 75.9259L49.2411 71.8153C48.975 71.3545 49.133 70.7651 49.5939 70.499L52.7258 68.6907C53.2766 68.3728 53.2766 67.5776 52.7258 67.2596Z" stroke="white" stroke-width="2" stroke-miterlimit="10" stroke-linecap="round" stroke-linejoin="round"/>
</svg>
