<svg width="9" height="9" viewBox="0 0 9 9" fill="none" xmlns="http://www.w3.org/2000/svg">
<g clip-path="url(#clip0_950_712)">
<path d="M7.68199 1.31801C6.83204 0.468088 5.70199 0 4.5 0C3.29801 0 2.16796 0.468088 1.31801 1.31801C0.468088 2.16796 0 3.29801 0 4.5C0 5.70199 0.468088 6.83205 1.31801 7.68199C2.16796 8.53191 3.29801 9 4.5 9C5.70199 9 6.83204 8.53191 7.68199 7.68199C8.53191 6.83205 9 5.70199 9 4.5C9 3.29801 8.53191 2.16796 7.68199 1.31801ZM4.5 8.29688C2.40639 8.29688 0.703125 6.59361 0.703125 4.5C0.703125 2.40639 2.40639 0.703125 4.5 0.703125C6.59361 0.703125 8.29688 2.40639 8.29688 4.5C8.29688 6.59361 6.59361 8.29688 4.5 8.29688Z" fill="white"/>
<path d="M6.48746 7.15834C6.48619 7.15458 6.35917 6.7782 6.04765 6.41315C5.6512 5.94856 5.14511 5.713 4.54344 5.713C3.93744 5.713 3.41501 5.95137 2.99071 6.42145C2.65813 6.78992 2.51132 7.16922 2.5103 7.17188L1.85156 6.92596C1.85895 6.90623 2.03671 6.43743 2.44945 5.97194C3.0075 5.34255 3.7316 5.00987 4.54344 5.00987C5.35928 5.00987 6.07105 5.34519 6.60182 5.97959C6.99413 6.44848 7.14964 6.92089 7.15608 6.94078L6.48746 7.15834Z" fill="white"/>
<path d="M2.95312 3.72852C3.26379 3.72852 3.51562 3.47668 3.51562 3.16602C3.51562 2.85536 3.26379 2.60352 2.95312 2.60352C2.64246 2.60352 2.39062 2.85536 2.39062 3.16602C2.39062 3.47668 2.64246 3.72852 2.95312 3.72852Z" fill="white"/>
<path d="M6.04688 3.72852C6.35754 3.72852 6.60938 3.47668 6.60938 3.16602C6.60938 2.85536 6.35754 2.60352 6.04688 2.60352C5.73621 2.60352 5.48438 2.85536 5.48438 3.16602C5.48438 3.47668 5.73621 3.72852 6.04688 3.72852Z" fill="white"/>
</g>
<defs>
<clipPath id="clip0_950_712">
<rect width="9" height="9" fill="white"/>
</clipPath>
</defs>
</svg>
