<svg width="89" height="65" viewBox="0 0 89 65" fill="none" xmlns="http://www.w3.org/2000/svg">
<path d="M16.7976 9.46476C24.7328 6.64527 33.0957 3.97527 41.8844 1.45476C43.5932 0.964563 45.4079 0.964563 47.1166 1.45476C60.8751 5.40066 73.5889 9.71333 85.2545 14.391C88.5103 15.6965 88.5103 20.3047 85.2545 21.6119C73.5889 26.2896 60.8751 30.6005 47.1166 34.5464C45.4079 35.0366 43.5932 35.0366 41.8844 34.5464C28.1259 30.6005 15.4121 26.2896 3.74654 21.6119C0.490737 20.3047 0.490737 15.6965 3.74654 14.391C6.40785 13.3237 9.12478 12.2756 11.8956 11.2465" stroke="white" stroke-width="2" stroke-miterlimit="10" stroke-linecap="round" stroke-linejoin="round"/>
<path d="M69.9498 40.7053V42.7704C69.9498 43.8116 69.3275 44.752 68.3678 45.157C61.4651 48.0791 53.8047 50.7352 45.3844 53.1253C45.1532 53.1896 44.9134 53.2227 44.6752 53.2227C44.4369 53.2227 44.1972 53.1896 43.966 53.1253C35.5458 50.7352 27.8852 48.0791 20.9824 45.157C20.0246 44.752 19.4023 43.8116 19.4023 42.7704V27.4509" stroke="white" stroke-width="2" stroke-miterlimit="10" stroke-linecap="round" stroke-linejoin="round"/>
<path d="M69.9531 35.4922V27.3292" stroke="white" stroke-width="2" stroke-miterlimit="10" stroke-linecap="round" stroke-linejoin="round"/>
<path d="M44.5 18.0007L65.4237 27.9667V53.4922" stroke="white" stroke-width="2" stroke-miterlimit="10" stroke-linecap="round" stroke-linejoin="round"/>
<path d="M65.4234 53.4916C63.4593 53.4916 61.8672 55.0837 61.8672 57.0478V63.9121H68.9795V57.0478C68.9795 55.0837 67.3874 53.4916 65.4234 53.4916Z" stroke="white" stroke-width="2" stroke-miterlimit="10" stroke-linecap="round" stroke-linejoin="round"/>
</svg>
