<svg width="21" height="15" viewBox="0 0 21 15" fill="none" xmlns="http://www.w3.org/2000/svg">
<path d="M20.4755 4.29293C20.4179 4.26791 19.0126 3.65914 10.6929 0.0538043C10.5274 -0.0179348 10.3399 -0.0179348 10.1744 0.0538043L0.391796 4.29293C-0.133123 4.51993 -0.128068 5.26504 0.391796 5.48967C2.29223 6.31308 5.39906 7.65954 10.1744 9.7288C10.3389 9.80014 10.5264 9.80099 10.6929 9.7288C11.1463 9.5323 17.3251 6.8548 17.6076 6.73247V13.6773C17.6076 14.0286 17.8776 14.3308 18.2285 14.3471C18.6031 14.3645 18.9119 14.0663 18.9119 13.6957V6.49594C18.9119 6.39346 18.836 6.30693 18.7343 6.29384C17.5103 6.1361 11.7373 5.39099 10.3501 5.21209C9.94883 5.16196 9.69881 4.75565 9.8043 4.39402C9.88704 4.0886 10.177 3.89405 10.4707 3.91427C10.5 3.91598 19.794 5.11533 19.7873 5.11447C19.961 5.13681 20.1037 5.248 20.1723 5.39878C20.2202 5.50418 20.3422 5.55249 20.4471 5.50333C20.6226 5.42107 20.7748 5.31281 20.844 5.0678C20.9331 4.75031 20.7721 4.42117 20.4755 4.29293Z" fill="white"/>
<path d="M9.65572 10.9254L4.19695 8.56C4.06235 8.50167 3.91211 8.60035 3.91211 8.74701V11.0868C3.91211 13.281 6.77678 14.9999 10.4338 14.9999C14.0909 14.9999 16.9556 13.281 16.9556 11.0868V8.74701C16.9556 8.60035 16.8053 8.50171 16.6708 8.56L11.2116 10.9254C10.7159 11.1409 10.1519 11.1407 9.65572 10.9254Z" fill="white"/>
</svg>
