<svg width="18" height="18" viewBox="0 0 18 18" fill="none" xmlns="http://www.w3.org/2000/svg">
<path d="M9 2.03614C11.253 2.03614 11.5602 2.03614 12.4819 2.03614C13.3012 2.03614 13.7108 2.24096 14.0181 2.34337C14.4277 2.54819 14.7349 2.6506 15.0422 2.95783C15.3494 3.26506 15.5542 3.57229 15.6566 3.98193C15.759 4.28916 15.8614 4.6988 15.9639 5.51807C15.9639 6.43976 15.9639 6.64458 15.9639 9C15.9639 11.3554 15.9639 11.5602 15.9639 12.4819C15.9639 13.3012 15.759 13.7108 15.6566 14.0181C15.4518 14.4277 15.3494 14.7349 15.0422 15.0422C14.7349 15.3494 14.4277 15.5542 14.0181 15.6566C13.7108 15.759 13.3012 15.8614 12.4819 15.9639C11.5602 15.9639 11.3554 15.9639 9 15.9639C6.64458 15.9639 6.43976 15.9639 5.51807 15.9639C4.6988 15.9639 4.28916 15.759 3.98193 15.6566C3.57229 15.4518 3.26506 15.3494 2.95783 15.0422C2.6506 14.7349 2.44578 14.4277 2.34337 14.0181C2.24096 13.7108 2.13855 13.3012 2.03614 12.4819C2.03614 11.5602 2.03614 11.3554 2.03614 9C2.03614 6.64458 2.03614 6.43976 2.03614 5.51807C2.03614 4.6988 2.24096 4.28916 2.34337 3.98193C2.54819 3.57229 2.6506 3.26506 2.95783 2.95783C3.26506 2.6506 3.57229 2.44578 3.98193 2.34337C4.28916 2.24096 4.6988 2.13855 5.51807 2.03614C6.43976 2.03614 6.74699 2.03614 9 2.03614ZM9 0.5C6.64458 0.5 6.43976 0.5 5.51807 0.5C4.59639 0.5 3.98193 0.70482 3.46988 0.909639C2.95783 1.11446 2.44578 1.42169 1.93374 1.93374C1.42169 2.44578 1.21687 2.85542 0.909639 3.46988C0.70482 3.98193 0.60241 4.59639 0.5 5.51807C0.5 6.43976 0.5 6.74699 0.5 9C0.5 11.3554 0.5 11.5602 0.5 12.4819C0.5 13.4036 0.70482 14.0181 0.909639 14.5301C1.11446 15.0422 1.42169 15.5542 1.93374 16.0663C2.44578 16.5783 2.85542 16.7831 3.46988 17.0904C3.98193 17.2952 4.59639 17.3976 5.51807 17.5C6.43976 17.5 6.74699 17.5 9 17.5C11.253 17.5 11.5602 17.5 12.4819 17.5C13.4036 17.5 14.0181 17.2952 14.5301 17.0904C15.0422 16.8855 15.5542 16.5783 16.0663 16.0663C16.5783 15.5542 16.7831 15.1446 17.0904 14.5301C17.2952 14.0181 17.3976 13.4036 17.5 12.4819C17.5 11.5602 17.5 11.253 17.5 9C17.5 6.74699 17.5 6.43976 17.5 5.51807C17.5 4.59639 17.2952 3.98193 17.0904 3.46988C16.8855 2.95783 16.5783 2.44578 16.0663 1.93374C15.5542 1.42169 15.1446 1.21687 14.5301 0.909639C14.0181 0.70482 13.4036 0.60241 12.4819 0.5C11.5602 0.5 11.3554 0.5 9 0.5Z" fill="white"/>
<path d="M9 4.59639C6.54217 4.59639 4.59639 6.54217 4.59639 9C4.59639 11.4578 6.54217 13.4036 9 13.4036C11.4578 13.4036 13.4036 11.4578 13.4036 9C13.4036 6.54217 11.4578 4.59639 9 4.59639ZM9 11.8675C7.46386 11.8675 6.13253 10.6386 6.13253 9C6.13253 7.46386 7.36145 6.13253 9 6.13253C10.5361 6.13253 11.8675 7.36145 11.8675 9C11.8675 10.5361 10.5361 11.8675 9 11.8675Z" fill="white"/>
<path d="M13.506 5.51807C14.0716 5.51807 14.5301 5.05957 14.5301 4.49398C14.5301 3.92838 14.0716 3.46988 13.506 3.46988C12.9404 3.46988 12.4819 3.92838 12.4819 4.49398C12.4819 5.05957 12.9404 5.51807 13.506 5.51807Z" fill="white"/>
</svg>
