<svg width="15" height="19" viewBox="0 0 15 19" fill="none" xmlns="http://www.w3.org/2000/svg">
<path d="M7.5 0C3.57104 0 0.375 3.19642 0.375 7.125C0.375 12.3814 6.94878 18.6289 7.22866 18.8925C7.30518 18.964 7.40259 19 7.5 19C7.59741 19 7.69482 18.964 7.77138 18.8925C8.05122 18.6289 14.625 12.3814 14.625 7.125C14.625 3.19642 11.429 0 7.5 0ZM7.5 11.0833C5.31749 11.0833 3.54165 9.30751 3.54165 7.125C3.54165 4.94249 5.31752 3.16665 7.5 3.16665C9.68248 3.16665 11.4583 4.94252 11.4583 7.125C11.4583 9.30748 9.68251 11.0833 7.5 11.0833Z" fill="white"/>
</svg>
