<svg width="13" height="13" viewBox="0 0 13 13" fill="none" xmlns="http://www.w3.org/2000/svg">
<path d="M8.42361 7.03906L7.33484 8.13152C6.89332 8.57459 6.11647 8.58413 5.6654 8.13152L4.57658 7.03906L0.666016 10.9623C0.81158 11.0296 0.972074 11.0698 1.1427 11.0698H11.8575C12.0282 11.0698 12.1886 11.0297 12.3341 10.9623L8.42361 7.03906Z" fill="white"/>
<path d="M11.8575 1.92969H1.14265C0.972023 1.92969 0.811529 1.96986 0.666016 2.03717L4.84473 6.22974C4.84501 6.23002 4.84534 6.23007 4.84562 6.23035C4.8459 6.23063 4.84595 6.23101 4.84595 6.23101L6.20468 7.59423C6.349 7.73855 6.6512 7.73855 6.79552 7.59423L8.15396 6.23124C8.15396 6.23124 8.15429 6.23063 8.15457 6.23035C8.15457 6.23035 8.15518 6.23002 8.15546 6.22974L12.3341 2.03714C12.1886 1.9698 12.0281 1.92969 11.8575 1.92969Z" fill="white"/>
<path d="M0.12152 2.57031C0.0462109 2.72261 0 2.89166 0 3.07274V9.92821C0 10.1093 0.0461602 10.2783 0.121494 10.4306L4.03884 6.5006L0.12152 2.57031Z" fill="white"/>
<path d="M12.8782 2.57031L8.96094 6.50065L12.8782 10.4307C12.9535 10.2784 12.9997 10.1094 12.9997 9.92826V3.07279C12.9997 2.89166 12.9535 2.72261 12.8782 2.57031Z" fill="white"/>
</svg>
