<svg width="12" height="12" viewBox="0 0 12 12" fill="none" xmlns="http://www.w3.org/2000/svg">
<path d="M10.8121 8.44789L9.27702 6.91281C8.72878 6.36456 7.79677 6.58388 7.57747 7.29658C7.41299 7.79002 6.86475 8.06414 6.37133 7.95447C5.27484 7.68035 3.79458 6.25492 3.52046 5.1036C3.35599 4.61016 3.68494 4.06192 4.17836 3.89747C4.89107 3.67817 5.11037 2.74616 4.56213 2.19791L3.02704 0.662828C2.58845 0.279057 1.93056 0.279057 1.54679 0.662828L0.505122 1.70449C-0.536541 2.80098 0.614771 5.70667 3.19152 8.28342C5.76826 10.8602 8.67396 12.0663 9.77044 10.9698L10.8121 9.92815C11.1959 9.48955 11.1959 8.83166 10.8121 8.44789Z" fill="#979797" fill-opacity="1"/>
</svg>
