<svg width="10" height="14" viewBox="0 0 10 14" fill="none" xmlns="http://www.w3.org/2000/svg">
<path d="M2.52933 3.20513C2.52933 1.6895 3.7579 0.460938 5.27353 0.460938C6.78917 0.460938 8.01774 1.6895 8.01774 3.20513C8.01774 4.72074 6.78917 5.94933 5.27353 5.94933C3.7579 5.94933 2.52933 4.72077 2.52933 3.20513ZM6.43795 6.13646H4.10927C2.17193 6.13646 0.595703 7.71265 0.595703 9.64974V12.4983L0.602999 12.5427L0.799614 12.6041C2.64817 13.1815 4.25472 13.3743 5.57684 13.3743C8.15914 13.3743 9.65567 12.6379 9.74835 12.5911L9.93198 12.4979L9.95133 12.4981V9.64974C9.95133 7.71265 8.37514 6.13646 6.43795 6.13646Z" fill="black" fill-opacity="0.19"/>
</svg>
