<svg width="20" height="14" viewBox="0 0 20 14" fill="none" xmlns="http://www.w3.org/2000/svg">
<path fill-rule="evenodd" clip-rule="evenodd" d="M2.57351 12.9983C2.24008 12.8996 1.93586 12.7242 1.6865 12.4866C1.43715 12.2491 1.24998 11.9565 1.1408 11.6335C0.516874 9.96426 0.332007 2.99389 1.53364 1.61786C1.93356 1.17023 2.4982 0.894636 3.105 0.850895C6.32859 0.512528 16.2882 0.557644 17.4321 0.963685C17.7538 1.06557 18.0478 1.23722 18.2919 1.46575C18.536 1.69429 18.724 1.97379 18.8417 2.28332C19.5234 4.00899 19.5465 10.2801 18.7493 11.9381C18.5378 12.3697 18.1837 12.7193 17.7441 12.9306C16.5424 13.5171 4.16797 13.5058 2.57351 12.9983ZM7.69198 9.72741L13.469 6.79489L7.69198 3.83981V9.72741Z" fill="white"/>
</svg>
