<svg width="80" height="44" viewBox="0 0 80 44" fill="none" xmlns="http://www.w3.org/2000/svg">
<g clip-path="url(#clip0_401_11415)">
<path d="M0.5 0H79.5V44H0.5V0Z" fill="#012169"/>
<path d="M9.75781 0L39.8766 16.5917L69.8719 0H79.5V5.68333L49.875 22.0917L79.5 38.4083V44H69.625L40 27.5917L10.4984 44H0.5V38.5L30.0016 22.1833L0.5 5.86667V0H9.75781Z" fill="white"/>
<path d="M52.8375 25.7583L79.5 40.3333V44L46.0484 25.7583H52.8375ZM30.125 27.5917L30.8656 30.8L7.16563 44H0.5L30.125 27.5917ZM79.5 0V0.275L48.7641 17.5083L49.0109 13.475L73.3281 0H79.5ZM0.5 0L30.0016 16.1333H22.5953L0.5 3.85V0Z" fill="#C8102E"/>
<path d="M30.2484 0V44H49.9984V0H30.2484ZM0.5 14.6667V29.3333H79.5V14.6667H0.5Z" fill="white"/>
<path d="M0.5 17.6917V26.4917H79.5V17.6917H0.5ZM34.1984 0V44H46.0484V0H34.1984Z" fill="#C8102E"/>
</g>
<defs>
<clipPath id="clip0_401_11415">
<rect width="79" height="44" fill="white" transform="translate(0.5)"/>
</clipPath>
</defs>
</svg>
