<svg width="25" height="12" viewBox="0 0 25 12" fill="none" xmlns="http://www.w3.org/2000/svg">
<g clip-path="url(#clip0_950_2437)">
<path d="M0 0H6.25L6.50781 0.2475H18.4922L18.75 0H25V12H18.75L18.4922 11.7525H6.50781L6.25 12H0V0Z" fill="#FF0000"/>
<path d="M6.25 0H18.75V12H6.25V0ZM12.7344 11.075L12.6172 8.9175C12.6155 8.88202 12.6221 8.84662 12.6365 8.81392C12.651 8.78121 12.6728 8.75203 12.7006 8.72852C12.7283 8.70502 12.7612 8.68778 12.7968 8.67808C12.8324 8.66839 12.8698 8.66648 12.9062 8.6725L15.1432 9.05L14.8411 8.25C14.8289 8.21817 14.8273 8.18345 14.8367 8.15072C14.846 8.11799 14.8658 8.08889 14.8932 8.0675L17.3438 6.1625L16.7917 5.915C16.7544 5.89808 16.7248 5.86868 16.7085 5.83232C16.6922 5.79595 16.6903 5.75512 16.7031 5.7175L17.1875 4.2875L15.776 4.575C15.7378 4.58265 15.698 4.57738 15.6633 4.56006C15.6287 4.54275 15.6013 4.51446 15.5859 4.48L15.3125 3.8625L14.2109 4.9975C14.1858 5.023 14.1526 5.03998 14.1165 5.04589C14.0805 5.05179 14.0433 5.04631 14.0108 5.03025C13.9782 5.0142 13.9519 4.98844 13.9359 4.95684C13.9199 4.92525 13.915 4.88951 13.9219 4.855L14.4531 2.225L13.6016 2.6975C13.5816 2.70875 13.5594 2.71594 13.5364 2.71862C13.5134 2.7213 13.49 2.71942 13.4678 2.71309C13.4456 2.70676 13.425 2.69612 13.4072 2.68183C13.3895 2.66754 13.375 2.6499 13.3646 2.63L12.5 1L11.6354 2.63C11.625 2.6499 11.6105 2.66754 11.5928 2.68183C11.575 2.69612 11.5544 2.70676 11.5322 2.71309C11.51 2.71942 11.4866 2.7213 11.4636 2.71862C11.4406 2.71594 11.4184 2.70875 11.3984 2.6975L10.5469 2.225L11.0781 4.855C11.085 4.88951 11.0801 4.92525 11.0641 4.95684C11.0481 4.98844 11.0218 5.0142 10.9892 5.03025C10.9567 5.04631 10.9195 5.05179 10.8835 5.04589C10.8474 5.03998 10.8142 5.023 10.7891 4.9975L9.6875 3.8625L9.41406 4.48C9.39866 4.51446 9.37131 4.54275 9.33667 4.56006C9.30202 4.57738 9.2622 4.58265 9.22396 4.575L7.8125 4.2875L8.29688 5.7175C8.30971 5.75512 8.3078 5.79595 8.2915 5.83232C8.27519 5.86868 8.24562 5.89808 8.20833 5.915L7.65625 6.1625L10.1068 8.0675C10.1342 8.08889 10.154 8.11799 10.1633 8.15072C10.1727 8.18345 10.1711 8.21817 10.1589 8.25L9.85677 9.05L12.0938 8.6725C12.1302 8.66648 12.1676 8.66839 12.2032 8.67808C12.2388 8.68778 12.2717 8.70502 12.2994 8.72852C12.3272 8.75203 12.349 8.78121 12.3635 8.81392C12.3779 8.84662 12.3845 8.88202 12.3828 8.9175L12.2656 11.075H12.7344Z" fill="white"/>
</g>
<defs>
<clipPath id="clip0_950_2437">
<rect width="25" height="12" fill="white"/>
</clipPath>
</defs>
</svg>
