<svg width="68" height="44" viewBox="0 0 68 44" fill="none" xmlns="http://www.w3.org/2000/svg">
<g clip-path="url(#clip0_401_9810)">
<path fill-rule="evenodd" clip-rule="evenodd" d="M0.498657 0.00244141H67.5117V44.0024H0.498657V0.00244141Z" fill="white"/>
<path fill-rule="evenodd" clip-rule="evenodd" d="M7.84045 13.5112L15.0028 4.21501L16.6967 5.19604L9.53434 14.4923L7.84045 13.5112ZM10.3813 14.9828L17.5436 5.68656L19.2375 6.66759L12.0752 15.9638L10.3813 14.9828ZM12.9221 16.4543L20.0844 7.15811L21.7783 8.13914L14.616 17.4354L12.9221 16.4543Z" fill="black"/>
<path fill-rule="evenodd" clip-rule="evenodd" d="M46.1624 35.8899L53.3247 26.5937L55.0186 27.5747L47.8562 36.8709L46.1624 35.8899ZM48.7032 37.3614L55.8655 28.0652L57.5594 29.0463L50.3971 38.3425L48.7032 37.3614ZM51.244 38.833L58.4063 29.5368L60.1002 30.5178L52.9379 39.814L51.244 38.833Z" fill="black"/>
<path fill-rule="evenodd" clip-rule="evenodd" d="M48.7766 30.6609L57.4861 35.747Z" fill="black"/>
<path d="M48.7766 30.6609L57.4861 35.747" stroke="white" stroke-width="0.836045"/>
<path fill-rule="evenodd" clip-rule="evenodd" d="M23.5189 16.1704C25.4409 13.6746 28.3707 11.9104 31.6638 11.2659C34.9569 10.6214 38.3436 11.1494 41.0788 12.7338C43.8141 14.3181 45.6738 16.829 46.2488 19.7141C46.8239 22.5992 46.0672 25.6222 44.1452 28.118L23.5189 16.1704Z" fill="#CD2E3A"/>
<path fill-rule="evenodd" clip-rule="evenodd" d="M23.7643 16.0172C21.8506 18.5005 21.097 21.5083 21.6694 24.3791C22.2417 27.2498 24.093 29.7483 26.8161 31.3249C29.5392 32.9015 32.911 33.4271 36.1897 32.786C39.4684 32.1448 42.3854 30.3896 44.2991 27.9063C45.256 26.6647 45.6328 25.1608 45.3466 23.7254C45.0604 22.29 44.1347 21.0408 42.7732 20.2525C41.4116 19.4642 39.7258 19.2014 38.0864 19.522C36.4471 19.8425 34.9885 20.7201 34.0317 21.9618L23.7643 16.0172Z" fill="#0047A0"/>
<path d="M33.8603 21.925C35.8459 19.3484 35.1651 15.9335 32.3398 14.2976C29.5145 12.6617 25.6145 13.4243 23.629 16.0009C21.6434 18.5775 22.3242 21.9924 25.1495 23.6283C27.9748 25.2642 31.8747 24.5016 33.8603 21.925Z" fill="#CD2E3A"/>
<path fill-rule="evenodd" clip-rule="evenodd" d="M15.0316 39.8174L7.8693 30.5212L9.56318 29.5401L16.7255 38.8363L15.0316 39.8174ZM17.5724 38.3458L10.4101 29.0496L12.104 28.0686L19.2663 37.3648L17.5724 38.3458ZM20.1133 36.8743L12.9509 27.5781L14.6448 26.597L21.8071 35.8932L20.1133 36.8743Z" fill="black"/>
<path fill-rule="evenodd" clip-rule="evenodd" d="M53.3535 17.4387L46.1912 8.1425L47.8851 7.16146L55.0474 16.4577L53.3535 17.4387ZM55.8943 15.9672L48.732 6.67095L50.4259 5.68991L57.5882 14.9861L55.8943 15.9672ZM58.4352 14.4956L51.2728 5.1994L52.9667 4.21836L60.129 13.5146L58.4352 14.4956Z" fill="black"/>
<path fill-rule="evenodd" clip-rule="evenodd" d="M13.5317 33.9702L16.1446 32.4444ZM48.8053 13.3716L51.8536 11.5915ZM54.4665 10.0657L57.0793 8.53984Z" fill="black"/>
<path d="M13.5317 33.9702L16.1446 32.4444M48.8053 13.3716L51.8536 11.5915M54.4665 10.0657L57.0793 8.53984" stroke="white" stroke-width="0.836045"/>
</g>
<defs>
<clipPath id="clip0_401_9810">
<rect width="67" height="44" fill="white" transform="translate(0.5)"/>
</clipPath>
</defs>
</svg>
