<svg width="80" height="44" viewBox="0 0 80 44" fill="none" xmlns="http://www.w3.org/2000/svg">
<g clip-path="url(#clip0_401_9819)">
<path fill-rule="evenodd" clip-rule="evenodd" d="M-1.96875 0H86.9063V44H-1.96875V0Z" fill="white"/>
<path fill-rule="evenodd" clip-rule="evenodd" d="M-1.96875 0H86.9063V22H-1.96875V0Z" fill="#DF0000"/>
<path fill-rule="evenodd" clip-rule="evenodd" d="M18.522 3.68508C16.1838 4.05822 14.0897 5.01739 12.5913 6.40155C11.0929 7.7857 10.2813 9.51055 10.2929 11.2865C10.3045 13.0625 11.1385 14.7814 12.6549 16.1547C14.1713 17.528 16.2778 18.4721 18.6207 18.8284C17.2785 19.1168 15.8729 19.2056 14.4844 19.0898C13.0959 18.9739 11.7519 18.6556 10.5294 18.1531C9.3069 17.6506 8.23001 16.9739 7.36048 16.1617C6.49095 15.3495 5.84588 14.4178 5.46227 13.4201C4.70038 11.4145 5.0388 9.26647 6.40353 7.44566C7.76826 5.62484 10.0483 4.27937 12.7451 3.70341C14.7201 3.28175 16.547 3.27258 18.5343 3.68508H18.522Z" fill="white"/>
<path fill-rule="evenodd" clip-rule="evenodd" d="M16.9172 10.0834L17.5221 11.4584L15.9174 10.615L14.3374 11.4767L14.9175 10.0834L13.3375 9.23086L15.3002 9.21253L15.9174 7.83753L16.5346 9.21253H18.4849L16.9172 10.0834ZM19.0774 14.85L19.6946 16.2342L18.0899 15.3909L16.4975 16.2434L17.09 14.8592L15.51 13.9975L17.4727 13.9884L18.0775 12.6042L18.6947 13.9792H20.6697L19.0774 14.85ZM26.2985 14.8134L26.9033 16.2067L25.2986 15.3542L23.7186 16.2067L24.2988 14.8225L22.7188 13.97L24.6814 13.9517L25.2986 12.5767L25.9158 13.9517H27.8661L26.2985 14.8134ZM28.4463 10.0834L29.0511 11.4675L27.4464 10.6242L25.8664 11.4767L26.4589 10.0925L24.8666 9.23086L26.8416 9.22169L27.4341 7.83753L28.0513 9.21253H30.0263L28.4463 10.0834ZM22.7311 6.93919L23.3483 8.33253L21.7436 7.48003L20.1513 8.34169L20.7438 6.94836L19.1638 6.08669L21.1141 6.07753L21.7313 4.69336L22.3485 6.06836H24.3235L22.7311 6.93919Z" fill="white"/>
</g>
<defs>
<clipPath id="clip0_401_9819">
<rect width="79" height="44" fill="white" transform="translate(0.5)"/>
</clipPath>
</defs>
</svg>
