<svg width="80" height="44" viewBox="0 0 80 44" fill="none" xmlns="http://www.w3.org/2000/svg">
<g clip-path="url(#clip0_401_11419)">
<path fill-rule="evenodd" clip-rule="evenodd" d="M0.5 0H113.075V3.39167H0.5V0ZM0.5 6.77417H113.075V10.1658H0.5V6.77417ZM0.5 13.5392H113.075V16.9308H0.5V13.5392ZM0.5 20.3042H113.075V23.6958H0.5V20.3042ZM0.5 27.0875H113.075V30.4608H0.5V27.0875ZM0.5 33.8433H113.075V37.235H0.5V33.8433ZM0.5 40.6083H113.075V44H0.5V40.6083Z" fill="#BD3D44"/>
<path fill-rule="evenodd" clip-rule="evenodd" d="M0.499756 3.39166H113.075V6.77416H0.499756V3.39166ZM0.499756 10.1567H113.075V13.5392H0.499756V10.1567ZM0.499756 16.9217H113.075V20.3133H0.499756V16.9217ZM0.499756 23.6958H113.075V27.0875H0.499756V23.6958ZM0.499756 30.4608H113.075V33.8525H0.499756V30.4608ZM0.499756 37.2258H113.075V40.6175H0.499756V37.2258Z" fill="white"/>
<path fill-rule="evenodd" clip-rule="evenodd" d="M0.5 0H45.53V23.6958H0.5V0Z" fill="#192F5D"/>
<path fill-rule="evenodd" clip-rule="evenodd" d="M4.25194 1.00836L4.67163 1.95253H5.98007L4.91851 2.53003L5.32585 3.4742L4.25194 2.88753L3.19038 3.46503L3.58538 2.53003L2.51147 1.95253H3.85694L4.25194 1.00836ZM11.7569 1.00836L12.1643 1.95253H13.4974L12.4235 2.53003L12.8185 3.4742L11.7569 2.88753L10.683 3.46503L11.0904 2.53003L10.0288 1.95253H11.3373L11.7569 1.00836ZM19.2619 1.00836L19.6693 1.95253H20.9901L19.9285 2.53003L20.3358 3.4742L19.2619 2.88753L18.188 3.46503L18.5954 2.53003L17.5215 1.95253H18.8546L19.2619 1.00836ZM26.7669 1.00836L27.1743 1.95253H28.5074L27.4335 2.53003L27.8408 3.4742L26.7669 2.88753L25.693 3.46503L26.1127 2.53003L25.0265 1.95253H26.3473L26.7669 1.00836ZM34.2719 1.00836L34.6793 1.95253H36.0001L34.9385 2.53003L35.3458 3.4742L34.2719 2.88753L33.198 3.46503L33.6054 2.53003L32.5438 1.95253H33.8646L34.2719 1.00836ZM41.7769 1.00836L42.1843 1.95253H43.5174L42.4312 2.53003L42.8508 3.4742L41.7769 2.88753L40.703 3.46503L41.1227 2.53003L40.0365 1.95253H41.3696L41.7769 1.00836ZM8.00444 3.3917L8.41179 4.3267H9.75726L8.68335 4.89503L9.07835 5.8392L8.02913 5.2617L6.95522 5.8392L7.33788 4.89503L6.30101 4.3267H7.62179L8.00444 3.3917ZM15.5094 3.3917L15.9291 4.3267H17.2499L16.1637 4.89503L16.5833 5.8392L15.5094 5.2617L14.4355 5.8392L14.8429 4.89503L13.769 4.3267H15.1021L15.5094 3.3917ZM23.0144 3.3917L23.4218 4.3267H24.7549L23.681 4.89503L24.0883 5.8392L23.0144 5.2617L21.9405 5.8392L22.3479 4.89503L21.2863 4.3267H22.5948L23.0144 3.3917ZM30.5194 3.3917L30.9391 4.3267H32.2599L31.1737 4.89503L31.5933 5.8392L30.5194 5.2617L29.4579 5.8392L29.8529 4.89503L28.779 4.3267H30.1244L30.5194 3.3917ZM38.0244 3.3917L38.4318 4.3267H39.7649L38.691 4.89503L39.0983 5.8392L38.0244 5.2617L36.9505 5.8392L37.3579 4.89503L36.2963 4.3267H37.6171L38.0244 3.3917ZM4.25194 5.73836L4.67163 6.6917H5.98007L4.91851 7.2692L5.32585 8.2042L4.25194 7.6267L3.19038 8.2042L3.58538 7.2692L2.51147 6.6917H3.85694L4.25194 5.73836ZM11.7569 5.73836L12.1643 6.6917H13.4974L12.4235 7.2692L12.8185 8.2042L11.7569 7.6267L10.683 8.2042L11.0904 7.26003L10.0288 6.68253H11.3373L11.7569 5.73836ZM19.2619 5.73836L19.6693 6.68253H20.9901L19.9285 7.26003L20.3358 8.19503L19.2619 7.61753L18.188 8.19503L18.5954 7.25086L17.5215 6.67336H18.8546L19.2619 5.73836ZM26.7669 5.73836L27.1743 6.68253H28.5074L27.4335 7.26003L27.8408 8.19503L26.7669 7.61753L25.693 8.19503L26.1127 7.25086L25.0265 6.67336H26.3473L26.7669 5.73836ZM34.2719 5.73836L34.6793 6.68253H36.0001L34.9385 7.26003L35.3458 8.19503L34.2719 7.61753L33.198 8.19503L33.6054 7.25086L32.5438 6.67336H33.8646L34.2719 5.73836ZM41.7769 5.73836L42.1843 6.68253H43.5174L42.4312 7.26003L42.8508 8.19503L41.7769 7.61753L40.703 8.19503L41.1227 7.25086L40.0365 6.67336H41.3696L41.7769 5.73836ZM8.00444 8.1217L8.41179 9.0567H9.75726L8.68335 9.6342L9.09069 10.5784L8.01679 9.9917L6.94288 10.5692L7.35022 9.6342L6.28866 9.0567H7.60944L8.00444 8.1217ZM15.5094 8.1217L15.9291 9.0567H17.2499L16.1637 9.6342L16.5833 10.5784L15.5094 9.9917L14.4355 10.5692L14.8429 9.6342L13.769 9.0567H15.1021L15.5094 8.1217ZM23.0144 8.1217L23.4218 9.0567H24.7549L23.681 9.6342L24.0883 10.5784L23.0144 9.9917L21.9405 10.5692L22.3479 9.6342L21.2863 9.0567H22.5948L23.0144 8.1217ZM30.5194 8.1217L30.9391 9.0567H32.2599L31.186 9.6342L31.5933 10.5784L30.5194 9.9917L29.4579 10.5692L29.8529 9.6342L28.779 9.0567H30.1244L30.5194 8.1217ZM38.0244 8.1217L38.4318 9.0567H39.7649L38.691 9.6342L39.0983 10.5784L38.0244 9.9917L36.9505 10.5692L37.3579 9.6342L36.2963 9.0567H37.6171L38.0244 8.1217ZM4.25194 10.4959L4.67163 11.4309H5.98007L4.91851 12.0084L5.32585 12.9525L4.25194 12.3659L3.19038 12.9434L3.58538 12.0084L2.51147 11.4309H3.85694L4.25194 10.4959ZM11.7569 10.4959L12.1643 11.4309H13.4974L12.4235 12.0084L12.8185 12.9434L11.7569 12.3659L10.683 12.9434L11.0904 12.0084L10.0288 11.4309H11.3373L11.7569 10.4959ZM19.2619 10.4959L19.6693 11.4309H20.9901L19.9285 12.0084L20.3358 12.9525L19.2619 12.3659L18.188 12.9434L18.5954 12.0084L17.5215 11.4309H18.8546L19.2619 10.4959ZM26.7669 10.4959L27.1743 11.4309H28.5074L27.4335 12.0084L27.8408 12.9525L26.7669 12.3659L25.693 12.9434L26.1127 12.0084L25.0265 11.4309H26.3473L26.7669 10.4959ZM34.2719 10.4959L34.6793 11.4309H36.0001L34.9385 12.0084L35.3458 12.9525L34.2719 12.3659L33.198 12.9434L33.6054 12.0084L32.5438 11.4309H33.8646L34.2719 10.4959ZM41.7769 10.4959L42.1843 11.4309H43.5174L42.4312 12.0084L42.8508 12.9525L41.7769 12.3659L40.703 12.9434L41.1104 12.0084L40.0241 11.4309H41.3573L41.7769 10.4959ZM8.00444 12.8609L8.41179 13.805H9.75726L8.68335 14.3734L9.09069 15.3175L8.01679 14.7309L6.94288 15.3175L7.35022 14.3734L6.28866 13.7959H7.60944L8.00444 12.8609ZM15.5094 12.8609L15.9291 13.805H17.2499L16.1637 14.3734L16.5833 15.3175L15.5094 14.7309L14.4355 15.3175L14.8429 14.3734L13.769 13.7959H15.1021L15.5094 12.8609ZM23.0144 12.8609L23.4218 13.805H24.7549L23.681 14.3734L24.0883 15.3175L23.0144 14.7309L21.9405 15.3175L22.3479 14.3734L21.2863 13.7959H22.5948L23.0144 12.8609ZM30.5194 12.8609L30.9391 13.805H32.2599L31.186 14.3734L31.5933 15.3175L30.5194 14.7309L29.4579 15.3175L29.8529 14.3734L28.779 13.7959H30.1244L30.5194 12.8609ZM38.0244 12.8609L38.4318 13.805H39.7649L38.691 14.3734L39.0983 15.3175L38.0244 14.7309L36.9505 15.3175L37.3579 14.3734L36.2963 13.7959H37.6171L38.0244 12.8609ZM4.25194 15.2259L4.67163 16.17H5.98007L4.91851 16.7475L5.32585 17.6734L4.25194 17.105L3.19038 17.6734L3.58538 16.7384L2.51147 16.1609H3.85694L4.25194 15.2259ZM11.7569 15.2259L12.1643 16.17H13.4974L12.4235 16.7475L12.8308 17.6734L11.7569 17.105L10.683 17.6734L11.1027 16.7384L10.0288 16.1609H11.3373L11.7569 15.2259ZM19.2619 15.2259L19.6693 16.17H20.9901L19.9285 16.7475L20.3358 17.6734L19.2619 17.105L18.188 17.6734L18.5954 16.7384L17.5215 16.1609H18.8546L19.2619 15.2259ZM26.7669 15.2259L27.1743 16.17H28.5074L27.4335 16.7475L27.8408 17.6734L26.7669 17.105L25.693 17.6734L26.1127 16.7384L25.0265 16.1609H26.3473L26.7669 15.2259ZM34.2719 15.2259L34.6793 16.17H36.0001L34.9385 16.7475L35.3458 17.6734L34.2719 17.105L33.198 17.6734L33.6054 16.7384L32.5438 16.1609H33.8646L34.2719 15.2259ZM41.7769 15.2259L42.1843 16.17H43.5174L42.4312 16.7475L42.8508 17.6734L41.7769 17.105L40.703 17.6734L41.1227 16.7384L40.0365 16.1609H41.3696L41.7769 15.2259ZM8.00444 17.6L8.41179 18.535H9.75726L8.68335 19.1125L9.09069 20.0567L8.01679 19.47L6.94288 20.0475L7.35022 19.1125L6.28866 18.535H7.60944L8.00444 17.6ZM15.5094 17.6L15.9291 18.535H17.2499L16.1637 19.1125L16.5833 20.0567L15.5094 19.47L14.4355 20.0475L14.8429 19.1125L13.769 18.535H15.1021L15.5094 17.6ZM23.0144 17.6L23.4218 18.535H24.7549L23.681 19.1125L24.0883 20.0567L23.0144 19.47L21.9405 20.0475L22.3479 19.1125L21.2863 18.535H22.5948L23.0144 17.6ZM30.5194 17.6L30.9391 18.535H32.2599L31.186 19.1125L31.5933 20.0567L30.5194 19.47L29.4579 20.0475L29.8529 19.1125L28.779 18.535H30.1244L30.5194 17.6ZM38.0244 17.6L38.4318 18.535H39.7649L38.691 19.1125L39.0983 20.0567L38.0244 19.47L36.9505 20.0475L37.3579 19.1125L36.2963 18.535H37.6171L38.0244 17.6ZM4.25194 19.9742L4.67163 20.9092H5.98007L4.91851 21.4867L5.32585 22.4217L4.25194 21.8442L3.19038 22.4217L3.58538 21.4775L2.51147 20.9H3.85694L4.25194 19.9742ZM11.7569 19.9742L12.1643 20.9092H13.4974L12.4235 21.4867L12.8308 22.4217L11.7569 21.8442L10.683 22.4217L11.1027 21.4775L10.0288 20.9H11.3373L11.7569 19.9742ZM19.2619 19.9742L19.6693 20.9092H20.9901L19.9532 21.4867L20.3605 22.4217L19.2866 21.8442L18.2127 22.4217L18.6201 21.4775L17.5462 20.9H18.8793L19.2619 19.9742ZM26.7669 19.9742L27.1743 20.9092H28.5074L27.4335 21.4867L27.8408 22.4217L26.7669 21.8442L25.693 22.4217L26.1127 21.4775L25.0265 20.9H26.3473L26.7669 19.9742ZM34.2719 19.9742L34.6793 20.9092H36.0001L34.9385 21.4867L35.3458 22.4217L34.2719 21.8442L33.198 22.4217L33.6054 21.4775L32.5438 20.9H33.8646L34.2719 19.9742ZM41.7769 19.9742L42.1843 20.9092H43.5174L42.4312 21.4867L42.8508 22.4217L41.7769 21.8442L40.703 22.4217L41.1227 21.4775L40.0365 20.9H41.3696L41.7769 19.9742Z" fill="white"/>
</g>
<defs>
<clipPath id="clip0_401_11419">
<rect width="79" height="44" fill="white" transform="translate(0.5)"/>
</clipPath>
</defs>
</svg>
