<svg width="23" height="24" viewBox="0 0 23 24" fill="none" xmlns="http://www.w3.org/2000/svg">
<path d="M20.4375 0.875H2.5625C1.19141 0.875 0.125 1.99219 0.125 3.3125V21.1875C0.125 22.5586 1.19141 23.625 2.5625 23.625H9.51953V15.9062H6.32031V12.25H9.51953V9.50781C9.51953 6.35938 11.3984 4.58203 14.2422 4.58203C15.6641 4.58203 17.0859 4.83594 17.0859 4.83594V7.93359H15.5117C13.9375 7.93359 13.4297 8.89844 13.4297 9.91406V12.25H16.9336L16.375 15.9062H13.4297V23.625H20.4375C21.7578 23.625 22.875 22.5586 22.875 21.1875V3.3125C22.875 1.99219 21.7578 0.875 20.4375 0.875Z" fill="#135685"/>
</svg>
