<svg width="75" height="99" viewBox="0 0 75 99" fill="none" xmlns="http://www.w3.org/2000/svg">
<path d="M37.2677 98.9796C37.6807 98.9796 4.86709 83.5571 0.407241 61.7524L0.032959 0.124512H74.9182V61.7524C71.3719 83.2715 37.2677 98.9796 37.6807 98.9796" fill="#135685"/>
<path d="M28.7121 31.5421C28.7121 31.9494 28.5616 32.2959 28.2604 32.58C27.9593 32.8641 27.5907 33.0061 27.1562 33.0061C26.8106 33.0061 26.5066 32.9076 26.2413 32.7104C25.976 32.5133 25.7882 32.2509 25.6777 31.9234L25.9631 31.79C26.0391 32.0422 26.1768 32.2538 26.3775 32.4205C26.6012 32.6104 26.8622 32.7046 27.1577 32.7046C27.4989 32.7046 27.7901 32.5887 28.0324 32.3582C28.2748 32.1277 28.3966 31.8509 28.3966 31.5276C28.3966 31.3059 28.3106 31.1145 28.1385 30.9551C27.9793 30.8087 27.6653 30.6217 27.1964 30.3912C26.7289 30.1608 26.4191 29.9767 26.2714 29.8375C26.0707 29.6477 25.9703 29.4027 25.9703 29.1012C25.9703 28.7243 26.0907 28.417 26.3317 28.1793C26.5726 27.9416 26.8838 27.8228 27.2652 27.8228C27.7886 27.8228 28.1902 28.059 28.4684 28.533L28.2446 28.7229C28.0181 28.3243 27.6839 28.1242 27.2423 28.1242C26.977 28.1242 26.7518 28.217 26.5654 28.404C26.3804 28.591 26.2872 28.8171 26.2872 29.0824C26.2872 29.294 26.3589 29.4694 26.5009 29.6085C26.6428 29.7477 26.9296 29.9187 27.3613 30.1216C27.9048 30.3768 28.2662 30.5971 28.4454 30.7841C28.6247 30.971 28.7121 31.2233 28.7121 31.5421Z" fill="white"/>
<path d="M27.1562 33.2672C26.7561 33.2672 26.3976 33.1513 26.0879 32.9208C25.781 32.6918 25.5601 32.3859 25.4339 32.0091L25.3594 31.7873L26.1237 31.4278L26.2098 31.7148C26.2714 31.9192 26.379 32.0859 26.541 32.2207C26.7203 32.3714 26.921 32.4454 27.1562 32.4454C27.4316 32.4454 27.6596 32.3555 27.8546 32.17C28.0453 31.9888 28.1371 31.7786 28.1371 31.5293C28.1371 31.38 28.0812 31.2597 27.9621 31.1495C27.8661 31.0626 27.6352 30.8988 27.0817 30.6277C26.5855 30.3842 26.2628 30.1885 26.0936 30.0305C25.8383 29.7899 25.7107 29.4783 25.7107 29.1043C25.7107 28.6564 25.8584 28.2839 26.1495 27.9954C26.4392 27.7099 26.8135 27.5649 27.2623 27.5649C27.8804 27.5649 28.3608 27.8461 28.6878 28.4027L28.7996 28.5926L28.173 29.1246L28.0195 28.855C27.8388 28.5361 27.5907 28.3868 27.2408 28.3868C27.0444 28.3868 26.8823 28.4535 26.7461 28.5912C26.6099 28.7274 26.5439 28.8898 26.5439 29.0855C26.5439 29.2261 26.5869 29.3348 26.6787 29.4246C26.7619 29.5058 26.9669 29.6537 27.4688 29.8899C28.0468 30.161 28.4253 30.3958 28.629 30.6074C28.8555 30.8437 28.9703 31.1597 28.9703 31.5452C28.9703 32.0265 28.791 32.4396 28.4368 32.7744C28.0883 33.1005 27.6567 33.2672 27.1562 33.2672Z" fill="white"/>
<path d="M33.1979 28.1941H31.8642V32.9426H31.5487V28.1941H30.2151V27.8926H33.1979V28.1941Z" fill="white"/>
<path d="M32.1224 33.2022H31.2907V28.4537H29.957V27.6318H33.4561V28.4537H32.1224V33.2022Z" fill="white"/>
<path d="M38.4407 31.3134C38.4407 31.8352 38.2887 32.2468 37.9847 32.5512C37.6807 32.8556 37.2691 33.0078 36.7514 33.0078C36.2309 33.0078 35.8193 32.8556 35.5139 32.5512C35.2084 32.2468 35.0564 31.8352 35.0564 31.3134V27.8926H35.3733V31.2409C35.3733 31.7091 35.4952 32.0715 35.7376 32.3251C35.9799 32.5788 36.3227 32.7063 36.7643 32.7063C37.2003 32.7063 37.5359 32.5788 37.771 32.3251C38.0062 32.0715 38.1238 31.7105 38.1238 31.2409V27.8926H38.4407V31.3134Z" fill="white"/>
<path d="M36.753 33.267C36.165 33.267 35.6875 33.0887 35.3347 32.7365C34.9805 32.3828 34.7998 31.9044 34.7998 31.3131V27.6328H35.633V31.242C35.633 31.645 35.7276 31.9392 35.9241 32.1451C36.1177 32.348 36.393 32.4466 36.7659 32.4466C37.1301 32.4466 37.3983 32.3494 37.5832 32.148C37.7711 31.945 37.8672 31.6392 37.8672 31.242V27.6328H38.6989V31.3131C38.6989 31.9044 38.5197 32.3828 38.1669 32.7365C37.8141 33.0887 37.338 33.267 36.753 33.267Z" fill="white"/>
<path d="M44.3504 30.4176C44.3504 31.1742 44.1052 31.7845 43.6162 32.2468C43.1272 32.7107 42.4876 32.9411 41.6975 32.9411H40.7983V27.8926H41.7977C42.5434 27.8926 43.1559 28.1288 43.6334 28.5999C44.1124 29.0725 44.3504 29.6783 44.3504 30.4176ZM44.0305 30.4176C44.0305 29.7697 43.8183 29.2377 43.3938 28.8203C42.9693 28.4028 42.4245 28.1941 41.7606 28.1941H41.1166V32.6411H41.7348C42.3973 32.6411 42.9451 32.4309 43.3796 32.0106C43.8141 31.5888 44.0305 31.0583 44.0305 30.4176Z" fill="white"/>
<path d="M41.6973 33.2022H40.54V27.6318H41.7977C42.6108 27.6318 43.2891 27.8956 43.8139 28.4146C44.3417 28.9349 44.6084 29.6089 44.6084 30.4178C44.6084 31.2454 44.3331 31.9252 43.7924 32.4369C43.2561 32.9457 42.5506 33.2022 41.6973 33.2022ZM41.3732 32.3804H41.7332C42.3311 32.3804 42.8116 32.1977 43.2002 31.8209C43.5859 31.4483 43.7724 30.9888 43.7724 30.4163C43.7724 29.8365 43.5902 29.3756 43.2131 29.006C42.8345 28.6349 42.3598 28.4537 41.759 28.4537H41.3732V32.3804Z" fill="white"/>
<path d="M49.1443 27.8926L47.4808 30.7858V32.9411H47.161V30.7872L45.4976 27.8926H45.8489L47.3202 30.4538L48.7915 27.8926H49.1443Z" fill="white"/>
<path d="M47.7391 33.2022H46.9031V30.8569L45.0503 27.6318H45.9982L47.3218 29.9351L48.644 27.6318H49.5919L47.7391 30.8569V33.2022Z" fill="white"/>
<path d="M30.5793 17.3869C30.5793 19.4959 29.7461 21.2657 28.0798 22.6978C26.5281 24.0284 24.7514 24.6952 22.7509 24.6952C20.3804 24.6952 18.3513 23.8588 16.6634 22.1861C14.9756 20.5134 14.1323 18.5001 14.1323 16.1461C14.1323 13.7922 14.9713 11.7774 16.6476 10.1018C18.324 8.42472 20.3446 7.58691 22.7079 7.58691C24.1821 7.58691 25.5731 7.96088 26.8838 8.71027C28.0941 9.40892 29.0908 10.3337 29.8738 11.4846L29.0191 12.1644C27.3957 9.77564 25.2748 8.58126 22.6534 8.58126C20.6529 8.58126 18.9063 9.33645 17.4149 10.8483C15.9235 12.3601 15.1778 14.1256 15.1778 16.149C15.1778 18.1928 15.9106 19.9626 17.3776 21.4599C18.8446 22.9572 20.5812 23.7052 22.5889 23.7052C24.347 23.7052 25.9172 23.137 27.2982 21.9991C28.7853 20.7685 29.5296 19.2538 29.5296 17.455H23.6242V16.4621H30.5764V17.3869H30.5793Z" fill="white"/>
<path d="M22.7511 25.421C20.1956 25.421 17.9786 24.5064 16.1602 22.7032C14.3376 20.8957 13.4141 18.6896 13.4141 16.1457C13.4141 13.6019 14.3318 11.3943 16.1416 9.58392C17.9499 7.77641 20.1583 6.85889 22.708 6.85889C24.2998 6.85889 25.8242 7.26764 27.2367 8.07501C28.5388 8.82584 29.6244 9.83323 30.4662 11.0696L30.8476 11.6306L28.8615 13.212L28.427 12.5728C26.9327 10.3739 25.0441 9.30417 22.655 9.30417C20.8366 9.30417 19.2893 9.97528 17.9255 11.3581C16.5618 12.7409 15.8978 14.3064 15.8978 16.1457C15.8978 18.0083 16.5489 19.5766 17.8897 20.945C19.2276 22.3104 20.7664 22.9742 22.5904 22.9742C24.1937 22.9742 25.5847 22.4698 26.8467 21.432C27.9623 20.5101 28.5947 19.4389 28.7654 18.1779H22.9074V15.7312H31.2979V17.3865C31.2979 19.7085 30.3715 21.6813 28.546 23.2511C26.8667 24.6919 24.9179 25.421 22.7511 25.421Z" fill="white"/>
<path d="M43.5617 19.8582C43.5617 21.2034 43.0655 22.3456 42.0717 23.2848C41.0779 24.2241 39.8633 24.6937 38.4249 24.6937C37.2863 24.6937 36.2782 24.3676 35.4034 23.7168C34.5272 23.066 33.9077 22.2006 33.5449 21.1208L34.4842 20.6787C34.7337 21.5136 35.1898 22.2079 35.8509 22.7616C36.5908 23.3877 37.4484 23.7008 38.4249 23.7008C39.5492 23.7008 40.5129 23.3196 41.3145 22.5572C42.1147 21.7948 42.5162 20.8801 42.5162 19.8162C42.5162 19.0828 42.2309 18.4522 41.6616 17.9275C41.1338 17.4448 40.0985 16.8245 38.554 16.0649C37.0096 15.3054 35.9914 14.6966 35.4995 14.2357C34.837 13.6095 34.5057 12.8007 34.5057 11.8064C34.5057 10.5612 34.903 9.54661 35.696 8.76243C36.4904 7.97826 37.5172 7.58545 38.7763 7.58545C40.5057 7.58545 41.8308 8.36672 42.7486 9.92782L42.0115 10.554C41.2643 9.23642 40.1601 8.57835 38.7003 8.57835C37.8241 8.57835 37.0813 8.88564 36.4689 9.50167C35.8566 10.1163 35.5497 10.8642 35.5497 11.7411C35.5497 12.4398 35.7849 13.0181 36.2538 13.4791C36.7242 13.94 37.6706 14.5038 39.0946 15.1735C40.8886 16.0157 42.0817 16.7447 42.6726 17.3593C43.2662 17.9754 43.5617 18.8088 43.5617 19.8582Z" fill="white"/>
<path d="M38.4249 25.421C37.1343 25.421 35.9741 25.0441 34.976 24.3034C33.9837 23.5656 33.2724 22.5742 32.8637 21.3566L32.6558 20.7391L34.933 19.6665L35.1725 20.4695C35.3819 21.1711 35.7533 21.7378 36.3097 22.2031C36.9249 22.7235 37.6161 22.9757 38.4249 22.9757C39.3685 22.9757 40.1515 22.6655 40.8212 22.0292C41.4779 21.4045 41.7963 20.6812 41.7963 19.8158C41.7963 19.2839 41.5998 18.8534 41.1768 18.4634C40.8527 18.1678 40.0783 17.6227 38.2399 16.7183C36.6166 15.921 35.5597 15.2818 35.0104 14.7673C34.1988 13.999 33.7872 13.0032 33.7872 11.806C33.7872 10.3637 34.2604 9.16499 35.194 8.24167C36.1233 7.32414 37.3293 6.85742 38.7777 6.85742C40.771 6.85742 42.3154 7.7648 43.368 9.55492L43.6806 10.0854L41.8178 11.6683L41.3905 10.9145C40.7667 9.81581 39.9134 9.30416 38.7031 9.30416C38.0191 9.30416 37.454 9.53752 36.9779 10.0159C36.5018 10.4927 36.271 11.0566 36.271 11.7407C36.271 12.2452 36.4258 12.6322 36.7571 12.9569C37.0396 13.2337 37.7265 13.728 39.4 14.5136C41.2915 15.4021 42.532 16.166 43.1902 16.8516C43.9129 17.6054 44.28 18.6156 44.28 19.8564C44.28 21.4045 43.7021 22.7365 42.5621 23.8135C41.4378 24.8818 40.0453 25.421 38.4249 25.421Z" fill="white"/>
<path d="M60.8175 11.2121C59.3289 9.45674 57.4604 8.57835 55.2104 8.57835C53.2314 8.57835 51.4977 9.33353 50.0091 10.8453C48.5206 12.3572 47.7778 14.1226 47.7778 16.1461C47.7778 18.1464 48.5292 19.9061 50.0306 21.4237C51.5321 22.9428 53.273 23.7008 55.252 23.7008C57.3743 23.7008 59.2214 22.863 60.7945 21.186V22.621C59.1568 24.0023 57.4346 24.6937 55.6262 24.6937C53.1769 24.6937 51.0818 23.8574 49.3409 22.1847C47.6 20.512 46.7295 18.4986 46.7295 16.1447C46.7295 13.8342 47.5813 11.831 49.2864 10.1322C50.9914 8.4334 53.0048 7.58545 55.3251 7.58545C57.4675 7.58545 59.2974 8.3015 60.8146 9.73359V11.2121H60.8175Z" fill="white"/>
<path d="M55.6277 25.421C52.9991 25.421 50.7175 24.5093 48.8475 22.7119C46.9661 20.9044 46.0125 18.6954 46.0125 16.1457C46.0125 13.6454 46.9446 11.448 48.7844 9.61581C50.6215 7.78656 52.8227 6.85889 55.328 6.85889C57.6482 6.85889 59.6602 7.64741 61.3079 9.20271L61.5359 9.41868V13.1787L60.2711 11.6857C58.9145 10.084 57.2582 9.30562 55.2104 9.30562C53.4135 9.30562 51.8791 9.97673 50.5196 11.3581C49.1587 12.7409 48.4976 14.3064 48.4976 16.1457C48.4976 17.9619 49.1659 19.5216 50.5397 20.9102C51.9135 22.3002 53.4565 22.9757 55.2534 22.9757C57.1865 22.9757 58.8299 22.2278 60.274 20.687L61.5144 19.365V22.9626L61.2563 23.1801C59.4938 24.6672 57.6009 25.421 55.6277 25.421Z" fill="white"/>
<path d="M14.8036 61.6118C15.5711 61.6118 16.1932 60.9829 16.1932 60.2073C16.1932 59.4315 15.5711 58.8027 14.8036 58.8027C14.0362 58.8027 13.4141 59.4315 13.4141 60.2073C13.4141 60.9829 14.0362 61.6118 14.8036 61.6118Z" fill="white"/>
<path d="M60.1476 61.6118C60.9151 61.6118 61.5372 60.9829 61.5372 60.2073C61.5372 59.4315 60.9151 58.8027 60.1476 58.8027C59.3803 58.8027 58.7581 59.4315 58.7581 60.2073C58.7581 60.9829 59.3803 61.6118 60.1476 61.6118Z" fill="white"/>
<path d="M51.1162 70.877C51.0116 70.7306 50.8968 70.5885 50.7663 70.4552C50.6215 70.3102 50.4681 70.1841 50.3074 70.0696L41.6688 61.4582C41.8065 61.4002 41.937 61.3147 42.0503 61.2002C42.5092 60.7363 42.5092 59.9841 42.0503 59.5202L41.4623 58.9259L41.9269 58.4577C42.3027 58.078 42.3701 57.504 42.1291 57.0532C43.7525 56.6241 45.8806 55.9371 46.6908 55.1167C47.4121 54.389 47.7792 53.4367 47.795 52.4786C48.7171 53.0352 49.7123 53.4628 50.7577 53.7455C50.8753 53.7745 50.9929 53.8049 51.1091 53.8339C54.7587 54.7079 58.0856 51.3306 57.2353 47.6576C57.2066 47.5243 57.1765 47.4054 57.1478 47.2866C56.8251 46.1023 56.3275 44.9906 55.6679 43.9687C55.8873 43.8498 56.0622 43.7165 56.1956 43.5831C57.2654 42.5177 57.2654 40.7537 56.1956 39.6883C55.1258 38.607 53.3964 38.607 52.3409 39.6883C52.1946 39.8362 52.0627 40.0435 51.9308 40.2812C50.9929 39.6883 49.9661 39.2433 48.8964 38.9477C48.7644 38.9172 48.6483 38.8882 48.5307 38.8578C44.8811 37.9837 41.5555 41.3625 42.4045 45.05C42.4346 45.1688 42.4633 45.2877 42.5077 45.4051C42.806 46.5314 43.2721 47.6098 43.883 48.6012C42.9609 48.6331 42.0488 49.0042 41.3462 49.7144C40.5388 50.5291 39.8619 52.6598 39.4375 54.2963C38.9814 53.9933 38.3619 54.0441 37.9604 54.4499L37.4972 54.9181L36.9279 54.3427C36.5264 53.9368 35.9069 53.8861 35.4508 54.189C35.0249 52.5525 34.3481 50.4218 33.5421 49.6072C32.742 48.7984 31.6693 48.4302 30.6196 48.4998C31.3409 47.4199 31.8858 46.2255 32.2214 44.9645C32.2529 44.8442 32.2831 44.7239 32.3117 44.6035C33.1707 40.9204 29.8352 37.5474 26.1898 38.4157C26.0708 38.4432 25.9518 38.4737 25.8328 38.5056C24.6397 38.8302 23.5068 39.3477 22.4771 40.0304C22.4743 40.0261 22.4728 40.0217 22.47 40.0174C22.3524 39.7956 22.2204 39.6173 22.0885 39.484C21.0331 38.4026 19.2893 38.4026 18.2338 39.484C17.164 40.5653 17.164 42.3134 18.2338 43.3802C18.3815 43.528 18.5866 43.6614 18.8203 43.7947C18.8347 43.802 18.849 43.8092 18.8634 43.8165C18.2998 44.7601 17.8653 45.7791 17.5813 46.8459C17.5484 46.9662 17.5197 47.0865 17.491 47.2083C16.6334 50.8914 19.969 54.2629 23.6143 53.3947C23.7333 53.3671 23.8524 53.3367 23.97 53.3048C25.0799 53.0019 26.1397 52.5337 27.1119 51.9206C27.0015 53.0236 27.3629 54.1673 28.1975 55.0109C29.0077 55.8298 31.1358 56.5169 32.7592 56.9459C32.5182 57.3967 32.5856 57.9707 32.9614 58.3505L33.5307 58.9259L32.838 59.6275C32.3791 60.0913 32.3791 60.8436 32.838 61.3074C32.9499 61.4219 33.0804 61.5075 33.2195 61.5654L24.7572 69.9986C24.5966 70.1145 24.4403 70.2406 24.2969 70.387C24.165 70.5204 24.0503 70.6624 23.9442 70.8103L19.1989 75.5385C18.74 76.0023 18.74 76.7546 19.1989 77.2185C19.6578 77.6823 20.4021 77.6823 20.861 77.2185L23.6287 74.4615C23.795 74.8051 24.0144 75.1269 24.2969 75.4124C24.5852 75.7038 24.9136 75.9313 25.2635 76.0995L24.0919 77.2851C23.633 77.749 23.633 78.5013 24.0919 78.9651L27.4088 82.3178C27.8677 82.7816 28.6119 82.7816 29.0708 82.3178C29.5297 81.8539 29.5297 81.1016 29.0708 80.6378L26.5842 78.1244L28.437 76.2517L30.9236 78.7651C31.3825 79.2289 32.1268 79.2289 32.5856 78.7651C33.0445 78.3012 33.0445 77.5489 32.5856 77.0851L30.099 74.5717L31.9518 72.699L34.4384 75.2124C34.8973 75.6762 35.6416 75.6762 36.1005 75.2124C36.5594 74.7485 36.5594 73.9963 36.1005 73.5324L32.7835 70.1798C32.3246 69.7159 31.5804 69.7159 31.1215 70.1798L29.9485 71.364C29.7821 71.0103 29.557 70.6784 29.2687 70.387C28.9991 70.1145 28.6951 69.8971 28.3725 69.7319L34.883 63.244C34.9403 63.386 35.0264 63.5208 35.1411 63.6368C35.6 64.1006 36.3442 64.1006 36.8031 63.6368L37.4972 62.9352L38.0852 63.5295C38.5441 63.9933 39.2883 63.9933 39.7472 63.5295C39.8619 63.4135 39.9465 63.2802 40.0039 63.1367L46.6894 69.8014C46.3667 69.9667 46.0641 70.1827 45.7945 70.4552C45.5049 70.748 45.2811 71.0799 45.1134 71.4336L43.9418 70.2479C43.4829 69.784 42.7386 69.784 42.2797 70.2479L38.9614 73.602C38.5025 74.0658 38.5025 74.8181 38.9614 75.2819C39.4203 75.7458 40.1645 75.7458 40.6234 75.2819L43.11 72.7685L44.9628 74.6413L42.4762 77.1547C42.0173 77.6185 42.0173 78.3708 42.4762 78.8346C42.9351 79.2985 43.6793 79.2985 44.1382 78.8346L46.6248 76.3212L48.4776 78.194L45.991 80.7074C45.5321 81.1712 45.5321 81.9235 45.991 82.3873C46.4499 82.8512 47.1942 82.8512 47.653 82.3873L50.9714 79.0332C51.4303 78.5694 51.4303 77.8171 50.9714 77.3533L49.7984 76.169C50.1483 75.9994 50.4767 75.7733 50.7663 75.4805C51.0474 75.1964 51.2682 74.8732 51.4346 74.5297L54.2008 77.288C54.6597 77.7519 55.404 77.7519 55.8629 77.288C56.3218 76.8242 56.3218 76.0719 55.8629 75.6081L51.1162 70.877ZM47.3189 48.6549C46.9174 48.2476 46.9174 47.5866 47.3189 47.1793C47.5355 46.9604 48.512 46.5951 49.6736 46.2763C49.3567 47.4489 48.9953 48.436 48.7802 48.6549C48.3772 49.0622 47.7219 49.0622 47.3189 48.6549ZM53.5283 40.903C53.9384 40.487 54.5981 40.487 54.9924 40.903C55.404 41.3031 55.404 41.9684 54.9924 42.3684C54.9351 42.4279 54.8175 42.5018 54.6411 42.5917C54.4805 42.3989 54.3041 42.2061 54.1134 42.0133C53.8509 41.7466 53.5856 41.5103 53.3074 41.2871C53.3964 41.0958 53.4695 40.9624 53.5283 40.903ZM48.3844 41.1248C49.3509 41.3625 50.2888 41.777 51.1392 42.325C51.6669 42.6656 52.1502 43.0656 52.6048 43.5237C52.9862 43.9092 53.3376 44.3238 53.6301 44.7688C54.2754 45.6863 54.73 46.7097 54.9924 47.791C55.5359 50.071 53.5139 52.1307 51.2568 51.5669C50.4035 51.3582 49.5818 51.0204 48.8189 50.5638C49.2434 50.4392 49.6449 50.2073 49.9805 49.8681C50.828 49.0129 51.4762 46.1473 51.6554 45.2892C51.7142 45.0051 51.6282 44.7108 51.426 44.505C51.2224 44.3006 50.9312 44.2122 50.6502 44.2716C49.8012 44.4528 46.9661 45.1094 46.1186 45.9661C45.8089 46.2777 45.5923 46.6488 45.4633 47.043C45.1005 46.3647 44.8266 45.6457 44.6473 44.9021C44.1052 42.6206 46.1272 40.5769 48.3844 41.1248ZM43.0082 51.3944C43.5646 50.832 44.4724 50.832 45.0288 51.3944C45.5866 51.9582 45.5866 52.8743 45.0288 53.4367C44.7305 53.7397 43.3768 54.2455 41.7706 54.6876C42.208 53.0642 42.7085 51.6973 43.0082 51.3944ZM19.4355 40.6986C19.8313 40.2841 20.491 40.2841 20.8868 40.6986C20.9456 40.7581 21.0187 40.8769 21.1062 41.0538C21.1105 41.061 21.1148 41.0711 21.1177 41.0798C20.9441 41.2364 20.7721 41.3973 20.6072 41.5654C20.339 41.8365 20.0837 42.1191 19.8442 42.4148C19.8356 42.4105 19.8256 42.4061 19.817 42.4018C19.6263 42.3134 19.4943 42.2394 19.4355 42.18C19.0254 41.7655 19.0254 41.0987 19.4355 40.6986ZM27.1836 48.4331C26.7807 48.8404 26.1268 48.8404 25.7238 48.4331C25.5072 48.2157 25.1459 47.2271 24.8304 46.0545C25.9905 46.3748 26.9671 46.7401 27.1836 46.9575C27.5866 47.3648 27.5866 48.0272 27.1836 48.4331ZM28.3839 45.7443C27.5378 44.8876 24.7028 44.231 23.8538 44.0513C23.5727 43.9904 23.2802 44.0788 23.078 44.2832C22.8744 44.489 22.7883 44.7833 22.8471 45.0674C23.0264 45.9255 23.676 48.7911 24.5235 49.6478C24.8318 49.9594 25.1961 50.1783 25.5847 50.3087C24.9136 50.674 24.2037 50.9494 23.4695 51.1291C21.2137 51.6814 19.1875 49.6347 19.7324 47.3532C20.1124 45.7675 20.9198 44.2919 22.1129 43.0874C23.306 41.8814 24.7644 41.0639 26.3347 40.6812C28.5904 40.1304 30.6153 42.1771 30.0689 44.4586C29.8624 45.321 29.5283 46.1516 29.0737 46.9242C28.9504 46.4922 28.7209 46.0849 28.3839 45.7443ZM29.8595 53.3295C29.3017 52.7671 29.3017 51.851 29.8595 51.2871C30.4159 50.7247 31.3223 50.7247 31.8801 51.2871C32.1798 51.5901 32.6789 52.9569 33.1177 54.5804C31.5101 54.1383 30.1578 53.6324 29.8595 53.3295ZM27.6067 73.7324C27.1521 74.1905 26.4136 74.1905 25.959 73.7324C25.5861 73.3541 25.5202 72.783 25.7596 72.3366L26.2415 71.8568C26.6817 71.6234 27.2381 71.6945 27.6067 72.067C28.0598 72.5265 28.0598 73.273 27.6067 73.7324ZM39.4876 60.2015C39.7673 60.4841 39.7673 60.9422 39.4876 61.2248C39.208 61.5075 38.7549 61.5075 38.4752 61.2248L37.4212 60.1594L36.3658 61.2248C36.0861 61.5075 35.633 61.5075 35.3533 61.2248C35.0737 60.9422 35.0737 60.4841 35.3533 60.2015L36.4088 59.1361L35.3533 58.0693C35.0737 57.7866 35.0737 57.3286 35.3533 57.0459C35.633 56.7633 36.0861 56.7633 36.3658 57.0459L37.4212 58.1128L38.4752 57.0459C38.7549 56.7633 39.208 56.7633 39.4876 57.0459C39.7673 57.3286 39.7673 57.7866 39.4876 58.0693L38.4336 59.1361L39.4876 60.2015ZM49.1029 73.8006C48.6497 74.2601 47.9097 74.2601 47.4566 73.8006C47.002 73.3411 47.002 72.5946 47.4566 72.1366C47.8251 71.7626 48.3815 71.693 48.8218 71.9264L49.3022 72.4047C49.5431 72.8512 49.4771 73.4237 49.1029 73.8006Z" fill="white"/>
</svg>
