<svg width="25" height="25" viewBox="0 0 25 25" fill="none" xmlns="http://www.w3.org/2000/svg">
<path d="M20.7986 4.34673C18.89 1.58452 15.8653 0 12.5005 0C9.1357 0 6.11094 1.58452 4.2024 4.34673C2.30323 7.09497 1.86471 10.5743 3.02701 13.6483C3.3379 14.4877 3.83209 15.3033 4.49234 16.0676L11.835 24.6923C12.0011 24.8875 12.2444 25 12.5005 25C12.7566 25 12.9999 24.8875 13.166 24.6923L20.5066 16.0699C21.1698 15.3013 21.6633 14.4866 21.9716 13.6539C23.1363 10.5743 22.6978 7.09497 20.7986 4.34673ZM20.3347 13.0416C20.097 13.6841 19.7088 14.3193 19.1817 14.9303C19.1803 14.9318 19.1788 14.9333 19.1776 14.935L12.5005 22.7777L5.81925 14.9301C5.29244 14.3196 4.9043 13.6845 4.66422 13.0358C3.70299 10.4936 4.06778 7.61685 5.64034 5.34092C7.21783 3.05772 9.71842 1.74824 12.5005 1.74824C15.2825 1.74824 17.7828 3.05767 19.3604 5.34092C20.9332 7.61685 21.2983 10.4936 20.3347 13.0416Z" fill="black"/>
<path d="M12.5001 5.18647C9.80108 5.18647 7.60498 7.38228 7.60498 10.0816C7.60498 12.7809 9.80078 14.9767 12.5001 14.9767C15.1994 14.9767 17.3952 12.7809 17.3952 10.0816C17.3952 7.38257 15.1991 5.18647 12.5001 5.18647ZM12.5001 13.2284C10.7649 13.2284 9.35322 11.8167 9.35322 10.0815C9.35322 8.34639 10.7649 6.93467 12.5001 6.93467C14.2353 6.93467 15.647 8.34639 15.647 10.0815C15.647 11.8167 14.2353 13.2284 12.5001 13.2284Z" fill="black"/>
</svg>
