<svg width="90" height="118" viewBox="0 0 90 118" fill="none" xmlns="http://www.w3.org/2000/svg">
<path fill-rule="evenodd" clip-rule="evenodd" d="M43.8226 117.481C44.4473 117.808 44.7686 117.976 44.7212 117.976H45.2168C45.1699 117.976 45.4942 117.808 46.1236 117.482C52.1418 114.369 86.0491 96.8247 89.9019 73.604V0.14856H0.0395508V73.604C4.8796 97.1081 37.9153 114.391 43.8226 117.481ZM41.9719 28.9679C43.1696 29.8507 44.5618 30.2999 46.1105 30.2999C48.0551 30.2999 49.726 29.6572 51.0751 28.3839C52.4432 27.1003 53.1367 25.5125 53.1367 23.6674C53.1367 22.1885 52.6962 20.9843 51.8289 20.0859C51.039 19.2687 49.5505 18.3582 47.2807 17.2992C45.2725 16.3628 44.4482 15.7737 44.1092 15.4437C43.7117 15.0567 43.5258 14.5954 43.5258 13.9942C43.5258 13.1787 43.8029 12.5066 44.3742 11.9382C44.9455 11.3681 45.6235 11.09 46.4444 11.09C47.8968 11.09 48.9207 11.6998 49.6692 13.0094L50.182 13.9078L52.4174 12.0211L52.0423 11.3888C50.7792 9.25516 48.9258 8.17364 46.5338 8.17364C44.7958 8.17364 43.3486 8.72993 42.2335 9.82355C41.1132 10.9241 40.5453 12.3529 40.5453 14.0719C40.5453 15.499 41.0392 16.6859 42.0132 17.6015C42.6723 18.2149 43.9405 18.9768 45.8885 19.927C48.0947 21.005 49.0239 21.6546 49.4128 22.0071C49.9205 22.4718 50.1562 22.985 50.1562 23.619C50.1562 24.6504 49.7742 25.5125 48.986 26.2572C48.1824 27.0156 47.2428 27.3853 46.1105 27.3853C45.14 27.3853 44.3105 27.0847 43.5723 26.4645C42.9046 25.9099 42.4589 25.2344 42.2077 24.3982L41.9203 23.4411L39.1876 24.7195L39.4371 25.4555C39.9275 26.9068 40.7811 28.0885 41.9719 28.9679ZM27.3017 30.2999C24.2352 30.2999 21.5748 29.2098 19.3927 27.0605C17.2055 24.9061 16.0973 22.2766 16.0973 19.2445C16.0973 16.2125 17.1987 13.5813 19.3704 11.4234C21.5403 9.26903 24.1904 8.17541 27.2501 8.17541C29.1602 8.17541 30.9895 8.66261 32.6845 9.62493C34.247 10.5199 35.5497 11.7206 36.5598 13.1943L37.0176 13.8629L34.6342 15.7478L34.1128 14.9859C32.3197 12.365 30.0533 11.09 27.1864 11.09C25.0044 11.09 23.1476 11.8899 21.5111 13.5381C19.8746 15.1863 19.0778 17.0522 19.0778 19.2445C19.0778 21.4646 19.8591 23.3339 21.4681 24.9649C23.0736 26.5923 24.9201 27.3836 27.109 27.3836C29.0329 27.3836 30.7021 26.7824 32.2164 25.5454C33.5552 24.4466 34.3141 23.1698 34.5189 21.6667H27.4893V18.7504H37.5579V20.7234C37.5579 23.4912 36.4463 25.8425 34.2556 27.7136C32.2405 29.4309 29.9019 30.2999 27.3017 30.2999ZM32.5881 39.6518C32.108 39.6518 31.6778 39.5136 31.3061 39.2389C30.9379 38.9659 30.6728 38.6014 30.5214 38.1522L30.4319 37.8879L31.3491 37.4594L31.4524 37.8015C31.5264 38.0451 31.6554 38.2438 31.8499 38.4044C32.065 38.5841 32.3059 38.6722 32.5881 38.6722C32.9185 38.6722 33.1922 38.5651 33.4262 38.344C33.6551 38.128 33.7652 37.8775 33.7652 37.5803C33.7652 37.4024 33.6981 37.259 33.5553 37.1277C33.44 37.024 33.1629 36.8288 32.4987 36.5057C31.9032 36.2155 31.5161 35.9822 31.313 35.7939C31.0067 35.5071 30.8535 35.1357 30.8535 34.6899C30.8535 34.1561 31.0308 33.7121 31.3801 33.3683C31.7277 33.0279 32.1769 32.8551 32.7155 32.8551C33.4572 32.8551 34.0336 33.1903 34.426 33.8537L34.5602 34.0801L33.8082 34.7141L33.6241 34.3928C33.4073 34.0127 33.1096 33.8347 32.6897 33.8347C32.4539 33.8347 32.2595 33.9142 32.096 34.0783C31.9325 34.2407 31.8533 34.4342 31.8533 34.6675C31.8533 34.8351 31.905 34.9646 32.0151 35.0718C32.1149 35.1685 32.361 35.3447 32.9633 35.6263C33.6568 35.9494 34.1111 36.2293 34.3554 36.4815C34.6273 36.7631 34.765 37.1398 34.765 37.5993C34.765 38.1729 34.5499 38.6653 34.1249 39.0644C33.7067 39.4531 33.1887 39.6518 32.5881 39.6518ZM38.5474 39.5741H37.5493V33.9142H35.9489V32.9346H40.1478V33.9142H38.5474V39.5741ZM42.4021 39.0195C42.8254 39.4393 43.3985 39.6518 44.104 39.6518C44.8061 39.6518 45.3774 39.4393 45.8008 39.0195C46.2241 38.5979 46.4392 38.0278 46.4392 37.3229V32.9363H45.4411V37.2382C45.4411 37.7116 45.3258 38.0762 45.1004 38.318C44.8784 38.5582 44.5566 38.6739 44.1195 38.6739C43.6721 38.6739 43.3417 38.5565 43.1094 38.3146C42.8736 38.0693 42.7601 37.7185 42.7601 37.2382V32.9363H41.7602V37.3229C41.7602 38.0278 41.9771 38.5979 42.4021 39.0195ZM50.0375 39.5741H48.6488V32.9346H50.1579C51.1336 32.9346 51.9476 33.2491 52.5774 33.8676C53.2107 34.4878 53.5308 35.2912 53.5308 36.2552C53.5308 37.2417 53.2004 38.052 52.5516 38.6618C51.908 39.2683 51.0614 39.5741 50.0375 39.5741ZM49.6486 38.5945H50.0805C50.7981 38.5945 51.3746 38.3768 51.8409 37.9276C52.3038 37.4836 52.5275 36.9359 52.5275 36.2535C52.5275 35.5624 52.309 35.013 51.8564 34.5724C51.4021 34.1302 50.8325 33.9142 50.1115 33.9142H49.6486V38.5945ZM56.2841 39.5741H57.2874V36.7787L59.5107 32.9346H58.3732L56.7866 35.6799L55.1983 32.9346H54.0608L56.2841 36.7787V39.5741ZM66.7537 30.2999C63.5994 30.2999 60.8615 29.2132 58.6176 27.0709C56.3598 24.9165 55.2154 22.2835 55.2154 19.2445C55.2154 16.2644 56.334 13.6452 58.5418 11.4614C60.7462 9.28112 63.3877 8.17541 66.3941 8.17541C69.1784 8.17541 71.5927 9.11526 73.57 10.9691L73.8436 11.2265V15.7081L72.3258 13.9286C70.6979 12.0195 68.7103 11.0917 66.253 11.0917C64.0967 11.0917 62.2554 11.8916 60.6241 13.5381C58.991 15.1863 58.1977 17.0522 58.1977 19.2445C58.1977 21.4093 58.9996 23.2683 60.6482 24.9234C62.2967 26.5802 64.1484 27.3853 66.3046 27.3853C68.6243 27.3853 70.5964 26.4939 72.3292 24.6573L73.8178 23.0817V27.3698L73.508 27.6289C71.3931 29.4015 69.1216 30.2999 66.7537 30.2999ZM19.4323 71.7623C19.4323 72.6868 18.6858 73.4364 17.7648 73.4364C16.8439 73.4364 16.0973 72.6868 16.0973 71.7623C16.0973 70.8377 16.8439 70.0882 17.7648 70.0882C18.6858 70.0882 19.4323 70.8377 19.4323 71.7623ZM72.1778 73.4364C73.0988 73.4364 73.8453 72.6868 73.8453 71.7623C73.8453 70.8377 73.0988 70.0882 72.1778 70.0882C71.257 70.0882 70.5103 70.8377 70.5103 71.7623C70.5103 72.6868 71.257 73.4364 72.1778 73.4364ZM60.9201 83.977C61.0767 84.1359 61.2143 84.3052 61.34 84.4797L67.0359 90.1188C67.5866 90.6717 67.5866 91.5684 67.0359 92.1212C66.4853 92.6741 65.5922 92.6741 65.0415 92.1212L61.722 88.8335C61.5224 89.2429 61.2574 89.6282 60.9201 89.9668C60.5725 90.3158 60.1784 90.5853 59.7585 90.7874L61.1662 92.199C61.7168 92.7518 61.7168 93.6485 61.1662 94.2013L57.1841 98.1992C56.6335 98.752 55.7403 98.752 55.1897 98.1992C54.639 97.6463 54.639 96.7496 55.1897 96.1968L58.1736 93.201L55.9503 90.9688L52.9664 93.9646C52.4157 94.5175 51.5226 94.5175 50.9719 93.9646C50.4212 93.4118 50.4212 92.5151 50.9719 91.9623L53.9558 88.9665L51.7325 86.7343L48.7486 89.7301C48.1979 90.283 47.3048 90.283 46.7541 89.7301C46.2034 89.1773 46.2034 88.2806 46.7541 87.7277L50.7361 83.7299C51.2868 83.1771 52.1799 83.1771 52.7306 83.7299L54.1365 85.1432C54.3379 84.7216 54.6063 84.326 54.9539 83.977C55.2774 83.6522 55.6405 83.3947 56.0277 83.1978L48.0052 75.2539C47.9363 75.425 47.8348 75.5839 47.6971 75.7222C47.1465 76.275 46.2533 76.275 45.7027 75.7222L44.9971 75.0138L44.1642 75.85C43.6136 76.4029 42.7205 76.4029 42.1698 75.85C42.0321 75.7118 41.9289 75.5511 41.86 75.3818L34.0474 83.1149C34.4346 83.3118 34.7994 83.571 35.1229 83.8958C35.4688 84.243 35.739 84.6387 35.9386 85.0602L37.3463 83.6487C37.8969 83.0959 38.7901 83.0959 39.3407 83.6487L43.321 87.6448C43.8717 88.1977 43.8717 89.0943 43.321 89.6472C42.7704 90.2 41.8772 90.2 41.3266 89.6472L38.3426 86.6514L36.1193 88.8836L39.1033 91.8793C39.6539 92.4322 39.6539 93.3289 39.1033 93.8817C38.5526 94.4346 37.6595 94.4346 37.1088 93.8817L34.1249 90.8859L31.9015 93.1181L34.8855 96.1139C35.4361 96.6667 35.4361 97.5634 34.8855 98.1162C34.3348 98.6691 33.4417 98.6691 32.891 98.1162L28.9107 94.1201C28.36 93.5673 28.36 92.6706 28.9107 92.1178L30.3166 90.7045C29.8968 90.5041 29.5027 90.2329 29.1568 89.8856C28.8178 89.5452 28.5545 89.1617 28.3549 88.7523L25.0337 92.0383C24.483 92.5911 23.5899 92.5911 23.0392 92.0383C22.4885 91.4854 22.4885 90.5888 23.0392 90.0359L28.7335 84.4002C28.8608 84.224 28.9985 84.0547 29.1568 83.8958C29.3289 83.7213 29.5164 83.571 29.7092 83.4328L39.8639 73.3811C39.6969 73.312 39.5403 73.2101 39.4061 73.0736C38.8555 72.5208 38.8555 71.6241 39.4061 71.0713L40.2373 70.2351L39.5541 69.5492C39.1033 69.0965 39.0224 68.4124 39.3115 67.8751C37.3635 67.3637 34.8098 66.5448 33.8375 65.5686C32.8359 64.5631 32.4023 63.2 32.5348 61.8852C31.3681 62.616 30.0964 63.1741 28.7644 63.5351C28.6233 63.5732 28.4805 63.6094 28.3377 63.6423C23.9633 64.6771 19.9606 60.6586 20.9897 56.2686C21.0241 56.1234 21.0585 55.98 21.0981 55.8366C21.4388 54.5651 21.9602 53.3505 22.6365 52.2258L22.5849 52.1999C22.3044 52.0409 22.0583 51.882 21.8811 51.7058C20.5973 50.4342 20.5973 48.3506 21.8811 47.0618C23.1476 45.7729 25.2402 45.7729 26.5067 47.0618C26.665 47.2207 26.8233 47.4332 26.9644 47.6976C26.9679 47.7028 26.9696 47.7079 26.973 47.7131C28.2086 46.8994 29.5681 46.2826 30.9998 45.8956C31.1426 45.8576 31.2855 45.8213 31.4283 45.7885C35.8027 44.7536 39.8054 48.7739 38.7746 53.1639C38.7402 53.3073 38.704 53.4507 38.6662 53.5941C38.2635 55.0972 37.6096 56.5208 36.744 57.8079C38.0036 57.725 39.2908 58.1638 40.2511 59.1279C41.2182 60.0988 42.0304 62.6385 42.5415 64.589C43.0887 64.2279 43.8321 64.2884 44.314 64.7722L44.9971 65.458L45.553 64.9C46.0348 64.4163 46.7782 64.3558 47.3254 64.7169C47.8348 62.7663 48.647 60.2267 49.6159 59.2557C50.4591 58.4091 51.5535 57.9669 52.66 57.9289C51.927 56.7471 51.3677 55.4617 51.0098 54.1193C50.9608 53.9909 50.9278 53.8609 50.8947 53.7309L50.8947 53.7308L50.8859 53.6961C49.8671 49.3009 53.8577 45.2737 58.2373 46.3154C58.3784 46.3517 58.5178 46.3863 58.6761 46.4226C59.9598 46.775 61.192 47.3054 62.3174 48.012C62.4757 47.7287 62.634 47.4816 62.8096 47.3054C64.0761 46.0165 66.1514 46.0165 67.4352 47.3054C68.7189 48.5752 68.7189 50.6778 67.4352 51.9476C67.2751 52.1066 67.0652 52.2655 66.8019 52.4072C67.5935 53.6252 68.1906 54.9503 68.5778 56.3619L68.6011 56.4571C68.6283 56.5678 68.6561 56.6807 68.6828 56.8041C69.7032 61.1821 65.7109 65.2075 61.3314 64.1657L61.2426 64.1436L61.152 64.1208C61.1098 64.1102 61.0676 64.0995 61.0252 64.089C60.9868 64.0793 60.9483 64.0698 60.9098 64.0604C59.6553 63.7235 58.461 63.2138 57.3545 62.5504C57.3356 63.6924 56.895 64.8274 56.0294 65.6947C55.0572 66.6726 52.5034 67.4915 50.5555 68.0029C50.8446 68.5402 50.7637 69.2244 50.3128 69.677L49.7553 70.2351L50.4608 70.9434C51.0115 71.4963 51.0115 72.3929 50.4608 72.9458C50.3249 73.0823 50.1683 73.1842 50.0031 73.2533L60.3694 83.5174C60.5621 83.6539 60.7463 83.8042 60.9201 83.977ZM56.7832 56.234C56.3013 56.7195 56.3013 57.5073 56.7832 57.9928C57.2667 58.4783 58.0532 58.4783 58.5367 57.9928C58.7948 57.7319 59.2285 56.5554 59.6088 55.1577C58.2149 55.5378 57.043 55.9731 56.7832 56.234ZM65.9914 48.7532C65.5182 48.2573 64.7266 48.2573 64.2344 48.7532C64.1639 48.824 64.0761 48.983 63.9694 49.211C64.3033 49.4771 64.6216 49.7587 64.9365 50.0766C65.1654 50.3064 65.3771 50.5361 65.5698 50.7659C65.7815 50.6588 65.9226 50.5707 65.9914 50.4999C66.4853 50.023 66.4853 49.23 65.9914 48.7532ZM61.3675 50.448C60.347 49.795 59.2216 49.3009 58.0618 49.0175C55.3532 48.3645 52.9268 50.8005 53.5772 53.5198C53.7924 54.4061 54.121 55.2631 54.5564 56.0716C54.7113 55.6017 54.9711 55.1594 55.3428 54.7879C56.3598 53.7669 59.762 52.9843 60.7807 52.7683C61.118 52.6975 61.4673 52.8029 61.7117 53.0465C61.9543 53.2918 62.0575 53.6425 61.987 53.9811C61.7719 55.0039 60.9941 58.4195 59.9771 59.4388C59.5744 59.8431 59.0925 60.1195 58.5832 60.2681C59.4987 60.8123 60.4847 61.2149 61.5086 61.4637C64.2172 62.1357 66.6436 59.6807 65.9914 56.9631C65.6765 55.6742 65.131 54.4545 64.3566 53.3609C64.0055 52.8305 63.5839 52.3364 63.1262 51.8768C62.5807 51.3309 62.0008 50.854 61.3675 50.448ZM54.035 61.2581C53.3673 60.5877 52.278 60.5877 51.6103 61.2581C51.2507 61.6192 50.6501 63.2484 50.1252 65.1833C52.0526 64.6564 53.6771 64.0535 54.035 63.6924C54.7044 63.022 54.7044 61.9301 54.035 61.2581ZM25.0646 48.5096C24.5897 48.0155 23.7981 48.0155 23.3231 48.5096C22.831 48.9864 22.831 49.7812 23.3231 50.2753C23.3937 50.3461 23.552 50.4342 23.7809 50.5396C23.784 50.5412 23.7873 50.5427 23.7906 50.5443C23.7928 50.5453 23.795 50.5463 23.7972 50.5474C23.8028 50.55 23.8084 50.5526 23.8136 50.5551C24.101 50.2027 24.4073 49.8658 24.7291 49.5427C24.927 49.3423 25.1335 49.1506 25.3417 48.964C25.3382 48.9536 25.3331 48.9415 25.3279 48.9329C25.2229 48.7221 25.1352 48.5804 25.0646 48.5096ZM30.869 57.7284C31.3526 58.2139 32.1373 58.2139 32.6208 57.7284C33.1044 57.2447 33.1044 56.4551 32.6208 55.9697C32.361 55.7105 31.1891 55.2752 29.7969 54.8933C30.1755 56.291 30.6092 57.4693 30.869 57.7284ZM28.6251 52.5057C29.6438 52.7199 33.0459 53.5026 34.0612 54.5236C34.4656 54.9296 34.7409 55.4151 34.8889 55.9299C35.4344 55.0091 35.8354 54.0191 36.0832 52.9912C36.7388 50.2718 34.309 47.8323 31.6021 48.4888C29.7178 48.945 27.9677 49.9194 26.5359 51.3568C25.1042 52.7925 24.1354 54.5513 23.6794 56.4413C23.0254 59.1607 25.457 61.6002 28.1639 60.9419C29.0449 60.7277 29.8968 60.3994 30.7021 59.964C30.2358 59.8086 29.7987 59.5477 29.4287 59.1762C28.4117 58.1552 27.6321 54.7396 27.417 53.7168C27.3465 53.3782 27.4497 53.0274 27.6941 52.7821C27.9367 52.5385 28.2878 52.4331 28.6251 52.5057ZM35.8319 61.1302C35.1625 61.8023 35.1625 62.8942 35.8319 63.5645C36.1899 63.9256 37.8126 64.5286 39.7417 65.0555C39.2151 63.1205 38.6163 61.4913 38.2566 61.1302C37.5872 60.4599 36.4996 60.4599 35.8319 61.1302ZM31.1512 87.8832C31.6968 88.4292 32.583 88.4292 33.1285 87.8832C33.6723 87.3356 33.6723 86.4458 33.1285 85.8981C32.6862 85.4541 32.0186 85.3695 31.4903 85.6476L30.9121 86.2195C30.6247 86.7516 30.7038 87.4323 31.1512 87.8832ZM47.3857 72.9752C47.7212 72.6383 47.7212 72.0923 47.3857 71.7554L46.1208 70.4856L47.3857 69.214C47.7212 68.8771 47.7212 68.3312 47.3857 67.9943C47.0501 67.6574 46.5063 67.6574 46.1707 67.9943L44.9059 69.2658L43.6394 67.9943C43.3038 67.6574 42.76 67.6574 42.4245 67.9943C42.0889 68.3312 42.0889 68.8771 42.4245 69.214L43.691 70.4856L42.4245 71.7554C42.0889 72.0923 42.0889 72.6383 42.4245 72.9752C42.76 73.312 43.3038 73.312 43.6394 72.9752L44.9059 71.7053L46.1707 72.9752C46.5063 73.312 47.0501 73.312 47.3857 72.9752ZM56.9484 87.9644C57.4922 88.5121 58.3801 88.5121 58.9239 87.9644C59.373 87.5152 59.4522 86.8328 59.1631 86.3007L58.5866 85.7306C58.0583 85.4524 57.3906 85.5353 56.9484 85.9811C56.4029 86.527 56.4029 87.4168 56.9484 87.9644Z" fill="white"/>
</svg>
