<svg width="28" height="20" viewBox="0 0 28 20" fill="none" xmlns="http://www.w3.org/2000/svg">
<path d="M27.2539 3.59766C26.9492 2.37891 25.9844 1.41406 24.8164 1.10938C22.6328 0.5 14 0.5 14 0.5C14 0.5 5.31641 0.5 3.13281 1.10938C1.96484 1.41406 1 2.37891 0.695312 3.59766C0.0859375 5.73047 0.0859375 10.3008 0.0859375 10.3008C0.0859375 10.3008 0.0859375 14.8203 0.695312 17.0039C1 18.2227 1.96484 19.1367 3.13281 19.4414C5.31641 20 14 20 14 20C14 20 22.6328 20 24.8164 19.4414C25.9844 19.1367 26.9492 18.2227 27.2539 17.0039C27.8633 14.8203 27.8633 10.3008 27.8633 10.3008C27.8633 10.3008 27.8633 5.73047 27.2539 3.59766ZM11.1562 14.4141V6.1875L18.3672 10.3008L11.1562 14.4141Z" fill="#135685"/>
</svg>
