<svg width="60" height="60" viewBox="0 0 60 60" fill="none" xmlns="http://www.w3.org/2000/svg">
<path d="M22 37C22 37.5519 22.448 37.9999 22.9999 37.9999H27C27.552 37.9999 28 37.5519 28 37V31C28 30.448 27.552 30 27 30H23C22.4481 30 22.0001 30.448 22.0001 31V37H22ZM24 32H26V36H24V32Z" fill="#3556FF"/>
<path d="M23 26H27C27.552 26 28 25.552 28 25.0001V19.0001C28 18.4481 27.552 18.0001 27 18.0001H23C22.4481 18.0001 22.0001 18.4481 22.0001 19.0001V25.0001C22 25.552 22.448 26 23 26ZM24 20H26V24H24V20Z" fill="#3556FF"/>
<path d="M15.515 18.857L30 10.166L44.485 18.857C44.646 18.954 44.824 19 44.999 19C45.3389 19 45.67 18.827 45.857 18.5149C46.142 18.0409 45.988 17.427 45.515 17.1429L31 8.43398V2.00004H36V4.00008H33C32.4481 4.00008 32 4.44809 32 5.00004C32 5.55199 32.4481 6 33 6H37C37.5519 6 37.9999 5.55199 37.9999 5.00004V0.999961C37.9999 0.448008 37.5519 0 37 0H30C29.4481 0 29 0.448008 29 0.999961V8.43398L14.4851 17.143C14.0121 17.427 13.8581 18.041 14.1431 18.515C14.426 18.988 15.042 19.142 15.515 18.857Z" fill="#3556FF"/>
<path d="M11 38C11.552 38 12 37.552 12 37.0001V31.0001C12 30.4481 11.552 30.0001 11 30.0001H6.99996C6.44801 30.0001 6 30.4481 6 31.0001V33C6 33.552 6.44801 34 6.99996 34C7.55191 34 7.99992 33.552 7.99992 33V32H9.99996V37.0001C9.99996 37.552 10.448 38 11 38Z" fill="#3556FF"/>
<path d="M18 51V22C18 21.448 17.552 21 17 21C16.4481 21 16.0001 21.448 16.0001 22V51C16.0001 51.552 16.4481 52 17 52C17.552 52 18 51.552 18 51Z" fill="#3556FF"/>
<path d="M13 56H46.9999C47.5519 56 47.9999 55.552 47.9999 55.0001C47.9999 54.4481 47.5519 54.0001 46.9999 54.0001H37.9999V44.0002H38.9999C39.5518 44.0002 39.9998 43.5522 39.9998 43.0002C39.9998 42.4483 39.5518 42.0002 38.9999 42.0002H21C20.448 42.0002 20 42.4483 20 43.0002C20 43.5522 20.448 44.0002 21 44.0002H22V54H13C12.448 54 12 54.448 12 55C12 55.5519 12.448 56 13 56ZM31 50C31.5519 50 31.9999 49.552 31.9999 49.0001C31.9999 48.4481 31.5519 48.0001 31 48.0001V44.0002H36V54H31V50ZM24 44H29V48C28.4481 48 28.0001 48.448 28.0001 49C28.0001 49.5519 28.4481 49.9999 29 49.9999V54H24V44Z" fill="#3556FF"/>
<path d="M53 43H49.0001C48.4481 43 48.0001 43.448 48.0001 44V50C48.0001 50.5519 48.4481 50.9999 49.0001 50.9999H53C53.552 50.9999 54 50.5519 54 50V44C54 43.448 53.552 43 53 43ZM52 49H49.9999V45H52V49Z" fill="#3556FF"/>
<path d="M53 31H49.0001C48.4481 31 48.0001 31.448 48.0001 32V38C48.0001 38.5519 48.4481 38.9999 49.0001 38.9999H53C53.552 38.9999 54 38.5519 54 38V32C54 31.448 53.552 31 53 31ZM52 37H49.9999V33H52V37Z" fill="#3556FF"/>
<path d="M51 58H8.99999C8.44804 58 8.00003 58.448 8.00003 59C8.00003 59.5519 8.44804 60 8.99999 60H51C51.5519 60 52 59.552 52 59.0001C52 58.4481 51.5519 58 51 58Z" fill="#3556FF"/>
<path d="M59 22C58.4481 22 58.0001 22.448 58.0001 23V23.9999H47C46.4481 23.9999 46.0001 24.4479 46.0001 24.9999C46.0001 25.5518 46.4481 25.9998 47 25.9998H58.0001V58.9998C58.0001 59.5518 58.4481 59.9998 59 59.9998C59.552 59.9998 60 59.5518 60 58.9998V22.9998C60 22.448 59.552 22 59 22Z" fill="#3556FF"/>
<path d="M32 37C32 37.5519 32.448 37.9999 33 37.9999H37C37.5519 37.9999 37.9999 37.5519 37.9999 37V31C37.9999 30.448 37.5519 30 37 30H33C32.448 30 32 30.448 32 31V37ZM34 32H36V36H34V32Z" fill="#3556FF"/>
<path d="M9.99996 49C9.99996 48.87 9.94301 36 4.99992 36C0.0569531 36 0 48.87 0 49C0 51.415 1.72102 53.434 3.99996 53.899V59C3.99996 59.552 4.44797 60 4.99992 60C5.55188 60 5.99988 59.552 5.99988 59V53.899C8.27895 53.434 9.99996 51.415 9.99996 49ZM5.00004 52C3.34605 52 2.00004 50.6539 2.00004 49C2.00004 44.018 3.33809 37.9999 5.00004 37.9999C6.66199 37.9999 8.00004 44.018 8.00004 49C8.00004 50.6539 6.65402 52 5.00004 52Z" fill="#3556FF"/>
<path d="M44 51V21C44 20.448 43.552 20 43.0001 20C42.4481 20 42.0001 20.448 42.0001 21V51C42.0001 51.5519 42.4481 51.9999 43.0001 51.9999C43.552 51.9999 44 51.5519 44 51Z" fill="#3556FF"/>
<path d="M33 26H37C37.5519 26 37.9999 25.552 37.9999 25.0001V19.0001C37.9999 18.4481 37.5519 18.0001 37 18.0001H33C32.448 18.0001 32 18.4481 32 19.0001V25.0001C32 25.552 32.448 26 33 26ZM34 20H36V24H34V20Z" fill="#3556FF"/>
<path d="M0.999961 35.0001C1.55191 35.0001 1.99992 34.5521 1.99992 34.0001V26.0001H13C13.5519 26.0001 13.9999 25.5521 13.9999 25.0001C13.9999 24.4482 13.5519 24.0002 13 24.0002H2.00004V23.0002C2.00004 22.4483 1.55203 22.0002 1.00008 22.0002C0.448125 22.0002 0 22.448 0 23.0001V34.0001C0 34.5521 0.448008 35.0001 0.999961 35.0001Z" fill="#3556FF"/>
</svg>
