<svg width="60" height="56" viewBox="0 0 60 56" fill="none" xmlns="http://www.w3.org/2000/svg">
<path d="M42.242 50.0299C41.706 49.8939 41.163 50.2219 41.03 50.757L40.0301 54.7569C39.8951 55.2939 40.222 55.8359 40.758 55.9699C40.839 55.9909 40.9211 55.9999 41.0011 55.9999C41.4491 55.9999 41.8561 55.6969 41.9701 55.2429L42.9701 51.2429C43.104 50.7069 42.778 50.164 42.242 50.0299Z" fill="#3556FF"/>
<path d="M30 29.9999C30.13 29.9999 30.26 29.9749 30.382 29.9239L41.3821 25.3719C41.8921 25.1609 42.1341 24.5759 41.9231 24.0659C41.7121 23.5548 41.1251 23.3148 40.6161 23.5239L30 27.9178L2.00004 16.3318V15.9998C2.00004 15.4479 1.55203 14.9999 1.00008 14.9999C0.448125 14.9999 0 15.4479 0 15.9998V16.9998C0 17.4048 0.243984 17.7698 0.618047 17.9238L29.6181 29.9238C29.74 29.9748 29.87 29.9999 30 29.9999Z" fill="#3556FF"/>
<path d="M41.8961 40.2449C41.6521 39.7499 41.0541 39.5459 40.5571 39.7909C38.6581 40.73 35.486 41.8219 31.0001 41.971V32.9999C31.0001 32.448 30.5521 32 30.0001 32C29.4482 32 29.0002 32.448 29.0002 32.9999V41.962C16.5832 41.566 12.5762 34.0439 12.0001 32.7919V26C12.0001 25.448 11.5521 25 11.0002 25C10.4482 25 10.0002 25.448 10.0002 26V32.9999C10.0002 33.127 10.0242 33.2529 10.0712 33.3719C10.2452 33.8049 14.5013 43.9998 30.0002 43.9998C35.4172 43.9998 39.2133 42.6858 41.4433 41.5838C41.939 41.3389 42.142 40.7399 41.8961 40.2449Z" fill="#3556FF"/>
<path d="M45 50.9999C44.447 50.9999 44 51.4479 44 51.9998V54.9998C44 55.5518 44.447 55.9998 45 55.9998C45.553 55.9998 46 55.5518 46 54.9998V51.9998C46 51.4479 45.553 50.9999 45 50.9999Z" fill="#3556FF"/>
<path d="M59 14.9999C58.447 14.9999 58.0001 15.448 58.0001 15.9999V16.3299L46.0001 21.2689V19.4619L59.3821 13.9238C59.756 13.7698 60.0001 13.4048 60.0001 12.9998C60.0001 12.5948 59.7561 12.2308 59.3831 12.0758L30.382 0.0758838C30.137 -0.0251318 29.863 -0.0251318 29.6181 0.0758838L0.618047 12.0759C0.243984 12.2309 0 12.5949 0 12.9999C0 13.4049 0.243984 13.7699 0.618047 13.9239L29.6181 25.9239C29.7401 25.9749 29.87 26 30.0001 26C30.1302 26 30.2602 25.975 30.3821 25.9239L40.8682 21.5849C41.3793 21.3749 41.6213 20.7899 41.4102 20.2789C41.1991 19.7689 40.6141 19.5278 40.1041 19.7378L30 23.9179L3.615 12.9999L30 2.0819L56.385 12.9999L44.904 17.7509L33.907 13.6449C33.965 13.4369 34.0001 13.2229 34.0001 12.9999C34.0001 11.3179 32.2431 9.99991 30.0001 9.99991C27.7571 9.99991 26.0002 11.3179 26.0002 12.9999C26.0002 14.6819 27.7571 15.9999 30.0001 15.9999C31.0011 15.9999 31.8941 15.7269 32.5881 15.2869L44 19.548V22.752V22.7531V44.1841C42.8391 44.599 42 45.698 42 47.0001C42 48.6541 43.346 50.0001 45 50.0001C46.654 50.0001 48 48.6541 48 47.0001C48 45.6982 47.1611 44.5992 46 44.1841V38.5081C48.8709 36.3411 49.9 33.4551 49.945 33.3271C49.9809 33.2221 49.9999 33.1112 49.9999 33.0002V26.0002C49.9999 25.4483 49.553 25.0003 49 25.0003C48.447 25.0003 48 25.4483 48 26.0002V32.8153C47.827 33.2392 47.226 34.5462 46 35.8362V23.4319L59.381 17.9249C59.756 17.771 60 17.405 60 17V16C60 15.448 59.553 14.9999 59 14.9999ZM30 13.9999C28.779 13.9999 28 13.4078 28 12.9999C28 12.5919 28.7789 11.9999 30 11.9999C31.2211 11.9999 32 12.592 32 12.9999C32 13.408 31.221 13.9999 30 13.9999ZM45 47.9999C44.448 47.9999 44 47.551 44 47C44 46.449 44.448 46 45 46C45.552 46 46 46.449 46 47C46 47.5509 45.552 47.9999 45 47.9999Z" fill="#3556FF"/>
<path d="M48.97 50.7568C48.836 50.2219 48.2919 49.8948 47.758 50.0298C47.222 50.1638 46.896 50.7068 47.03 51.2428L48.03 55.2428C48.144 55.6968 48.551 55.9998 48.999 55.9998C49.0791 55.9998 49.161 55.9908 49.2421 55.9698C49.7781 55.8359 50.1041 55.2938 49.97 54.7568L48.97 50.7568Z" fill="#3556FF"/>
</svg>
