<svg width="45" height="45" viewBox="0 0 45 45" fill="none" xmlns="http://www.w3.org/2000/svg">
<path d="M39.0348 30.8357L34.7667 36.9679L31.7547 34.4959C31.4298 34.2275 30.9486 34.2763 30.6816 34.6012C30.4139 34.9269 30.4612 35.4081 30.7876 35.6743L34.438 38.671C34.5753 38.7839 34.7461 38.8449 34.9215 38.8449C34.9559 38.8449 34.9909 38.8426 35.026 38.8373C35.2365 38.8083 35.4257 38.6924 35.5477 38.5177L40.2872 31.7075C40.5275 31.362 40.4428 30.8868 40.0965 30.6458C39.7495 30.4025 39.2751 30.4894 39.0348 30.8357Z" fill="#3556FF"/>
<path d="M39.661 26.2975V11.4407V3.81356C39.661 3.39178 39.3193 3.05085 38.8983 3.05085H35.0847V0.762712C35.0847 0.340932 34.7431 0 34.322 0H28.9831C28.562 0 28.2203 0.340932 28.2203 0.762712V3.05085H11.4407V0.762712C11.4407 0.340932 11.099 0 10.678 0H5.33898C4.91797 0 4.57627 0.340932 4.57627 0.762712V3.05085H0.762712C0.341695 3.05085 0 3.39178 0 3.81356V11.4407V42.7119C0 43.1336 0.341695 43.4746 0.762712 43.4746H29.8251C31.352 44.4356 33.152 45 35.0847 45C40.5519 45 45 40.5519 45 35.0847C45 31.2689 42.8293 27.9542 39.661 26.2975ZM29.7458 1.52542H33.5593V3.81356V6.1017H29.7458V3.81356V1.52542ZM6.1017 1.52542H9.91525V3.81356V6.1017H6.1017V3.81356V1.52542ZM1.52542 4.57627H4.57627V6.86441C4.57627 7.28619 4.91797 7.62712 5.33898 7.62712H10.678C11.099 7.62712 11.4407 7.28619 11.4407 6.86441V4.57627H28.2203V6.86441C28.2203 7.28619 28.562 7.62712 28.9831 7.62712H34.322C34.7431 7.62712 35.0847 7.28619 35.0847 6.86441V4.57627H38.1356V10.678H1.52542V4.57627ZM1.52542 41.9492V12.2034H38.1356V25.6546C37.9861 25.6065 37.8336 25.5676 37.681 25.5257C37.5399 25.4868 37.3988 25.4486 37.2562 25.4158C37.1273 25.3869 36.9969 25.3617 36.8664 25.3381C36.6803 25.3037 36.4935 25.2755 36.3059 25.2519C36.2014 25.2389 36.0976 25.2244 35.9924 25.2145C35.6919 25.1878 35.3891 25.1695 35.0847 25.1695C34.827 25.1695 34.5745 25.1886 34.322 25.2084V24.4068V22.8814V16.0169H27.4576H25.9322H20.5932H19.0678H13.7288H12.2034H5.33898V22.8814V24.4068V29.7458V31.2712V38.1356H12.2034H13.7288H19.0678H20.5932H25.6546C25.6767 38.2027 25.7042 38.2675 25.727 38.3339C25.7911 38.5192 25.8544 38.7053 25.9299 38.8861C25.9719 38.9875 26.0214 39.0844 26.0672 39.1836C26.1549 39.3773 26.2442 39.5703 26.3441 39.7579C26.3883 39.8395 26.4379 39.9181 26.4844 39.9989C26.5973 40.1964 26.7117 40.3917 26.8383 40.5808C26.8848 40.6503 26.9359 40.7158 26.984 40.7845C27.1182 40.9752 27.2555 41.1643 27.4042 41.3458C27.4592 41.413 27.5186 41.4755 27.5751 41.5411C27.6933 41.6784 27.8062 41.8187 27.932 41.9499H1.52542V41.9492ZM30.7472 26.1824C30.6648 26.222 30.5809 26.2594 30.5001 26.3014C30.3567 26.3761 30.2179 26.4585 30.0791 26.5401C29.9578 26.611 29.8365 26.6835 29.7183 26.759C29.5986 26.8368 29.4819 26.9161 29.3659 26.9985C29.234 27.0915 29.1058 27.1892 28.9785 27.2883C28.8763 27.3684 28.7741 27.4477 28.6757 27.5324C28.5422 27.6453 28.4148 27.765 28.2875 27.8847C28.1997 27.9679 28.109 28.048 28.0243 28.1334C27.8863 28.2737 27.7558 28.4225 27.6262 28.5712C27.5713 28.6345 27.511 28.6925 27.4569 28.7573V24.4068H32.7958V25.4456C32.7829 25.4486 32.7707 25.4532 32.7585 25.4563C32.056 25.6264 31.3833 25.8712 30.7472 26.1824ZM25.6042 32.1857C25.5775 32.2734 25.56 32.3634 25.5356 32.4519C25.4746 32.6731 25.412 32.8942 25.3663 33.1223C25.3304 33.2985 25.3106 33.4785 25.2847 33.6569C25.2641 33.8011 25.2351 33.943 25.2198 34.0894C25.187 34.4181 25.1695 34.7507 25.1695 35.0847C25.1695 35.3601 25.1847 35.6385 25.2099 35.9176C25.2145 35.9687 25.2145 36.0206 25.2198 36.0717C25.232 36.1953 25.2564 36.315 25.2732 36.437V36.4378C25.2816 36.4958 25.2847 36.553 25.2938 36.6102H20.5932V31.2712H25.9322V31.2765C25.9246 31.2948 25.92 31.3139 25.9124 31.3322C25.798 31.6106 25.6935 31.8951 25.6042 32.1857ZM6.86441 31.2712H12.2034V36.6102H6.86441V31.2712ZM6.86441 24.4068H12.2034V29.7458H6.86441V24.4068ZM32.7966 22.8814H27.4576V17.5424H32.7966V22.8814ZM25.9322 22.8814H20.5932V17.5424H25.9322V22.8814ZM25.9322 29.7458H20.5932V24.4068H25.9322V29.7458ZM13.7288 24.4068H19.0678V29.7458H13.7288V24.4068ZM19.0678 22.8814H13.7288V17.5424H19.0678V22.8814ZM12.2034 22.8814H6.86441V17.5424H12.2034V22.8814ZM13.7288 31.2712H19.0678V36.6102H13.7288V31.2712ZM35.0847 43.4746C33.3625 43.4746 31.7601 42.9514 30.4269 42.0575C30.1668 41.8836 29.9212 41.6944 29.6855 41.4961C29.6031 41.4259 29.5253 41.3512 29.446 41.278C29.2958 41.1414 29.1501 41.0011 29.0113 40.8554C28.922 40.7616 28.8358 40.6663 28.7512 40.5694C28.6261 40.4253 28.5086 40.2765 28.3942 40.1247C28.321 40.0279 28.2455 39.9341 28.1761 39.8342C28.0075 39.5893 27.8489 39.3376 27.707 39.0768C27.6742 39.0158 27.6483 38.9517 27.617 38.8899C27.5057 38.6718 27.4019 38.4506 27.3097 38.2233C27.27 38.1242 27.2357 38.0227 27.1991 37.922C27.1274 37.7222 27.0618 37.5193 27.0046 37.3142C26.9916 37.2669 26.9802 37.2196 26.968 37.1723C26.8818 36.8367 26.8185 36.5034 26.7735 36.1716C26.7704 36.148 26.7658 36.1243 26.7628 36.0999C26.7186 35.7575 26.6949 35.4181 26.6949 35.0847C26.6949 34.7957 26.7094 34.5089 26.7392 34.2244C26.7414 34.2008 26.7475 34.1779 26.7498 34.1542C26.7788 33.8942 26.8169 33.6348 26.8703 33.3793C26.8757 33.3549 26.8841 33.3313 26.8894 33.3069C26.9443 33.0536 27.0092 32.8019 27.0877 32.5533C27.0969 32.5243 27.1098 32.4961 27.119 32.4671C27.1975 32.2292 27.2845 31.9927 27.3852 31.7608C27.4797 31.5427 27.582 31.3284 27.6941 31.1202L27.7696 30.9897C27.8001 30.9348 27.8359 30.883 27.868 30.8288C28.0007 30.6053 28.1425 30.3887 28.2928 30.1797C28.3302 30.1279 28.3691 30.0768 28.408 30.0257C28.5453 29.8442 28.6902 29.6695 28.8412 29.5009C28.8938 29.4422 28.9464 29.3827 29.0006 29.3255C29.1501 29.1669 29.3072 29.0166 29.4681 28.8709C29.5253 28.8191 29.581 28.7657 29.6397 28.7153C29.8289 28.5536 30.0249 28.4019 30.227 28.2577C30.2591 28.2348 30.2896 28.2097 30.3216 28.1868C31.3169 27.4988 32.4603 27.0275 33.6867 26.8215L33.7027 26.8192C34.1527 26.7437 34.6126 26.6949 35.0847 26.6949C35.3814 26.6949 35.6766 26.7109 35.9695 26.743C36.0153 26.7475 36.0595 26.7582 36.1053 26.7636C36.3554 26.7948 36.6048 26.8322 36.8512 26.8856C36.8817 26.8925 36.9107 26.9016 36.9404 26.9085C37.2028 26.9687 37.4629 27.0389 37.7199 27.1251C37.7375 27.1312 37.7542 27.1381 37.7718 27.1442C38.0349 27.2342 38.2942 27.3371 38.5513 27.4538C41.4511 28.7764 43.4746 31.696 43.4746 35.0847C43.4746 39.7106 39.7106 43.4746 35.0847 43.4746Z" fill="#3556FF"/>
</svg>
