<svg width="53" height="53" viewBox="0 0 53 53" fill="none" xmlns="http://www.w3.org/2000/svg">
<path d="M52.7586 18.8123C52.5495 18.3134 52.1585 17.9256 51.6579 17.721L48.1222 16.2742C47.622 16.0696 47.0713 16.0716 46.5723 16.2811C46.0729 16.4905 45.6856 16.8815 45.4806 17.3817L41.4556 27.2194V11.1437C41.4556 10.9351 41.3727 10.7345 41.2251 10.5869L30.8683 0.230484C30.7207 0.0828933 30.5205 0 30.3119 0H0.787285C0.3526 0 0 0.3526 0 0.787285V6.86195C0 7.29664 0.3526 7.64924 0.787285 7.64924C1.22197 7.64924 1.57417 7.29664 1.57417 6.86195V1.57417H29.5242V11.1437C29.5242 11.5784 29.8768 11.9306 30.3115 11.9306H39.8814V31.0672L36.4112 39.5478C36.3675 39.6546 36.3477 39.7698 36.3538 39.8851L36.7242 47.2941C36.7396 47.599 36.9296 47.8675 37.2122 47.9831C37.3085 48.0228 37.4096 48.0418 37.5103 48.0418C37.7044 48.0418 37.8952 47.9702 38.0432 47.8339L39.881 46.1421V51.4258H1.57417V10.0107C1.57417 9.576 1.22197 9.2234 0.787285 9.2234C0.3526 9.2234 0 9.576 0 10.0107V52.2127C0 52.6474 0.3526 53 0.787285 53H40.6683C41.103 53 41.4556 52.6474 41.4556 52.2127V44.6929L43.5012 42.8098C43.5861 42.7313 43.6525 42.6355 43.6965 42.5287L47.265 33.8067C47.4296 33.4044 47.2367 32.9447 46.8344 32.7801C46.4324 32.6155 45.9727 32.808 45.8081 33.2103L42.5372 41.2041L38.1661 39.4156L44.8829 22.9999L49.254 24.7884L46.9367 30.4522C46.7721 30.8545 46.9646 31.3143 47.3673 31.4789C47.7696 31.6434 48.229 31.451 48.3936 31.0486L52.7659 20.3627C52.9705 19.8621 52.9681 19.3113 52.7586 18.8123ZM31.0988 2.68696L38.7682 10.3568H31.0988V2.68696ZM37.9878 41.0431L41.5239 42.4899L38.2126 45.5384L37.9878 41.0431ZM51.3086 19.7662L49.8501 23.331L45.4789 21.5426L46.9375 17.9778C46.9832 17.8666 47.0697 17.7796 47.1809 17.7331C47.2925 17.6862 47.415 17.6854 47.5262 17.7311L51.0619 19.1779C51.1731 19.2232 51.26 19.3097 51.3065 19.4209C51.3535 19.5325 51.3543 19.655 51.3086 19.7662Z" fill="white"/>
</svg>
