<svg width="50" height="50" viewBox="0 0 50 50" fill="none" xmlns="http://www.w3.org/2000/svg">
<g clip-path="url(#clip0)">
<path d="M49.522 13.887L33.7109 7.85904C33.3275 7.71294 32.8983 7.9052 32.7522 8.28819C32.6061 8.67157 32.7984 9.10072 33.1818 9.24683L47.1729 14.5809L37.4874 18.2739L25.3063 12.7586C24.9325 12.5893 24.4926 12.7552 24.3237 13.1287C24.1543 13.5025 24.3202 13.9423 24.6937 14.1117L35.5324 19.0193L25 23.0347L2.82707 14.5809L25 6.12717L30.4642 8.21075C30.8468 8.35647 31.2763 8.1646 31.4228 7.78122C31.5689 7.39822 31.3766 6.96907 30.9933 6.82297L25.2647 4.63867C25.0942 4.57382 24.9058 4.57344 24.7353 4.63867L0.477982 13.887C0.190353 13.9969 0 14.2731 0 14.5809V17.9722C0 18.28 0.190353 18.5562 0.477982 18.6661L8.05283 21.5538V24.1272C8.05283 24.5373 8.38509 24.8699 8.79517 24.8699C9.20563 24.8699 9.53789 24.5373 9.53789 24.1272V22.1203L24.7353 27.9144C24.8207 27.9469 24.9104 27.9633 25 27.9633C25.0896 27.9633 25.1793 27.9469 25.2647 27.9144L36.7203 23.547V35.2993C33.1238 37.1872 29.0909 38.1989 25 38.1989C19.4168 38.1989 13.9404 36.3167 9.53789 32.8915V27.0977C9.53789 26.6876 9.20563 26.355 8.79517 26.355C8.38509 26.355 8.05283 26.6876 8.05283 27.0977V33.2512C8.05283 33.4766 8.15506 33.6899 8.33092 33.8306C13.0424 37.6053 18.9625 39.6839 25 39.6839C29.0718 39.6839 33.0894 38.7371 36.7203 36.9637V39.9693C35.5236 40.2962 34.6413 41.3921 34.6413 42.691C34.6413 44.2467 35.907 45.5128 37.4626 45.5128C39.0186 45.5128 40.2843 44.2467 40.2843 42.691C40.2843 41.3921 39.402 40.2962 38.2053 39.9693V36.1794C39.4157 35.4908 40.5754 34.7073 41.6695 33.8306C41.8453 33.6899 41.9479 33.4766 41.9479 33.2512V21.5534L49.522 18.6657C49.8096 18.5562 50 18.28 50 17.9718V14.5809C50 14.2731 49.8096 13.9969 49.522 13.887ZM38.7993 42.691C38.7993 43.4277 38.1996 44.0273 37.4626 44.0273C36.726 44.0273 36.1263 43.4277 36.1263 42.691C36.1263 41.954 36.726 41.3544 37.4626 41.3544C38.1996 41.3544 38.7993 41.954 38.7993 42.691ZM1.48506 15.659L24.2573 24.3412V26.1425L1.48506 17.4603V15.659ZM25.7427 26.1425V24.3412L36.7203 20.1557V21.9574L25.7427 26.1425ZM40.4625 32.8911C39.7381 33.4549 38.9839 33.976 38.2053 34.4544V22.9805L40.4625 22.1199V32.8911ZM38.2053 21.3909V19.5896L48.5149 15.659V17.4603L38.2053 21.3909Z" fill="#31439E"/>
</g>
<defs>
<clipPath id="clip0">
<rect width="50" height="50" fill="white"/>
</clipPath>
</defs>
</svg>
