<svg width="50" height="33" viewBox="0 0 50 33" fill="none" xmlns="http://www.w3.org/2000/svg">
<g clip-path="url(#clip0)">
<path d="M4.99996 16.4744C3.15902 16.4744 1.66663 17.9668 1.66663 19.8077C1.66663 21.6486 3.15902 23.141 4.99996 23.141C6.8409 23.141 8.33329 21.6486 8.33329 19.8077C8.33329 17.9668 6.8409 16.4744 4.99996 16.4744ZM4.99996 21.4744C4.07944 21.4744 3.33329 20.7282 3.33329 19.8077C3.33329 18.8872 4.07944 18.141 4.99996 18.141C5.92048 18.141 6.66663 18.8872 6.66663 19.8077C6.66663 20.7282 5.92048 21.4744 4.99996 21.4744Z" fill="#31439E"/>
<path d="M5 23.9744C2.23854 23.9744 0 26.2129 0 28.9744V31.4744C0 31.9346 0.373125 32.3077 0.833333 32.3077C1.29354 32.3077 1.66667 31.9346 1.66667 31.4744V28.9744C1.66667 27.1334 3.15906 25.641 5 25.641C6.84094 25.641 8.33333 27.1334 8.33333 28.9744V31.4744C8.33333 31.9346 8.70646 32.3077 9.16667 32.3077C9.62687 32.3077 10 31.9346 10 31.4744V28.9744C10 26.2129 7.76146 23.9744 5 23.9744Z" fill="#31439E"/>
<path d="M18.3333 16.4744C16.4924 16.4744 15 17.9668 15 19.8077C15 21.6486 16.4924 23.141 18.3333 23.141C20.1743 23.141 21.6667 21.6486 21.6667 19.8077C21.6667 17.9668 20.1743 16.4744 18.3333 16.4744ZM18.3333 21.4744C17.4128 21.4744 16.6667 20.7282 16.6667 19.8077C16.6667 18.8872 17.4128 18.141 18.3333 18.141C19.2539 18.141 20 18.8872 20 19.8077C20 20.7282 19.2539 21.4744 18.3333 21.4744Z" fill="#31439E"/>
<path d="M18.3334 23.9744C15.5719 23.9744 13.3334 26.2129 13.3334 28.9744V31.4744C13.3334 31.9346 13.7065 32.3077 14.1667 32.3077C14.6269 32.3077 15 31.9346 15 31.4744V28.9744C15 27.1334 16.4924 25.641 18.3334 25.641C20.1743 25.641 21.6667 27.1334 21.6667 28.9744V31.4744C21.6667 31.9346 22.0398 32.3077 22.5 32.3077C22.9602 32.3077 23.3334 31.9346 23.3334 31.4744V28.9744C23.3334 26.2129 21.0948 23.9744 18.3334 23.9744Z" fill="#31439E"/>
<path d="M31.6667 16.4744C29.8258 16.4744 28.3334 17.9668 28.3334 19.8077C28.3334 21.6486 29.8258 23.141 31.6667 23.141C33.5076 23.141 35 21.6486 35 19.8077C35 17.9668 33.5076 16.4744 31.6667 16.4744ZM31.6667 21.4744C30.7462 21.4744 30 20.7282 30 19.8077C30 18.8872 30.7462 18.141 31.6667 18.141C32.5872 18.141 33.3334 18.8872 33.3334 19.8077C33.3334 20.7282 32.5872 21.4744 31.6667 21.4744Z" fill="#31439E"/>
<path d="M31.6666 23.9744C28.9052 23.9744 26.6666 26.2129 26.6666 28.9744V31.4744C26.6666 31.9346 27.0398 32.3077 27.5 32.3077C27.9602 32.3077 28.3333 31.9346 28.3333 31.4744V28.9744C28.3333 27.1334 29.8257 25.641 31.6666 25.641C33.5076 25.641 35 27.1334 35 28.9744V31.4744C35 31.9346 35.3731 32.3077 35.8333 32.3077C36.2935 32.3077 36.6666 31.9346 36.6666 31.4744V28.9744C36.6666 26.2129 34.4281 23.9744 31.6666 23.9744Z" fill="#31439E"/>
<path d="M45 16.4744C43.159 16.4744 41.6666 17.9668 41.6666 19.8077C41.6666 21.6486 43.159 23.141 45 23.141C46.8409 23.141 48.3333 21.6486 48.3333 19.8077C48.3333 17.9668 46.8409 16.4744 45 16.4744ZM45 21.4744C44.0794 21.4744 43.3333 20.7282 43.3333 19.8077C43.3333 18.8872 44.0794 18.141 45 18.141C45.9205 18.141 46.6666 18.8872 46.6666 19.8077C46.6666 20.7282 45.9205 21.4744 45 21.4744Z" fill="#31439E"/>
<path d="M45 23.9744C42.2397 23.9771 40.0027 26.2141 40 28.9744V31.4744C40 31.9346 40.3731 32.3077 40.8333 32.3077C41.2935 32.3077 41.6667 31.9346 41.6667 31.4744V28.9744C41.6667 27.1334 43.1591 25.641 45 25.641C46.8409 25.641 48.3333 27.1334 48.3333 28.9744V31.4744C48.3333 31.9346 48.7065 32.3077 49.1667 32.3077C49.6269 32.3077 50 31.9346 50 31.4744V28.9744C49.9973 26.2141 47.7603 23.9771 45 23.9744Z" fill="#31439E"/>
<path d="M4.99996 0.641022C3.15902 0.641022 1.66663 2.13342 1.66663 3.97435C1.66663 5.81529 3.15902 7.30769 4.99996 7.30769C6.8409 7.30769 8.33329 5.81529 8.33329 3.97435C8.33329 2.13342 6.8409 0.641022 4.99996 0.641022ZM4.99996 5.64102C4.07944 5.64102 3.33329 4.89488 3.33329 3.97435C3.33329 3.05383 4.07944 2.30769 4.99996 2.30769C5.92048 2.30769 6.66663 3.05383 6.66663 3.97435C6.66663 4.89488 5.92048 5.64102 4.99996 5.64102Z" fill="#31439E"/>
<path d="M5 8.14102C2.23854 8.14102 0 10.3796 0 13.141V15.641C0 16.1012 0.373125 16.4744 0.833333 16.4744C1.29354 16.4744 1.66667 16.1012 1.66667 15.641V13.141C1.66667 11.3001 3.15906 9.80769 5 9.80769C6.84094 9.80769 8.33333 11.3001 8.33333 13.141V15.641C8.33333 16.1012 8.70646 16.4744 9.16667 16.4744C9.62687 16.4744 10 16.1012 10 15.641V13.141C10 10.3796 7.76146 8.14102 5 8.14102Z" fill="#31439E"/>
<path d="M18.3333 0.641022C16.4924 0.641022 15 2.13342 15 3.97435C15 5.81529 16.4924 7.30769 18.3333 7.30769C20.1743 7.30769 21.6667 5.81529 21.6667 3.97435C21.6667 2.13342 20.1743 0.641022 18.3333 0.641022ZM18.3333 5.64102C17.4128 5.64102 16.6667 4.89488 16.6667 3.97435C16.6667 3.05383 17.4128 2.30769 18.3333 2.30769C19.2539 2.30769 20 3.05383 20 3.97435C20 4.89488 19.2539 5.64102 18.3333 5.64102Z" fill="#31439E"/>
<path d="M18.3334 8.14102C15.5719 8.14102 13.3334 10.3796 13.3334 13.141V15.641C13.3334 16.1012 13.7065 16.4744 14.1667 16.4744C14.6269 16.4744 15 16.1012 15 15.641V13.141C15 11.3001 16.4924 9.80769 18.3334 9.80769C20.1743 9.80769 21.6667 11.3001 21.6667 13.141V15.641C21.6667 16.1012 22.0398 16.4744 22.5 16.4744C22.9602 16.4744 23.3334 16.1012 23.3334 15.641V13.141C23.3334 10.3796 21.0948 8.14102 18.3334 8.14102Z" fill="#31439E"/>
<path d="M31.6667 0.641022C29.8258 0.641022 28.3334 2.13342 28.3334 3.97435C28.3334 5.81529 29.8258 7.30769 31.6667 7.30769C33.5076 7.30769 35 5.81529 35 3.97435C35 2.13342 33.5076 0.641022 31.6667 0.641022ZM31.6667 5.64102C30.7462 5.64102 30 4.89488 30 3.97435C30 3.05383 30.7462 2.30769 31.6667 2.30769C32.5872 2.30769 33.3334 3.05383 33.3334 3.97435C33.3334 4.89488 32.5872 5.64102 31.6667 5.64102Z" fill="#31439E"/>
<path d="M31.6666 8.14102C28.9052 8.14102 26.6666 10.3796 26.6666 13.141V15.641C26.6666 16.1012 27.0398 16.4744 27.5 16.4744C27.9602 16.4744 28.3333 16.1012 28.3333 15.641V13.141C28.3333 11.3001 29.8257 9.80769 31.6666 9.80769C33.5076 9.80769 35 11.3001 35 13.141V15.641C35 16.1012 35.3731 16.4744 35.8333 16.4744C36.2935 16.4744 36.6666 16.1012 36.6666 15.641V13.141C36.6666 10.3796 34.4281 8.14102 31.6666 8.14102Z" fill="#31439E"/>
<path d="M45 0.641022C43.159 0.641022 41.6666 2.13342 41.6666 3.97435C41.6666 5.81529 43.159 7.30769 45 7.30769C46.8409 7.30769 48.3333 5.81529 48.3333 3.97435C48.3333 2.13342 46.8409 0.641022 45 0.641022ZM45 5.64102C44.0794 5.64102 43.3333 4.89488 43.3333 3.97435C43.3333 3.05383 44.0794 2.30769 45 2.30769C45.9205 2.30769 46.6666 3.05383 46.6666 3.97435C46.6666 4.89488 45.9205 5.64102 45 5.64102Z" fill="#31439E"/>
<path d="M45 8.14102C42.2397 8.14373 40.0027 10.3807 40 13.141V15.641C40 16.1012 40.3731 16.4744 40.8333 16.4744C41.2935 16.4744 41.6667 16.1012 41.6667 15.641V13.141C41.6667 11.3001 43.1591 9.80769 45 9.80769C46.8409 9.80769 48.3333 11.3001 48.3333 13.141V15.641C48.3333 16.1012 48.7065 16.4744 49.1667 16.4744C49.6269 16.4744 50 16.1012 50 15.641V13.141C49.9973 10.3807 47.7603 8.14373 45 8.14102Z" fill="#31439E"/>
</g>
<defs>
<clipPath id="clip0">
<rect width="50" height="32.3077" fill="white"/>
</clipPath>
</defs>
</svg>
