<svg width="301" height="72" viewBox="0 0 301 72" fill="none" xmlns="http://www.w3.org/2000/svg">
	<rect y="0.847656" width="301" height="71" rx="4" fill="url(#paint0_linear_0_1)"/>
	<path d="M108.464 40.3917C107.333 41.5117 105.957 42.0717 104.336 42.0717C102.715 42.0717 101.339 41.5117 100.208 40.3917C99.088 39.261 98.528 37.8797 98.528 36.2477C98.528 34.6157 99.088 33.2397 100.208 32.1197C101.339 30.989 102.715 30.4237 104.336 30.4237C105.957 30.4237 107.333 30.989 108.464 32.1197C109.595 33.2397 110.16 34.6157 110.16 36.2477C110.16 37.8797 109.595 39.261 108.464 40.3917ZM101.76 38.8877C102.453 39.5703 103.312 39.9117 104.336 39.9117C105.36 39.9117 106.219 39.5703 106.912 38.8877C107.605 38.1943 107.952 37.3143 107.952 36.2477C107.952 35.181 107.605 34.301 106.912 33.6077C106.219 32.9143 105.36 32.5677 104.336 32.5677C103.312 32.5677 102.453 32.9143 101.76 33.6077C101.067 34.301 100.72 35.181 100.72 36.2477C100.72 37.3143 101.067 38.1943 101.76 38.8877ZM124.464 41.8477H121.92L117.92 36.5997V41.8477H115.712V30.6477H117.92V35.5917L121.76 30.6477H124.304L120.16 36.0877L124.464 41.8477ZM134.027 40.3917C132.896 41.5117 131.52 42.0717 129.899 42.0717C128.277 42.0717 126.901 41.5117 125.771 40.3917C124.651 39.261 124.09 37.8797 124.09 36.2477C124.09 34.6157 124.651 33.2397 125.771 32.1197C126.901 30.989 128.277 30.4237 129.899 30.4237C131.52 30.4237 132.896 30.989 134.027 32.1197C135.157 33.2397 135.723 34.6157 135.723 36.2477C135.723 37.8797 135.157 39.261 134.027 40.3917ZM127.323 38.8877C128.016 39.5703 128.875 39.9117 129.899 39.9117C130.923 39.9117 131.781 39.5703 132.475 38.8877C133.168 38.1943 133.515 37.3143 133.515 36.2477C133.515 35.181 133.168 34.301 132.475 33.6077C131.781 32.9143 130.923 32.5677 129.899 32.5677C128.875 32.5677 128.016 32.9143 127.323 33.6077C126.629 34.301 126.283 35.181 126.283 36.2477C126.283 37.3143 126.629 38.1943 127.323 38.8877ZM148.234 30.6477V41.8477H146.042V34.5837L142.89 39.7837H142.634L139.482 34.5997V41.8477H137.274V30.6477H139.546L142.762 35.9437L145.962 30.6477H148.234ZM158.689 30.6477V41.8477H156.481V32.7597H152.529V41.8477H150.321V30.6477H158.689ZM167.974 41.8477L167.302 39.8317H162.838L162.166 41.8477H159.782L163.702 30.6477H166.438L170.374 41.8477H167.974ZM163.542 37.7677H166.614L165.078 33.1917L163.542 37.7677ZM177.83 30.6477H180.022V41.8477H177.83V37.2077H173.67V41.8477H171.462V30.6477H173.67V35.0957H177.83V30.6477ZM188.583 41.8477V35.0157L183.783 41.8477H182.103V30.6477H184.311V37.4957L189.111 30.6477H190.791V41.8477H188.583ZM199.348 41.8477V35.0157L194.548 41.8477H192.868V30.6477H195.076V37.4957L199.876 30.6477H201.556V41.8477H199.348Z" fill="white"/>
	<defs>
		<linearGradient id="paint0_linear_0_1" x1="-57" y1="-39.0119" x2="304.627" y2="10.456" gradientUnits="userSpaceOnUse">
			<stop stop-color="#566DBD"/>
			<stop offset="1" stop-color="#3DAFFF"/>
		</linearGradient>
	</defs>
</svg>
