<svg width="523" height="683" viewBox="0 0 523 683" fill="none" xmlns="http://www.w3.org/2000/svg">
<path d="M259.88 682.86C262.76 682.86 33.94 576.46 2.83997 426.03L0.22998 0.859863H522.43V426.03C497.7 574.49 259.88 682.86 262.76 682.86" fill="#135685"/>
<path d="M200.22 217.61C200.22 220.42 199.17 222.81 197.07 224.77C194.97 226.73 192.4 227.71 189.37 227.71C186.96 227.71 184.84 227.03 182.99 225.67C181.14 224.31 179.83 222.5 179.06 220.24L181.05 219.32C181.58 221.06 182.54 222.52 183.94 223.67C185.5 224.98 187.32 225.63 189.38 225.63C191.76 225.63 193.79 224.83 195.48 223.24C197.17 221.65 198.02 219.74 198.02 217.51C198.02 215.98 197.42 214.66 196.22 213.56C195.11 212.55 192.92 211.26 189.65 209.67C186.39 208.08 184.23 206.81 183.2 205.85C181.8 204.54 181.1 202.85 181.1 200.77C181.1 198.17 181.94 196.05 183.62 194.41C185.3 192.77 187.47 191.95 190.13 191.95C193.78 191.95 196.58 193.58 198.52 196.85L196.96 198.16C195.38 195.41 193.05 194.03 189.97 194.03C188.12 194.03 186.55 194.67 185.25 195.96C183.96 197.25 183.31 198.81 183.31 200.64C183.31 202.1 183.81 203.31 184.8 204.27C185.79 205.23 187.79 206.41 190.8 207.81C194.59 209.57 197.11 211.09 198.36 212.38C199.61 213.67 200.22 215.41 200.22 217.61Z" fill="white"/>
<path d="M189.37 229.51C186.58 229.51 184.08 228.71 181.92 227.12C179.78 225.54 178.24 223.43 177.36 220.83L176.84 219.3L182.17 216.82L182.77 218.8C183.2 220.21 183.95 221.36 185.08 222.29C186.33 223.33 187.73 223.84 189.37 223.84C191.29 223.84 192.88 223.22 194.24 221.94C195.57 220.69 196.21 219.24 196.21 217.52C196.21 216.49 195.82 215.66 194.99 214.9C194.32 214.3 192.71 213.17 188.85 211.3C185.39 209.62 183.14 208.27 181.96 207.18C180.18 205.52 179.29 203.37 179.29 200.79C179.29 197.7 180.32 195.13 182.35 193.14C184.37 191.17 186.98 190.17 190.11 190.17C194.42 190.17 197.77 192.11 200.05 195.95L200.83 197.26L196.46 200.93L195.39 199.07C194.13 196.87 192.4 195.84 189.96 195.84C188.59 195.84 187.46 196.3 186.51 197.25C185.56 198.19 185.1 199.31 185.1 200.66C185.1 201.63 185.4 202.38 186.04 203C186.62 203.56 188.05 204.58 191.55 206.21C195.58 208.08 198.22 209.7 199.64 211.16C201.22 212.79 202.02 214.97 202.02 217.63C202.02 220.95 200.77 223.8 198.3 226.11C195.87 228.36 192.86 229.51 189.37 229.51Z" fill="white"/>
<path d="M231.5 194.51H222.2V227.27H220V194.51H210.7V192.43H231.5V194.51Z" fill="white"/>
<path d="M224 229.06H218.2V196.3H208.9V190.63H233.3V196.3H224V229.06Z" fill="white"/>
<path d="M268.06 216.03C268.06 219.63 267 222.47 264.88 224.57C262.76 226.67 259.89 227.72 256.28 227.72C252.65 227.72 249.78 226.67 247.65 224.57C245.52 222.47 244.46 219.63 244.46 216.03V192.43H246.67V215.53C246.67 218.76 247.52 221.26 249.21 223.01C250.9 224.76 253.29 225.64 256.37 225.64C259.41 225.64 261.75 224.76 263.39 223.01C265.03 221.26 265.85 218.77 265.85 215.53V192.43H268.06V216.03Z" fill="white"/>
<path d="M256.29 229.51C252.19 229.51 248.86 228.28 246.4 225.85C243.93 223.41 242.67 220.11 242.67 216.03V190.64H248.48V215.54C248.48 218.32 249.14 220.35 250.51 221.77C251.86 223.17 253.78 223.85 256.38 223.85C258.92 223.85 260.79 223.18 262.08 221.79C263.39 220.39 264.06 218.28 264.06 215.54V190.64H269.86V216.03C269.86 220.11 268.61 223.41 266.15 225.85C263.69 228.28 260.37 229.51 256.29 229.51Z" fill="white"/>
<path d="M309.27 209.85C309.27 215.07 307.56 219.28 304.15 222.47C300.74 225.67 296.28 227.26 290.77 227.26H284.5V192.43H291.469C296.669 192.43 300.94 194.06 304.27 197.31C307.61 200.57 309.27 204.75 309.27 209.85ZM307.039 209.85C307.039 205.38 305.559 201.71 302.599 198.83C299.639 195.95 295.84 194.51 291.21 194.51H286.719V225.19H291.03C295.65 225.19 299.47 223.74 302.5 220.84C305.53 217.93 307.039 214.27 307.039 209.85Z" fill="white"/>
<path d="M290.77 229.06H282.7V190.63H291.47C297.14 190.63 301.87 192.45 305.53 196.03C309.21 199.62 311.07 204.27 311.07 209.85C311.07 215.56 309.15 220.25 305.38 223.78C301.64 227.29 296.72 229.06 290.77 229.06ZM288.51 223.39H291.02C295.19 223.39 298.54 222.13 301.25 219.53C303.94 216.96 305.24 213.79 305.24 209.84C305.24 205.84 303.97 202.66 301.34 200.11C298.7 197.55 295.39 196.3 291.2 196.3H288.51V223.39Z" fill="white"/>
<path d="M342.7 192.43L331.1 212.39V227.26H328.87V212.4L317.27 192.43H319.72L329.98 210.1L340.24 192.43H342.7Z" fill="white"/>
<path d="M332.9 229.06H327.07V212.88L314.15 190.63H320.76L329.99 206.52L339.21 190.63H345.82L332.9 212.88V229.06Z" fill="white"/>
<path d="M213.24 119.95C213.24 134.5 207.43 146.71 195.81 156.59C184.99 165.77 172.6 170.37 158.65 170.37C142.12 170.37 127.97 164.6 116.2 153.06C104.43 141.52 98.5498 127.63 98.5498 111.39C98.5498 95.1504 104.4 81.2503 116.09 69.6903C127.78 58.1203 141.87 52.3403 158.35 52.3403C168.63 52.3403 178.33 54.9203 187.47 60.0903C195.91 64.9103 202.86 71.2903 208.32 79.2303L202.36 83.9203C191.04 67.4403 176.25 59.2003 157.97 59.2003C144.02 59.2003 131.84 64.4103 121.44 74.8403C111.04 85.2703 105.84 97.4503 105.84 111.41C105.84 125.51 110.95 137.72 121.18 148.05C131.41 158.38 143.52 163.54 157.52 163.54C169.78 163.54 180.73 159.62 190.36 151.77C200.73 143.28 205.92 132.83 205.92 120.42H164.74V113.57H213.22V119.95H213.24Z" fill="white"/>
<path d="M158.65 175.38C140.83 175.38 125.37 169.07 112.69 156.63C99.98 144.16 93.54 128.94 93.54 111.39C93.54 93.8403 99.94 78.6103 112.56 66.1203C125.17 53.6503 140.57 47.3203 158.35 47.3203C169.45 47.3203 180.08 50.1403 189.93 55.7103C199.01 60.8903 206.58 67.8403 212.45 76.3703L215.11 80.2403L201.26 91.1503L198.23 86.7403C187.81 71.5703 174.64 64.1903 157.98 64.1903C145.3 64.1903 134.51 68.8203 125 78.3603C115.49 87.9003 110.86 98.7003 110.86 111.39C110.86 124.24 115.4 135.06 124.75 144.5C134.08 153.92 144.81 158.5 157.53 158.5C168.71 158.5 178.41 155.02 187.21 147.86C194.99 141.5 199.4 134.11 200.59 125.41H159.74V108.53H218.25V119.95C218.25 135.97 211.79 149.58 199.06 160.41C187.35 170.35 173.76 175.38 158.65 175.38Z" fill="white"/>
<path d="M303.77 137C303.77 146.28 300.31 154.16 293.38 160.64C286.45 167.12 277.98 170.36 267.95 170.36C260.01 170.36 252.98 168.11 246.88 163.62C240.77 159.13 236.45 153.16 233.92 145.71L240.47 142.66C242.21 148.42 245.39 153.21 250 157.03C255.16 161.35 261.14 163.51 267.95 163.51C275.79 163.51 282.51 160.88 288.1 155.62C293.68 150.36 296.48 144.05 296.48 136.71C296.48 131.65 294.49 127.3 290.52 123.68C286.84 120.35 279.62 116.07 268.85 110.83C258.08 105.59 250.98 101.39 247.55 98.2101C242.93 93.8901 240.62 88.3101 240.62 81.4501C240.62 72.8601 243.39 65.8601 248.92 60.4501C254.46 55.0401 261.62 52.3301 270.4 52.3301C282.46 52.3301 291.7 57.7201 298.1 68.4901L292.96 72.8101C287.75 63.7201 280.05 59.1801 269.87 59.1801C263.76 59.1801 258.58 61.3001 254.31 65.5501C250.04 69.7901 247.9 74.9501 247.9 81.0001C247.9 85.8201 249.54 89.8101 252.81 92.9901C256.09 96.1701 262.69 100.06 272.62 104.68C285.13 110.49 293.45 115.52 297.57 119.76C301.71 124.01 303.77 129.76 303.77 137Z" fill="white"/>
<path d="M267.95 175.38C258.95 175.38 250.86 172.78 243.9 167.67C236.98 162.58 232.02 155.74 229.17 147.34L227.72 143.08L243.6 135.68L245.27 141.22C246.73 146.06 249.32 149.97 253.2 153.18C257.49 156.77 262.31 158.51 267.95 158.51C274.53 158.51 279.99 156.37 284.66 151.98C289.24 147.67 291.46 142.68 291.46 136.71C291.46 133.04 290.09 130.07 287.14 127.38C284.88 125.34 279.48 121.58 266.66 115.34C255.34 109.84 247.97 105.43 244.14 101.88C238.48 96.5801 235.61 89.7101 235.61 81.4501C235.61 71.5001 238.91 63.23 245.42 56.86C251.9 50.53 260.31 47.3101 270.41 47.3101C284.31 47.3101 295.08 53.5701 302.42 65.9201L304.6 69.58L291.61 80.5001L288.63 75.3C284.28 67.72 278.33 64.1901 269.89 64.1901C265.12 64.1901 261.18 65.8001 257.86 69.1001C254.54 72.3901 252.93 76.2801 252.93 81.0001C252.93 84.4801 254.01 87.1501 256.32 89.3901C258.29 91.3001 263.08 94.7101 274.75 100.13C287.94 106.26 296.59 111.53 301.18 116.26C306.22 121.46 308.78 128.43 308.78 136.99C308.78 147.67 304.75 156.86 296.8 164.29C288.96 171.66 279.25 175.38 267.95 175.38Z" fill="white"/>
<path d="M424.1 77.3501C413.72 65.2401 400.69 59.1801 385 59.1801C371.2 59.1801 359.11 64.3901 348.73 74.8201C338.35 85.2501 333.17 97.4301 333.17 111.39C333.17 125.19 338.41 137.33 348.88 147.8C359.35 158.28 371.49 163.51 385.29 163.51C400.09 163.51 412.97 157.73 423.94 146.16V156.06C412.52 165.59 400.51 170.36 387.9 170.36C370.82 170.36 356.21 164.59 344.07 153.05C331.93 141.51 325.86 127.62 325.86 111.38C325.86 95.4401 331.8 81.6201 343.69 69.9001C355.58 58.1801 369.62 52.3301 385.8 52.3301C400.74 52.3301 413.5 57.2701 424.08 67.1501V77.3501H424.1Z" fill="white"/>
<path d="M387.91 175.38C369.58 175.38 353.67 169.09 340.63 156.69C327.51 144.22 320.86 128.98 320.86 111.39C320.86 94.1403 327.36 78.9803 340.19 66.3403C353 53.7203 368.35 47.3203 385.82 47.3203C402 47.3203 416.03 52.7603 427.52 63.4903L429.11 64.9803V90.9203L420.29 80.6203C410.83 69.5703 399.28 64.2003 385 64.2003C372.47 64.2003 361.77 68.8303 352.29 78.3603C342.8 87.9003 338.19 98.7003 338.19 111.39C338.19 123.92 342.85 134.68 352.43 144.26C362.01 153.85 372.77 158.51 385.3 158.51C398.78 158.51 410.24 153.35 420.31 142.72L428.96 133.6V158.42L427.16 159.92C414.87 170.18 401.67 175.38 387.91 175.38Z" fill="white"/>
<path d="M103.23 425.06C108.582 425.06 112.92 420.721 112.92 415.37C112.92 410.018 108.582 405.68 103.23 405.68C97.8784 405.68 93.54 410.018 93.54 415.37C93.54 420.721 97.8784 425.06 103.23 425.06Z" fill="white"/>
<path d="M419.43 425.06C424.782 425.06 429.12 420.721 429.12 415.37C429.12 410.018 424.782 405.68 419.43 405.68C414.079 405.68 409.74 410.018 409.74 415.37C409.74 420.721 414.079 425.06 419.43 425.06Z" fill="white"/>
<path d="M356.45 488.98C355.72 487.97 354.92 486.99 354.01 486.07C353 485.07 351.93 484.2 350.81 483.41L290.57 424C291.53 423.6 292.44 423.01 293.23 422.22C296.43 419.02 296.43 413.83 293.23 410.63L289.13 406.53L292.37 403.3C294.99 400.68 295.46 396.72 293.78 393.61C305.1 390.65 319.94 385.91 325.59 380.25C330.62 375.23 333.18 368.66 333.29 362.05C339.72 365.89 346.66 368.84 353.95 370.79C354.77 370.99 355.59 371.2 356.4 371.4C381.85 377.43 405.05 354.13 399.12 328.79C398.92 327.87 398.71 327.05 398.51 326.23C396.26 318.06 392.79 310.39 388.19 303.34C389.72 302.52 390.94 301.6 391.87 300.68C399.33 293.33 399.33 281.16 391.87 273.81C384.41 266.35 372.35 266.35 364.99 273.81C363.97 274.83 363.05 276.26 362.13 277.9C355.59 273.81 348.43 270.74 340.97 268.7C340.05 268.49 339.24 268.29 338.42 268.08C312.97 262.05 289.78 285.36 295.7 310.8C295.91 311.62 296.11 312.44 296.42 313.25C298.5 321.02 301.75 328.46 306.01 335.3C299.58 335.52 293.22 338.08 288.32 342.98C282.69 348.6 277.97 363.3 275.01 374.59C271.83 372.5 267.51 372.85 264.71 375.65L261.48 378.88L257.51 374.91C254.71 372.11 250.39 371.76 247.21 373.85C244.24 362.56 239.52 347.86 233.9 342.24C228.32 336.66 220.84 334.12 213.52 334.6C218.55 327.15 222.35 318.91 224.69 310.21C224.91 309.38 225.12 308.55 225.32 307.72C231.31 282.31 208.05 259.04 182.63 265.03C181.8 265.22 180.97 265.43 180.14 265.65C171.82 267.89 163.92 271.46 156.74 276.17C156.72 276.14 156.71 276.11 156.69 276.08C155.87 274.55 154.95 273.32 154.03 272.4C146.67 264.94 134.51 264.94 127.15 272.4C119.69 279.86 119.69 291.92 127.15 299.28C128.18 300.3 129.61 301.22 131.24 302.14C131.34 302.19 131.44 302.24 131.54 302.29C127.61 308.8 124.58 315.83 122.6 323.19C122.37 324.02 122.17 324.85 121.97 325.69C115.99 351.1 139.25 374.36 164.67 368.37C165.5 368.18 166.33 367.97 167.15 367.75C174.89 365.66 182.28 362.43 189.06 358.2C188.29 365.81 190.81 373.7 196.63 379.52C202.28 385.17 217.12 389.91 228.44 392.87C226.76 395.98 227.23 399.94 229.85 402.56L233.82 406.53L228.99 411.37C225.79 414.57 225.79 419.76 228.99 422.96C229.77 423.75 230.68 424.34 231.65 424.74L172.64 482.92C171.52 483.72 170.43 484.59 169.43 485.6C168.51 486.52 167.71 487.5 166.97 488.52L133.88 521.14C130.68 524.34 130.68 529.53 133.88 532.73C137.08 535.93 142.27 535.93 145.47 532.73L164.77 513.71C165.93 516.08 167.46 518.3 169.43 520.27C171.44 522.28 173.73 523.85 176.17 525.01L168 533.19C164.8 536.39 164.8 541.58 168 544.78L191.13 567.91C194.33 571.11 199.52 571.11 202.72 567.91C205.92 564.71 205.92 559.52 202.72 556.32L185.38 538.98L198.3 526.06L215.64 543.4C218.84 546.6 224.03 546.6 227.23 543.4C230.43 540.2 230.43 535.01 227.23 531.81L209.89 514.47L222.81 501.55L240.15 518.89C243.35 522.09 248.54 522.09 251.74 518.89C254.94 515.69 254.94 510.5 251.74 507.3L228.61 484.17C225.41 480.97 220.22 480.97 217.02 484.17L208.84 492.34C207.68 489.9 206.11 487.61 204.1 485.6C202.22 483.72 200.1 482.22 197.85 481.08L243.25 436.32C243.65 437.3 244.25 438.23 245.05 439.03C248.25 442.23 253.44 442.23 256.64 439.03L261.48 434.19L265.58 438.29C268.78 441.49 273.97 441.49 277.17 438.29C277.97 437.49 278.56 436.57 278.96 435.58L325.58 481.56C323.33 482.7 321.22 484.19 319.34 486.07C317.32 488.09 315.76 490.38 314.59 492.82L306.42 484.64C303.22 481.44 298.03 481.44 294.83 484.64L271.69 507.78C268.49 510.98 268.49 516.17 271.69 519.37C274.89 522.57 280.08 522.57 283.28 519.37L300.62 502.03L313.54 514.95L296.2 532.29C293 535.49 293 540.68 296.2 543.88C299.4 547.08 304.59 547.08 307.79 543.88L325.13 526.54L338.05 539.46L320.71 556.8C317.51 560 317.51 565.19 320.71 568.39C323.91 571.59 329.1 571.59 332.3 568.39L355.44 545.25C358.64 542.05 358.64 536.86 355.44 533.66L347.26 525.49C349.7 524.32 351.99 522.76 354.01 520.74C355.97 518.78 357.51 516.55 358.67 514.18L377.96 533.21C381.16 536.41 386.35 536.41 389.55 533.21C392.75 530.01 392.75 524.82 389.55 521.62L356.45 488.98ZM329.97 335.67C327.17 332.86 327.17 328.3 329.97 325.49C331.48 323.98 338.29 321.46 346.39 319.26C344.18 327.35 341.66 334.16 340.16 335.67C337.35 338.48 332.78 338.48 329.97 335.67ZM373.27 282.19C376.13 279.32 380.73 279.32 383.48 282.19C386.35 284.95 386.35 289.54 383.48 292.3C383.08 292.71 382.26 293.22 381.03 293.84C379.91 292.51 378.68 291.18 377.35 289.85C375.52 288.01 373.67 286.38 371.73 284.84C372.35 283.52 372.86 282.6 373.27 282.19ZM337.4 283.72C344.14 285.36 350.68 288.22 356.61 292C360.29 294.35 363.66 297.11 366.83 300.27C369.49 302.93 371.94 305.79 373.98 308.86C378.48 315.19 381.65 322.25 383.48 329.71C387.27 345.44 373.17 359.65 357.43 355.76C351.48 354.32 345.75 351.99 340.43 348.84C343.39 347.98 346.19 346.38 348.53 344.04C354.44 338.14 358.96 318.37 360.21 312.45C360.62 310.49 360.02 308.46 358.61 307.04C357.19 305.63 355.16 305.02 353.2 305.43C347.28 306.68 327.51 311.21 321.6 317.12C319.44 319.27 317.93 321.83 317.03 324.55C314.5 319.87 312.59 314.91 311.34 309.78C307.56 294.04 321.66 279.94 337.4 283.72ZM299.91 354.57C303.79 350.69 310.12 350.69 314 354.57C317.89 358.46 317.89 364.78 314 368.66C311.92 370.75 302.48 374.24 291.28 377.29C294.33 366.09 297.82 356.66 299.91 354.57ZM135.53 280.78C138.29 277.92 142.89 277.92 145.65 280.78C146.06 281.19 146.57 282.01 147.18 283.23C147.21 283.28 147.24 283.35 147.26 283.41C146.05 284.49 144.85 285.6 143.7 286.76C141.83 288.63 140.05 290.58 138.38 292.62C138.32 292.59 138.25 292.56 138.19 292.53C136.86 291.92 135.94 291.41 135.53 291C132.67 288.14 132.67 283.54 135.53 280.78ZM189.56 334.14C186.75 336.95 182.19 336.95 179.38 334.14C177.87 332.64 175.35 325.82 173.15 317.73C181.24 319.94 188.05 322.46 189.56 323.96C192.37 326.77 192.37 331.34 189.56 334.14ZM197.93 315.59C192.03 309.68 172.26 305.15 166.34 303.91C164.38 303.49 162.34 304.1 160.93 305.51C159.51 306.93 158.91 308.96 159.32 310.92C160.57 316.84 165.1 336.61 171.01 342.52C173.16 344.67 175.7 346.18 178.41 347.08C173.73 349.6 168.78 351.5 163.66 352.74C147.93 356.55 133.8 342.43 137.6 326.69C140.25 315.75 145.88 305.57 154.2 297.26C162.52 288.94 172.69 283.3 183.64 280.66C199.37 276.86 213.49 290.98 209.68 306.72C208.24 312.67 205.91 318.4 202.74 323.73C201.88 320.75 200.28 317.94 197.93 315.59ZM208.22 367.92C204.33 364.04 204.33 357.72 208.22 353.83C212.1 349.95 218.42 349.95 222.31 353.83C224.4 355.92 227.88 365.35 230.94 376.55C219.73 373.5 210.3 370.01 208.22 367.92ZM192.51 508.68C189.34 511.84 184.19 511.84 181.02 508.68C178.42 506.07 177.96 502.13 179.63 499.05L182.99 495.74C186.06 494.13 189.94 494.62 192.51 497.19C195.67 500.36 195.67 505.51 192.51 508.68ZM275.36 415.33C277.31 417.28 277.31 420.44 275.36 422.39C273.41 424.34 270.25 424.34 268.3 422.39L260.95 415.04L253.59 422.39C251.64 424.34 248.48 424.34 246.53 422.39C244.58 420.44 244.58 417.28 246.53 415.33L253.89 407.98L246.53 400.62C244.58 398.67 244.58 395.51 246.53 393.56C248.48 391.61 251.64 391.61 253.59 393.56L260.95 400.92L268.3 393.56C270.25 391.61 273.41 391.61 275.36 393.56C277.31 395.51 277.31 398.67 275.36 400.62L268.01 407.98L275.36 415.33ZM342.41 509.15C339.25 512.32 334.09 512.32 330.93 509.15C327.76 505.98 327.76 500.83 330.93 497.67C333.5 495.09 337.38 494.61 340.45 496.22L343.8 499.52C345.48 502.6 345.02 506.55 342.41 509.15Z" fill="white"/>
</svg>
