<svg width="50" height="50" viewBox="0 0 50 50" fill="none" xmlns="http://www.w3.org/2000/svg">
<path d="M27.5001 11.6667C27.0401 11.6667 26.6667 12.04 26.6667 12.5V17.5C26.6667 17.96 27.0401 18.3333 27.5001 18.3333H30.8334C31.2933 18.3333 31.6667 17.96 31.6667 17.5V12.5C31.6667 12.04 31.2933 11.6667 30.8334 11.6667H27.5001ZM30.0001 16.6667H28.3334V13.3334H30.0001V16.6667Z" fill="#31439E"/>
<path d="M5.83333 21.6667C6.29329 21.6667 6.66663 21.2934 6.66663 20.8334V8.3334H43.3333V20.8334C43.3333 21.2934 43.7067 21.6667 44.1666 21.6667C44.6266 21.6667 44.9999 21.2934 44.9999 20.8334V7.5C44.9999 7.04004 44.6266 6.6667 44.1666 6.6667H25V1.6667H29.1667V3.3334H26.6667C26.2068 3.3334 25.8334 3.70674 25.8334 4.1667C25.8334 4.62666 26.2068 5 26.6667 5H30C30.46 5 30.8333 4.62666 30.8333 4.1667V0.833301C30.8333 0.37334 30.46 0 30 0H24.1667C23.7068 0 23.3334 0.37334 23.3334 0.833301V6.6666H5.83342C5.37346 6.6666 5.00012 7.03994 5.00012 7.4999V20.8332C5.00002 21.2934 5.37336 21.6667 5.83333 21.6667Z" fill="#31439E"/>
<path d="M35.8333 11.6667C35.3733 11.6667 35 12.04 35 12.5V17.5C35 17.96 35.3733 18.3333 35.8333 18.3333H39.1666C39.6266 18.3333 39.9999 17.96 39.9999 17.5V12.5C39.9999 12.04 39.6266 11.6667 39.1666 11.6667H35.8333ZM38.3333 16.6667H36.6666V13.3334H38.3333V16.6667Z" fill="#31439E"/>
<path d="M49.1667 48.3333H0.833301C0.37334 48.3333 0 48.7067 0 49.1666C0 49.6266 0.37334 50 0.833301 50H49.1666C49.6266 50 49.9999 49.6267 49.9999 49.1667C49.9999 48.7068 49.6267 48.3333 49.1667 48.3333Z" fill="#31439E"/>
<path d="M30.8333 43.3333C31.2932 43.3333 31.6666 42.96 31.6666 42.5V30.8333C31.6666 30.6125 31.5791 30.4 31.4224 30.2441C31.3441 30.1658 29.4599 28.3333 25 28.3333C20.54 28.3333 18.6558 30.1658 18.5775 30.2441C18.4209 30.4 18.3334 30.6125 18.3334 30.8333V42.5C18.3334 42.96 18.7067 43.3333 19.1667 43.3333C19.6266 43.3333 20 42.96 20 42.5V31.2366C20.5099 30.8866 21.8308 30.1741 24.1667 30.0308V38.3333C23.7067 38.3333 23.3334 38.7066 23.3334 39.1666C23.3334 39.6266 23.7067 39.9999 24.1667 39.9999V42.4999C24.1667 42.9599 24.54 43.3332 25 43.3332C25.4599 43.3332 25.8333 42.9599 25.8333 42.4999V39.9999C26.2932 39.9999 26.6666 39.6266 26.6666 39.1666C26.6666 38.7066 26.2932 38.3333 25.8333 38.3333V30.0308C28.1741 30.1749 29.4949 30.8891 30 31.2357V42.5C30 42.96 30.3733 43.3333 30.8333 43.3333Z" fill="#31439E"/>
<path d="M15 45.8333C15 46.2933 15.3733 46.6666 15.8333 46.6666H34.1666C34.6266 46.6666 34.9999 46.2933 34.9999 45.8333C34.9999 45.3733 34.6266 45 34.1666 45H15.8333C15.3733 45 15 45.3733 15 45.8333Z" fill="#31439E"/>
<path d="M4.16667 45C3.70671 45 3.33337 45.3733 3.33337 45.8333C3.33337 46.2932 3.70671 46.6666 4.16667 46.6666H12.5C12.9599 46.6666 13.3333 46.2932 13.3333 45.8333C13.3333 45.3733 12.9599 45 12.5 45H11.6667V25H38.3334V45H37.5C37.04 45 36.6667 45.3733 36.6667 45.8333C36.6667 46.2932 37.04 46.6666 37.5 46.6666H45.8333C46.2932 46.6666 46.6666 46.2932 46.6666 45.8333C46.6666 45.3733 46.2932 45 45.8333 45H45V25H45.8333C46.2932 25 46.6666 24.6266 46.6666 24.1667C46.6666 23.7067 46.2932 23.3334 45.8333 23.3334H4.16667C3.70671 23.3334 3.33337 23.7067 3.33337 24.1667C3.33337 24.6266 3.70662 25 4.16667 25H4.99998V45H4.16667ZM40 25H43.3333V45H40V25ZM6.66667 25H9.99998V45H6.66667V25Z" fill="#31439E"/>
<path d="M10.8333 11.6667C10.3733 11.6667 10 12.04 10 12.5V17.5C10 17.96 10.3733 18.3333 10.8333 18.3333H14.1666C14.6266 18.3333 14.9999 17.96 14.9999 17.5V12.5C14.9999 12.04 14.6266 11.6667 14.1666 11.6667H10.8333ZM13.3333 16.6667H11.6666V13.3334H13.3333V16.6667Z" fill="#31439E"/>
<path d="M19.1667 11.6667C18.7067 11.6667 18.3334 12.04 18.3334 12.5V17.5C18.3334 17.96 18.7067 18.3333 19.1667 18.3333H22.5C22.9599 18.3333 23.3333 17.96 23.3333 17.5V12.5C23.3333 12.04 22.9599 11.6667 22.5 11.6667H19.1667ZM21.6667 16.6667H20V13.3334H21.6667V16.6667Z" fill="#31439E"/>
</svg>
