<svg width="52" height="52" viewBox="0 0 52 52" fill="none" xmlns="http://www.w3.org/2000/svg">
<mask id="path-1-outside-1" maskUnits="userSpaceOnUse" x="8.53149" y="16.0179" width="35" height="24" fill="black">
<rect fill="white" x="8.53149" y="16.0179" width="35" height="24"/>
<path d="M10.1815 26.8929C9.99816 26.8929 9.84399 26.8304 9.71899 26.7054C9.59399 26.5804 9.53149 26.4262 9.53149 26.2429V17.7804C9.53149 17.5887 9.59399 17.4345 9.71899 17.3179C9.84399 17.1929 9.99816 17.1304 10.1815 17.1304C10.3732 17.1304 10.5273 17.1929 10.644 17.3179C10.769 17.4345 10.8315 17.5887 10.8315 17.7804V26.2429C10.8315 26.4262 10.769 26.5804 10.644 26.7054C10.5273 26.8304 10.3732 26.8929 10.1815 26.8929Z"/>
<path d="M13.9779 26.8929C13.7945 26.8929 13.6404 26.8304 13.5154 26.7054C13.3904 26.5804 13.3279 26.4262 13.3279 26.2429V17.7804C13.3279 17.5887 13.3904 17.4345 13.5154 17.3179C13.6404 17.1929 13.7945 17.1304 13.9779 17.1304H19.6279C19.8195 17.1304 19.9737 17.1887 20.0904 17.3054C20.207 17.4137 20.2654 17.5595 20.2654 17.7429C20.2654 17.9179 20.207 18.0595 20.0904 18.1679C19.9737 18.2762 19.8195 18.3304 19.6279 18.3304H14.6279V21.3679H18.2154C18.407 21.3679 18.5612 21.4262 18.6779 21.5429C18.7945 21.6512 18.8529 21.7929 18.8529 21.9679C18.8529 22.1429 18.7945 22.2887 18.6779 22.4054C18.5612 22.5137 18.407 22.5679 18.2154 22.5679H14.6279V25.6929H19.6279C19.8195 25.6929 19.9737 25.747 20.0904 25.8554C20.207 25.9637 20.2654 26.1054 20.2654 26.2804C20.2654 26.4637 20.207 26.6137 20.0904 26.7304C19.9737 26.8387 19.8195 26.8929 19.6279 26.8929H13.9779Z"/>
<path d="M22.7178 26.8929C22.5345 26.8929 22.3803 26.8304 22.2553 26.7054C22.1387 26.5804 22.0803 26.4262 22.0803 26.2429V17.7804C22.0803 17.597 22.1428 17.4429 22.2678 17.3179C22.3928 17.1929 22.5428 17.1304 22.7178 17.1304C22.9012 17.1304 23.0553 17.1929 23.1803 17.3179C23.3053 17.4429 23.3678 17.597 23.3678 17.7804V25.5929H27.8928C28.0762 25.5929 28.2303 25.6554 28.3553 25.7804C28.4803 25.9054 28.5428 26.0595 28.5428 26.2429C28.5428 26.4262 28.4803 26.5804 28.3553 26.7054C28.2303 26.8304 28.0762 26.8929 27.8928 26.8929H22.7178Z"/>
<path d="M31.3643 26.8929C31.181 26.8929 31.0268 26.8304 30.9018 26.7054C30.7768 26.5804 30.7143 26.4262 30.7143 26.2429V18.3304H28.0143C27.8393 18.3304 27.6935 18.2762 27.5768 18.1679C27.4685 18.0512 27.4143 17.9054 27.4143 17.7304C27.4143 17.5554 27.4685 17.4137 27.5768 17.3054C27.6935 17.1887 27.8393 17.1304 28.0143 17.1304H34.7018C34.8768 17.1304 35.0185 17.1887 35.1268 17.3054C35.2435 17.4137 35.3018 17.5554 35.3018 17.7304C35.3018 17.9054 35.2435 18.0512 35.1268 18.1679C35.0185 18.2762 34.8768 18.3304 34.7018 18.3304H32.0143V26.2429C32.0143 26.4262 31.9518 26.5804 31.8268 26.7054C31.7018 26.8304 31.5476 26.8929 31.3643 26.8929Z"/>
<path d="M39.4626 27.0179C38.9292 27.0179 38.4209 26.9345 37.9376 26.7679C37.4542 26.6012 37.0334 26.3679 36.6751 26.0679C36.3167 25.7679 36.0542 25.422 35.8876 25.0304C35.8042 24.8554 35.8042 24.6929 35.8876 24.5429C35.9792 24.3929 36.1292 24.297 36.3376 24.2554C36.4876 24.222 36.6334 24.247 36.7751 24.3304C36.9251 24.4054 37.0376 24.522 37.1126 24.6804C37.2126 24.8887 37.375 25.0804 37.6 25.2554C37.8334 25.4304 38.1125 25.572 38.4375 25.6804C38.7625 25.7887 39.1042 25.8429 39.4626 25.8429C39.8626 25.8429 40.2292 25.7804 40.5625 25.6554C40.9042 25.5304 41.1792 25.3512 41.3875 25.1179C41.5959 24.8762 41.7 24.5804 41.7 24.2304C41.7 23.7887 41.525 23.3929 41.1751 23.0429C40.8334 22.6929 40.2667 22.4762 39.475 22.3929C38.4417 22.2929 37.6292 21.9887 37.0376 21.4804C36.4459 20.972 36.1501 20.3429 36.1501 19.5929C36.1501 19.0429 36.3042 18.5762 36.6126 18.1929C36.9209 17.8095 37.3376 17.5179 37.8626 17.3179C38.3959 17.1179 38.9875 17.0179 39.6376 17.0179C40.3959 17.0179 41.0167 17.172 41.5 17.4804C41.9834 17.7887 42.3834 18.197 42.7001 18.7054C42.8167 18.8887 42.8625 19.0637 42.8376 19.2304C42.8209 19.3887 42.7417 19.5137 42.6001 19.6054C42.4417 19.7054 42.2709 19.7262 42.0876 19.6679C41.9042 19.6095 41.7667 19.5012 41.6751 19.3429C41.4667 18.9845 41.1959 18.7054 40.8625 18.5054C40.5375 18.3054 40.1167 18.2012 39.6 18.1929C38.9834 18.1845 38.4667 18.3012 38.0501 18.5429C37.6334 18.7762 37.4251 19.1387 37.4251 19.6304C37.4251 19.8804 37.4876 20.122 37.6126 20.3554C37.7459 20.5804 37.9834 20.7762 38.325 20.9429C38.675 21.1095 39.175 21.2262 39.825 21.2929C40.8167 21.3929 41.5876 21.697 42.1376 22.2054C42.6959 22.7054 42.975 23.3679 42.975 24.1929C42.975 24.6679 42.875 25.0804 42.675 25.4304C42.4834 25.7804 42.2209 26.0762 41.8876 26.3179C41.5625 26.5512 41.1875 26.7262 40.7625 26.8429C40.3459 26.9595 39.9125 27.0179 39.4626 27.0179Z"/>
<path d="M20.711 39.3929C20.136 39.3929 19.6235 39.2679 19.1735 39.0179C18.7318 38.7595 18.386 38.4095 18.136 37.9679C17.886 37.5179 17.761 37.0054 17.761 36.4304C17.761 35.7887 17.9193 35.222 18.236 34.7304L21.0735 29.9929C21.2235 29.7595 21.4152 29.6429 21.6485 29.6429C21.8235 29.6429 21.9693 29.6929 22.086 29.7929C22.2027 29.8929 22.2735 30.0179 22.2985 30.1679C22.3318 30.3179 22.3027 30.4679 22.211 30.6179L20.4985 33.4679C20.5652 33.4595 20.636 33.4554 20.711 33.4554C21.286 33.4554 21.7943 33.5845 22.236 33.8429C22.6777 34.0929 23.0235 34.4429 23.2735 34.8929C23.5235 35.3345 23.6485 35.847 23.6485 36.4304C23.6485 37.0054 23.5235 37.5179 23.2735 37.9679C23.0235 38.4095 22.6777 38.7595 22.236 39.0179C21.7943 39.2679 21.286 39.3929 20.711 39.3929ZM20.6985 38.2679C21.2152 38.2679 21.636 38.097 21.961 37.7554C22.286 37.4137 22.4485 36.972 22.4485 36.4304C22.4485 35.8887 22.286 35.447 21.961 35.1054C21.636 34.7554 21.2152 34.5804 20.6985 34.5804C20.1902 34.5804 19.7735 34.7554 19.4485 35.1054C19.1235 35.447 18.961 35.8887 18.961 36.4304C18.961 36.972 19.1235 37.4137 19.4485 37.7554C19.7735 38.097 20.1902 38.2679 20.6985 38.2679Z"/>
<path d="M25.6992 39.5929C25.4658 39.5929 25.2617 39.5095 25.0867 39.3429C24.92 39.1679 24.8367 38.9637 24.8367 38.7304C24.8367 38.4887 24.92 38.2845 25.0867 38.1179C25.2617 37.9429 25.4658 37.8554 25.6992 37.8554C25.9408 37.8554 26.145 37.9429 26.3117 38.1179C26.4783 38.2845 26.5617 38.4887 26.5617 38.7304C26.5617 38.9637 26.4783 39.1679 26.3117 39.3429C26.145 39.5095 25.9408 39.5929 25.6992 39.5929Z"/>
<path d="M31.1777 39.3929C30.5777 39.3929 30.036 39.2554 29.5527 38.9804C29.0777 38.697 28.6985 38.3137 28.4152 37.8304C28.1402 37.347 28.0027 36.8054 28.0027 36.2054C28.0027 36.022 28.061 35.872 28.1777 35.7554C28.2944 35.6304 28.4444 35.5679 28.6277 35.5679C28.811 35.5679 28.9652 35.6304 29.0902 35.7554C29.2152 35.872 29.2777 36.022 29.2777 36.2054C29.2777 36.5637 29.361 36.8887 29.5277 37.1804C29.6944 37.472 29.9194 37.7012 30.2027 37.8679C30.4944 38.0345 30.8194 38.1179 31.1777 38.1179C31.5444 38.1179 31.8694 38.0345 32.1527 37.8679C32.4444 37.7012 32.6735 37.472 32.8402 37.1804C33.0069 36.8887 33.0902 36.5637 33.0902 36.2054C33.0902 35.8387 33.0069 35.5137 32.8402 35.2304C32.6735 34.9387 32.4444 34.7095 32.1527 34.5429C31.8694 34.3762 31.5444 34.2929 31.1777 34.2929H29.0902C28.9069 34.2929 28.7569 34.2345 28.6402 34.1179C28.5235 33.9929 28.4652 33.8387 28.4652 33.6554V30.2804C28.4652 30.097 28.5235 29.9429 28.6402 29.8179C28.7569 29.6929 28.9069 29.6304 29.0902 29.6304H33.2652C33.4402 29.6304 33.5902 29.697 33.7152 29.8304C33.8402 29.9554 33.9027 30.1054 33.9027 30.2804C33.9027 30.447 33.8402 30.5929 33.7152 30.7179C33.5985 30.8429 33.4485 30.9054 33.2652 30.9054H29.7277V33.0179H31.1777C31.786 33.0179 32.3277 33.1595 32.8027 33.4429C33.286 33.7179 33.6652 34.097 33.9402 34.5804C34.2235 35.0554 34.3652 35.597 34.3652 36.2054C34.3652 36.8054 34.2235 37.347 33.9402 37.8304C33.6652 38.3137 33.286 38.697 32.8027 38.9804C32.3277 39.2554 31.786 39.3929 31.1777 39.3929Z"/>
</mask>
<path d="M10.1815 26.8929C9.99816 26.8929 9.84399 26.8304 9.71899 26.7054C9.59399 26.5804 9.53149 26.4262 9.53149 26.2429V17.7804C9.53149 17.5887 9.59399 17.4345 9.71899 17.3179C9.84399 17.1929 9.99816 17.1304 10.1815 17.1304C10.3732 17.1304 10.5273 17.1929 10.644 17.3179C10.769 17.4345 10.8315 17.5887 10.8315 17.7804V26.2429C10.8315 26.4262 10.769 26.5804 10.644 26.7054C10.5273 26.8304 10.3732 26.8929 10.1815 26.8929Z" fill="#31439E"/>
<path d="M13.9779 26.8929C13.7945 26.8929 13.6404 26.8304 13.5154 26.7054C13.3904 26.5804 13.3279 26.4262 13.3279 26.2429V17.7804C13.3279 17.5887 13.3904 17.4345 13.5154 17.3179C13.6404 17.1929 13.7945 17.1304 13.9779 17.1304H19.6279C19.8195 17.1304 19.9737 17.1887 20.0904 17.3054C20.207 17.4137 20.2654 17.5595 20.2654 17.7429C20.2654 17.9179 20.207 18.0595 20.0904 18.1679C19.9737 18.2762 19.8195 18.3304 19.6279 18.3304H14.6279V21.3679H18.2154C18.407 21.3679 18.5612 21.4262 18.6779 21.5429C18.7945 21.6512 18.8529 21.7929 18.8529 21.9679C18.8529 22.1429 18.7945 22.2887 18.6779 22.4054C18.5612 22.5137 18.407 22.5679 18.2154 22.5679H14.6279V25.6929H19.6279C19.8195 25.6929 19.9737 25.747 20.0904 25.8554C20.207 25.9637 20.2654 26.1054 20.2654 26.2804C20.2654 26.4637 20.207 26.6137 20.0904 26.7304C19.9737 26.8387 19.8195 26.8929 19.6279 26.8929H13.9779Z" fill="#31439E"/>
<path d="M22.7178 26.8929C22.5345 26.8929 22.3803 26.8304 22.2553 26.7054C22.1387 26.5804 22.0803 26.4262 22.0803 26.2429V17.7804C22.0803 17.597 22.1428 17.4429 22.2678 17.3179C22.3928 17.1929 22.5428 17.1304 22.7178 17.1304C22.9012 17.1304 23.0553 17.1929 23.1803 17.3179C23.3053 17.4429 23.3678 17.597 23.3678 17.7804V25.5929H27.8928C28.0762 25.5929 28.2303 25.6554 28.3553 25.7804C28.4803 25.9054 28.5428 26.0595 28.5428 26.2429C28.5428 26.4262 28.4803 26.5804 28.3553 26.7054C28.2303 26.8304 28.0762 26.8929 27.8928 26.8929H22.7178Z" fill="#31439E"/>
<path d="M31.3643 26.8929C31.181 26.8929 31.0268 26.8304 30.9018 26.7054C30.7768 26.5804 30.7143 26.4262 30.7143 26.2429V18.3304H28.0143C27.8393 18.3304 27.6935 18.2762 27.5768 18.1679C27.4685 18.0512 27.4143 17.9054 27.4143 17.7304C27.4143 17.5554 27.4685 17.4137 27.5768 17.3054C27.6935 17.1887 27.8393 17.1304 28.0143 17.1304H34.7018C34.8768 17.1304 35.0185 17.1887 35.1268 17.3054C35.2435 17.4137 35.3018 17.5554 35.3018 17.7304C35.3018 17.9054 35.2435 18.0512 35.1268 18.1679C35.0185 18.2762 34.8768 18.3304 34.7018 18.3304H32.0143V26.2429C32.0143 26.4262 31.9518 26.5804 31.8268 26.7054C31.7018 26.8304 31.5476 26.8929 31.3643 26.8929Z" fill="#31439E"/>
<path d="M39.4626 27.0179C38.9292 27.0179 38.4209 26.9345 37.9376 26.7679C37.4542 26.6012 37.0334 26.3679 36.6751 26.0679C36.3167 25.7679 36.0542 25.422 35.8876 25.0304C35.8042 24.8554 35.8042 24.6929 35.8876 24.5429C35.9792 24.3929 36.1292 24.297 36.3376 24.2554C36.4876 24.222 36.6334 24.247 36.7751 24.3304C36.9251 24.4054 37.0376 24.522 37.1126 24.6804C37.2126 24.8887 37.375 25.0804 37.6 25.2554C37.8334 25.4304 38.1125 25.572 38.4375 25.6804C38.7625 25.7887 39.1042 25.8429 39.4626 25.8429C39.8626 25.8429 40.2292 25.7804 40.5625 25.6554C40.9042 25.5304 41.1792 25.3512 41.3875 25.1179C41.5959 24.8762 41.7 24.5804 41.7 24.2304C41.7 23.7887 41.525 23.3929 41.1751 23.0429C40.8334 22.6929 40.2667 22.4762 39.475 22.3929C38.4417 22.2929 37.6292 21.9887 37.0376 21.4804C36.4459 20.972 36.1501 20.3429 36.1501 19.5929C36.1501 19.0429 36.3042 18.5762 36.6126 18.1929C36.9209 17.8095 37.3376 17.5179 37.8626 17.3179C38.3959 17.1179 38.9875 17.0179 39.6376 17.0179C40.3959 17.0179 41.0167 17.172 41.5 17.4804C41.9834 17.7887 42.3834 18.197 42.7001 18.7054C42.8167 18.8887 42.8625 19.0637 42.8376 19.2304C42.8209 19.3887 42.7417 19.5137 42.6001 19.6054C42.4417 19.7054 42.2709 19.7262 42.0876 19.6679C41.9042 19.6095 41.7667 19.5012 41.6751 19.3429C41.4667 18.9845 41.1959 18.7054 40.8625 18.5054C40.5375 18.3054 40.1167 18.2012 39.6 18.1929C38.9834 18.1845 38.4667 18.3012 38.0501 18.5429C37.6334 18.7762 37.4251 19.1387 37.4251 19.6304C37.4251 19.8804 37.4876 20.122 37.6126 20.3554C37.7459 20.5804 37.9834 20.7762 38.325 20.9429C38.675 21.1095 39.175 21.2262 39.825 21.2929C40.8167 21.3929 41.5876 21.697 42.1376 22.2054C42.6959 22.7054 42.975 23.3679 42.975 24.1929C42.975 24.6679 42.875 25.0804 42.675 25.4304C42.4834 25.7804 42.2209 26.0762 41.8876 26.3179C41.5625 26.5512 41.1875 26.7262 40.7625 26.8429C40.3459 26.9595 39.9125 27.0179 39.4626 27.0179Z" fill="#31439E"/>
<path d="M20.711 39.3929C20.136 39.3929 19.6235 39.2679 19.1735 39.0179C18.7318 38.7595 18.386 38.4095 18.136 37.9679C17.886 37.5179 17.761 37.0054 17.761 36.4304C17.761 35.7887 17.9193 35.222 18.236 34.7304L21.0735 29.9929C21.2235 29.7595 21.4152 29.6429 21.6485 29.6429C21.8235 29.6429 21.9693 29.6929 22.086 29.7929C22.2027 29.8929 22.2735 30.0179 22.2985 30.1679C22.3318 30.3179 22.3027 30.4679 22.211 30.6179L20.4985 33.4679C20.5652 33.4595 20.636 33.4554 20.711 33.4554C21.286 33.4554 21.7943 33.5845 22.236 33.8429C22.6777 34.0929 23.0235 34.4429 23.2735 34.8929C23.5235 35.3345 23.6485 35.847 23.6485 36.4304C23.6485 37.0054 23.5235 37.5179 23.2735 37.9679C23.0235 38.4095 22.6777 38.7595 22.236 39.0179C21.7943 39.2679 21.286 39.3929 20.711 39.3929ZM20.6985 38.2679C21.2152 38.2679 21.636 38.097 21.961 37.7554C22.286 37.4137 22.4485 36.972 22.4485 36.4304C22.4485 35.8887 22.286 35.447 21.961 35.1054C21.636 34.7554 21.2152 34.5804 20.6985 34.5804C20.1902 34.5804 19.7735 34.7554 19.4485 35.1054C19.1235 35.447 18.961 35.8887 18.961 36.4304C18.961 36.972 19.1235 37.4137 19.4485 37.7554C19.7735 38.097 20.1902 38.2679 20.6985 38.2679Z" fill="#31439E"/>
<path d="M25.6992 39.5929C25.4658 39.5929 25.2617 39.5095 25.0867 39.3429C24.92 39.1679 24.8367 38.9637 24.8367 38.7304C24.8367 38.4887 24.92 38.2845 25.0867 38.1179C25.2617 37.9429 25.4658 37.8554 25.6992 37.8554C25.9408 37.8554 26.145 37.9429 26.3117 38.1179C26.4783 38.2845 26.5617 38.4887 26.5617 38.7304C26.5617 38.9637 26.4783 39.1679 26.3117 39.3429C26.145 39.5095 25.9408 39.5929 25.6992 39.5929Z" fill="#31439E"/>
<path d="M31.1777 39.3929C30.5777 39.3929 30.036 39.2554 29.5527 38.9804C29.0777 38.697 28.6985 38.3137 28.4152 37.8304C28.1402 37.347 28.0027 36.8054 28.0027 36.2054C28.0027 36.022 28.061 35.872 28.1777 35.7554C28.2944 35.6304 28.4444 35.5679 28.6277 35.5679C28.811 35.5679 28.9652 35.6304 29.0902 35.7554C29.2152 35.872 29.2777 36.022 29.2777 36.2054C29.2777 36.5637 29.361 36.8887 29.5277 37.1804C29.6944 37.472 29.9194 37.7012 30.2027 37.8679C30.4944 38.0345 30.8194 38.1179 31.1777 38.1179C31.5444 38.1179 31.8694 38.0345 32.1527 37.8679C32.4444 37.7012 32.6735 37.472 32.8402 37.1804C33.0069 36.8887 33.0902 36.5637 33.0902 36.2054C33.0902 35.8387 33.0069 35.5137 32.8402 35.2304C32.6735 34.9387 32.4444 34.7095 32.1527 34.5429C31.8694 34.3762 31.5444 34.2929 31.1777 34.2929H29.0902C28.9069 34.2929 28.7569 34.2345 28.6402 34.1179C28.5235 33.9929 28.4652 33.8387 28.4652 33.6554V30.2804C28.4652 30.097 28.5235 29.9429 28.6402 29.8179C28.7569 29.6929 28.9069 29.6304 29.0902 29.6304H33.2652C33.4402 29.6304 33.5902 29.697 33.7152 29.8304C33.8402 29.9554 33.9027 30.1054 33.9027 30.2804C33.9027 30.447 33.8402 30.5929 33.7152 30.7179C33.5985 30.8429 33.4485 30.9054 33.2652 30.9054H29.7277V33.0179H31.1777C31.786 33.0179 32.3277 33.1595 32.8027 33.4429C33.286 33.7179 33.6652 34.097 33.9402 34.5804C34.2235 35.0554 34.3652 35.597 34.3652 36.2054C34.3652 36.8054 34.2235 37.347 33.9402 37.8304C33.6652 38.3137 33.286 38.697 32.8027 38.9804C32.3277 39.2554 31.786 39.3929 31.1777 39.3929Z" fill="#31439E"/>
<path d="M10.1815 26.8929C9.99816 26.8929 9.84399 26.8304 9.71899 26.7054C9.59399 26.5804 9.53149 26.4262 9.53149 26.2429V17.7804C9.53149 17.5887 9.59399 17.4345 9.71899 17.3179C9.84399 17.1929 9.99816 17.1304 10.1815 17.1304C10.3732 17.1304 10.5273 17.1929 10.644 17.3179C10.769 17.4345 10.8315 17.5887 10.8315 17.7804V26.2429C10.8315 26.4262 10.769 26.5804 10.644 26.7054C10.5273 26.8304 10.3732 26.8929 10.1815 26.8929Z" stroke="#31439E" stroke-width="0.8" mask="url(#path-1-outside-1)"/>
<path d="M13.9779 26.8929C13.7945 26.8929 13.6404 26.8304 13.5154 26.7054C13.3904 26.5804 13.3279 26.4262 13.3279 26.2429V17.7804C13.3279 17.5887 13.3904 17.4345 13.5154 17.3179C13.6404 17.1929 13.7945 17.1304 13.9779 17.1304H19.6279C19.8195 17.1304 19.9737 17.1887 20.0904 17.3054C20.207 17.4137 20.2654 17.5595 20.2654 17.7429C20.2654 17.9179 20.207 18.0595 20.0904 18.1679C19.9737 18.2762 19.8195 18.3304 19.6279 18.3304H14.6279V21.3679H18.2154C18.407 21.3679 18.5612 21.4262 18.6779 21.5429C18.7945 21.6512 18.8529 21.7929 18.8529 21.9679C18.8529 22.1429 18.7945 22.2887 18.6779 22.4054C18.5612 22.5137 18.407 22.5679 18.2154 22.5679H14.6279V25.6929H19.6279C19.8195 25.6929 19.9737 25.747 20.0904 25.8554C20.207 25.9637 20.2654 26.1054 20.2654 26.2804C20.2654 26.4637 20.207 26.6137 20.0904 26.7304C19.9737 26.8387 19.8195 26.8929 19.6279 26.8929H13.9779Z" stroke="#31439E" stroke-width="0.8" mask="url(#path-1-outside-1)"/>
<path d="M22.7178 26.8929C22.5345 26.8929 22.3803 26.8304 22.2553 26.7054C22.1387 26.5804 22.0803 26.4262 22.0803 26.2429V17.7804C22.0803 17.597 22.1428 17.4429 22.2678 17.3179C22.3928 17.1929 22.5428 17.1304 22.7178 17.1304C22.9012 17.1304 23.0553 17.1929 23.1803 17.3179C23.3053 17.4429 23.3678 17.597 23.3678 17.7804V25.5929H27.8928C28.0762 25.5929 28.2303 25.6554 28.3553 25.7804C28.4803 25.9054 28.5428 26.0595 28.5428 26.2429C28.5428 26.4262 28.4803 26.5804 28.3553 26.7054C28.2303 26.8304 28.0762 26.8929 27.8928 26.8929H22.7178Z" stroke="#31439E" stroke-width="0.8" mask="url(#path-1-outside-1)"/>
<path d="M31.3643 26.8929C31.181 26.8929 31.0268 26.8304 30.9018 26.7054C30.7768 26.5804 30.7143 26.4262 30.7143 26.2429V18.3304H28.0143C27.8393 18.3304 27.6935 18.2762 27.5768 18.1679C27.4685 18.0512 27.4143 17.9054 27.4143 17.7304C27.4143 17.5554 27.4685 17.4137 27.5768 17.3054C27.6935 17.1887 27.8393 17.1304 28.0143 17.1304H34.7018C34.8768 17.1304 35.0185 17.1887 35.1268 17.3054C35.2435 17.4137 35.3018 17.5554 35.3018 17.7304C35.3018 17.9054 35.2435 18.0512 35.1268 18.1679C35.0185 18.2762 34.8768 18.3304 34.7018 18.3304H32.0143V26.2429C32.0143 26.4262 31.9518 26.5804 31.8268 26.7054C31.7018 26.8304 31.5476 26.8929 31.3643 26.8929Z" stroke="#31439E" stroke-width="0.8" mask="url(#path-1-outside-1)"/>
<path d="M39.4626 27.0179C38.9292 27.0179 38.4209 26.9345 37.9376 26.7679C37.4542 26.6012 37.0334 26.3679 36.6751 26.0679C36.3167 25.7679 36.0542 25.422 35.8876 25.0304C35.8042 24.8554 35.8042 24.6929 35.8876 24.5429C35.9792 24.3929 36.1292 24.297 36.3376 24.2554C36.4876 24.222 36.6334 24.247 36.7751 24.3304C36.9251 24.4054 37.0376 24.522 37.1126 24.6804C37.2126 24.8887 37.375 25.0804 37.6 25.2554C37.8334 25.4304 38.1125 25.572 38.4375 25.6804C38.7625 25.7887 39.1042 25.8429 39.4626 25.8429C39.8626 25.8429 40.2292 25.7804 40.5625 25.6554C40.9042 25.5304 41.1792 25.3512 41.3875 25.1179C41.5959 24.8762 41.7 24.5804 41.7 24.2304C41.7 23.7887 41.525 23.3929 41.1751 23.0429C40.8334 22.6929 40.2667 22.4762 39.475 22.3929C38.4417 22.2929 37.6292 21.9887 37.0376 21.4804C36.4459 20.972 36.1501 20.3429 36.1501 19.5929C36.1501 19.0429 36.3042 18.5762 36.6126 18.1929C36.9209 17.8095 37.3376 17.5179 37.8626 17.3179C38.3959 17.1179 38.9875 17.0179 39.6376 17.0179C40.3959 17.0179 41.0167 17.172 41.5 17.4804C41.9834 17.7887 42.3834 18.197 42.7001 18.7054C42.8167 18.8887 42.8625 19.0637 42.8376 19.2304C42.8209 19.3887 42.7417 19.5137 42.6001 19.6054C42.4417 19.7054 42.2709 19.7262 42.0876 19.6679C41.9042 19.6095 41.7667 19.5012 41.6751 19.3429C41.4667 18.9845 41.1959 18.7054 40.8625 18.5054C40.5375 18.3054 40.1167 18.2012 39.6 18.1929C38.9834 18.1845 38.4667 18.3012 38.0501 18.5429C37.6334 18.7762 37.4251 19.1387 37.4251 19.6304C37.4251 19.8804 37.4876 20.122 37.6126 20.3554C37.7459 20.5804 37.9834 20.7762 38.325 20.9429C38.675 21.1095 39.175 21.2262 39.825 21.2929C40.8167 21.3929 41.5876 21.697 42.1376 22.2054C42.6959 22.7054 42.975 23.3679 42.975 24.1929C42.975 24.6679 42.875 25.0804 42.675 25.4304C42.4834 25.7804 42.2209 26.0762 41.8876 26.3179C41.5625 26.5512 41.1875 26.7262 40.7625 26.8429C40.3459 26.9595 39.9125 27.0179 39.4626 27.0179Z" stroke="#31439E" stroke-width="0.8" mask="url(#path-1-outside-1)"/>
<path d="M20.711 39.3929C20.136 39.3929 19.6235 39.2679 19.1735 39.0179C18.7318 38.7595 18.386 38.4095 18.136 37.9679C17.886 37.5179 17.761 37.0054 17.761 36.4304C17.761 35.7887 17.9193 35.222 18.236 34.7304L21.0735 29.9929C21.2235 29.7595 21.4152 29.6429 21.6485 29.6429C21.8235 29.6429 21.9693 29.6929 22.086 29.7929C22.2027 29.8929 22.2735 30.0179 22.2985 30.1679C22.3318 30.3179 22.3027 30.4679 22.211 30.6179L20.4985 33.4679C20.5652 33.4595 20.636 33.4554 20.711 33.4554C21.286 33.4554 21.7943 33.5845 22.236 33.8429C22.6777 34.0929 23.0235 34.4429 23.2735 34.8929C23.5235 35.3345 23.6485 35.847 23.6485 36.4304C23.6485 37.0054 23.5235 37.5179 23.2735 37.9679C23.0235 38.4095 22.6777 38.7595 22.236 39.0179C21.7943 39.2679 21.286 39.3929 20.711 39.3929ZM20.6985 38.2679C21.2152 38.2679 21.636 38.097 21.961 37.7554C22.286 37.4137 22.4485 36.972 22.4485 36.4304C22.4485 35.8887 22.286 35.447 21.961 35.1054C21.636 34.7554 21.2152 34.5804 20.6985 34.5804C20.1902 34.5804 19.7735 34.7554 19.4485 35.1054C19.1235 35.447 18.961 35.8887 18.961 36.4304C18.961 36.972 19.1235 37.4137 19.4485 37.7554C19.7735 38.097 20.1902 38.2679 20.6985 38.2679Z" stroke="#31439E" stroke-width="0.8" mask="url(#path-1-outside-1)"/>
<path d="M25.6992 39.5929C25.4658 39.5929 25.2617 39.5095 25.0867 39.3429C24.92 39.1679 24.8367 38.9637 24.8367 38.7304C24.8367 38.4887 24.92 38.2845 25.0867 38.1179C25.2617 37.9429 25.4658 37.8554 25.6992 37.8554C25.9408 37.8554 26.145 37.9429 26.3117 38.1179C26.4783 38.2845 26.5617 38.4887 26.5617 38.7304C26.5617 38.9637 26.4783 39.1679 26.3117 39.3429C26.145 39.5095 25.9408 39.5929 25.6992 39.5929Z" stroke="#31439E" stroke-width="0.8" mask="url(#path-1-outside-1)"/>
<path d="M31.1777 39.3929C30.5777 39.3929 30.036 39.2554 29.5527 38.9804C29.0777 38.697 28.6985 38.3137 28.4152 37.8304C28.1402 37.347 28.0027 36.8054 28.0027 36.2054C28.0027 36.022 28.061 35.872 28.1777 35.7554C28.2944 35.6304 28.4444 35.5679 28.6277 35.5679C28.811 35.5679 28.9652 35.6304 29.0902 35.7554C29.2152 35.872 29.2777 36.022 29.2777 36.2054C29.2777 36.5637 29.361 36.8887 29.5277 37.1804C29.6944 37.472 29.9194 37.7012 30.2027 37.8679C30.4944 38.0345 30.8194 38.1179 31.1777 38.1179C31.5444 38.1179 31.8694 38.0345 32.1527 37.8679C32.4444 37.7012 32.6735 37.472 32.8402 37.1804C33.0069 36.8887 33.0902 36.5637 33.0902 36.2054C33.0902 35.8387 33.0069 35.5137 32.8402 35.2304C32.6735 34.9387 32.4444 34.7095 32.1527 34.5429C31.8694 34.3762 31.5444 34.2929 31.1777 34.2929H29.0902C28.9069 34.2929 28.7569 34.2345 28.6402 34.1179C28.5235 33.9929 28.4652 33.8387 28.4652 33.6554V30.2804C28.4652 30.097 28.5235 29.9429 28.6402 29.8179C28.7569 29.6929 28.9069 29.6304 29.0902 29.6304H33.2652C33.4402 29.6304 33.5902 29.697 33.7152 29.8304C33.8402 29.9554 33.9027 30.1054 33.9027 30.2804C33.9027 30.447 33.8402 30.5929 33.7152 30.7179C33.5985 30.8429 33.4485 30.9054 33.2652 30.9054H29.7277V33.0179H31.1777C31.786 33.0179 32.3277 33.1595 32.8027 33.4429C33.286 33.7179 33.6652 34.097 33.9402 34.5804C34.2235 35.0554 34.3652 35.597 34.3652 36.2054C34.3652 36.8054 34.2235 37.347 33.9402 37.8304C33.6652 38.3137 33.286 38.697 32.8027 38.9804C32.3277 39.2554 31.786 39.3929 31.1777 39.3929Z" stroke="#31439E" stroke-width="0.8" mask="url(#path-1-outside-1)"/>
<path d="M49.4607 26C49.4607 38.957 38.957 49.4607 26 49.4607C13.043 49.4607 2.53929 38.957 2.53929 26C2.53929 13.043 13.043 2.53929 26 2.53929C38.957 2.53929 49.4607 13.043 49.4607 26ZM26 51.2C39.9176 51.2 51.2 39.9176 51.2 26C51.2 12.0824 39.9176 0.8 26 0.8C12.0824 0.8 0.8 12.0824 0.8 26C0.8 39.9176 12.0824 51.2 26 51.2Z" fill="#31439E" stroke="#31439E" stroke-width="0.4"/>
</svg>
