<svg width="50" height="50" viewBox="0 0 50 50" fill="none" xmlns="http://www.w3.org/2000/svg">
<path d="M44.5179 5.57175V5.57181L44.5221 5.57169C44.6209 5.56891 44.7197 5.56957 44.8185 5.57359C47.1956 5.67097 49.0438 7.67696 48.9464 10.0541L48.9463 10.0541V10.0602V44.8794C48.9463 47.4697 47.0649 49.8499 44.518 49.8499H5.48179C2.93486 49.8499 1.05349 47.4697 1.05349 44.8794V10.0602H1.05362L1.05337 10.0541C1.04935 9.95537 1.04869 9.85642 1.05147 9.75775L1.05147 9.7577C1.11777 7.37956 3.09947 5.50528 5.47772 5.57158L5.47772 5.57164H5.4819H9.33724H9.48724V5.42164V2.10846C9.48724 1.49923 9.77603 1.01431 10.2254 0.677239C10.6778 0.337996 11.2925 0.15 11.9276 0.15H15.4818C16.1157 0.15 16.65 0.33711 17.0237 0.66935C17.3954 0.999758 17.621 1.48461 17.621 2.10846V5.42164V5.57164H17.771H32.2288H32.3788V5.42164V2.10846C32.3788 1.48461 32.6044 0.999758 32.9761 0.66935C33.3498 0.33711 33.8841 0.15 34.518 0.15H38.0721C38.7072 0.15 39.322 0.337997 39.7743 0.677239C40.2237 1.0143 40.5125 1.49922 40.5125 2.10845V5.42175V5.57175H40.6625H44.5179ZM34.518 2.25964H34.368V2.40964V9.0361V9.1861H34.518H38.2529H38.4029V9.0361V2.40964V2.25964H38.2529H34.518ZM11.9277 2.25964H11.7777V2.40964V9.0361V9.1861H11.9277H15.3615H15.5115V9.0361V2.40964V2.25964H15.3615H11.9277ZM3.31325 19.1271H3.16325V19.2771V44.8794C3.16325 45.5716 3.3829 46.281 3.77973 46.8207C4.17787 47.3622 4.76135 47.7402 5.4819 47.7402H44.518C45.2386 47.7402 45.8221 47.3622 46.2202 46.8207C46.617 46.281 46.8367 45.5716 46.8367 44.8794V19.2771V19.1271H46.6867H3.31325ZM46.6867 17.0175H46.8367V16.8675V10.0669C46.8463 9.95723 46.8476 9.84694 46.8406 9.73719C46.7644 8.52715 45.723 7.60765 44.5134 7.68128H40.6626H40.5126V7.83128V9.15659C40.5126 10.3762 39.3396 11.2957 38.0723 11.2957H34.518V11.2957L34.5137 11.2958C34.4759 11.2969 34.438 11.2969 34.4001 11.2958L34.4 11.2958C33.2522 11.2643 32.3473 10.3084 32.3788 9.16071L32.3788 9.16071V9.15659V7.83128V7.68128H32.2288H17.771H17.621V7.83128V9.15671H17.6209L17.621 9.16095C17.6221 9.19882 17.6221 9.2367 17.621 9.27457L17.621 9.2747C17.5895 10.4224 16.6337 11.3274 15.486 11.2959L15.486 11.2959H15.4818H11.9276C10.6602 11.2959 9.48724 10.3763 9.48724 9.15671V7.83139V7.68139H9.33724H5.48642C5.37594 7.67468 5.26495 7.67626 5.15461 7.68627C3.94787 7.79559 3.05761 8.86069 3.16313 10.0669V16.8675V17.0175H3.31313H46.6867Z" fill="#31439E" stroke="white" stroke-width="0.3"/>
<path d="M18.4608 35.7494L18.4751 35.6702L18.417 35.6146L14.0228 31.4008C13.7477 31.1013 13.647 30.6807 13.7566 30.2892C13.9008 29.9303 14.2207 29.6715 14.6021 29.6058L20.6246 28.7024L20.7021 28.6908L20.7368 28.6206L23.4476 23.1387L23.4482 23.1376C23.7021 22.6133 24.333 22.3942 24.8573 22.6481L24.8574 22.6481C25.0709 22.7514 25.2433 22.9239 25.3468 23.1376L25.3474 23.1387L28.0582 28.6206L28.0929 28.6908L28.1704 28.7024L34.1929 29.6058C34.5743 29.6716 34.8942 29.9303 35.0384 30.2892C35.148 30.6807 35.0474 31.1013 34.7723 31.4008L30.378 35.6144L30.3199 35.6701L30.3342 35.7493L31.418 41.7707C31.4725 42.1563 31.3102 42.5406 30.9957 42.7703L30.9956 42.7703L30.992 42.7731C30.8166 42.9095 30.6005 42.9833 30.3785 42.9826L29.871 42.8698L24.4669 40.0477L24.3975 40.0114L24.3281 40.0477L18.9064 42.879L18.9063 42.879C18.3902 43.1491 17.7528 42.9495 17.4827 42.4333C17.3766 42.2304 17.3394 41.9984 17.3767 41.7725C17.3767 41.7721 17.3768 41.7718 17.3769 41.7715L18.4608 35.7494ZM22.3357 30.1136L22.3353 30.1134L22.3309 30.1241C22.2065 30.429 21.9306 30.6459 21.605 30.6949C21.6047 30.6949 21.6045 30.695 21.6043 30.695L17.3282 31.2972L17.0228 31.3402L17.2452 31.5539L20.3167 34.5049C20.5681 34.7542 20.6862 35.1081 20.6347 35.4584L19.9122 39.734L19.861 40.0369L20.1313 39.891L23.9081 37.8527L24.3974 37.744L24.8866 37.8527L28.6634 39.891L28.9338 40.0369L28.8826 39.734L28.16 35.4584C28.1087 35.1081 28.2267 34.7542 28.4781 34.5049C28.4783 34.5046 28.4786 34.5044 28.4788 34.5041L31.5495 31.5539L31.772 31.3402L31.4665 31.2972L27.1907 30.695C27.1905 30.695 27.1903 30.695 27.1901 30.6949C26.8644 30.646 26.5886 30.4291 26.464 30.124L26.4644 30.1239L26.4593 30.1136L24.5317 26.2582L24.3975 25.9898L24.2633 26.2582L22.3357 30.1136Z" fill="#31439E" stroke="white" stroke-width="0.3"/>
</svg>
