<svg width="50" height="41" viewBox="0 0 50 41" fill="none" xmlns="http://www.w3.org/2000/svg">
<path d="M10.1021 35.0564L10.1185 35.1878H10.251H23.9014C24.441 35.1878 24.8783 35.6252 24.8783 36.1648C24.8783 36.7044 24.441 37.1417 23.9014 37.1417H1.24535C0.705746 37.1417 0.268408 36.7044 0.268408 36.1648V1.23133C0.268408 0.691723 0.705746 0.254385 1.24535 0.254385H48.0111C48.5507 0.254385 48.988 0.691722 48.988 1.23133V36.1648C48.988 36.7044 48.5507 37.1417 48.0111 37.1417H38.0924C37.5528 37.1417 37.1154 36.7044 37.1154 36.1648C37.1154 35.6252 37.5528 35.1878 38.0924 35.1878H39.0054H39.1379L39.1543 35.0564C39.6568 31.0186 42.8649 27.8105 46.9027 27.308L47.0341 27.2916V27.1591V10.237V10.1045L46.9027 10.0881C42.8649 9.5856 39.6568 6.37754 39.1543 2.33974L39.1379 2.20827H39.0054H10.251H10.1185L10.1021 2.33974C9.59962 6.37742 6.39156 9.5856 2.35377 10.0881L2.22229 10.1045V10.237V27.1591V27.2916L2.35377 27.308C6.39156 27.8105 9.59962 31.0186 10.1021 35.0564ZM7.97482 35.1878H8.15193L8.12278 35.0131C7.63466 32.0885 5.32161 29.7756 2.39699 29.2874L2.22229 29.2582V29.4353V35.0378V35.1878H2.37229H7.97482ZM41.1335 35.0131L41.1044 35.1878H41.2815H46.884H47.034V35.0378V29.4353V29.2582L46.8593 29.2874C43.9347 29.7755 41.6216 32.0884 41.1335 35.0131ZM46.8593 8.10888L47.034 8.13804V7.96093V2.35827V2.20827H46.884H41.2815H41.1044L41.1335 2.38296C41.6216 5.30759 43.9346 7.62063 46.8593 8.10888ZM8.12278 2.38296L8.15193 2.20827H7.97482H2.37229H2.22229V2.35827V7.96093V8.13804L2.39699 8.10888C5.32161 7.62063 7.63466 5.30759 8.12278 2.38296Z" fill="#31439E" stroke="white" stroke-width="0.3"/>
<mask id="path-2-inside-1" fill="white">
<path d="M25.1404 32.0747C25.4765 32.4109 25.8594 32.6827 26.2741 32.886V38.7325C26.2741 39.1482 26.503 39.5302 26.8696 39.7263C27.2362 39.9221 27.6809 39.9006 28.0267 39.6698L31.2379 37.5261L34.3416 39.6611C34.5331 39.7928 34.7563 39.8595 34.9805 39.8595C35.16 39.8595 35.3401 39.8167 35.5049 39.7301C35.8753 39.5352 36.1073 39.1512 36.1073 38.7326V32.8861C36.522 32.6829 36.905 32.4111 37.2412 32.0749C38.893 30.4229 38.893 27.7346 37.2412 26.0825C37.2213 26.0626 37.2003 26.0441 37.18 26.0246C37.2002 26.0052 37.2211 25.9867 37.241 25.9668C38.0414 25.1663 38.4821 24.1023 38.4821 22.9704C38.4821 21.8386 38.0412 20.7745 37.241 19.9744C36.4406 19.174 35.3766 18.7332 34.2448 18.7332C33.113 18.7332 32.0489 19.174 31.2484 19.9744C31.2285 19.9943 31.21 20.0152 31.1906 20.0355C31.1711 20.0152 31.1526 19.9943 31.1327 19.9744C30.3325 19.174 29.2684 18.7332 28.1365 18.7332C27.0047 18.7332 25.9406 19.174 25.1401 19.9744C23.4883 21.6264 23.4883 24.3145 25.1401 25.9668C25.16 25.9867 25.1811 26.0053 25.2014 26.0248C25.1812 26.0442 25.1603 26.0626 25.1404 26.0825C23.4883 27.7345 23.4883 30.4228 25.1404 32.0747ZM26.4064 28.1084C26.422 28.1441 26.4392 28.179 26.4556 28.2146C26.4722 28.2503 26.488 28.2863 26.5052 28.3216C26.5234 28.3586 26.543 28.3948 26.5621 28.4313C26.5805 28.4669 26.5984 28.5028 26.6177 28.5381C26.6372 28.5736 26.6582 28.6084 26.6787 28.6433C26.6991 28.6786 26.7189 28.7142 26.7403 28.7491C26.7618 28.7842 26.7847 28.8185 26.8071 28.8531C26.829 28.887 26.8502 28.9212 26.8727 28.9545C26.8967 28.9898 26.9223 29.0241 26.9472 29.0588C26.97 29.0905 26.9918 29.1228 27.0154 29.154C27.0418 29.1893 27.07 29.2236 27.0974 29.2581C27.1209 29.2878 27.1435 29.3181 27.1678 29.3473C27.1967 29.3824 27.2275 29.4163 27.2574 29.4506C27.2816 29.4784 27.305 29.5067 27.3298 29.5341C27.3853 29.595 27.4423 29.6549 27.5011 29.7137C27.5599 29.7725 27.6198 29.8298 27.681 29.8853C27.7009 29.9035 27.7217 29.9203 27.7419 29.9382C27.7836 29.975 27.8251 30.0121 27.8678 30.0475C27.8925 30.0679 27.9182 30.0869 27.9432 30.107C27.9824 30.1383 28.0213 30.17 28.0613 30.2C28.0886 30.2205 28.1168 30.2396 28.1446 30.2596C28.1833 30.2875 28.2216 30.316 28.261 30.3428C28.2899 30.3624 28.3197 30.3807 28.349 30.3997C28.3881 30.4252 28.4268 30.4511 28.4665 30.4754C28.4975 30.4944 28.5293 30.5119 28.5608 30.5303C28.5997 30.553 28.6382 30.5763 28.6776 30.598C28.7102 30.6159 28.7433 30.6321 28.7761 30.6493C28.8153 30.6698 28.8543 30.6909 28.8939 30.7103C28.9282 30.7272 28.9632 30.7424 28.9979 30.7585C29.0345 30.7754 29.0705 30.7932 29.1075 30.8092C28.8142 30.9743 28.4821 31.0622 28.1364 31.0622C27.6066 31.0622 27.1085 30.856 26.734 30.4811C26.0924 29.8395 25.9832 28.8638 26.4064 28.1084ZM29.3028 23.7401C29.3275 23.7196 29.3541 23.7019 29.3796 23.6824C29.4276 23.6451 29.4752 23.607 29.5252 23.5731C29.5572 23.5513 29.5911 23.5328 29.6239 23.5124C29.6693 23.4839 29.7141 23.4543 29.761 23.4286C29.7975 23.4084 29.8358 23.3917 29.8732 23.3731C29.9181 23.3507 29.9626 23.327 30.0085 23.3071C30.0481 23.2899 30.0892 23.2762 30.1295 23.2608C30.1751 23.2434 30.2201 23.2245 30.2666 23.2093C30.3084 23.1957 30.3516 23.1855 30.3941 23.1738C30.4405 23.1608 30.4863 23.1465 30.5334 23.1358C30.577 23.1261 30.6216 23.1198 30.6658 23.112C30.713 23.1037 30.7598 23.0938 30.8077 23.0876C30.8524 23.0817 30.8979 23.0797 30.9431 23.0759C30.9905 23.072 31.0375 23.0667 31.0853 23.0651C31.179 23.0676 31.2406 23.0681 31.3056 23.0657C31.3547 23.0677 31.4032 23.0727 31.4518 23.0769C31.494 23.0806 31.5365 23.0829 31.5784 23.0884C31.6294 23.095 31.6798 23.1053 31.7302 23.1145C31.7707 23.1219 31.8115 23.1278 31.8516 23.137C31.9023 23.1485 31.9519 23.1636 32.0017 23.1777C32.0404 23.1887 32.0795 23.1979 32.1175 23.2105C32.1675 23.2269 32.2161 23.2469 32.265 23.2658C32.3016 23.2801 32.3389 23.2926 32.375 23.3083C32.4241 23.3295 32.4715 23.3547 32.5193 23.3788C32.5534 23.3959 32.5885 23.4113 32.6219 23.4297C32.6709 23.4568 32.7178 23.4876 32.7653 23.5172C32.7957 23.5364 32.8273 23.5538 32.8571 23.5741C32.908 23.6086 32.9565 23.6473 33.0053 23.6853C33.0296 23.7042 33.0553 23.7212 33.0791 23.7409C33.1507 23.8002 33.2198 23.863 33.2862 23.9293C33.3525 23.9957 33.4153 24.0648 33.4745 24.1363C33.4958 24.1619 33.5139 24.1893 33.5342 24.2154C33.5707 24.2625 33.608 24.3092 33.6413 24.3583C33.6628 24.3899 33.6811 24.4233 33.7014 24.4556C33.7301 24.5013 33.7597 24.5465 33.7858 24.5936C33.8048 24.6282 33.8206 24.6643 33.8382 24.6997C33.8618 24.7465 33.8865 24.7928 33.9074 24.841C33.9233 24.8776 33.9359 24.9155 33.9503 24.9527C33.9691 25.0012 33.989 25.0493 34.0052 25.0986C34.0177 25.1369 34.0271 25.1762 34.0381 25.2152C34.0521 25.2649 34.0673 25.3145 34.0787 25.3651C34.0877 25.4047 34.0936 25.4454 34.101 25.4856C34.1102 25.5365 34.1206 25.5872 34.1274 25.6386C34.1326 25.68 34.1349 25.7219 34.1385 25.7635C34.1429 25.8131 34.148 25.8625 34.1499 25.9126C34.1474 25.985 34.149 26.0395 34.1513 26.0883C34.1515 26.0953 34.1522 26.1025 34.1519 26.1117C34.1298 26.8709 33.8223 27.5844 33.2863 28.1203C32.7506 28.6561 32.0374 28.9635 31.2785 28.9859C31.2179 28.9872 31.1887 28.987 31.1019 28.986C31.0463 28.9843 30.9916 28.9782 30.9366 28.9733C30.8973 28.97 30.8574 28.9689 30.8183 28.964C30.7641 28.9571 30.711 28.9458 30.6575 28.9362C30.6192 28.9292 30.5804 28.9244 30.5424 28.9161C30.4895 28.9043 30.4378 28.8881 30.3857 28.8735C30.3485 28.8631 30.3105 28.8548 30.2739 28.8429C30.2225 28.8263 30.1728 28.8054 30.1225 28.786C30.0865 28.7722 30.0496 28.7604 30.0143 28.7451C29.9648 28.7237 29.9175 28.6983 29.8694 28.6744C29.8347 28.6571 29.799 28.642 29.7651 28.6233C29.7164 28.5965 29.6699 28.5657 29.6227 28.5363C29.5913 28.5166 29.5586 28.4991 29.5279 28.4782C29.4769 28.4435 29.4283 28.4047 29.3792 28.3666C29.3545 28.3474 29.3284 28.3303 29.3041 28.3103C29.2319 28.2505 29.1623 28.1873 29.0954 28.1203C28.5595 27.5845 28.2521 26.8714 28.2296 26.1048L28.2277 26.041C28.2275 26.0239 28.2278 26.008 28.2285 25.9836L28.2298 25.9377C28.2519 25.1786 28.5591 24.4655 29.0954 23.9295C29.1617 23.8625 29.2311 23.7995 29.3028 23.7401ZM31.8859 35.2363C31.506 34.9751 31.0052 34.9715 30.6215 35.2276L28.5278 36.6252V33.2977C29.5118 33.2082 30.4254 32.7823 31.1328 32.0749C31.1527 32.055 31.1713 32.0339 31.1908 32.0138C31.2102 32.0339 31.2286 32.0548 31.2485 32.0747C31.9558 32.7821 32.8692 33.2081 33.8533 33.2977V36.5895L31.8859 35.2363ZM35.6472 30.4811C35.2726 30.8558 34.7745 31.0622 34.2447 31.0622C33.899 31.0622 33.5668 30.9743 33.2735 30.8092C33.3179 30.7899 33.3614 30.7687 33.4053 30.7482C33.432 30.7356 33.4593 30.724 33.4859 30.7109C33.532 30.6882 33.5772 30.6639 33.6228 30.6401C33.6493 30.6261 33.6763 30.6129 33.7026 30.5985C33.748 30.5735 33.7925 30.5469 33.8371 30.5206C33.8627 30.5055 33.8886 30.4914 33.9138 30.4759C33.9587 30.4483 34.0028 30.419 34.0469 30.39C34.0709 30.3742 34.0956 30.3593 34.1195 30.343C34.1648 30.3122 34.2093 30.2795 34.2537 30.2472C34.2754 30.2314 34.2977 30.2165 34.3191 30.2004C34.3652 30.1658 34.4101 30.1294 34.4552 30.0932C34.4742 30.0779 34.4939 30.0635 34.5127 30.0479C34.5606 30.0083 34.6073 29.9669 34.654 29.9253C34.6691 29.9119 34.6847 29.8992 34.6996 29.8856C34.7608 29.83 34.8209 29.7728 34.8797 29.7139C34.9384 29.6552 34.9955 29.5953 35.0511 29.5341C35.0731 29.5101 35.0937 29.4848 35.1152 29.4602C35.1481 29.4228 35.1814 29.3856 35.2131 29.3474C35.2353 29.3205 35.2562 29.2927 35.2779 29.2655C35.3073 29.2283 35.3373 29.1916 35.3656 29.1538C35.3857 29.1273 35.4043 29.0997 35.4237 29.0729C35.4523 29.0335 35.4812 28.9942 35.5085 28.9541C35.5262 28.9281 35.5424 28.9014 35.5596 28.8751C35.5873 28.8329 35.6151 28.791 35.6415 28.748C35.6566 28.7231 35.6707 28.6975 35.6856 28.6724C35.7122 28.6272 35.7392 28.5822 35.7643 28.5364C35.7777 28.512 35.79 28.4868 35.803 28.4621C35.8281 28.4148 35.8533 28.3676 35.8769 28.3195C35.8892 28.2946 35.9002 28.2692 35.9118 28.2439C35.9331 28.1988 35.9549 28.154 35.9747 28.1083C36.398 28.8637 36.2888 29.8395 35.6472 30.4811ZM34.2447 20.9869C34.7744 20.9869 35.2725 21.1932 35.6471 21.568C36.0216 21.9425 36.2281 22.4406 36.2281 22.9703C36.2281 23.316 36.1402 23.6482 35.9751 23.9413C35.9584 23.9032 35.9401 23.8658 35.9226 23.8283C35.9072 23.7947 35.8924 23.761 35.8763 23.728C35.8571 23.6888 35.8363 23.6505 35.816 23.6117C35.7986 23.5782 35.782 23.5444 35.7638 23.5114C35.743 23.4735 35.7206 23.4366 35.6988 23.3993C35.6795 23.3662 35.661 23.3328 35.6411 23.3001C35.6188 23.2639 35.5952 23.2286 35.5719 23.1929C35.5507 23.1601 35.5302 23.1269 35.5083 23.0945C35.4846 23.0597 35.4593 23.0259 35.4348 22.9917C35.4116 22.9594 35.3894 22.9266 35.3655 22.895C35.3396 22.8606 35.3122 22.8272 35.2854 22.7932C35.2612 22.7628 35.2379 22.7318 35.2131 22.7018C35.1834 22.666 35.1521 22.6313 35.1216 22.5962C35.098 22.5692 35.0753 22.5416 35.0511 22.5151C34.9955 22.454 34.9384 22.3941 34.8797 22.3353C34.8208 22.2765 34.761 22.2194 34.6997 22.1638C34.6782 22.1441 34.6557 22.1257 34.6339 22.1066C34.5938 22.0712 34.5539 22.0356 34.5129 22.0016C34.4879 21.981 34.4619 21.9617 34.4367 21.9415C34.3977 21.9105 34.3591 21.8789 34.3193 21.8492C34.2922 21.8288 34.2642 21.8099 34.2367 21.79C34.1977 21.7618 34.1593 21.7334 34.1196 21.7065C34.0913 21.6873 34.0623 21.6694 34.0336 21.6509C33.9939 21.625 33.9543 21.5984 33.9139 21.5736C33.885 21.5559 33.855 21.5396 33.8257 21.5224C33.7849 21.4985 33.7442 21.4738 33.7028 21.4511C33.6728 21.4347 33.6423 21.4196 33.612 21.4038C33.5702 21.3818 33.5286 21.3594 33.4861 21.3386C33.4562 21.3241 33.4257 21.3107 33.3954 21.2967C33.3548 21.2778 33.3145 21.258 33.2734 21.2402C33.567 21.0749 33.8991 20.9869 34.2447 20.9869ZM26.7338 21.568C27.1084 21.1934 27.6066 20.987 28.1364 20.987C28.482 20.987 28.8142 21.0748 29.1073 21.2399C29.0689 21.2567 29.0313 21.2751 28.9933 21.2928C28.9601 21.3082 28.9268 21.3227 28.894 21.3387C28.8557 21.3575 28.8182 21.3779 28.7804 21.3977C28.7461 21.4156 28.7113 21.4326 28.6774 21.4514C28.6419 21.4708 28.6074 21.4919 28.5724 21.5122C28.5369 21.5328 28.501 21.5527 28.466 21.5741C28.4327 21.5946 28.4005 21.6163 28.3677 21.6375C28.332 21.6607 28.2958 21.683 28.2605 21.707C28.2288 21.7285 28.198 21.7514 28.1668 21.7739C28.1315 21.799 28.0957 21.8234 28.0609 21.8495C28.03 21.8728 28.0001 21.8975 27.9696 21.9214C27.9356 21.9482 27.901 21.9742 27.8677 22.0019C27.8339 22.0298 27.8013 22.0594 27.7682 22.0882C27.7392 22.1133 27.7096 22.1377 27.6811 22.1638C27.6202 22.2193 27.5602 22.2764 27.5015 22.3351C27.4426 22.3939 27.3854 22.4539 27.3298 22.5151C27.3154 22.531 27.3019 22.5476 27.2876 22.5636C27.247 22.6094 27.2064 22.6551 27.1675 22.7021C27.1503 22.7227 27.1344 22.7443 27.1178 22.7651C27.0832 22.8083 27.0483 22.8512 27.0152 22.8954C26.9958 22.9213 26.9777 22.948 26.9588 22.9742C26.93 23.0143 26.9004 23.0541 26.8726 23.0949C26.853 23.1238 26.8347 23.1536 26.8156 23.1829C26.7902 23.222 26.7643 23.2607 26.74 23.3004C26.7207 23.3318 26.7028 23.3641 26.6843 23.396C26.6619 23.4343 26.639 23.4723 26.6176 23.5111C26.5988 23.5453 26.5815 23.5804 26.5633 23.6149C26.5439 23.6524 26.5238 23.6894 26.5052 23.7271C26.4875 23.7633 26.4713 23.8001 26.4545 23.8365C26.4385 23.8712 26.4216 23.9055 26.4063 23.9406C25.983 23.1852 26.0923 22.2096 26.7338 21.568Z"/>
</mask>
<path d="M25.1404 32.0747C25.4765 32.4109 25.8594 32.6827 26.2741 32.886V38.7325C26.2741 39.1482 26.503 39.5302 26.8696 39.7263C27.2362 39.9221 27.6809 39.9006 28.0267 39.6698L31.2379 37.5261L34.3416 39.6611C34.5331 39.7928 34.7563 39.8595 34.9805 39.8595C35.16 39.8595 35.3401 39.8167 35.5049 39.7301C35.8753 39.5352 36.1073 39.1512 36.1073 38.7326V32.8861C36.522 32.6829 36.905 32.4111 37.2412 32.0749C38.893 30.4229 38.893 27.7346 37.2412 26.0825C37.2213 26.0626 37.2003 26.0441 37.18 26.0246C37.2002 26.0052 37.2211 25.9867 37.241 25.9668C38.0414 25.1663 38.4821 24.1023 38.4821 22.9704C38.4821 21.8386 38.0412 20.7745 37.241 19.9744C36.4406 19.174 35.3766 18.7332 34.2448 18.7332C33.113 18.7332 32.0489 19.174 31.2484 19.9744C31.2285 19.9943 31.21 20.0152 31.1906 20.0355C31.1711 20.0152 31.1526 19.9943 31.1327 19.9744C30.3325 19.174 29.2684 18.7332 28.1365 18.7332C27.0047 18.7332 25.9406 19.174 25.1401 19.9744C23.4883 21.6264 23.4883 24.3145 25.1401 25.9668C25.16 25.9867 25.1811 26.0053 25.2014 26.0248C25.1812 26.0442 25.1603 26.0626 25.1404 26.0825C23.4883 27.7345 23.4883 30.4228 25.1404 32.0747ZM26.4064 28.1084C26.422 28.1441 26.4392 28.179 26.4556 28.2146C26.4722 28.2503 26.488 28.2863 26.5052 28.3216C26.5234 28.3586 26.543 28.3948 26.5621 28.4313C26.5805 28.4669 26.5984 28.5028 26.6177 28.5381C26.6372 28.5736 26.6582 28.6084 26.6787 28.6433C26.6991 28.6786 26.7189 28.7142 26.7403 28.7491C26.7618 28.7842 26.7847 28.8185 26.8071 28.8531C26.829 28.887 26.8502 28.9212 26.8727 28.9545C26.8967 28.9898 26.9223 29.0241 26.9472 29.0588C26.97 29.0905 26.9918 29.1228 27.0154 29.154C27.0418 29.1893 27.07 29.2236 27.0974 29.2581C27.1209 29.2878 27.1435 29.3181 27.1678 29.3473C27.1967 29.3824 27.2275 29.4163 27.2574 29.4506C27.2816 29.4784 27.305 29.5067 27.3298 29.5341C27.3853 29.595 27.4423 29.6549 27.5011 29.7137C27.5599 29.7725 27.6198 29.8298 27.681 29.8853C27.7009 29.9035 27.7217 29.9203 27.7419 29.9382C27.7836 29.975 27.8251 30.0121 27.8678 30.0475C27.8925 30.0679 27.9182 30.0869 27.9432 30.107C27.9824 30.1383 28.0213 30.17 28.0613 30.2C28.0886 30.2205 28.1168 30.2396 28.1446 30.2596C28.1833 30.2875 28.2216 30.316 28.261 30.3428C28.2899 30.3624 28.3197 30.3807 28.349 30.3997C28.3881 30.4252 28.4268 30.4511 28.4665 30.4754C28.4975 30.4944 28.5293 30.5119 28.5608 30.5303C28.5997 30.553 28.6382 30.5763 28.6776 30.598C28.7102 30.6159 28.7433 30.6321 28.7761 30.6493C28.8153 30.6698 28.8543 30.6909 28.8939 30.7103C28.9282 30.7272 28.9632 30.7424 28.9979 30.7585C29.0345 30.7754 29.0705 30.7932 29.1075 30.8092C28.8142 30.9743 28.4821 31.0622 28.1364 31.0622C27.6066 31.0622 27.1085 30.856 26.734 30.4811C26.0924 29.8395 25.9832 28.8638 26.4064 28.1084ZM29.3028 23.7401C29.3275 23.7196 29.3541 23.7019 29.3796 23.6824C29.4276 23.6451 29.4752 23.607 29.5252 23.5731C29.5572 23.5513 29.5911 23.5328 29.6239 23.5124C29.6693 23.4839 29.7141 23.4543 29.761 23.4286C29.7975 23.4084 29.8358 23.3917 29.8732 23.3731C29.9181 23.3507 29.9626 23.327 30.0085 23.3071C30.0481 23.2899 30.0892 23.2762 30.1295 23.2608C30.1751 23.2434 30.2201 23.2245 30.2666 23.2093C30.3084 23.1957 30.3516 23.1855 30.3941 23.1738C30.4405 23.1608 30.4863 23.1465 30.5334 23.1358C30.577 23.1261 30.6216 23.1198 30.6658 23.112C30.713 23.1037 30.7598 23.0938 30.8077 23.0876C30.8524 23.0817 30.8979 23.0797 30.9431 23.0759C30.9905 23.072 31.0375 23.0667 31.0853 23.0651C31.179 23.0676 31.2406 23.0681 31.3056 23.0657C31.3547 23.0677 31.4032 23.0727 31.4518 23.0769C31.494 23.0806 31.5365 23.0829 31.5784 23.0884C31.6294 23.095 31.6798 23.1053 31.7302 23.1145C31.7707 23.1219 31.8115 23.1278 31.8516 23.137C31.9023 23.1485 31.9519 23.1636 32.0017 23.1777C32.0404 23.1887 32.0795 23.1979 32.1175 23.2105C32.1675 23.2269 32.2161 23.2469 32.265 23.2658C32.3016 23.2801 32.3389 23.2926 32.375 23.3083C32.4241 23.3295 32.4715 23.3547 32.5193 23.3788C32.5534 23.3959 32.5885 23.4113 32.6219 23.4297C32.6709 23.4568 32.7178 23.4876 32.7653 23.5172C32.7957 23.5364 32.8273 23.5538 32.8571 23.5741C32.908 23.6086 32.9565 23.6473 33.0053 23.6853C33.0296 23.7042 33.0553 23.7212 33.0791 23.7409C33.1507 23.8002 33.2198 23.863 33.2862 23.9293C33.3525 23.9957 33.4153 24.0648 33.4745 24.1363C33.4958 24.1619 33.5139 24.1893 33.5342 24.2154C33.5707 24.2625 33.608 24.3092 33.6413 24.3583C33.6628 24.3899 33.6811 24.4233 33.7014 24.4556C33.7301 24.5013 33.7597 24.5465 33.7858 24.5936C33.8048 24.6282 33.8206 24.6643 33.8382 24.6997C33.8618 24.7465 33.8865 24.7928 33.9074 24.841C33.9233 24.8776 33.9359 24.9155 33.9503 24.9527C33.9691 25.0012 33.989 25.0493 34.0052 25.0986C34.0177 25.1369 34.0271 25.1762 34.0381 25.2152C34.0521 25.2649 34.0673 25.3145 34.0787 25.3651C34.0877 25.4047 34.0936 25.4454 34.101 25.4856C34.1102 25.5365 34.1206 25.5872 34.1274 25.6386C34.1326 25.68 34.1349 25.7219 34.1385 25.7635C34.1429 25.8131 34.148 25.8625 34.1499 25.9126C34.1474 25.985 34.149 26.0395 34.1513 26.0883C34.1515 26.0953 34.1522 26.1025 34.1519 26.1117C34.1298 26.8709 33.8223 27.5844 33.2863 28.1203C32.7506 28.6561 32.0374 28.9635 31.2785 28.9859C31.2179 28.9872 31.1887 28.987 31.1019 28.986C31.0463 28.9843 30.9916 28.9782 30.9366 28.9733C30.8973 28.97 30.8574 28.9689 30.8183 28.964C30.7641 28.9571 30.711 28.9458 30.6575 28.9362C30.6192 28.9292 30.5804 28.9244 30.5424 28.9161C30.4895 28.9043 30.4378 28.8881 30.3857 28.8735C30.3485 28.8631 30.3105 28.8548 30.2739 28.8429C30.2225 28.8263 30.1728 28.8054 30.1225 28.786C30.0865 28.7722 30.0496 28.7604 30.0143 28.7451C29.9648 28.7237 29.9175 28.6983 29.8694 28.6744C29.8347 28.6571 29.799 28.642 29.7651 28.6233C29.7164 28.5965 29.6699 28.5657 29.6227 28.5363C29.5913 28.5166 29.5586 28.4991 29.5279 28.4782C29.4769 28.4435 29.4283 28.4047 29.3792 28.3666C29.3545 28.3474 29.3284 28.3303 29.3041 28.3103C29.2319 28.2505 29.1623 28.1873 29.0954 28.1203C28.5595 27.5845 28.2521 26.8714 28.2296 26.1048L28.2277 26.041C28.2275 26.0239 28.2278 26.008 28.2285 25.9836L28.2298 25.9377C28.2519 25.1786 28.5591 24.4655 29.0954 23.9295C29.1617 23.8625 29.2311 23.7995 29.3028 23.7401ZM31.8859 35.2363C31.506 34.9751 31.0052 34.9715 30.6215 35.2276L28.5278 36.6252V33.2977C29.5118 33.2082 30.4254 32.7823 31.1328 32.0749C31.1527 32.055 31.1713 32.0339 31.1908 32.0138C31.2102 32.0339 31.2286 32.0548 31.2485 32.0747C31.9558 32.7821 32.8692 33.2081 33.8533 33.2977V36.5895L31.8859 35.2363ZM35.6472 30.4811C35.2726 30.8558 34.7745 31.0622 34.2447 31.0622C33.899 31.0622 33.5668 30.9743 33.2735 30.8092C33.3179 30.7899 33.3614 30.7687 33.4053 30.7482C33.432 30.7356 33.4593 30.724 33.4859 30.7109C33.532 30.6882 33.5772 30.6639 33.6228 30.6401C33.6493 30.6261 33.6763 30.6129 33.7026 30.5985C33.748 30.5735 33.7925 30.5469 33.8371 30.5206C33.8627 30.5055 33.8886 30.4914 33.9138 30.4759C33.9587 30.4483 34.0028 30.419 34.0469 30.39C34.0709 30.3742 34.0956 30.3593 34.1195 30.343C34.1648 30.3122 34.2093 30.2795 34.2537 30.2472C34.2754 30.2314 34.2977 30.2165 34.3191 30.2004C34.3652 30.1658 34.4101 30.1294 34.4552 30.0932C34.4742 30.0779 34.4939 30.0635 34.5127 30.0479C34.5606 30.0083 34.6073 29.9669 34.654 29.9253C34.6691 29.9119 34.6847 29.8992 34.6996 29.8856C34.7608 29.83 34.8209 29.7728 34.8797 29.7139C34.9384 29.6552 34.9955 29.5953 35.0511 29.5341C35.0731 29.5101 35.0937 29.4848 35.1152 29.4602C35.1481 29.4228 35.1814 29.3856 35.2131 29.3474C35.2353 29.3205 35.2562 29.2927 35.2779 29.2655C35.3073 29.2283 35.3373 29.1916 35.3656 29.1538C35.3857 29.1273 35.4043 29.0997 35.4237 29.0729C35.4523 29.0335 35.4812 28.9942 35.5085 28.9541C35.5262 28.9281 35.5424 28.9014 35.5596 28.8751C35.5873 28.8329 35.6151 28.791 35.6415 28.748C35.6566 28.7231 35.6707 28.6975 35.6856 28.6724C35.7122 28.6272 35.7392 28.5822 35.7643 28.5364C35.7777 28.512 35.79 28.4868 35.803 28.4621C35.8281 28.4148 35.8533 28.3676 35.8769 28.3195C35.8892 28.2946 35.9002 28.2692 35.9118 28.2439C35.9331 28.1988 35.9549 28.154 35.9747 28.1083C36.398 28.8637 36.2888 29.8395 35.6472 30.4811ZM34.2447 20.9869C34.7744 20.9869 35.2725 21.1932 35.6471 21.568C36.0216 21.9425 36.2281 22.4406 36.2281 22.9703C36.2281 23.316 36.1402 23.6482 35.9751 23.9413C35.9584 23.9032 35.9401 23.8658 35.9226 23.8283C35.9072 23.7947 35.8924 23.761 35.8763 23.728C35.8571 23.6888 35.8363 23.6505 35.816 23.6117C35.7986 23.5782 35.782 23.5444 35.7638 23.5114C35.743 23.4735 35.7206 23.4366 35.6988 23.3993C35.6795 23.3662 35.661 23.3328 35.6411 23.3001C35.6188 23.2639 35.5952 23.2286 35.5719 23.1929C35.5507 23.1601 35.5302 23.1269 35.5083 23.0945C35.4846 23.0597 35.4593 23.0259 35.4348 22.9917C35.4116 22.9594 35.3894 22.9266 35.3655 22.895C35.3396 22.8606 35.3122 22.8272 35.2854 22.7932C35.2612 22.7628 35.2379 22.7318 35.2131 22.7018C35.1834 22.666 35.1521 22.6313 35.1216 22.5962C35.098 22.5692 35.0753 22.5416 35.0511 22.5151C34.9955 22.454 34.9384 22.3941 34.8797 22.3353C34.8208 22.2765 34.761 22.2194 34.6997 22.1638C34.6782 22.1441 34.6557 22.1257 34.6339 22.1066C34.5938 22.0712 34.5539 22.0356 34.5129 22.0016C34.4879 21.981 34.4619 21.9617 34.4367 21.9415C34.3977 21.9105 34.3591 21.8789 34.3193 21.8492C34.2922 21.8288 34.2642 21.8099 34.2367 21.79C34.1977 21.7618 34.1593 21.7334 34.1196 21.7065C34.0913 21.6873 34.0623 21.6694 34.0336 21.6509C33.9939 21.625 33.9543 21.5984 33.9139 21.5736C33.885 21.5559 33.855 21.5396 33.8257 21.5224C33.7849 21.4985 33.7442 21.4738 33.7028 21.4511C33.6728 21.4347 33.6423 21.4196 33.612 21.4038C33.5702 21.3818 33.5286 21.3594 33.4861 21.3386C33.4562 21.3241 33.4257 21.3107 33.3954 21.2967C33.3548 21.2778 33.3145 21.258 33.2734 21.2402C33.567 21.0749 33.8991 20.9869 34.2447 20.9869ZM26.7338 21.568C27.1084 21.1934 27.6066 20.987 28.1364 20.987C28.482 20.987 28.8142 21.0748 29.1073 21.2399C29.0689 21.2567 29.0313 21.2751 28.9933 21.2928C28.9601 21.3082 28.9268 21.3227 28.894 21.3387C28.8557 21.3575 28.8182 21.3779 28.7804 21.3977C28.7461 21.4156 28.7113 21.4326 28.6774 21.4514C28.6419 21.4708 28.6074 21.4919 28.5724 21.5122C28.5369 21.5328 28.501 21.5527 28.466 21.5741C28.4327 21.5946 28.4005 21.6163 28.3677 21.6375C28.332 21.6607 28.2958 21.683 28.2605 21.707C28.2288 21.7285 28.198 21.7514 28.1668 21.7739C28.1315 21.799 28.0957 21.8234 28.0609 21.8495C28.03 21.8728 28.0001 21.8975 27.9696 21.9214C27.9356 21.9482 27.901 21.9742 27.8677 22.0019C27.8339 22.0298 27.8013 22.0594 27.7682 22.0882C27.7392 22.1133 27.7096 22.1377 27.6811 22.1638C27.6202 22.2193 27.5602 22.2764 27.5015 22.3351C27.4426 22.3939 27.3854 22.4539 27.3298 22.5151C27.3154 22.531 27.3019 22.5476 27.2876 22.5636C27.247 22.6094 27.2064 22.6551 27.1675 22.7021C27.1503 22.7227 27.1344 22.7443 27.1178 22.7651C27.0832 22.8083 27.0483 22.8512 27.0152 22.8954C26.9958 22.9213 26.9777 22.948 26.9588 22.9742C26.93 23.0143 26.9004 23.0541 26.8726 23.0949C26.853 23.1238 26.8347 23.1536 26.8156 23.1829C26.7902 23.222 26.7643 23.2607 26.74 23.3004C26.7207 23.3318 26.7028 23.3641 26.6843 23.396C26.6619 23.4343 26.639 23.4723 26.6176 23.5111C26.5988 23.5453 26.5815 23.5804 26.5633 23.6149C26.5439 23.6524 26.5238 23.6894 26.5052 23.7271C26.4875 23.7633 26.4713 23.8001 26.4545 23.8365C26.4385 23.8712 26.4216 23.9055 26.4063 23.9406C25.983 23.1852 26.0923 22.2096 26.7338 21.568Z" fill="#31439E" stroke="white" stroke-width="0.6" mask="url(#path-2-inside-1)"/>
<path d="M34.0572 9.93297C34.0572 10.4726 33.6199 10.9099 33.0803 10.9099H16.1761C15.6365 10.9099 15.1992 10.4726 15.1992 9.93297C15.1992 9.39337 15.6365 8.95603 16.1761 8.95603H33.0803C33.6199 8.95603 34.0572 9.39337 34.0572 9.93297Z" fill="#31439E" stroke="white" stroke-width="0.3"/>
<path d="M10.4343 16.4194C9.89471 16.4194 9.45737 15.9821 9.45737 15.4425C9.45737 14.9029 9.89471 14.4655 10.4343 14.4655H38.8221C39.3617 14.4655 39.7991 14.9029 39.7991 15.4425C39.7991 15.9821 39.3617 16.4194 38.8221 16.4194H10.4343Z" fill="#31439E" stroke="white" stroke-width="0.3"/>
</svg>
