<svg width="20" height="10" viewBox="0 0 20 10" fill="none" xmlns="http://www.w3.org/2000/svg">
<path d="M19.2206 4.61079L15.81 1.09985C15.4647 0.744385 14.9033 0.744385 14.558 1.09985C14.2127 1.45532 14.2127 2.03319 14.558 2.38866L16.4599 4.34647H0.885417C0.396667 4.34647 0 4.7548 0 5.25793C0 5.76105 0.396667 6.16939 0.885417 6.16939H16.4599L14.4287 8.26027C14.0834 8.61574 14.0834 9.1936 14.4287 9.54907C14.7741 9.90454 15.3354 9.90454 15.6807 9.54907L19.2206 5.90506C19.3942 5.72642 19.4792 5.49308 19.4792 5.25793C19.4792 5.02277 19.3942 4.78944 19.2206 4.61079Z" fill="white"/>
</svg>
